<?xml version="1.0" encoding="utf-8" standalone="no"?>
<!DOCTYPE svg PUBLIC "-//W3C//DTD SVG 1.1//EN"
  "http://www.w3.org/Graphics/SVG/1.1/DTD/svg11.dtd">
<svg xmlns:xlink="http://www.w3.org/1999/xlink" width="705.6pt" height="403.2pt" viewBox="0 0 705.6 403.2" xmlns="http://www.w3.org/2000/svg" version="1.1">
 <metadata>
  <rdf:RDF xmlns:dc="http://purl.org/dc/elements/1.1/" xmlns:cc="http://creativecommons.org/ns#" xmlns:rdf="http://www.w3.org/1999/02/22-rdf-syntax-ns#">
   <cc:Work>
    <dc:type rdf:resource="http://purl.org/dc/dcmitype/StillImage"/>
    <dc:date>2026-07-13T19:19:12.935452</dc:date>
    <dc:format>image/svg+xml</dc:format>
    <dc:creator>
     <cc:Agent>
      <dc:title>Matplotlib v3.10.8, https://matplotlib.org/</dc:title>
     </cc:Agent>
    </dc:creator>
   </cc:Work>
  </rdf:RDF>
 </metadata>
 <defs>
  <style type="text/css">*{stroke-linejoin: round; stroke-linecap: butt}</style>
 </defs>
 <g id="figure_1">
  <g id="patch_1">
   <path d="M 0 403.2 
L 705.6 403.2 
L 705.6 0 
L 0 0 
z
" style="fill: #fbfaf7"/>
  </g>
  <g id="axes_1">
   <g id="patch_2">
    <path d="M 56.431081 357.64 
L 694.8 357.64 
L 694.8 47.76 
L 56.431081 47.76 
z
" style="fill: #fbfaf7"/>
   </g>
   <g id="matplotlib.axis_1">
    <g id="xtick_1">
     <g id="line2d_1">
      <path d="M 85.44785 357.64 
L 85.44785 47.76 
" clip-path="url(#p85eee95375)" style="fill: none; stroke: #e7e5df; stroke-width: 0.8; stroke-linecap: square"/>
     </g>
     <g id="line2d_2">
      <defs>
       <path id="ma24cb110d5" d="M 0 0 
L 0 3.5 
" style="stroke: #1f2933; stroke-width: 0.8"/>
      </defs>
      <g>
       <use xlink:href="#ma24cb110d5" x="85.44785" y="357.64" style="fill: #1f2933; stroke: #1f2933; stroke-width: 0.8"/>
      </g>
     </g>
     <g id="text_1">
      <!-- 3 -->
      <g style="fill: #1f2933" transform="translate(81.63035 373.758125) scale(0.12 -0.12)">
       <defs>
        <path id="DejaVuSans-33" d="M 2597 2516 
Q 3050 2419 3304 2112 
Q 3559 1806 3559 1356 
Q 3559 666 3084 287 
Q 2609 -91 1734 -91 
Q 1441 -91 1130 -33 
Q 819 25 488 141 
L 488 750 
Q 750 597 1062 519 
Q 1375 441 1716 441 
Q 2309 441 2620 675 
Q 2931 909 2931 1356 
Q 2931 1769 2642 2001 
Q 2353 2234 1838 2234 
L 1294 2234 
L 1294 2753 
L 1863 2753 
Q 2328 2753 2575 2939 
Q 2822 3125 2822 3475 
Q 2822 3834 2567 4026 
Q 2313 4219 1838 4219 
Q 1578 4219 1281 4162 
Q 984 4106 628 3988 
L 628 4550 
Q 988 4650 1302 4700 
Q 1616 4750 1894 4750 
Q 2613 4750 3031 4423 
Q 3450 4097 3450 3541 
Q 3450 3153 3228 2886 
Q 3006 2619 2597 2516 
z
" transform="scale(0.015625)"/>
       </defs>
       <use xlink:href="#DejaVuSans-33"/>
      </g>
     </g>
    </g>
    <g id="xtick_2">
     <g id="line2d_3">
      <path d="M 168.352904 357.64 
L 168.352904 47.76 
" clip-path="url(#p85eee95375)" style="fill: none; stroke: #e7e5df; stroke-width: 0.8; stroke-linecap: square"/>
     </g>
     <g id="line2d_4">
      <g>
       <use xlink:href="#ma24cb110d5" x="168.352904" y="357.64" style="fill: #1f2933; stroke: #1f2933; stroke-width: 0.8"/>
      </g>
     </g>
     <g id="text_2">
      <!-- 6 -->
      <g style="fill: #1f2933" transform="translate(164.535404 373.758125) scale(0.12 -0.12)">
       <defs>
        <path id="DejaVuSans-36" d="M 2113 2584 
Q 1688 2584 1439 2293 
Q 1191 2003 1191 1497 
Q 1191 994 1439 701 
Q 1688 409 2113 409 
Q 2538 409 2786 701 
Q 3034 994 3034 1497 
Q 3034 2003 2786 2293 
Q 2538 2584 2113 2584 
z
M 3366 4563 
L 3366 3988 
Q 3128 4100 2886 4159 
Q 2644 4219 2406 4219 
Q 1781 4219 1451 3797 
Q 1122 3375 1075 2522 
Q 1259 2794 1537 2939 
Q 1816 3084 2150 3084 
Q 2853 3084 3261 2657 
Q 3669 2231 3669 1497 
Q 3669 778 3244 343 
Q 2819 -91 2113 -91 
Q 1303 -91 875 529 
Q 447 1150 447 2328 
Q 447 3434 972 4092 
Q 1497 4750 2381 4750 
Q 2619 4750 2861 4703 
Q 3103 4656 3366 4563 
z
" transform="scale(0.015625)"/>
       </defs>
       <use xlink:href="#DejaVuSans-36"/>
      </g>
     </g>
    </g>
    <g id="xtick_3">
     <g id="line2d_5">
      <path d="M 251.257959 357.64 
L 251.257959 47.76 
" clip-path="url(#p85eee95375)" style="fill: none; stroke: #e7e5df; stroke-width: 0.8; stroke-linecap: square"/>
     </g>
     <g id="line2d_6">
      <g>
       <use xlink:href="#ma24cb110d5" x="251.257959" y="357.64" style="fill: #1f2933; stroke: #1f2933; stroke-width: 0.8"/>
      </g>
     </g>
     <g id="text_3">
      <!-- 9 -->
      <g style="fill: #1f2933" transform="translate(247.440459 373.758125) scale(0.12 -0.12)">
       <defs>
        <path id="DejaVuSans-39" d="M 703 97 
L 703 672 
Q 941 559 1184 500 
Q 1428 441 1663 441 
Q 2288 441 2617 861 
Q 2947 1281 2994 2138 
Q 2813 1869 2534 1725 
Q 2256 1581 1919 1581 
Q 1219 1581 811 2004 
Q 403 2428 403 3163 
Q 403 3881 828 4315 
Q 1253 4750 1959 4750 
Q 2769 4750 3195 4129 
Q 3622 3509 3622 2328 
Q 3622 1225 3098 567 
Q 2575 -91 1691 -91 
Q 1453 -91 1209 -44 
Q 966 3 703 97 
z
M 1959 2075 
Q 2384 2075 2632 2365 
Q 2881 2656 2881 3163 
Q 2881 3666 2632 3958 
Q 2384 4250 1959 4250 
Q 1534 4250 1286 3958 
Q 1038 3666 1038 3163 
Q 1038 2656 1286 2365 
Q 1534 2075 1959 2075 
z
" transform="scale(0.015625)"/>
       </defs>
       <use xlink:href="#DejaVuSans-39"/>
      </g>
     </g>
    </g>
    <g id="xtick_4">
     <g id="line2d_7">
      <path d="M 334.163013 357.64 
L 334.163013 47.76 
" clip-path="url(#p85eee95375)" style="fill: none; stroke: #e7e5df; stroke-width: 0.8; stroke-linecap: square"/>
     </g>
     <g id="line2d_8">
      <g>
       <use xlink:href="#ma24cb110d5" x="334.163013" y="357.64" style="fill: #1f2933; stroke: #1f2933; stroke-width: 0.8"/>
      </g>
     </g>
     <g id="text_4">
      <!-- 12 -->
      <g style="fill: #1f2933" transform="translate(326.528013 373.758125) scale(0.12 -0.12)">
       <defs>
        <path id="DejaVuSans-31" d="M 794 531 
L 1825 531 
L 1825 4091 
L 703 3866 
L 703 4441 
L 1819 4666 
L 2450 4666 
L 2450 531 
L 3481 531 
L 3481 0 
L 794 0 
L 794 531 
z
" transform="scale(0.015625)"/>
        <path id="DejaVuSans-32" d="M 1228 531 
L 3431 531 
L 3431 0 
L 469 0 
L 469 531 
Q 828 903 1448 1529 
Q 2069 2156 2228 2338 
Q 2531 2678 2651 2914 
Q 2772 3150 2772 3378 
Q 2772 3750 2511 3984 
Q 2250 4219 1831 4219 
Q 1534 4219 1204 4116 
Q 875 4013 500 3803 
L 500 4441 
Q 881 4594 1212 4672 
Q 1544 4750 1819 4750 
Q 2544 4750 2975 4387 
Q 3406 4025 3406 3419 
Q 3406 3131 3298 2873 
Q 3191 2616 2906 2266 
Q 2828 2175 2409 1742 
Q 1991 1309 1228 531 
z
" transform="scale(0.015625)"/>
       </defs>
       <use xlink:href="#DejaVuSans-31"/>
       <use xlink:href="#DejaVuSans-32" transform="translate(63.623047 0)"/>
      </g>
     </g>
    </g>
    <g id="xtick_5">
     <g id="line2d_9">
      <path d="M 417.068068 357.64 
L 417.068068 47.76 
" clip-path="url(#p85eee95375)" style="fill: none; stroke: #e7e5df; stroke-width: 0.8; stroke-linecap: square"/>
     </g>
     <g id="line2d_10">
      <g>
       <use xlink:href="#ma24cb110d5" x="417.068068" y="357.64" style="fill: #1f2933; stroke: #1f2933; stroke-width: 0.8"/>
      </g>
     </g>
     <g id="text_5">
      <!-- 15 -->
      <g style="fill: #1f2933" transform="translate(409.433068 373.758125) scale(0.12 -0.12)">
       <defs>
        <path id="DejaVuSans-35" d="M 691 4666 
L 3169 4666 
L 3169 4134 
L 1269 4134 
L 1269 2991 
Q 1406 3038 1543 3061 
Q 1681 3084 1819 3084 
Q 2600 3084 3056 2656 
Q 3513 2228 3513 1497 
Q 3513 744 3044 326 
Q 2575 -91 1722 -91 
Q 1428 -91 1123 -41 
Q 819 9 494 109 
L 494 744 
Q 775 591 1075 516 
Q 1375 441 1709 441 
Q 2250 441 2565 725 
Q 2881 1009 2881 1497 
Q 2881 1984 2565 2268 
Q 2250 2553 1709 2553 
Q 1456 2553 1204 2497 
Q 953 2441 691 2322 
L 691 4666 
z
" transform="scale(0.015625)"/>
       </defs>
       <use xlink:href="#DejaVuSans-31"/>
       <use xlink:href="#DejaVuSans-35" transform="translate(63.623047 0)"/>
      </g>
     </g>
    </g>
    <g id="xtick_6">
     <g id="line2d_11">
      <path d="M 499.973122 357.64 
L 499.973122 47.76 
" clip-path="url(#p85eee95375)" style="fill: none; stroke: #e7e5df; stroke-width: 0.8; stroke-linecap: square"/>
     </g>
     <g id="line2d_12">
      <g>
       <use xlink:href="#ma24cb110d5" x="499.973122" y="357.64" style="fill: #1f2933; stroke: #1f2933; stroke-width: 0.8"/>
      </g>
     </g>
     <g id="text_6">
      <!-- 18 -->
      <g style="fill: #1f2933" transform="translate(492.338122 373.758125) scale(0.12 -0.12)">
       <defs>
        <path id="DejaVuSans-38" d="M 2034 2216 
Q 1584 2216 1326 1975 
Q 1069 1734 1069 1313 
Q 1069 891 1326 650 
Q 1584 409 2034 409 
Q 2484 409 2743 651 
Q 3003 894 3003 1313 
Q 3003 1734 2745 1975 
Q 2488 2216 2034 2216 
z
M 1403 2484 
Q 997 2584 770 2862 
Q 544 3141 544 3541 
Q 544 4100 942 4425 
Q 1341 4750 2034 4750 
Q 2731 4750 3128 4425 
Q 3525 4100 3525 3541 
Q 3525 3141 3298 2862 
Q 3072 2584 2669 2484 
Q 3125 2378 3379 2068 
Q 3634 1759 3634 1313 
Q 3634 634 3220 271 
Q 2806 -91 2034 -91 
Q 1263 -91 848 271 
Q 434 634 434 1313 
Q 434 1759 690 2068 
Q 947 2378 1403 2484 
z
M 1172 3481 
Q 1172 3119 1398 2916 
Q 1625 2713 2034 2713 
Q 2441 2713 2670 2916 
Q 2900 3119 2900 3481 
Q 2900 3844 2670 4047 
Q 2441 4250 2034 4250 
Q 1625 4250 1398 4047 
Q 1172 3844 1172 3481 
z
" transform="scale(0.015625)"/>
       </defs>
       <use xlink:href="#DejaVuSans-31"/>
       <use xlink:href="#DejaVuSans-38" transform="translate(63.623047 0)"/>
      </g>
     </g>
    </g>
    <g id="xtick_7">
     <g id="line2d_13">
      <path d="M 582.878176 357.64 
L 582.878176 47.76 
" clip-path="url(#p85eee95375)" style="fill: none; stroke: #e7e5df; stroke-width: 0.8; stroke-linecap: square"/>
     </g>
     <g id="line2d_14">
      <g>
       <use xlink:href="#ma24cb110d5" x="582.878176" y="357.64" style="fill: #1f2933; stroke: #1f2933; stroke-width: 0.8"/>
      </g>
     </g>
     <g id="text_7">
      <!-- 21 -->
      <g style="fill: #1f2933" transform="translate(575.243176 373.758125) scale(0.12 -0.12)">
       <use xlink:href="#DejaVuSans-32"/>
       <use xlink:href="#DejaVuSans-31" transform="translate(63.623047 0)"/>
      </g>
     </g>
    </g>
    <g id="xtick_8">
     <g id="line2d_15">
      <path d="M 665.783231 357.64 
L 665.783231 47.76 
" clip-path="url(#p85eee95375)" style="fill: none; stroke: #e7e5df; stroke-width: 0.8; stroke-linecap: square"/>
     </g>
     <g id="line2d_16">
      <g>
       <use xlink:href="#ma24cb110d5" x="665.783231" y="357.64" style="fill: #1f2933; stroke: #1f2933; stroke-width: 0.8"/>
      </g>
     </g>
     <g id="text_8">
      <!-- 24 -->
      <g style="fill: #1f2933" transform="translate(658.148231 373.758125) scale(0.12 -0.12)">
       <defs>
        <path id="DejaVuSans-34" d="M 2419 4116 
L 825 1625 
L 2419 1625 
L 2419 4116 
z
M 2253 4666 
L 3047 4666 
L 3047 1625 
L 3713 1625 
L 3713 1100 
L 3047 1100 
L 3047 0 
L 2419 0 
L 2419 1100 
L 313 1100 
L 313 1709 
L 2253 4666 
z
" transform="scale(0.015625)"/>
       </defs>
       <use xlink:href="#DejaVuSans-32"/>
       <use xlink:href="#DejaVuSans-34" transform="translate(63.623047 0)"/>
      </g>
     </g>
    </g>
    <g id="text_9">
     <!-- dimension n -->
     <g style="fill: #6b7280" transform="translate(337.292298 389.751797) scale(0.125 -0.125)">
      <defs>
       <path id="DejaVuSans-64" d="M 2906 2969 
L 2906 4863 
L 3481 4863 
L 3481 0 
L 2906 0 
L 2906 525 
Q 2725 213 2448 61 
Q 2172 -91 1784 -91 
Q 1150 -91 751 415 
Q 353 922 353 1747 
Q 353 2572 751 3078 
Q 1150 3584 1784 3584 
Q 2172 3584 2448 3432 
Q 2725 3281 2906 2969 
z
M 947 1747 
Q 947 1113 1208 752 
Q 1469 391 1925 391 
Q 2381 391 2643 752 
Q 2906 1113 2906 1747 
Q 2906 2381 2643 2742 
Q 2381 3103 1925 3103 
Q 1469 3103 1208 2742 
Q 947 2381 947 1747 
z
" transform="scale(0.015625)"/>
       <path id="DejaVuSans-69" d="M 603 3500 
L 1178 3500 
L 1178 0 
L 603 0 
L 603 3500 
z
M 603 4863 
L 1178 4863 
L 1178 4134 
L 603 4134 
L 603 4863 
z
" transform="scale(0.015625)"/>
       <path id="DejaVuSans-6d" d="M 3328 2828 
Q 3544 3216 3844 3400 
Q 4144 3584 4550 3584 
Q 5097 3584 5394 3201 
Q 5691 2819 5691 2113 
L 5691 0 
L 5113 0 
L 5113 2094 
Q 5113 2597 4934 2840 
Q 4756 3084 4391 3084 
Q 3944 3084 3684 2787 
Q 3425 2491 3425 1978 
L 3425 0 
L 2847 0 
L 2847 2094 
Q 2847 2600 2669 2842 
Q 2491 3084 2119 3084 
Q 1678 3084 1418 2786 
Q 1159 2488 1159 1978 
L 1159 0 
L 581 0 
L 581 3500 
L 1159 3500 
L 1159 2956 
Q 1356 3278 1631 3431 
Q 1906 3584 2284 3584 
Q 2666 3584 2933 3390 
Q 3200 3197 3328 2828 
z
" transform="scale(0.015625)"/>
       <path id="DejaVuSans-65" d="M 3597 1894 
L 3597 1613 
L 953 1613 
Q 991 1019 1311 708 
Q 1631 397 2203 397 
Q 2534 397 2845 478 
Q 3156 559 3463 722 
L 3463 178 
Q 3153 47 2828 -22 
Q 2503 -91 2169 -91 
Q 1331 -91 842 396 
Q 353 884 353 1716 
Q 353 2575 817 3079 
Q 1281 3584 2069 3584 
Q 2775 3584 3186 3129 
Q 3597 2675 3597 1894 
z
M 3022 2063 
Q 3016 2534 2758 2815 
Q 2500 3097 2075 3097 
Q 1594 3097 1305 2825 
Q 1016 2553 972 2059 
L 3022 2063 
z
" transform="scale(0.015625)"/>
       <path id="DejaVuSans-6e" d="M 3513 2113 
L 3513 0 
L 2938 0 
L 2938 2094 
Q 2938 2591 2744 2837 
Q 2550 3084 2163 3084 
Q 1697 3084 1428 2787 
Q 1159 2491 1159 1978 
L 1159 0 
L 581 0 
L 581 3500 
L 1159 3500 
L 1159 2956 
Q 1366 3272 1645 3428 
Q 1925 3584 2291 3584 
Q 2894 3584 3203 3211 
Q 3513 2838 3513 2113 
z
" transform="scale(0.015625)"/>
       <path id="DejaVuSans-73" d="M 2834 3397 
L 2834 2853 
Q 2591 2978 2328 3040 
Q 2066 3103 1784 3103 
Q 1356 3103 1142 2972 
Q 928 2841 928 2578 
Q 928 2378 1081 2264 
Q 1234 2150 1697 2047 
L 1894 2003 
Q 2506 1872 2764 1633 
Q 3022 1394 3022 966 
Q 3022 478 2636 193 
Q 2250 -91 1575 -91 
Q 1294 -91 989 -36 
Q 684 19 347 128 
L 347 722 
Q 666 556 975 473 
Q 1284 391 1588 391 
Q 1994 391 2212 530 
Q 2431 669 2431 922 
Q 2431 1156 2273 1281 
Q 2116 1406 1581 1522 
L 1381 1569 
Q 847 1681 609 1914 
Q 372 2147 372 2553 
Q 372 3047 722 3315 
Q 1072 3584 1716 3584 
Q 2034 3584 2315 3537 
Q 2597 3491 2834 3397 
z
" transform="scale(0.015625)"/>
       <path id="DejaVuSans-6f" d="M 1959 3097 
Q 1497 3097 1228 2736 
Q 959 2375 959 1747 
Q 959 1119 1226 758 
Q 1494 397 1959 397 
Q 2419 397 2687 759 
Q 2956 1122 2956 1747 
Q 2956 2369 2687 2733 
Q 2419 3097 1959 3097 
z
M 1959 3584 
Q 2709 3584 3137 3096 
Q 3566 2609 3566 1747 
Q 3566 888 3137 398 
Q 2709 -91 1959 -91 
Q 1206 -91 779 398 
Q 353 888 353 1747 
Q 353 2609 779 3096 
Q 1206 3584 1959 3584 
z
" transform="scale(0.015625)"/>
       <path id="DejaVuSans-20" transform="scale(0.015625)"/>
      </defs>
      <use xlink:href="#DejaVuSans-64"/>
      <use xlink:href="#DejaVuSans-69" transform="translate(63.476562 0)"/>
      <use xlink:href="#DejaVuSans-6d" transform="translate(91.259766 0)"/>
      <use xlink:href="#DejaVuSans-65" transform="translate(188.671875 0)"/>
      <use xlink:href="#DejaVuSans-6e" transform="translate(250.195312 0)"/>
      <use xlink:href="#DejaVuSans-73" transform="translate(313.574219 0)"/>
      <use xlink:href="#DejaVuSans-69" transform="translate(365.673828 0)"/>
      <use xlink:href="#DejaVuSans-6f" transform="translate(393.457031 0)"/>
      <use xlink:href="#DejaVuSans-6e" transform="translate(454.638672 0)"/>
      <use xlink:href="#DejaVuSans-20" transform="translate(518.017578 0)"/>
      <use xlink:href="#DejaVuSans-6e" transform="translate(549.804688 0)"/>
     </g>
    </g>
   </g>
   <g id="matplotlib.axis_2">
    <g id="ytick_1">
     <g id="line2d_17">
      <path d="M 56.431081 330.559428 
L 694.8 330.559428 
" clip-path="url(#p85eee95375)" style="fill: none; stroke: #e7e5df; stroke-width: 0.8; stroke-linecap: square"/>
     </g>
     <g id="line2d_18">
      <defs>
       <path id="md40c488371" d="M 0 0 
L -3.5 0 
" style="stroke: #1f2933; stroke-width: 0.8"/>
      </defs>
      <g>
       <use xlink:href="#md40c488371" x="56.431081" y="330.559428" style="fill: #1f2933; stroke: #1f2933; stroke-width: 0.8"/>
      </g>
     </g>
     <g id="text_10">
      <!-- $\mathdefault{10^{1}}$ -->
      <g style="fill: #1f2933" transform="translate(28.311081 335.11849) scale(0.12 -0.12)">
       <defs>
        <path id="DejaVuSans-30" d="M 2034 4250 
Q 1547 4250 1301 3770 
Q 1056 3291 1056 2328 
Q 1056 1369 1301 889 
Q 1547 409 2034 409 
Q 2525 409 2770 889 
Q 3016 1369 3016 2328 
Q 3016 3291 2770 3770 
Q 2525 4250 2034 4250 
z
M 2034 4750 
Q 2819 4750 3233 4129 
Q 3647 3509 3647 2328 
Q 3647 1150 3233 529 
Q 2819 -91 2034 -91 
Q 1250 -91 836 529 
Q 422 1150 422 2328 
Q 422 3509 836 4129 
Q 1250 4750 2034 4750 
z
" transform="scale(0.015625)"/>
       </defs>
       <use xlink:href="#DejaVuSans-31" transform="translate(0 0.684375)"/>
       <use xlink:href="#DejaVuSans-30" transform="translate(63.623047 0.684375)"/>
       <use xlink:href="#DejaVuSans-31" transform="translate(128.203125 38.965625) scale(0.7)"/>
      </g>
     </g>
    </g>
    <g id="ytick_2">
     <g id="line2d_19">
      <path d="M 56.431081 287.390582 
L 694.8 287.390582 
" clip-path="url(#p85eee95375)" style="fill: none; stroke: #e7e5df; stroke-width: 0.8; stroke-linecap: square"/>
     </g>
     <g id="line2d_20">
      <g>
       <use xlink:href="#md40c488371" x="56.431081" y="287.390582" style="fill: #1f2933; stroke: #1f2933; stroke-width: 0.8"/>
      </g>
     </g>
     <g id="text_11">
      <!-- $\mathdefault{10^{2}}$ -->
      <g style="fill: #1f2933" transform="translate(28.311081 291.949644) scale(0.12 -0.12)">
       <use xlink:href="#DejaVuSans-31" transform="translate(0 0.765625)"/>
       <use xlink:href="#DejaVuSans-30" transform="translate(63.623047 0.765625)"/>
       <use xlink:href="#DejaVuSans-32" transform="translate(128.203125 39.046875) scale(0.7)"/>
      </g>
     </g>
    </g>
    <g id="ytick_3">
     <g id="line2d_21">
      <path d="M 56.431081 244.221736 
L 694.8 244.221736 
" clip-path="url(#p85eee95375)" style="fill: none; stroke: #e7e5df; stroke-width: 0.8; stroke-linecap: square"/>
     </g>
     <g id="line2d_22">
      <g>
       <use xlink:href="#md40c488371" x="56.431081" y="244.221736" style="fill: #1f2933; stroke: #1f2933; stroke-width: 0.8"/>
      </g>
     </g>
     <g id="text_12">
      <!-- $\mathdefault{10^{3}}$ -->
      <g style="fill: #1f2933" transform="translate(28.311081 248.780798) scale(0.12 -0.12)">
       <use xlink:href="#DejaVuSans-31" transform="translate(0 0.765625)"/>
       <use xlink:href="#DejaVuSans-30" transform="translate(63.623047 0.765625)"/>
       <use xlink:href="#DejaVuSans-33" transform="translate(128.203125 39.046875) scale(0.7)"/>
      </g>
     </g>
    </g>
    <g id="ytick_4">
     <g id="line2d_23">
      <path d="M 56.431081 201.05289 
L 694.8 201.05289 
" clip-path="url(#p85eee95375)" style="fill: none; stroke: #e7e5df; stroke-width: 0.8; stroke-linecap: square"/>
     </g>
     <g id="line2d_24">
      <g>
       <use xlink:href="#md40c488371" x="56.431081" y="201.05289" style="fill: #1f2933; stroke: #1f2933; stroke-width: 0.8"/>
      </g>
     </g>
     <g id="text_13">
      <!-- $\mathdefault{10^{4}}$ -->
      <g style="fill: #1f2933" transform="translate(28.311081 205.611952) scale(0.12 -0.12)">
       <use xlink:href="#DejaVuSans-31" transform="translate(0 0.684375)"/>
       <use xlink:href="#DejaVuSans-30" transform="translate(63.623047 0.684375)"/>
       <use xlink:href="#DejaVuSans-34" transform="translate(128.203125 38.965625) scale(0.7)"/>
      </g>
     </g>
    </g>
    <g id="ytick_5">
     <g id="line2d_25">
      <path d="M 56.431081 157.884044 
L 694.8 157.884044 
" clip-path="url(#p85eee95375)" style="fill: none; stroke: #e7e5df; stroke-width: 0.8; stroke-linecap: square"/>
     </g>
     <g id="line2d_26">
      <g>
       <use xlink:href="#md40c488371" x="56.431081" y="157.884044" style="fill: #1f2933; stroke: #1f2933; stroke-width: 0.8"/>
      </g>
     </g>
     <g id="text_14">
      <!-- $\mathdefault{10^{5}}$ -->
      <g style="fill: #1f2933" transform="translate(28.311081 162.443106) scale(0.12 -0.12)">
       <use xlink:href="#DejaVuSans-31" transform="translate(0 0.684375)"/>
       <use xlink:href="#DejaVuSans-30" transform="translate(63.623047 0.684375)"/>
       <use xlink:href="#DejaVuSans-35" transform="translate(128.203125 38.965625) scale(0.7)"/>
      </g>
     </g>
    </g>
    <g id="ytick_6">
     <g id="line2d_27">
      <path d="M 56.431081 114.715198 
L 694.8 114.715198 
" clip-path="url(#p85eee95375)" style="fill: none; stroke: #e7e5df; stroke-width: 0.8; stroke-linecap: square"/>
     </g>
     <g id="line2d_28">
      <g>
       <use xlink:href="#md40c488371" x="56.431081" y="114.715198" style="fill: #1f2933; stroke: #1f2933; stroke-width: 0.8"/>
      </g>
     </g>
     <g id="text_15">
      <!-- $\mathdefault{10^{6}}$ -->
      <g style="fill: #1f2933" transform="translate(28.311081 119.27426) scale(0.12 -0.12)">
       <use xlink:href="#DejaVuSans-31" transform="translate(0 0.765625)"/>
       <use xlink:href="#DejaVuSans-30" transform="translate(63.623047 0.765625)"/>
       <use xlink:href="#DejaVuSans-36" transform="translate(128.203125 39.046875) scale(0.7)"/>
      </g>
     </g>
    </g>
    <g id="ytick_7">
     <g id="line2d_29">
      <path d="M 56.431081 71.546352 
L 694.8 71.546352 
" clip-path="url(#p85eee95375)" style="fill: none; stroke: #e7e5df; stroke-width: 0.8; stroke-linecap: square"/>
     </g>
     <g id="line2d_30">
      <g>
       <use xlink:href="#md40c488371" x="56.431081" y="71.546352" style="fill: #1f2933; stroke: #1f2933; stroke-width: 0.8"/>
      </g>
     </g>
     <g id="text_16">
      <!-- $\mathdefault{10^{7}}$ -->
      <g style="fill: #1f2933" transform="translate(28.311081 76.105415) scale(0.12 -0.12)">
       <defs>
        <path id="DejaVuSans-37" d="M 525 4666 
L 3525 4666 
L 3525 4397 
L 1831 0 
L 1172 0 
L 2766 4134 
L 525 4134 
L 525 4666 
z
" transform="scale(0.015625)"/>
       </defs>
       <use xlink:href="#DejaVuSans-31" transform="translate(0 0.684375)"/>
       <use xlink:href="#DejaVuSans-30" transform="translate(63.623047 0.684375)"/>
       <use xlink:href="#DejaVuSans-37" transform="translate(128.203125 38.965625) scale(0.7)"/>
      </g>
     </g>
    </g>
    <g id="ytick_8">
     <g id="line2d_31">
      <path d="M 56.431081 353.1315 
L 694.8 353.1315 
" clip-path="url(#p85eee95375)" style="fill: none; stroke: #e7e5df; stroke-width: 0.8; stroke-linecap: square"/>
     </g>
     <g id="line2d_32">
      <defs>
       <path id="m33d70b4bdf" d="M 0 0 
L -2 0 
" style="stroke: #000000; stroke-width: 0.6"/>
      </defs>
      <g>
       <use xlink:href="#m33d70b4bdf" x="56.431081" y="353.1315" style="stroke: #000000; stroke-width: 0.6"/>
      </g>
     </g>
    </g>
    <g id="ytick_9">
     <g id="line2d_33">
      <path d="M 56.431081 347.738039 
L 694.8 347.738039 
" clip-path="url(#p85eee95375)" style="fill: none; stroke: #e7e5df; stroke-width: 0.8; stroke-linecap: square"/>
     </g>
     <g id="line2d_34">
      <g>
       <use xlink:href="#m33d70b4bdf" x="56.431081" y="347.738039" style="stroke: #000000; stroke-width: 0.6"/>
      </g>
     </g>
    </g>
    <g id="ytick_10">
     <g id="line2d_35">
      <path d="M 56.431081 343.554545 
L 694.8 343.554545 
" clip-path="url(#p85eee95375)" style="fill: none; stroke: #e7e5df; stroke-width: 0.8; stroke-linecap: square"/>
     </g>
     <g id="line2d_36">
      <g>
       <use xlink:href="#m33d70b4bdf" x="56.431081" y="343.554545" style="stroke: #000000; stroke-width: 0.6"/>
      </g>
     </g>
    </g>
    <g id="ytick_11">
     <g id="line2d_37">
      <path d="M 56.431081 340.136382 
L 694.8 340.136382 
" clip-path="url(#p85eee95375)" style="fill: none; stroke: #e7e5df; stroke-width: 0.8; stroke-linecap: square"/>
     </g>
     <g id="line2d_38">
      <g>
       <use xlink:href="#m33d70b4bdf" x="56.431081" y="340.136382" style="stroke: #000000; stroke-width: 0.6"/>
      </g>
     </g>
    </g>
    <g id="ytick_12">
     <g id="line2d_39">
      <path d="M 56.431081 337.246367 
L 694.8 337.246367 
" clip-path="url(#p85eee95375)" style="fill: none; stroke: #e7e5df; stroke-width: 0.8; stroke-linecap: square"/>
     </g>
     <g id="line2d_40">
      <g>
       <use xlink:href="#m33d70b4bdf" x="56.431081" y="337.246367" style="stroke: #000000; stroke-width: 0.6"/>
      </g>
     </g>
    </g>
    <g id="ytick_13">
     <g id="line2d_41">
      <path d="M 56.431081 334.742921 
L 694.8 334.742921 
" clip-path="url(#p85eee95375)" style="fill: none; stroke: #e7e5df; stroke-width: 0.8; stroke-linecap: square"/>
     </g>
     <g id="line2d_42">
      <g>
       <use xlink:href="#m33d70b4bdf" x="56.431081" y="334.742921" style="stroke: #000000; stroke-width: 0.6"/>
      </g>
     </g>
    </g>
    <g id="ytick_14">
     <g id="line2d_43">
      <path d="M 56.431081 332.534726 
L 694.8 332.534726 
" clip-path="url(#p85eee95375)" style="fill: none; stroke: #e7e5df; stroke-width: 0.8; stroke-linecap: square"/>
     </g>
     <g id="line2d_44">
      <g>
       <use xlink:href="#m33d70b4bdf" x="56.431081" y="332.534726" style="stroke: #000000; stroke-width: 0.6"/>
      </g>
     </g>
    </g>
    <g id="ytick_15">
     <g id="line2d_45">
      <path d="M 56.431081 317.56431 
L 694.8 317.56431 
" clip-path="url(#p85eee95375)" style="fill: none; stroke: #e7e5df; stroke-width: 0.8; stroke-linecap: square"/>
     </g>
     <g id="line2d_46">
      <g>
       <use xlink:href="#m33d70b4bdf" x="56.431081" y="317.56431" style="stroke: #000000; stroke-width: 0.6"/>
      </g>
     </g>
    </g>
    <g id="ytick_16">
     <g id="line2d_47">
      <path d="M 56.431081 309.962654 
L 694.8 309.962654 
" clip-path="url(#p85eee95375)" style="fill: none; stroke: #e7e5df; stroke-width: 0.8; stroke-linecap: square"/>
     </g>
     <g id="line2d_48">
      <g>
       <use xlink:href="#m33d70b4bdf" x="56.431081" y="309.962654" style="stroke: #000000; stroke-width: 0.6"/>
      </g>
     </g>
    </g>
    <g id="ytick_17">
     <g id="line2d_49">
      <path d="M 56.431081 304.569193 
L 694.8 304.569193 
" clip-path="url(#p85eee95375)" style="fill: none; stroke: #e7e5df; stroke-width: 0.8; stroke-linecap: square"/>
     </g>
     <g id="line2d_50">
      <g>
       <use xlink:href="#m33d70b4bdf" x="56.431081" y="304.569193" style="stroke: #000000; stroke-width: 0.6"/>
      </g>
     </g>
    </g>
    <g id="ytick_18">
     <g id="line2d_51">
      <path d="M 56.431081 300.385699 
L 694.8 300.385699 
" clip-path="url(#p85eee95375)" style="fill: none; stroke: #e7e5df; stroke-width: 0.8; stroke-linecap: square"/>
     </g>
     <g id="line2d_52">
      <g>
       <use xlink:href="#m33d70b4bdf" x="56.431081" y="300.385699" style="stroke: #000000; stroke-width: 0.6"/>
      </g>
     </g>
    </g>
    <g id="ytick_19">
     <g id="line2d_53">
      <path d="M 56.431081 296.967536 
L 694.8 296.967536 
" clip-path="url(#p85eee95375)" style="fill: none; stroke: #e7e5df; stroke-width: 0.8; stroke-linecap: square"/>
     </g>
     <g id="line2d_54">
      <g>
       <use xlink:href="#m33d70b4bdf" x="56.431081" y="296.967536" style="stroke: #000000; stroke-width: 0.6"/>
      </g>
     </g>
    </g>
    <g id="ytick_20">
     <g id="line2d_55">
      <path d="M 56.431081 294.077521 
L 694.8 294.077521 
" clip-path="url(#p85eee95375)" style="fill: none; stroke: #e7e5df; stroke-width: 0.8; stroke-linecap: square"/>
     </g>
     <g id="line2d_56">
      <g>
       <use xlink:href="#m33d70b4bdf" x="56.431081" y="294.077521" style="stroke: #000000; stroke-width: 0.6"/>
      </g>
     </g>
    </g>
    <g id="ytick_21">
     <g id="line2d_57">
      <path d="M 56.431081 291.574075 
L 694.8 291.574075 
" clip-path="url(#p85eee95375)" style="fill: none; stroke: #e7e5df; stroke-width: 0.8; stroke-linecap: square"/>
     </g>
     <g id="line2d_58">
      <g>
       <use xlink:href="#m33d70b4bdf" x="56.431081" y="291.574075" style="stroke: #000000; stroke-width: 0.6"/>
      </g>
     </g>
    </g>
    <g id="ytick_22">
     <g id="line2d_59">
      <path d="M 56.431081 289.36588 
L 694.8 289.36588 
" clip-path="url(#p85eee95375)" style="fill: none; stroke: #e7e5df; stroke-width: 0.8; stroke-linecap: square"/>
     </g>
     <g id="line2d_60">
      <g>
       <use xlink:href="#m33d70b4bdf" x="56.431081" y="289.36588" style="stroke: #000000; stroke-width: 0.6"/>
      </g>
     </g>
    </g>
    <g id="ytick_23">
     <g id="line2d_61">
      <path d="M 56.431081 274.395464 
L 694.8 274.395464 
" clip-path="url(#p85eee95375)" style="fill: none; stroke: #e7e5df; stroke-width: 0.8; stroke-linecap: square"/>
     </g>
     <g id="line2d_62">
      <g>
       <use xlink:href="#m33d70b4bdf" x="56.431081" y="274.395464" style="stroke: #000000; stroke-width: 0.6"/>
      </g>
     </g>
    </g>
    <g id="ytick_24">
     <g id="line2d_63">
      <path d="M 56.431081 266.793808 
L 694.8 266.793808 
" clip-path="url(#p85eee95375)" style="fill: none; stroke: #e7e5df; stroke-width: 0.8; stroke-linecap: square"/>
     </g>
     <g id="line2d_64">
      <g>
       <use xlink:href="#m33d70b4bdf" x="56.431081" y="266.793808" style="stroke: #000000; stroke-width: 0.6"/>
      </g>
     </g>
    </g>
    <g id="ytick_25">
     <g id="line2d_65">
      <path d="M 56.431081 261.400347 
L 694.8 261.400347 
" clip-path="url(#p85eee95375)" style="fill: none; stroke: #e7e5df; stroke-width: 0.8; stroke-linecap: square"/>
     </g>
     <g id="line2d_66">
      <g>
       <use xlink:href="#m33d70b4bdf" x="56.431081" y="261.400347" style="stroke: #000000; stroke-width: 0.6"/>
      </g>
     </g>
    </g>
    <g id="ytick_26">
     <g id="line2d_67">
      <path d="M 56.431081 257.216853 
L 694.8 257.216853 
" clip-path="url(#p85eee95375)" style="fill: none; stroke: #e7e5df; stroke-width: 0.8; stroke-linecap: square"/>
     </g>
     <g id="line2d_68">
      <g>
       <use xlink:href="#m33d70b4bdf" x="56.431081" y="257.216853" style="stroke: #000000; stroke-width: 0.6"/>
      </g>
     </g>
    </g>
    <g id="ytick_27">
     <g id="line2d_69">
      <path d="M 56.431081 253.79869 
L 694.8 253.79869 
" clip-path="url(#p85eee95375)" style="fill: none; stroke: #e7e5df; stroke-width: 0.8; stroke-linecap: square"/>
     </g>
     <g id="line2d_70">
      <g>
       <use xlink:href="#m33d70b4bdf" x="56.431081" y="253.79869" style="stroke: #000000; stroke-width: 0.6"/>
      </g>
     </g>
    </g>
    <g id="ytick_28">
     <g id="line2d_71">
      <path d="M 56.431081 250.908675 
L 694.8 250.908675 
" clip-path="url(#p85eee95375)" style="fill: none; stroke: #e7e5df; stroke-width: 0.8; stroke-linecap: square"/>
     </g>
     <g id="line2d_72">
      <g>
       <use xlink:href="#m33d70b4bdf" x="56.431081" y="250.908675" style="stroke: #000000; stroke-width: 0.6"/>
      </g>
     </g>
    </g>
    <g id="ytick_29">
     <g id="line2d_73">
      <path d="M 56.431081 248.405229 
L 694.8 248.405229 
" clip-path="url(#p85eee95375)" style="fill: none; stroke: #e7e5df; stroke-width: 0.8; stroke-linecap: square"/>
     </g>
     <g id="line2d_74">
      <g>
       <use xlink:href="#m33d70b4bdf" x="56.431081" y="248.405229" style="stroke: #000000; stroke-width: 0.6"/>
      </g>
     </g>
    </g>
    <g id="ytick_30">
     <g id="line2d_75">
      <path d="M 56.431081 246.197034 
L 694.8 246.197034 
" clip-path="url(#p85eee95375)" style="fill: none; stroke: #e7e5df; stroke-width: 0.8; stroke-linecap: square"/>
     </g>
     <g id="line2d_76">
      <g>
       <use xlink:href="#m33d70b4bdf" x="56.431081" y="246.197034" style="stroke: #000000; stroke-width: 0.6"/>
      </g>
     </g>
    </g>
    <g id="ytick_31">
     <g id="line2d_77">
      <path d="M 56.431081 231.226618 
L 694.8 231.226618 
" clip-path="url(#p85eee95375)" style="fill: none; stroke: #e7e5df; stroke-width: 0.8; stroke-linecap: square"/>
     </g>
     <g id="line2d_78">
      <g>
       <use xlink:href="#m33d70b4bdf" x="56.431081" y="231.226618" style="stroke: #000000; stroke-width: 0.6"/>
      </g>
     </g>
    </g>
    <g id="ytick_32">
     <g id="line2d_79">
      <path d="M 56.431081 223.624962 
L 694.8 223.624962 
" clip-path="url(#p85eee95375)" style="fill: none; stroke: #e7e5df; stroke-width: 0.8; stroke-linecap: square"/>
     </g>
     <g id="line2d_80">
      <g>
       <use xlink:href="#m33d70b4bdf" x="56.431081" y="223.624962" style="stroke: #000000; stroke-width: 0.6"/>
      </g>
     </g>
    </g>
    <g id="ytick_33">
     <g id="line2d_81">
      <path d="M 56.431081 218.231501 
L 694.8 218.231501 
" clip-path="url(#p85eee95375)" style="fill: none; stroke: #e7e5df; stroke-width: 0.8; stroke-linecap: square"/>
     </g>
     <g id="line2d_82">
      <g>
       <use xlink:href="#m33d70b4bdf" x="56.431081" y="218.231501" style="stroke: #000000; stroke-width: 0.6"/>
      </g>
     </g>
    </g>
    <g id="ytick_34">
     <g id="line2d_83">
      <path d="M 56.431081 214.048007 
L 694.8 214.048007 
" clip-path="url(#p85eee95375)" style="fill: none; stroke: #e7e5df; stroke-width: 0.8; stroke-linecap: square"/>
     </g>
     <g id="line2d_84">
      <g>
       <use xlink:href="#m33d70b4bdf" x="56.431081" y="214.048007" style="stroke: #000000; stroke-width: 0.6"/>
      </g>
     </g>
    </g>
    <g id="ytick_35">
     <g id="line2d_85">
      <path d="M 56.431081 210.629844 
L 694.8 210.629844 
" clip-path="url(#p85eee95375)" style="fill: none; stroke: #e7e5df; stroke-width: 0.8; stroke-linecap: square"/>
     </g>
     <g id="line2d_86">
      <g>
       <use xlink:href="#m33d70b4bdf" x="56.431081" y="210.629844" style="stroke: #000000; stroke-width: 0.6"/>
      </g>
     </g>
    </g>
    <g id="ytick_36">
     <g id="line2d_87">
      <path d="M 56.431081 207.739829 
L 694.8 207.739829 
" clip-path="url(#p85eee95375)" style="fill: none; stroke: #e7e5df; stroke-width: 0.8; stroke-linecap: square"/>
     </g>
     <g id="line2d_88">
      <g>
       <use xlink:href="#m33d70b4bdf" x="56.431081" y="207.739829" style="stroke: #000000; stroke-width: 0.6"/>
      </g>
     </g>
    </g>
    <g id="ytick_37">
     <g id="line2d_89">
      <path d="M 56.431081 205.236383 
L 694.8 205.236383 
" clip-path="url(#p85eee95375)" style="fill: none; stroke: #e7e5df; stroke-width: 0.8; stroke-linecap: square"/>
     </g>
     <g id="line2d_90">
      <g>
       <use xlink:href="#m33d70b4bdf" x="56.431081" y="205.236383" style="stroke: #000000; stroke-width: 0.6"/>
      </g>
     </g>
    </g>
    <g id="ytick_38">
     <g id="line2d_91">
      <path d="M 56.431081 203.028188 
L 694.8 203.028188 
" clip-path="url(#p85eee95375)" style="fill: none; stroke: #e7e5df; stroke-width: 0.8; stroke-linecap: square"/>
     </g>
     <g id="line2d_92">
      <g>
       <use xlink:href="#m33d70b4bdf" x="56.431081" y="203.028188" style="stroke: #000000; stroke-width: 0.6"/>
      </g>
     </g>
    </g>
    <g id="ytick_39">
     <g id="line2d_93">
      <path d="M 56.431081 188.057772 
L 694.8 188.057772 
" clip-path="url(#p85eee95375)" style="fill: none; stroke: #e7e5df; stroke-width: 0.8; stroke-linecap: square"/>
     </g>
     <g id="line2d_94">
      <g>
       <use xlink:href="#m33d70b4bdf" x="56.431081" y="188.057772" style="stroke: #000000; stroke-width: 0.6"/>
      </g>
     </g>
    </g>
    <g id="ytick_40">
     <g id="line2d_95">
      <path d="M 56.431081 180.456116 
L 694.8 180.456116 
" clip-path="url(#p85eee95375)" style="fill: none; stroke: #e7e5df; stroke-width: 0.8; stroke-linecap: square"/>
     </g>
     <g id="line2d_96">
      <g>
       <use xlink:href="#m33d70b4bdf" x="56.431081" y="180.456116" style="stroke: #000000; stroke-width: 0.6"/>
      </g>
     </g>
    </g>
    <g id="ytick_41">
     <g id="line2d_97">
      <path d="M 56.431081 175.062655 
L 694.8 175.062655 
" clip-path="url(#p85eee95375)" style="fill: none; stroke: #e7e5df; stroke-width: 0.8; stroke-linecap: square"/>
     </g>
     <g id="line2d_98">
      <g>
       <use xlink:href="#m33d70b4bdf" x="56.431081" y="175.062655" style="stroke: #000000; stroke-width: 0.6"/>
      </g>
     </g>
    </g>
    <g id="ytick_42">
     <g id="line2d_99">
      <path d="M 56.431081 170.879162 
L 694.8 170.879162 
" clip-path="url(#p85eee95375)" style="fill: none; stroke: #e7e5df; stroke-width: 0.8; stroke-linecap: square"/>
     </g>
     <g id="line2d_100">
      <g>
       <use xlink:href="#m33d70b4bdf" x="56.431081" y="170.879162" style="stroke: #000000; stroke-width: 0.6"/>
      </g>
     </g>
    </g>
    <g id="ytick_43">
     <g id="line2d_101">
      <path d="M 56.431081 167.460998 
L 694.8 167.460998 
" clip-path="url(#p85eee95375)" style="fill: none; stroke: #e7e5df; stroke-width: 0.8; stroke-linecap: square"/>
     </g>
     <g id="line2d_102">
      <g>
       <use xlink:href="#m33d70b4bdf" x="56.431081" y="167.460998" style="stroke: #000000; stroke-width: 0.6"/>
      </g>
     </g>
    </g>
    <g id="ytick_44">
     <g id="line2d_103">
      <path d="M 56.431081 164.570983 
L 694.8 164.570983 
" clip-path="url(#p85eee95375)" style="fill: none; stroke: #e7e5df; stroke-width: 0.8; stroke-linecap: square"/>
     </g>
     <g id="line2d_104">
      <g>
       <use xlink:href="#m33d70b4bdf" x="56.431081" y="164.570983" style="stroke: #000000; stroke-width: 0.6"/>
      </g>
     </g>
    </g>
    <g id="ytick_45">
     <g id="line2d_105">
      <path d="M 56.431081 162.067537 
L 694.8 162.067537 
" clip-path="url(#p85eee95375)" style="fill: none; stroke: #e7e5df; stroke-width: 0.8; stroke-linecap: square"/>
     </g>
     <g id="line2d_106">
      <g>
       <use xlink:href="#m33d70b4bdf" x="56.431081" y="162.067537" style="stroke: #000000; stroke-width: 0.6"/>
      </g>
     </g>
    </g>
    <g id="ytick_46">
     <g id="line2d_107">
      <path d="M 56.431081 159.859342 
L 694.8 159.859342 
" clip-path="url(#p85eee95375)" style="fill: none; stroke: #e7e5df; stroke-width: 0.8; stroke-linecap: square"/>
     </g>
     <g id="line2d_108">
      <g>
       <use xlink:href="#m33d70b4bdf" x="56.431081" y="159.859342" style="stroke: #000000; stroke-width: 0.6"/>
      </g>
     </g>
    </g>
    <g id="ytick_47">
     <g id="line2d_109">
      <path d="M 56.431081 144.888926 
L 694.8 144.888926 
" clip-path="url(#p85eee95375)" style="fill: none; stroke: #e7e5df; stroke-width: 0.8; stroke-linecap: square"/>
     </g>
     <g id="line2d_110">
      <g>
       <use xlink:href="#m33d70b4bdf" x="56.431081" y="144.888926" style="stroke: #000000; stroke-width: 0.6"/>
      </g>
     </g>
    </g>
    <g id="ytick_48">
     <g id="line2d_111">
      <path d="M 56.431081 137.28727 
L 694.8 137.28727 
" clip-path="url(#p85eee95375)" style="fill: none; stroke: #e7e5df; stroke-width: 0.8; stroke-linecap: square"/>
     </g>
     <g id="line2d_112">
      <g>
       <use xlink:href="#m33d70b4bdf" x="56.431081" y="137.28727" style="stroke: #000000; stroke-width: 0.6"/>
      </g>
     </g>
    </g>
    <g id="ytick_49">
     <g id="line2d_113">
      <path d="M 56.431081 131.893809 
L 694.8 131.893809 
" clip-path="url(#p85eee95375)" style="fill: none; stroke: #e7e5df; stroke-width: 0.8; stroke-linecap: square"/>
     </g>
     <g id="line2d_114">
      <g>
       <use xlink:href="#m33d70b4bdf" x="56.431081" y="131.893809" style="stroke: #000000; stroke-width: 0.6"/>
      </g>
     </g>
    </g>
    <g id="ytick_50">
     <g id="line2d_115">
      <path d="M 56.431081 127.710316 
L 694.8 127.710316 
" clip-path="url(#p85eee95375)" style="fill: none; stroke: #e7e5df; stroke-width: 0.8; stroke-linecap: square"/>
     </g>
     <g id="line2d_116">
      <g>
       <use xlink:href="#m33d70b4bdf" x="56.431081" y="127.710316" style="stroke: #000000; stroke-width: 0.6"/>
      </g>
     </g>
    </g>
    <g id="ytick_51">
     <g id="line2d_117">
      <path d="M 56.431081 124.292152 
L 694.8 124.292152 
" clip-path="url(#p85eee95375)" style="fill: none; stroke: #e7e5df; stroke-width: 0.8; stroke-linecap: square"/>
     </g>
     <g id="line2d_118">
      <g>
       <use xlink:href="#m33d70b4bdf" x="56.431081" y="124.292152" style="stroke: #000000; stroke-width: 0.6"/>
      </g>
     </g>
    </g>
    <g id="ytick_52">
     <g id="line2d_119">
      <path d="M 56.431081 121.402137 
L 694.8 121.402137 
" clip-path="url(#p85eee95375)" style="fill: none; stroke: #e7e5df; stroke-width: 0.8; stroke-linecap: square"/>
     </g>
     <g id="line2d_120">
      <g>
       <use xlink:href="#m33d70b4bdf" x="56.431081" y="121.402137" style="stroke: #000000; stroke-width: 0.6"/>
      </g>
     </g>
    </g>
    <g id="ytick_53">
     <g id="line2d_121">
      <path d="M 56.431081 118.898691 
L 694.8 118.898691 
" clip-path="url(#p85eee95375)" style="fill: none; stroke: #e7e5df; stroke-width: 0.8; stroke-linecap: square"/>
     </g>
     <g id="line2d_122">
      <g>
       <use xlink:href="#m33d70b4bdf" x="56.431081" y="118.898691" style="stroke: #000000; stroke-width: 0.6"/>
      </g>
     </g>
    </g>
    <g id="ytick_54">
     <g id="line2d_123">
      <path d="M 56.431081 116.690496 
L 694.8 116.690496 
" clip-path="url(#p85eee95375)" style="fill: none; stroke: #e7e5df; stroke-width: 0.8; stroke-linecap: square"/>
     </g>
     <g id="line2d_124">
      <g>
       <use xlink:href="#m33d70b4bdf" x="56.431081" y="116.690496" style="stroke: #000000; stroke-width: 0.6"/>
      </g>
     </g>
    </g>
    <g id="ytick_55">
     <g id="line2d_125">
      <path d="M 56.431081 101.72008 
L 694.8 101.72008 
" clip-path="url(#p85eee95375)" style="fill: none; stroke: #e7e5df; stroke-width: 0.8; stroke-linecap: square"/>
     </g>
     <g id="line2d_126">
      <g>
       <use xlink:href="#m33d70b4bdf" x="56.431081" y="101.72008" style="stroke: #000000; stroke-width: 0.6"/>
      </g>
     </g>
    </g>
    <g id="ytick_56">
     <g id="line2d_127">
      <path d="M 56.431081 94.118424 
L 694.8 94.118424 
" clip-path="url(#p85eee95375)" style="fill: none; stroke: #e7e5df; stroke-width: 0.8; stroke-linecap: square"/>
     </g>
     <g id="line2d_128">
      <g>
       <use xlink:href="#m33d70b4bdf" x="56.431081" y="94.118424" style="stroke: #000000; stroke-width: 0.6"/>
      </g>
     </g>
    </g>
    <g id="ytick_57">
     <g id="line2d_129">
      <path d="M 56.431081 88.724963 
L 694.8 88.724963 
" clip-path="url(#p85eee95375)" style="fill: none; stroke: #e7e5df; stroke-width: 0.8; stroke-linecap: square"/>
     </g>
     <g id="line2d_130">
      <g>
       <use xlink:href="#m33d70b4bdf" x="56.431081" y="88.724963" style="stroke: #000000; stroke-width: 0.6"/>
      </g>
     </g>
    </g>
    <g id="ytick_58">
     <g id="line2d_131">
      <path d="M 56.431081 84.54147 
L 694.8 84.54147 
" clip-path="url(#p85eee95375)" style="fill: none; stroke: #e7e5df; stroke-width: 0.8; stroke-linecap: square"/>
     </g>
     <g id="line2d_132">
      <g>
       <use xlink:href="#m33d70b4bdf" x="56.431081" y="84.54147" style="stroke: #000000; stroke-width: 0.6"/>
      </g>
     </g>
    </g>
    <g id="ytick_59">
     <g id="line2d_133">
      <path d="M 56.431081 81.123307 
L 694.8 81.123307 
" clip-path="url(#p85eee95375)" style="fill: none; stroke: #e7e5df; stroke-width: 0.8; stroke-linecap: square"/>
     </g>
     <g id="line2d_134">
      <g>
       <use xlink:href="#m33d70b4bdf" x="56.431081" y="81.123307" style="stroke: #000000; stroke-width: 0.6"/>
      </g>
     </g>
    </g>
    <g id="ytick_60">
     <g id="line2d_135">
      <path d="M 56.431081 78.233291 
L 694.8 78.233291 
" clip-path="url(#p85eee95375)" style="fill: none; stroke: #e7e5df; stroke-width: 0.8; stroke-linecap: square"/>
     </g>
     <g id="line2d_136">
      <g>
       <use xlink:href="#m33d70b4bdf" x="56.431081" y="78.233291" style="stroke: #000000; stroke-width: 0.6"/>
      </g>
     </g>
    </g>
    <g id="ytick_61">
     <g id="line2d_137">
      <path d="M 56.431081 75.729845 
L 694.8 75.729845 
" clip-path="url(#p85eee95375)" style="fill: none; stroke: #e7e5df; stroke-width: 0.8; stroke-linecap: square"/>
     </g>
     <g id="line2d_138">
      <g>
       <use xlink:href="#m33d70b4bdf" x="56.431081" y="75.729845" style="stroke: #000000; stroke-width: 0.6"/>
      </g>
     </g>
    </g>
    <g id="ytick_62">
     <g id="line2d_139">
      <path d="M 56.431081 73.52165 
L 694.8 73.52165 
" clip-path="url(#p85eee95375)" style="fill: none; stroke: #e7e5df; stroke-width: 0.8; stroke-linecap: square"/>
     </g>
     <g id="line2d_140">
      <g>
       <use xlink:href="#m33d70b4bdf" x="56.431081" y="73.52165" style="stroke: #000000; stroke-width: 0.6"/>
      </g>
     </g>
    </g>
    <g id="ytick_63">
     <g id="line2d_141">
      <path d="M 56.431081 58.551234 
L 694.8 58.551234 
" clip-path="url(#p85eee95375)" style="fill: none; stroke: #e7e5df; stroke-width: 0.8; stroke-linecap: square"/>
     </g>
     <g id="line2d_142">
      <g>
       <use xlink:href="#m33d70b4bdf" x="56.431081" y="58.551234" style="stroke: #000000; stroke-width: 0.6"/>
      </g>
     </g>
    </g>
    <g id="ytick_64">
     <g id="line2d_143">
      <path d="M 56.431081 50.949578 
L 694.8 50.949578 
" clip-path="url(#p85eee95375)" style="fill: none; stroke: #e7e5df; stroke-width: 0.8; stroke-linecap: square"/>
     </g>
     <g id="line2d_144">
      <g>
       <use xlink:href="#m33d70b4bdf" x="56.431081" y="50.949578" style="stroke: #000000; stroke-width: 0.6"/>
      </g>
     </g>
    </g>
    <g id="text_17">
     <!-- pivots to optimum (log scale) -->
     <g style="fill: #6b7280" transform="translate(21.711471 294.47832) rotate(-90) scale(0.125 -0.125)">
      <defs>
       <path id="DejaVuSans-70" d="M 1159 525 
L 1159 -1331 
L 581 -1331 
L 581 3500 
L 1159 3500 
L 1159 2969 
Q 1341 3281 1617 3432 
Q 1894 3584 2278 3584 
Q 2916 3584 3314 3078 
Q 3713 2572 3713 1747 
Q 3713 922 3314 415 
Q 2916 -91 2278 -91 
Q 1894 -91 1617 61 
Q 1341 213 1159 525 
z
M 3116 1747 
Q 3116 2381 2855 2742 
Q 2594 3103 2138 3103 
Q 1681 3103 1420 2742 
Q 1159 2381 1159 1747 
Q 1159 1113 1420 752 
Q 1681 391 2138 391 
Q 2594 391 2855 752 
Q 3116 1113 3116 1747 
z
" transform="scale(0.015625)"/>
       <path id="DejaVuSans-76" d="M 191 3500 
L 800 3500 
L 1894 563 
L 2988 3500 
L 3597 3500 
L 2284 0 
L 1503 0 
L 191 3500 
z
" transform="scale(0.015625)"/>
       <path id="DejaVuSans-74" d="M 1172 4494 
L 1172 3500 
L 2356 3500 
L 2356 3053 
L 1172 3053 
L 1172 1153 
Q 1172 725 1289 603 
Q 1406 481 1766 481 
L 2356 481 
L 2356 0 
L 1766 0 
Q 1100 0 847 248 
Q 594 497 594 1153 
L 594 3053 
L 172 3053 
L 172 3500 
L 594 3500 
L 594 4494 
L 1172 4494 
z
" transform="scale(0.015625)"/>
       <path id="DejaVuSans-75" d="M 544 1381 
L 544 3500 
L 1119 3500 
L 1119 1403 
Q 1119 906 1312 657 
Q 1506 409 1894 409 
Q 2359 409 2629 706 
Q 2900 1003 2900 1516 
L 2900 3500 
L 3475 3500 
L 3475 0 
L 2900 0 
L 2900 538 
Q 2691 219 2414 64 
Q 2138 -91 1772 -91 
Q 1169 -91 856 284 
Q 544 659 544 1381 
z
M 1991 3584 
L 1991 3584 
z
" transform="scale(0.015625)"/>
       <path id="DejaVuSans-28" d="M 1984 4856 
Q 1566 4138 1362 3434 
Q 1159 2731 1159 2009 
Q 1159 1288 1364 580 
Q 1569 -128 1984 -844 
L 1484 -844 
Q 1016 -109 783 600 
Q 550 1309 550 2009 
Q 550 2706 781 3412 
Q 1013 4119 1484 4856 
L 1984 4856 
z
" transform="scale(0.015625)"/>
       <path id="DejaVuSans-6c" d="M 603 4863 
L 1178 4863 
L 1178 0 
L 603 0 
L 603 4863 
z
" transform="scale(0.015625)"/>
       <path id="DejaVuSans-67" d="M 2906 1791 
Q 2906 2416 2648 2759 
Q 2391 3103 1925 3103 
Q 1463 3103 1205 2759 
Q 947 2416 947 1791 
Q 947 1169 1205 825 
Q 1463 481 1925 481 
Q 2391 481 2648 825 
Q 2906 1169 2906 1791 
z
M 3481 434 
Q 3481 -459 3084 -895 
Q 2688 -1331 1869 -1331 
Q 1566 -1331 1297 -1286 
Q 1028 -1241 775 -1147 
L 775 -588 
Q 1028 -725 1275 -790 
Q 1522 -856 1778 -856 
Q 2344 -856 2625 -561 
Q 2906 -266 2906 331 
L 2906 616 
Q 2728 306 2450 153 
Q 2172 0 1784 0 
Q 1141 0 747 490 
Q 353 981 353 1791 
Q 353 2603 747 3093 
Q 1141 3584 1784 3584 
Q 2172 3584 2450 3431 
Q 2728 3278 2906 2969 
L 2906 3500 
L 3481 3500 
L 3481 434 
z
" transform="scale(0.015625)"/>
       <path id="DejaVuSans-63" d="M 3122 3366 
L 3122 2828 
Q 2878 2963 2633 3030 
Q 2388 3097 2138 3097 
Q 1578 3097 1268 2742 
Q 959 2388 959 1747 
Q 959 1106 1268 751 
Q 1578 397 2138 397 
Q 2388 397 2633 464 
Q 2878 531 3122 666 
L 3122 134 
Q 2881 22 2623 -34 
Q 2366 -91 2075 -91 
Q 1284 -91 818 406 
Q 353 903 353 1747 
Q 353 2603 823 3093 
Q 1294 3584 2113 3584 
Q 2378 3584 2631 3529 
Q 2884 3475 3122 3366 
z
" transform="scale(0.015625)"/>
       <path id="DejaVuSans-61" d="M 2194 1759 
Q 1497 1759 1228 1600 
Q 959 1441 959 1056 
Q 959 750 1161 570 
Q 1363 391 1709 391 
Q 2188 391 2477 730 
Q 2766 1069 2766 1631 
L 2766 1759 
L 2194 1759 
z
M 3341 1997 
L 3341 0 
L 2766 0 
L 2766 531 
Q 2569 213 2275 61 
Q 1981 -91 1556 -91 
Q 1019 -91 701 211 
Q 384 513 384 1019 
Q 384 1609 779 1909 
Q 1175 2209 1959 2209 
L 2766 2209 
L 2766 2266 
Q 2766 2663 2505 2880 
Q 2244 3097 1772 3097 
Q 1472 3097 1187 3025 
Q 903 2953 641 2809 
L 641 3341 
Q 956 3463 1253 3523 
Q 1550 3584 1831 3584 
Q 2591 3584 2966 3190 
Q 3341 2797 3341 1997 
z
" transform="scale(0.015625)"/>
       <path id="DejaVuSans-29" d="M 513 4856 
L 1013 4856 
Q 1481 4119 1714 3412 
Q 1947 2706 1947 2009 
Q 1947 1309 1714 600 
Q 1481 -109 1013 -844 
L 513 -844 
Q 928 -128 1133 580 
Q 1338 1288 1338 2009 
Q 1338 2731 1133 3434 
Q 928 4138 513 4856 
z
" transform="scale(0.015625)"/>
      </defs>
      <use xlink:href="#DejaVuSans-70"/>
      <use xlink:href="#DejaVuSans-69" transform="translate(63.476562 0)"/>
      <use xlink:href="#DejaVuSans-76" transform="translate(91.259766 0)"/>
      <use xlink:href="#DejaVuSans-6f" transform="translate(150.439453 0)"/>
      <use xlink:href="#DejaVuSans-74" transform="translate(211.621094 0)"/>
      <use xlink:href="#DejaVuSans-73" transform="translate(250.830078 0)"/>
      <use xlink:href="#DejaVuSans-20" transform="translate(302.929688 0)"/>
      <use xlink:href="#DejaVuSans-74" transform="translate(334.716797 0)"/>
      <use xlink:href="#DejaVuSans-6f" transform="translate(373.925781 0)"/>
      <use xlink:href="#DejaVuSans-20" transform="translate(435.107422 0)"/>
      <use xlink:href="#DejaVuSans-6f" transform="translate(466.894531 0)"/>
      <use xlink:href="#DejaVuSans-70" transform="translate(528.076172 0)"/>
      <use xlink:href="#DejaVuSans-74" transform="translate(591.552734 0)"/>
      <use xlink:href="#DejaVuSans-69" transform="translate(630.761719 0)"/>
      <use xlink:href="#DejaVuSans-6d" transform="translate(658.544922 0)"/>
      <use xlink:href="#DejaVuSans-75" transform="translate(755.957031 0)"/>
      <use xlink:href="#DejaVuSans-6d" transform="translate(819.335938 0)"/>
      <use xlink:href="#DejaVuSans-20" transform="translate(916.748047 0)"/>
      <use xlink:href="#DejaVuSans-28" transform="translate(948.535156 0)"/>
      <use xlink:href="#DejaVuSans-6c" transform="translate(987.548828 0)"/>
      <use xlink:href="#DejaVuSans-6f" transform="translate(1015.332031 0)"/>
      <use xlink:href="#DejaVuSans-67" transform="translate(1076.513672 0)"/>
      <use xlink:href="#DejaVuSans-20" transform="translate(1139.990234 0)"/>
      <use xlink:href="#DejaVuSans-73" transform="translate(1171.777344 0)"/>
      <use xlink:href="#DejaVuSans-63" transform="translate(1223.876953 0)"/>
      <use xlink:href="#DejaVuSans-61" transform="translate(1278.857422 0)"/>
      <use xlink:href="#DejaVuSans-6c" transform="translate(1340.136719 0)"/>
      <use xlink:href="#DejaVuSans-65" transform="translate(1367.919922 0)"/>
      <use xlink:href="#DejaVuSans-29" transform="translate(1429.443359 0)"/>
     </g>
    </g>
   </g>
   <g id="line2d_145">
    <path d="M 85.44785 337.246367 
L 113.082868 322.957771 
L 140.717886 309.347911 
L 168.352904 296.052819 
L 195.987922 282.909495 
L 223.62294 269.840712 
L 251.257959 256.808869 
L 278.892977 243.795416 
L 306.527995 230.791138 
L 334.163013 217.791441 
L 361.798031 204.794035 
L 389.433049 191.797773 
L 417.068068 178.802083 
L 444.703086 165.80668 
L 472.338104 152.811419 
L 499.973122 139.81623 
L 527.60814 126.821077 
L 555.243158 113.825941 
L 582.878176 100.830815 
L 610.513195 87.835693 
L 638.148213 74.840573 
L 665.783231 61.845455 
" clip-path="url(#p85eee95375)" style="fill: none; stroke-dasharray: 9.6,6.4; stroke-dashoffset: 0; stroke: #a8a29e; stroke-width: 1.6"/>
   </g>
   <g id="patch_3">
    <path d="M 56.431081 357.64 
L 56.431081 47.76 
" style="fill: none; stroke: #a8a29e; stroke-width: 0.8; stroke-linejoin: miter; stroke-linecap: square"/>
   </g>
   <g id="patch_4">
    <path d="M 56.431081 357.64 
L 694.8 357.64 
" style="fill: none; stroke: #a8a29e; stroke-width: 0.8; stroke-linejoin: miter; stroke-linecap: square"/>
   </g>
   <g id="patch_5">
    <path d="M 392.279564 234.004279 
Q 364.184341 226.166524 337.381414 218.689282 
" style="fill: none; stroke: #4c72b0; stroke-width: 1.2; stroke-linecap: round"/>
    <path d="M 341.028422 221.990696 
L 337.381414 218.689282 
L 342.210749 217.752524 
" style="fill: none; stroke: #4c72b0; stroke-width: 1.2; stroke-linecap: round"/>
   </g>
   <g id="text_18">
    <!-- every corner of the cube, -->
    <g style="fill: #4c72b0" transform="translate(372.852039 244.89926) scale(0.11 -0.11)">
     <defs>
      <path id="DejaVuSans-72" d="M 2631 2963 
Q 2534 3019 2420 3045 
Q 2306 3072 2169 3072 
Q 1681 3072 1420 2755 
Q 1159 2438 1159 1844 
L 1159 0 
L 581 0 
L 581 3500 
L 1159 3500 
L 1159 2956 
Q 1341 3275 1631 3429 
Q 1922 3584 2338 3584 
Q 2397 3584 2469 3576 
Q 2541 3569 2628 3553 
L 2631 2963 
z
" transform="scale(0.015625)"/>
      <path id="DejaVuSans-79" d="M 2059 -325 
Q 1816 -950 1584 -1140 
Q 1353 -1331 966 -1331 
L 506 -1331 
L 506 -850 
L 844 -850 
Q 1081 -850 1212 -737 
Q 1344 -625 1503 -206 
L 1606 56 
L 191 3500 
L 800 3500 
L 1894 763 
L 2988 3500 
L 3597 3500 
L 2059 -325 
z
" transform="scale(0.015625)"/>
      <path id="DejaVuSans-66" d="M 2375 4863 
L 2375 4384 
L 1825 4384 
Q 1516 4384 1395 4259 
Q 1275 4134 1275 3809 
L 1275 3500 
L 2222 3500 
L 2222 3053 
L 1275 3053 
L 1275 0 
L 697 0 
L 697 3053 
L 147 3053 
L 147 3500 
L 697 3500 
L 697 3744 
Q 697 4328 969 4595 
Q 1241 4863 1831 4863 
L 2375 4863 
z
" transform="scale(0.015625)"/>
      <path id="DejaVuSans-68" d="M 3513 2113 
L 3513 0 
L 2938 0 
L 2938 2094 
Q 2938 2591 2744 2837 
Q 2550 3084 2163 3084 
Q 1697 3084 1428 2787 
Q 1159 2491 1159 1978 
L 1159 0 
L 581 0 
L 581 4863 
L 1159 4863 
L 1159 2956 
Q 1366 3272 1645 3428 
Q 1925 3584 2291 3584 
Q 2894 3584 3203 3211 
Q 3513 2838 3513 2113 
z
" transform="scale(0.015625)"/>
      <path id="DejaVuSans-62" d="M 3116 1747 
Q 3116 2381 2855 2742 
Q 2594 3103 2138 3103 
Q 1681 3103 1420 2742 
Q 1159 2381 1159 1747 
Q 1159 1113 1420 752 
Q 1681 391 2138 391 
Q 2594 391 2855 752 
Q 3116 1113 3116 1747 
z
M 1159 2969 
Q 1341 3281 1617 3432 
Q 1894 3584 2278 3584 
Q 2916 3584 3314 3078 
Q 3713 2572 3713 1747 
Q 3713 922 3314 415 
Q 2916 -91 2278 -91 
Q 1894 -91 1617 61 
Q 1341 213 1159 525 
L 1159 0 
L 581 0 
L 581 4863 
L 1159 4863 
L 1159 2969 
z
" transform="scale(0.015625)"/>
      <path id="DejaVuSans-2c" d="M 750 794 
L 1409 794 
L 1409 256 
L 897 -744 
L 494 -744 
L 750 256 
L 750 794 
z
" transform="scale(0.015625)"/>
     </defs>
     <use xlink:href="#DejaVuSans-65"/>
     <use xlink:href="#DejaVuSans-76" transform="translate(61.523438 0)"/>
     <use xlink:href="#DejaVuSans-65" transform="translate(120.703125 0)"/>
     <use xlink:href="#DejaVuSans-72" transform="translate(182.226562 0)"/>
     <use xlink:href="#DejaVuSans-79" transform="translate(223.339844 0)"/>
     <use xlink:href="#DejaVuSans-20" transform="translate(282.519531 0)"/>
     <use xlink:href="#DejaVuSans-63" transform="translate(314.306641 0)"/>
     <use xlink:href="#DejaVuSans-6f" transform="translate(369.287109 0)"/>
     <use xlink:href="#DejaVuSans-72" transform="translate(430.46875 0)"/>
     <use xlink:href="#DejaVuSans-6e" transform="translate(469.832031 0)"/>
     <use xlink:href="#DejaVuSans-65" transform="translate(533.210938 0)"/>
     <use xlink:href="#DejaVuSans-72" transform="translate(594.734375 0)"/>
     <use xlink:href="#DejaVuSans-20" transform="translate(635.847656 0)"/>
     <use xlink:href="#DejaVuSans-6f" transform="translate(667.634766 0)"/>
     <use xlink:href="#DejaVuSans-66" transform="translate(728.816406 0)"/>
     <use xlink:href="#DejaVuSans-20" transform="translate(764.021484 0)"/>
     <use xlink:href="#DejaVuSans-74" transform="translate(795.808594 0)"/>
     <use xlink:href="#DejaVuSans-68" transform="translate(835.017578 0)"/>
     <use xlink:href="#DejaVuSans-65" transform="translate(898.396484 0)"/>
     <use xlink:href="#DejaVuSans-20" transform="translate(959.919922 0)"/>
     <use xlink:href="#DejaVuSans-63" transform="translate(991.707031 0)"/>
     <use xlink:href="#DejaVuSans-75" transform="translate(1046.6875 0)"/>
     <use xlink:href="#DejaVuSans-62" transform="translate(1110.066406 0)"/>
     <use xlink:href="#DejaVuSans-65" transform="translate(1173.542969 0)"/>
     <use xlink:href="#DejaVuSans-2c" transform="translate(1235.066406 0)"/>
    </g>
    <!-- none skipped -->
    <g style="fill: #4c72b0" transform="translate(372.852039 257.216853) scale(0.11 -0.11)">
     <defs>
      <path id="DejaVuSans-6b" d="M 581 4863 
L 1159 4863 
L 1159 1991 
L 2875 3500 
L 3609 3500 
L 1753 1863 
L 3688 0 
L 2938 0 
L 1159 1709 
L 1159 0 
L 581 0 
L 581 4863 
z
" transform="scale(0.015625)"/>
     </defs>
     <use xlink:href="#DejaVuSans-6e"/>
     <use xlink:href="#DejaVuSans-6f" transform="translate(63.378906 0)"/>
     <use xlink:href="#DejaVuSans-6e" transform="translate(124.560547 0)"/>
     <use xlink:href="#DejaVuSans-65" transform="translate(187.939453 0)"/>
     <use xlink:href="#DejaVuSans-20" transform="translate(249.462891 0)"/>
     <use xlink:href="#DejaVuSans-73" transform="translate(281.25 0)"/>
     <use xlink:href="#DejaVuSans-6b" transform="translate(333.349609 0)"/>
     <use xlink:href="#DejaVuSans-69" transform="translate(391.259766 0)"/>
     <use xlink:href="#DejaVuSans-70" transform="translate(419.042969 0)"/>
     <use xlink:href="#DejaVuSans-70" transform="translate(482.519531 0)"/>
     <use xlink:href="#DejaVuSans-65" transform="translate(545.996094 0)"/>
     <use xlink:href="#DejaVuSans-64" transform="translate(607.519531 0)"/>
    </g>
   </g>
   <g id="text_19">
    <!-- Generated Klee-Minty cubes: the greedy walk visits all 2^n corners, 2^n - 1 pivots. -->
    <g style="fill: #6b7280" transform="translate(56.431081 36.9142) scale(0.115 -0.115)">
     <defs>
      <path id="DejaVuSans-47" d="M 3809 666 
L 3809 1919 
L 2778 1919 
L 2778 2438 
L 4434 2438 
L 4434 434 
Q 4069 175 3628 42 
Q 3188 -91 2688 -91 
Q 1594 -91 976 548 
Q 359 1188 359 2328 
Q 359 3472 976 4111 
Q 1594 4750 2688 4750 
Q 3144 4750 3555 4637 
Q 3966 4525 4313 4306 
L 4313 3634 
Q 3963 3931 3569 4081 
Q 3175 4231 2741 4231 
Q 1884 4231 1454 3753 
Q 1025 3275 1025 2328 
Q 1025 1384 1454 906 
Q 1884 428 2741 428 
Q 3075 428 3337 486 
Q 3600 544 3809 666 
z
" transform="scale(0.015625)"/>
      <path id="DejaVuSans-4b" d="M 628 4666 
L 1259 4666 
L 1259 2694 
L 3353 4666 
L 4166 4666 
L 1850 2491 
L 4331 0 
L 3500 0 
L 1259 2247 
L 1259 0 
L 628 0 
L 628 4666 
z
" transform="scale(0.015625)"/>
      <path id="DejaVuSans-2d" d="M 313 2009 
L 1997 2009 
L 1997 1497 
L 313 1497 
L 313 2009 
z
" transform="scale(0.015625)"/>
      <path id="DejaVuSans-4d" d="M 628 4666 
L 1569 4666 
L 2759 1491 
L 3956 4666 
L 4897 4666 
L 4897 0 
L 4281 0 
L 4281 4097 
L 3078 897 
L 2444 897 
L 1241 4097 
L 1241 0 
L 628 0 
L 628 4666 
z
" transform="scale(0.015625)"/>
      <path id="DejaVuSans-3a" d="M 750 794 
L 1409 794 
L 1409 0 
L 750 0 
L 750 794 
z
M 750 3309 
L 1409 3309 
L 1409 2516 
L 750 2516 
L 750 3309 
z
" transform="scale(0.015625)"/>
      <path id="DejaVuSans-77" d="M 269 3500 
L 844 3500 
L 1563 769 
L 2278 3500 
L 2956 3500 
L 3675 769 
L 4391 3500 
L 4966 3500 
L 4050 0 
L 3372 0 
L 2619 2869 
L 1863 0 
L 1184 0 
L 269 3500 
z
" transform="scale(0.015625)"/>
      <path id="DejaVuSans-5e" d="M 2988 4666 
L 4684 2925 
L 4056 2925 
L 2681 4159 
L 1306 2925 
L 678 2925 
L 2375 4666 
L 2988 4666 
z
" transform="scale(0.015625)"/>
      <path id="DejaVuSans-2e" d="M 684 794 
L 1344 794 
L 1344 0 
L 684 0 
L 684 794 
z
" transform="scale(0.015625)"/>
     </defs>
     <use xlink:href="#DejaVuSans-47"/>
     <use xlink:href="#DejaVuSans-65" transform="translate(77.490234 0)"/>
     <use xlink:href="#DejaVuSans-6e" transform="translate(139.013672 0)"/>
     <use xlink:href="#DejaVuSans-65" transform="translate(202.392578 0)"/>
     <use xlink:href="#DejaVuSans-72" transform="translate(263.916016 0)"/>
     <use xlink:href="#DejaVuSans-61" transform="translate(305.029297 0)"/>
     <use xlink:href="#DejaVuSans-74" transform="translate(366.308594 0)"/>
     <use xlink:href="#DejaVuSans-65" transform="translate(405.517578 0)"/>
     <use xlink:href="#DejaVuSans-64" transform="translate(467.041016 0)"/>
     <use xlink:href="#DejaVuSans-20" transform="translate(530.517578 0)"/>
     <use xlink:href="#DejaVuSans-4b" transform="translate(562.304688 0)"/>
     <use xlink:href="#DejaVuSans-6c" transform="translate(627.880859 0)"/>
     <use xlink:href="#DejaVuSans-65" transform="translate(655.664062 0)"/>
     <use xlink:href="#DejaVuSans-65" transform="translate(717.1875 0)"/>
     <use xlink:href="#DejaVuSans-2d" transform="translate(778.710938 0)"/>
     <use xlink:href="#DejaVuSans-4d" transform="translate(814.794922 0)"/>
     <use xlink:href="#DejaVuSans-69" transform="translate(901.074219 0)"/>
     <use xlink:href="#DejaVuSans-6e" transform="translate(928.857422 0)"/>
     <use xlink:href="#DejaVuSans-74" transform="translate(992.236328 0)"/>
     <use xlink:href="#DejaVuSans-79" transform="translate(1031.445312 0)"/>
     <use xlink:href="#DejaVuSans-20" transform="translate(1090.625 0)"/>
     <use xlink:href="#DejaVuSans-63" transform="translate(1122.412109 0)"/>
     <use xlink:href="#DejaVuSans-75" transform="translate(1177.392578 0)"/>
     <use xlink:href="#DejaVuSans-62" transform="translate(1240.771484 0)"/>
     <use xlink:href="#DejaVuSans-65" transform="translate(1304.248047 0)"/>
     <use xlink:href="#DejaVuSans-73" transform="translate(1365.771484 0)"/>
     <use xlink:href="#DejaVuSans-3a" transform="translate(1417.871094 0)"/>
     <use xlink:href="#DejaVuSans-20" transform="translate(1451.5625 0)"/>
     <use xlink:href="#DejaVuSans-74" transform="translate(1483.349609 0)"/>
     <use xlink:href="#DejaVuSans-68" transform="translate(1522.558594 0)"/>
     <use xlink:href="#DejaVuSans-65" transform="translate(1585.9375 0)"/>
     <use xlink:href="#DejaVuSans-20" transform="translate(1647.460938 0)"/>
     <use xlink:href="#DejaVuSans-67" transform="translate(1679.248047 0)"/>
     <use xlink:href="#DejaVuSans-72" transform="translate(1742.724609 0)"/>
     <use xlink:href="#DejaVuSans-65" transform="translate(1781.587891 0)"/>
     <use xlink:href="#DejaVuSans-65" transform="translate(1843.111328 0)"/>
     <use xlink:href="#DejaVuSans-64" transform="translate(1904.634766 0)"/>
     <use xlink:href="#DejaVuSans-79" transform="translate(1968.111328 0)"/>
     <use xlink:href="#DejaVuSans-20" transform="translate(2027.291016 0)"/>
     <use xlink:href="#DejaVuSans-77" transform="translate(2059.078125 0)"/>
     <use xlink:href="#DejaVuSans-61" transform="translate(2140.865234 0)"/>
     <use xlink:href="#DejaVuSans-6c" transform="translate(2202.144531 0)"/>
     <use xlink:href="#DejaVuSans-6b" transform="translate(2229.927734 0)"/>
     <use xlink:href="#DejaVuSans-20" transform="translate(2287.837891 0)"/>
     <use xlink:href="#DejaVuSans-76" transform="translate(2319.625 0)"/>
     <use xlink:href="#DejaVuSans-69" transform="translate(2378.804688 0)"/>
     <use xlink:href="#DejaVuSans-73" transform="translate(2406.587891 0)"/>
     <use xlink:href="#DejaVuSans-69" transform="translate(2458.6875 0)"/>
     <use xlink:href="#DejaVuSans-74" transform="translate(2486.470703 0)"/>
     <use xlink:href="#DejaVuSans-73" transform="translate(2525.679688 0)"/>
     <use xlink:href="#DejaVuSans-20" transform="translate(2577.779297 0)"/>
     <use xlink:href="#DejaVuSans-61" transform="translate(2609.566406 0)"/>
     <use xlink:href="#DejaVuSans-6c" transform="translate(2670.845703 0)"/>
     <use xlink:href="#DejaVuSans-6c" transform="translate(2698.628906 0)"/>
     <use xlink:href="#DejaVuSans-20" transform="translate(2726.412109 0)"/>
     <use xlink:href="#DejaVuSans-32" transform="translate(2758.199219 0)"/>
     <use xlink:href="#DejaVuSans-5e" transform="translate(2821.822266 0)"/>
     <use xlink:href="#DejaVuSans-6e" transform="translate(2905.611328 0)"/>
     <use xlink:href="#DejaVuSans-20" transform="translate(2968.990234 0)"/>
     <use xlink:href="#DejaVuSans-63" transform="translate(3000.777344 0)"/>
     <use xlink:href="#DejaVuSans-6f" transform="translate(3055.757812 0)"/>
     <use xlink:href="#DejaVuSans-72" transform="translate(3116.939453 0)"/>
     <use xlink:href="#DejaVuSans-6e" transform="translate(3156.302734 0)"/>
     <use xlink:href="#DejaVuSans-65" transform="translate(3219.681641 0)"/>
     <use xlink:href="#DejaVuSans-72" transform="translate(3281.205078 0)"/>
     <use xlink:href="#DejaVuSans-73" transform="translate(3322.318359 0)"/>
     <use xlink:href="#DejaVuSans-2c" transform="translate(3374.417969 0)"/>
     <use xlink:href="#DejaVuSans-20" transform="translate(3406.205078 0)"/>
     <use xlink:href="#DejaVuSans-32" transform="translate(3437.992188 0)"/>
     <use xlink:href="#DejaVuSans-5e" transform="translate(3501.615234 0)"/>
     <use xlink:href="#DejaVuSans-6e" transform="translate(3585.404297 0)"/>
     <use xlink:href="#DejaVuSans-20" transform="translate(3648.783203 0)"/>
     <use xlink:href="#DejaVuSans-2d" transform="translate(3680.570312 0)"/>
     <use xlink:href="#DejaVuSans-20" transform="translate(3716.654297 0)"/>
     <use xlink:href="#DejaVuSans-31" transform="translate(3748.441406 0)"/>
     <use xlink:href="#DejaVuSans-20" transform="translate(3812.064453 0)"/>
     <use xlink:href="#DejaVuSans-70" transform="translate(3843.851562 0)"/>
     <use xlink:href="#DejaVuSans-69" transform="translate(3907.328125 0)"/>
     <use xlink:href="#DejaVuSans-76" transform="translate(3935.111328 0)"/>
     <use xlink:href="#DejaVuSans-6f" transform="translate(3994.291016 0)"/>
     <use xlink:href="#DejaVuSans-74" transform="translate(4055.472656 0)"/>
     <use xlink:href="#DejaVuSans-73" transform="translate(4094.681641 0)"/>
     <use xlink:href="#DejaVuSans-2e" transform="translate(4146.78125 0)"/>
    </g>
   </g>
   <g id="text_20">
    <!-- The worst case, measured -->
    <g style="fill: #1f2933" transform="translate(56.431081 23.76) scale(0.17 -0.17)">
     <defs>
      <path id="DejaVuSans-Bold-54" d="M 31 4666 
L 4331 4666 
L 4331 3756 
L 2784 3756 
L 2784 0 
L 1581 0 
L 1581 3756 
L 31 3756 
L 31 4666 
z
" transform="scale(0.015625)"/>
      <path id="DejaVuSans-Bold-68" d="M 4056 2131 
L 4056 0 
L 2931 0 
L 2931 347 
L 2931 1625 
Q 2931 2084 2911 2256 
Q 2891 2428 2841 2509 
Q 2775 2619 2662 2680 
Q 2550 2741 2406 2741 
Q 2056 2741 1856 2470 
Q 1656 2200 1656 1722 
L 1656 0 
L 538 0 
L 538 4863 
L 1656 4863 
L 1656 2988 
Q 1909 3294 2193 3439 
Q 2478 3584 2822 3584 
Q 3428 3584 3742 3212 
Q 4056 2841 4056 2131 
z
" transform="scale(0.015625)"/>
      <path id="DejaVuSans-Bold-65" d="M 4031 1759 
L 4031 1441 
L 1416 1441 
Q 1456 1047 1700 850 
Q 1944 653 2381 653 
Q 2734 653 3104 758 
Q 3475 863 3866 1075 
L 3866 213 
Q 3469 63 3072 -14 
Q 2675 -91 2278 -91 
Q 1328 -91 801 392 
Q 275 875 275 1747 
Q 275 2603 792 3093 
Q 1309 3584 2216 3584 
Q 3041 3584 3536 3087 
Q 4031 2591 4031 1759 
z
M 2881 2131 
Q 2881 2450 2695 2645 
Q 2509 2841 2209 2841 
Q 1884 2841 1681 2658 
Q 1478 2475 1428 2131 
L 2881 2131 
z
" transform="scale(0.015625)"/>
      <path id="DejaVuSans-Bold-20" transform="scale(0.015625)"/>
      <path id="DejaVuSans-Bold-77" d="M 225 3500 
L 1313 3500 
L 1900 1088 
L 2491 3500 
L 3425 3500 
L 4013 1113 
L 4603 3500 
L 5691 3500 
L 4769 0 
L 3547 0 
L 2956 2406 
L 2369 0 
L 1147 0 
L 225 3500 
z
" transform="scale(0.015625)"/>
      <path id="DejaVuSans-Bold-6f" d="M 2203 2784 
Q 1831 2784 1636 2517 
Q 1441 2250 1441 1747 
Q 1441 1244 1636 976 
Q 1831 709 2203 709 
Q 2569 709 2762 976 
Q 2956 1244 2956 1747 
Q 2956 2250 2762 2517 
Q 2569 2784 2203 2784 
z
M 2203 3584 
Q 3106 3584 3614 3096 
Q 4122 2609 4122 1747 
Q 4122 884 3614 396 
Q 3106 -91 2203 -91 
Q 1297 -91 786 396 
Q 275 884 275 1747 
Q 275 2609 786 3096 
Q 1297 3584 2203 3584 
z
" transform="scale(0.015625)"/>
      <path id="DejaVuSans-Bold-72" d="M 3138 2547 
Q 2991 2616 2845 2648 
Q 2700 2681 2553 2681 
Q 2122 2681 1889 2404 
Q 1656 2128 1656 1613 
L 1656 0 
L 538 0 
L 538 3500 
L 1656 3500 
L 1656 2925 
Q 1872 3269 2151 3426 
Q 2431 3584 2822 3584 
Q 2878 3584 2943 3579 
Q 3009 3575 3134 3559 
L 3138 2547 
z
" transform="scale(0.015625)"/>
      <path id="DejaVuSans-Bold-73" d="M 3272 3391 
L 3272 2541 
Q 2913 2691 2578 2766 
Q 2244 2841 1947 2841 
Q 1628 2841 1473 2761 
Q 1319 2681 1319 2516 
Q 1319 2381 1436 2309 
Q 1553 2238 1856 2203 
L 2053 2175 
Q 2913 2066 3209 1816 
Q 3506 1566 3506 1031 
Q 3506 472 3093 190 
Q 2681 -91 1863 -91 
Q 1516 -91 1145 -36 
Q 775 19 384 128 
L 384 978 
Q 719 816 1070 734 
Q 1422 653 1784 653 
Q 2113 653 2278 743 
Q 2444 834 2444 1013 
Q 2444 1163 2330 1236 
Q 2216 1309 1875 1350 
L 1678 1375 
Q 931 1469 631 1722 
Q 331 1975 331 2491 
Q 331 3047 712 3315 
Q 1094 3584 1881 3584 
Q 2191 3584 2531 3537 
Q 2872 3491 3272 3391 
z
" transform="scale(0.015625)"/>
      <path id="DejaVuSans-Bold-74" d="M 1759 4494 
L 1759 3500 
L 2913 3500 
L 2913 2700 
L 1759 2700 
L 1759 1216 
Q 1759 972 1856 886 
Q 1953 800 2241 800 
L 2816 800 
L 2816 0 
L 1856 0 
Q 1194 0 917 276 
Q 641 553 641 1216 
L 641 2700 
L 84 2700 
L 84 3500 
L 641 3500 
L 641 4494 
L 1759 4494 
z
" transform="scale(0.015625)"/>
      <path id="DejaVuSans-Bold-63" d="M 3366 3391 
L 3366 2478 
Q 3138 2634 2908 2709 
Q 2678 2784 2431 2784 
Q 1963 2784 1702 2511 
Q 1441 2238 1441 1747 
Q 1441 1256 1702 982 
Q 1963 709 2431 709 
Q 2694 709 2930 787 
Q 3166 866 3366 1019 
L 3366 103 
Q 3103 6 2833 -42 
Q 2563 -91 2291 -91 
Q 1344 -91 809 395 
Q 275 881 275 1747 
Q 275 2613 809 3098 
Q 1344 3584 2291 3584 
Q 2566 3584 2833 3536 
Q 3100 3488 3366 3391 
z
" transform="scale(0.015625)"/>
      <path id="DejaVuSans-Bold-61" d="M 2106 1575 
Q 1756 1575 1579 1456 
Q 1403 1338 1403 1106 
Q 1403 894 1545 773 
Q 1688 653 1941 653 
Q 2256 653 2472 879 
Q 2688 1106 2688 1447 
L 2688 1575 
L 2106 1575 
z
M 3816 1997 
L 3816 0 
L 2688 0 
L 2688 519 
Q 2463 200 2181 54 
Q 1900 -91 1497 -91 
Q 953 -91 614 226 
Q 275 544 275 1050 
Q 275 1666 698 1953 
Q 1122 2241 2028 2241 
L 2688 2241 
L 2688 2328 
Q 2688 2594 2478 2717 
Q 2269 2841 1825 2841 
Q 1466 2841 1156 2769 
Q 847 2697 581 2553 
L 581 3406 
Q 941 3494 1303 3539 
Q 1666 3584 2028 3584 
Q 2975 3584 3395 3211 
Q 3816 2838 3816 1997 
z
" transform="scale(0.015625)"/>
      <path id="DejaVuSans-Bold-2c" d="M 653 1209 
L 1778 1209 
L 1778 256 
L 1006 -909 
L 341 -909 
L 653 256 
L 653 1209 
z
" transform="scale(0.015625)"/>
      <path id="DejaVuSans-Bold-6d" d="M 3781 2919 
Q 3994 3244 4286 3414 
Q 4578 3584 4928 3584 
Q 5531 3584 5847 3212 
Q 6163 2841 6163 2131 
L 6163 0 
L 5038 0 
L 5038 1825 
Q 5041 1866 5042 1909 
Q 5044 1953 5044 2034 
Q 5044 2406 4934 2573 
Q 4825 2741 4581 2741 
Q 4263 2741 4089 2478 
Q 3916 2216 3909 1719 
L 3909 0 
L 2784 0 
L 2784 1825 
Q 2784 2406 2684 2573 
Q 2584 2741 2328 2741 
Q 2006 2741 1831 2477 
Q 1656 2213 1656 1722 
L 1656 0 
L 531 0 
L 531 3500 
L 1656 3500 
L 1656 2988 
Q 1863 3284 2130 3434 
Q 2397 3584 2719 3584 
Q 3081 3584 3359 3409 
Q 3638 3234 3781 2919 
z
" transform="scale(0.015625)"/>
      <path id="DejaVuSans-Bold-75" d="M 500 1363 
L 500 3500 
L 1625 3500 
L 1625 3150 
Q 1625 2866 1622 2436 
Q 1619 2006 1619 1863 
Q 1619 1441 1641 1255 
Q 1663 1069 1716 984 
Q 1784 875 1895 815 
Q 2006 756 2150 756 
Q 2500 756 2700 1025 
Q 2900 1294 2900 1772 
L 2900 3500 
L 4019 3500 
L 4019 0 
L 2900 0 
L 2900 506 
Q 2647 200 2364 54 
Q 2081 -91 1741 -91 
Q 1134 -91 817 281 
Q 500 653 500 1363 
z
" transform="scale(0.015625)"/>
      <path id="DejaVuSans-Bold-64" d="M 2919 2988 
L 2919 4863 
L 4044 4863 
L 4044 0 
L 2919 0 
L 2919 506 
Q 2688 197 2409 53 
Q 2131 -91 1766 -91 
Q 1119 -91 703 423 
Q 288 938 288 1747 
Q 288 2556 703 3070 
Q 1119 3584 1766 3584 
Q 2128 3584 2408 3439 
Q 2688 3294 2919 2988 
z
M 2181 722 
Q 2541 722 2730 984 
Q 2919 1247 2919 1747 
Q 2919 2247 2730 2509 
Q 2541 2772 2181 2772 
Q 1825 2772 1636 2509 
Q 1447 2247 1447 1747 
Q 1447 1247 1636 984 
Q 1825 722 2181 722 
z
" transform="scale(0.015625)"/>
     </defs>
     <use xlink:href="#DejaVuSans-Bold-54"/>
     <use xlink:href="#DejaVuSans-Bold-68" transform="translate(68.212891 0)"/>
     <use xlink:href="#DejaVuSans-Bold-65" transform="translate(139.404297 0)"/>
     <use xlink:href="#DejaVuSans-Bold-20" transform="translate(207.226562 0)"/>
     <use xlink:href="#DejaVuSans-Bold-77" transform="translate(242.041016 0)"/>
     <use xlink:href="#DejaVuSans-Bold-6f" transform="translate(334.423828 0)"/>
     <use xlink:href="#DejaVuSans-Bold-72" transform="translate(403.125 0)"/>
     <use xlink:href="#DejaVuSans-Bold-73" transform="translate(452.441406 0)"/>
     <use xlink:href="#DejaVuSans-Bold-74" transform="translate(511.962891 0)"/>
     <use xlink:href="#DejaVuSans-Bold-20" transform="translate(559.765625 0)"/>
     <use xlink:href="#DejaVuSans-Bold-63" transform="translate(594.580078 0)"/>
     <use xlink:href="#DejaVuSans-Bold-61" transform="translate(653.857422 0)"/>
     <use xlink:href="#DejaVuSans-Bold-73" transform="translate(721.337891 0)"/>
     <use xlink:href="#DejaVuSans-Bold-65" transform="translate(780.859375 0)"/>
     <use xlink:href="#DejaVuSans-Bold-2c" transform="translate(848.681641 0)"/>
     <use xlink:href="#DejaVuSans-Bold-20" transform="translate(886.669922 0)"/>
     <use xlink:href="#DejaVuSans-Bold-6d" transform="translate(921.484375 0)"/>
     <use xlink:href="#DejaVuSans-Bold-65" transform="translate(1025.683594 0)"/>
     <use xlink:href="#DejaVuSans-Bold-61" transform="translate(1093.505859 0)"/>
     <use xlink:href="#DejaVuSans-Bold-73" transform="translate(1160.986328 0)"/>
     <use xlink:href="#DejaVuSans-Bold-75" transform="translate(1220.507812 0)"/>
     <use xlink:href="#DejaVuSans-Bold-72" transform="translate(1291.699219 0)"/>
     <use xlink:href="#DejaVuSans-Bold-65" transform="translate(1341.015625 0)"/>
     <use xlink:href="#DejaVuSans-Bold-64" transform="translate(1408.837891 0)"/>
    </g>
   </g>
   <g id="line2d_146">
    <path d="M 85.44785 343.554545 
L 113.082868 332.534726 
L 140.717886 322.957771 
L 168.352904 313.380817 
L 195.987922 304.106256 
L 223.62294 294.898732 
L 251.257959 285.774923 
L 278.892977 276.685862 
L 306.527995 267.624349 
L 334.163013 258.577408 
" clip-path="url(#p85eee95375)" style="fill: none; stroke: #009e73; stroke-width: 2.2; stroke-linecap: square"/>
    <defs>
     <path id="mddb6c942be" d="M -3.25 3.25 
L 3.25 3.25 
L 3.25 -3.25 
L -3.25 -3.25 
z
" style="stroke: #009e73; stroke-linejoin: miter"/>
    </defs>
    <g clip-path="url(#p85eee95375)">
     <use xlink:href="#mddb6c942be" x="85.44785" y="343.554545" style="fill: #009e73; stroke: #009e73; stroke-linejoin: miter"/>
     <use xlink:href="#mddb6c942be" x="113.082868" y="332.534726" style="fill: #009e73; stroke: #009e73; stroke-linejoin: miter"/>
     <use xlink:href="#mddb6c942be" x="140.717886" y="322.957771" style="fill: #009e73; stroke: #009e73; stroke-linejoin: miter"/>
     <use xlink:href="#mddb6c942be" x="168.352904" y="313.380817" style="fill: #009e73; stroke: #009e73; stroke-linejoin: miter"/>
     <use xlink:href="#mddb6c942be" x="195.987922" y="304.106256" style="fill: #009e73; stroke: #009e73; stroke-linejoin: miter"/>
     <use xlink:href="#mddb6c942be" x="223.62294" y="294.898732" style="fill: #009e73; stroke: #009e73; stroke-linejoin: miter"/>
     <use xlink:href="#mddb6c942be" x="251.257959" y="285.774923" style="fill: #009e73; stroke: #009e73; stroke-linejoin: miter"/>
     <use xlink:href="#mddb6c942be" x="278.892977" y="276.685862" style="fill: #009e73; stroke: #009e73; stroke-linejoin: miter"/>
     <use xlink:href="#mddb6c942be" x="306.527995" y="267.624349" style="fill: #009e73; stroke: #009e73; stroke-linejoin: miter"/>
     <use xlink:href="#mddb6c942be" x="334.163013" y="258.577408" style="fill: #009e73; stroke: #009e73; stroke-linejoin: miter"/>
    </g>
   </g>
   <g id="line2d_147">
    <path d="M 85.44785 337.246367 
L 113.082868 322.957771 
L 140.717886 309.347911 
L 168.352904 296.052819 
L 195.987922 282.909495 
L 223.62294 269.840712 
L 251.257959 256.808869 
L 278.892977 243.795416 
L 306.527995 230.791138 
L 334.163013 217.791441 
" clip-path="url(#p85eee95375)" style="fill: none; stroke: #4c72b0; stroke-width: 2.2; stroke-linecap: square"/>
    <defs>
     <path id="md2171b32b8" d="M 0 3.5 
C 0.928211 3.5 1.81853 3.131218 2.474874 2.474874 
C 3.131218 1.81853 3.5 0.928211 3.5 0 
C 3.5 -0.928211 3.131218 -1.81853 2.474874 -2.474874 
C 1.81853 -3.131218 0.928211 -3.5 0 -3.5 
C -0.928211 -3.5 -1.81853 -3.131218 -2.474874 -2.474874 
C -3.131218 -1.81853 -3.5 -0.928211 -3.5 0 
C -3.5 0.928211 -3.131218 1.81853 -2.474874 2.474874 
C -1.81853 3.131218 -0.928211 3.5 0 3.5 
z
" style="stroke: #4c72b0"/>
    </defs>
    <g clip-path="url(#p85eee95375)">
     <use xlink:href="#md2171b32b8" x="85.44785" y="337.246367" style="fill: #4c72b0; stroke: #4c72b0"/>
     <use xlink:href="#md2171b32b8" x="113.082868" y="322.957771" style="fill: #4c72b0; stroke: #4c72b0"/>
     <use xlink:href="#md2171b32b8" x="140.717886" y="309.347911" style="fill: #4c72b0; stroke: #4c72b0"/>
     <use xlink:href="#md2171b32b8" x="168.352904" y="296.052819" style="fill: #4c72b0; stroke: #4c72b0"/>
     <use xlink:href="#md2171b32b8" x="195.987922" y="282.909495" style="fill: #4c72b0; stroke: #4c72b0"/>
     <use xlink:href="#md2171b32b8" x="223.62294" y="269.840712" style="fill: #4c72b0; stroke: #4c72b0"/>
     <use xlink:href="#md2171b32b8" x="251.257959" y="256.808869" style="fill: #4c72b0; stroke: #4c72b0"/>
     <use xlink:href="#md2171b32b8" x="278.892977" y="243.795416" style="fill: #4c72b0; stroke: #4c72b0"/>
     <use xlink:href="#md2171b32b8" x="306.527995" y="230.791138" style="fill: #4c72b0; stroke: #4c72b0"/>
     <use xlink:href="#md2171b32b8" x="334.163013" y="217.791441" style="fill: #4c72b0; stroke: #4c72b0"/>
    </g>
   </g>
   <g id="legend_1">
    <g id="line2d_148">
     <path d="M 543.260547 307.113672 
L 554.760547 307.113672 
L 566.260547 307.113672 
" style="fill: none; stroke-dasharray: 9.6,6.4; stroke-dashoffset: 0; stroke: #a8a29e; stroke-width: 1.6"/>
    </g>
    <g id="text_21">
     <!-- $2^n - 1$ -->
     <g transform="translate(575.460547 311.138672) scale(0.115 -0.115)">
      <defs>
       <path id="DejaVuSans-Oblique-6e" d="M 3566 2113 
L 3156 0 
L 2578 0 
L 2988 2091 
Q 3016 2238 3031 2350 
Q 3047 2463 3047 2528 
Q 3047 2791 2881 2937 
Q 2716 3084 2419 3084 
Q 1956 3084 1622 2776 
Q 1288 2469 1184 1941 
L 800 0 
L 225 0 
L 903 3500 
L 1478 3500 
L 1363 2950 
Q 1603 3253 1940 3418 
Q 2278 3584 2650 3584 
Q 3113 3584 3367 3334 
Q 3622 3084 3622 2631 
Q 3622 2519 3608 2391 
Q 3594 2263 3566 2113 
z
" transform="scale(0.015625)"/>
       <path id="DejaVuSans-2212" d="M 678 2272 
L 4684 2272 
L 4684 1741 
L 678 1741 
L 678 2272 
z
" transform="scale(0.015625)"/>
      </defs>
      <use xlink:href="#DejaVuSans-32" transform="translate(0 0.51875)"/>
      <use xlink:href="#DejaVuSans-Oblique-6e" transform="translate(64.580078 38.8) scale(0.7)"/>
      <use xlink:href="#DejaVuSans-2212" transform="translate(131.162109 0.51875)"/>
      <use xlink:href="#DejaVuSans-31" transform="translate(234.433594 0.51875)"/>
     </g>
    </g>
    <g id="line2d_149">
     <path d="M 543.260547 323.993516 
L 554.760547 323.993516 
L 566.260547 323.993516 
" style="fill: none; stroke: #4c72b0; stroke-width: 2.2; stroke-linecap: square"/>
     <g>
      <use xlink:href="#md2171b32b8" x="554.760547" y="323.993516" style="fill: #4c72b0; stroke: #4c72b0"/>
     </g>
    </g>
    <g id="text_22">
     <!-- Dantzig, measured -->
     <g transform="translate(575.460547 328.018516) scale(0.115 -0.115)">
      <defs>
       <path id="DejaVuSans-44" d="M 1259 4147 
L 1259 519 
L 2022 519 
Q 2988 519 3436 956 
Q 3884 1394 3884 2338 
Q 3884 3275 3436 3711 
Q 2988 4147 2022 4147 
L 1259 4147 
z
M 628 4666 
L 1925 4666 
Q 3281 4666 3915 4102 
Q 4550 3538 4550 2338 
Q 4550 1131 3912 565 
Q 3275 0 1925 0 
L 628 0 
L 628 4666 
z
" transform="scale(0.015625)"/>
       <path id="DejaVuSans-7a" d="M 353 3500 
L 3084 3500 
L 3084 2975 
L 922 459 
L 3084 459 
L 3084 0 
L 275 0 
L 275 525 
L 2438 3041 
L 353 3041 
L 353 3500 
z
" transform="scale(0.015625)"/>
      </defs>
      <use xlink:href="#DejaVuSans-44"/>
      <use xlink:href="#DejaVuSans-61" transform="translate(77.001953 0)"/>
      <use xlink:href="#DejaVuSans-6e" transform="translate(138.28125 0)"/>
      <use xlink:href="#DejaVuSans-74" transform="translate(201.660156 0)"/>
      <use xlink:href="#DejaVuSans-7a" transform="translate(240.869141 0)"/>
      <use xlink:href="#DejaVuSans-69" transform="translate(293.359375 0)"/>
      <use xlink:href="#DejaVuSans-67" transform="translate(321.142578 0)"/>
      <use xlink:href="#DejaVuSans-2c" transform="translate(384.619141 0)"/>
      <use xlink:href="#DejaVuSans-20" transform="translate(416.40625 0)"/>
      <use xlink:href="#DejaVuSans-6d" transform="translate(448.193359 0)"/>
      <use xlink:href="#DejaVuSans-65" transform="translate(545.605469 0)"/>
      <use xlink:href="#DejaVuSans-61" transform="translate(607.128906 0)"/>
      <use xlink:href="#DejaVuSans-73" transform="translate(668.408203 0)"/>
      <use xlink:href="#DejaVuSans-75" transform="translate(720.507812 0)"/>
      <use xlink:href="#DejaVuSans-72" transform="translate(783.886719 0)"/>
      <use xlink:href="#DejaVuSans-65" transform="translate(822.75 0)"/>
      <use xlink:href="#DejaVuSans-64" transform="translate(884.273438 0)"/>
     </g>
    </g>
    <g id="line2d_150">
     <path d="M 543.260547 340.873359 
L 554.760547 340.873359 
L 566.260547 340.873359 
" style="fill: none; stroke: #009e73; stroke-width: 2.2; stroke-linecap: square"/>
     <g>
      <use xlink:href="#mddb6c942be" x="554.760547" y="340.873359" style="fill: #009e73; stroke: #009e73; stroke-linejoin: miter"/>
     </g>
    </g>
    <g id="text_23">
     <!-- Bland, measured -->
     <g transform="translate(575.460547 344.898359) scale(0.115 -0.115)">
      <defs>
       <path id="DejaVuSans-42" d="M 1259 2228 
L 1259 519 
L 2272 519 
Q 2781 519 3026 730 
Q 3272 941 3272 1375 
Q 3272 1813 3026 2020 
Q 2781 2228 2272 2228 
L 1259 2228 
z
M 1259 4147 
L 1259 2741 
L 2194 2741 
Q 2656 2741 2882 2914 
Q 3109 3088 3109 3444 
Q 3109 3797 2882 3972 
Q 2656 4147 2194 4147 
L 1259 4147 
z
M 628 4666 
L 2241 4666 
Q 2963 4666 3353 4366 
Q 3744 4066 3744 3513 
Q 3744 3084 3544 2831 
Q 3344 2578 2956 2516 
Q 3422 2416 3680 2098 
Q 3938 1781 3938 1306 
Q 3938 681 3513 340 
Q 3088 0 2303 0 
L 628 0 
L 628 4666 
z
" transform="scale(0.015625)"/>
      </defs>
      <use xlink:href="#DejaVuSans-42"/>
      <use xlink:href="#DejaVuSans-6c" transform="translate(68.603516 0)"/>
      <use xlink:href="#DejaVuSans-61" transform="translate(96.386719 0)"/>
      <use xlink:href="#DejaVuSans-6e" transform="translate(157.666016 0)"/>
      <use xlink:href="#DejaVuSans-64" transform="translate(221.044922 0)"/>
      <use xlink:href="#DejaVuSans-2c" transform="translate(284.521484 0)"/>
      <use xlink:href="#DejaVuSans-20" transform="translate(316.308594 0)"/>
      <use xlink:href="#DejaVuSans-6d" transform="translate(348.095703 0)"/>
      <use xlink:href="#DejaVuSans-65" transform="translate(445.507812 0)"/>
      <use xlink:href="#DejaVuSans-61" transform="translate(507.03125 0)"/>
      <use xlink:href="#DejaVuSans-73" transform="translate(568.310547 0)"/>
      <use xlink:href="#DejaVuSans-75" transform="translate(620.410156 0)"/>
      <use xlink:href="#DejaVuSans-72" transform="translate(683.789062 0)"/>
      <use xlink:href="#DejaVuSans-65" transform="translate(722.652344 0)"/>
      <use xlink:href="#DejaVuSans-64" transform="translate(784.175781 0)"/>
     </g>
    </g>
   </g>
  </g>
 </g>
 <defs>
  <clipPath id="p85eee95375">
   <rect x="56.431081" y="47.76" width="638.368919" height="309.88"/>
  </clipPath>
 </defs>
</svg>
