<?xml version="1.0" encoding="utf-8" standalone="no"?>
<!DOCTYPE svg PUBLIC "-//W3C//DTD SVG 1.1//EN"
  "http://www.w3.org/Graphics/SVG/1.1/DTD/svg11.dtd">
<svg xmlns:xlink="http://www.w3.org/1999/xlink" width="849.6pt" height="374.4pt" viewBox="0 0 849.6 374.4" xmlns="http://www.w3.org/2000/svg" version="1.1">
 <metadata>
  <rdf:RDF xmlns:dc="http://purl.org/dc/elements/1.1/" xmlns:cc="http://creativecommons.org/ns#" xmlns:rdf="http://www.w3.org/1999/02/22-rdf-syntax-ns#">
   <cc:Work>
    <dc:type rdf:resource="http://purl.org/dc/dcmitype/StillImage"/>
    <dc:date>2026-07-01T01:30:54.034057</dc:date>
    <dc:format>image/svg+xml</dc:format>
    <dc:creator>
     <cc:Agent>
      <dc:title>Matplotlib v3.10.8, https://matplotlib.org/</dc:title>
     </cc:Agent>
    </dc:creator>
   </cc:Work>
  </rdf:RDF>
 </metadata>
 <defs>
  <style type="text/css">*{stroke-linejoin: round; stroke-linecap: butt}</style>
 </defs>
 <g id="figure_1">
  <g id="patch_1">
   <path d="M 0 374.4 
L 849.6 374.4 
L 849.6 0 
L 0 0 
z
" style="fill: #fbfaf7"/>
  </g>
  <g id="axes_1">
   <g id="patch_2">
    <path d="M 129.31 276.07392 
L 827.325 276.07392 
L 827.325 47.76 
L 129.31 47.76 
z
" style="fill: #fbfaf7"/>
   </g>
   <g id="matplotlib.axis_1">
    <g id="xtick_1">
     <g id="line2d_1">
      <path d="M 129.31 276.07392 
L 129.31 47.76 
" clip-path="url(#p743ec0282e)" style="fill: none; stroke: #e7e5df; stroke-width: 0.8; stroke-linecap: square"/>
     </g>
     <g id="line2d_2">
      <defs>
       <path id="mab61c15aa2" d="M 0 0 
L 0 3.5 
" style="stroke: #1f2933; stroke-width: 0.8"/>
      </defs>
      <g>
       <use xlink:href="#mab61c15aa2" x="129.31" y="276.07392" style="fill: #1f2933; stroke: #1f2933; stroke-width: 0.8"/>
      </g>
     </g>
     <g id="text_1">
      <!-- 0 -->
      <g style="fill: #1f2933" transform="translate(125.4925 292.192045) scale(0.12 -0.12)">
       <defs>
        <path id="DejaVuSans-30" d="M 2034 4250 
Q 1547 4250 1301 3770 
Q 1056 3291 1056 2328 
Q 1056 1369 1301 889 
Q 1547 409 2034 409 
Q 2525 409 2770 889 
Q 3016 1369 3016 2328 
Q 3016 3291 2770 3770 
Q 2525 4250 2034 4250 
z
M 2034 4750 
Q 2819 4750 3233 4129 
Q 3647 3509 3647 2328 
Q 3647 1150 3233 529 
Q 2819 -91 2034 -91 
Q 1250 -91 836 529 
Q 422 1150 422 2328 
Q 422 3509 836 4129 
Q 1250 4750 2034 4750 
z
" transform="scale(0.015625)"/>
       </defs>
       <use xlink:href="#DejaVuSans-30"/>
      </g>
     </g>
    </g>
    <g id="xtick_2">
     <g id="line2d_3">
      <path d="M 268.913 276.07392 
L 268.913 47.76 
" clip-path="url(#p743ec0282e)" style="fill: none; stroke: #e7e5df; stroke-width: 0.8; stroke-linecap: square"/>
     </g>
     <g id="line2d_4">
      <g>
       <use xlink:href="#mab61c15aa2" x="268.913" y="276.07392" style="fill: #1f2933; stroke: #1f2933; stroke-width: 0.8"/>
      </g>
     </g>
     <g id="text_2">
      <!-- 20 -->
      <g style="fill: #1f2933" transform="translate(261.278 292.192045) scale(0.12 -0.12)">
       <defs>
        <path id="DejaVuSans-32" d="M 1228 531 
L 3431 531 
L 3431 0 
L 469 0 
L 469 531 
Q 828 903 1448 1529 
Q 2069 2156 2228 2338 
Q 2531 2678 2651 2914 
Q 2772 3150 2772 3378 
Q 2772 3750 2511 3984 
Q 2250 4219 1831 4219 
Q 1534 4219 1204 4116 
Q 875 4013 500 3803 
L 500 4441 
Q 881 4594 1212 4672 
Q 1544 4750 1819 4750 
Q 2544 4750 2975 4387 
Q 3406 4025 3406 3419 
Q 3406 3131 3298 2873 
Q 3191 2616 2906 2266 
Q 2828 2175 2409 1742 
Q 1991 1309 1228 531 
z
" transform="scale(0.015625)"/>
       </defs>
       <use xlink:href="#DejaVuSans-32"/>
       <use xlink:href="#DejaVuSans-30" transform="translate(63.623047 0)"/>
      </g>
     </g>
    </g>
    <g id="xtick_3">
     <g id="line2d_5">
      <path d="M 408.516 276.07392 
L 408.516 47.76 
" clip-path="url(#p743ec0282e)" style="fill: none; stroke: #e7e5df; stroke-width: 0.8; stroke-linecap: square"/>
     </g>
     <g id="line2d_6">
      <g>
       <use xlink:href="#mab61c15aa2" x="408.516" y="276.07392" style="fill: #1f2933; stroke: #1f2933; stroke-width: 0.8"/>
      </g>
     </g>
     <g id="text_3">
      <!-- 40 -->
      <g style="fill: #1f2933" transform="translate(400.881 292.192045) scale(0.12 -0.12)">
       <defs>
        <path id="DejaVuSans-34" d="M 2419 4116 
L 825 1625 
L 2419 1625 
L 2419 4116 
z
M 2253 4666 
L 3047 4666 
L 3047 1625 
L 3713 1625 
L 3713 1100 
L 3047 1100 
L 3047 0 
L 2419 0 
L 2419 1100 
L 313 1100 
L 313 1709 
L 2253 4666 
z
" transform="scale(0.015625)"/>
       </defs>
       <use xlink:href="#DejaVuSans-34"/>
       <use xlink:href="#DejaVuSans-30" transform="translate(63.623047 0)"/>
      </g>
     </g>
    </g>
    <g id="xtick_4">
     <g id="line2d_7">
      <path d="M 548.119 276.07392 
L 548.119 47.76 
" clip-path="url(#p743ec0282e)" style="fill: none; stroke: #e7e5df; stroke-width: 0.8; stroke-linecap: square"/>
     </g>
     <g id="line2d_8">
      <g>
       <use xlink:href="#mab61c15aa2" x="548.119" y="276.07392" style="fill: #1f2933; stroke: #1f2933; stroke-width: 0.8"/>
      </g>
     </g>
     <g id="text_4">
      <!-- 60 -->
      <g style="fill: #1f2933" transform="translate(540.484 292.192045) scale(0.12 -0.12)">
       <defs>
        <path id="DejaVuSans-36" d="M 2113 2584 
Q 1688 2584 1439 2293 
Q 1191 2003 1191 1497 
Q 1191 994 1439 701 
Q 1688 409 2113 409 
Q 2538 409 2786 701 
Q 3034 994 3034 1497 
Q 3034 2003 2786 2293 
Q 2538 2584 2113 2584 
z
M 3366 4563 
L 3366 3988 
Q 3128 4100 2886 4159 
Q 2644 4219 2406 4219 
Q 1781 4219 1451 3797 
Q 1122 3375 1075 2522 
Q 1259 2794 1537 2939 
Q 1816 3084 2150 3084 
Q 2853 3084 3261 2657 
Q 3669 2231 3669 1497 
Q 3669 778 3244 343 
Q 2819 -91 2113 -91 
Q 1303 -91 875 529 
Q 447 1150 447 2328 
Q 447 3434 972 4092 
Q 1497 4750 2381 4750 
Q 2619 4750 2861 4703 
Q 3103 4656 3366 4563 
z
" transform="scale(0.015625)"/>
       </defs>
       <use xlink:href="#DejaVuSans-36"/>
       <use xlink:href="#DejaVuSans-30" transform="translate(63.623047 0)"/>
      </g>
     </g>
    </g>
    <g id="xtick_5">
     <g id="line2d_9">
      <path d="M 687.722 276.07392 
L 687.722 47.76 
" clip-path="url(#p743ec0282e)" style="fill: none; stroke: #e7e5df; stroke-width: 0.8; stroke-linecap: square"/>
     </g>
     <g id="line2d_10">
      <g>
       <use xlink:href="#mab61c15aa2" x="687.722" y="276.07392" style="fill: #1f2933; stroke: #1f2933; stroke-width: 0.8"/>
      </g>
     </g>
     <g id="text_5">
      <!-- 80 -->
      <g style="fill: #1f2933" transform="translate(680.087 292.192045) scale(0.12 -0.12)">
       <defs>
        <path id="DejaVuSans-38" d="M 2034 2216 
Q 1584 2216 1326 1975 
Q 1069 1734 1069 1313 
Q 1069 891 1326 650 
Q 1584 409 2034 409 
Q 2484 409 2743 651 
Q 3003 894 3003 1313 
Q 3003 1734 2745 1975 
Q 2488 2216 2034 2216 
z
M 1403 2484 
Q 997 2584 770 2862 
Q 544 3141 544 3541 
Q 544 4100 942 4425 
Q 1341 4750 2034 4750 
Q 2731 4750 3128 4425 
Q 3525 4100 3525 3541 
Q 3525 3141 3298 2862 
Q 3072 2584 2669 2484 
Q 3125 2378 3379 2068 
Q 3634 1759 3634 1313 
Q 3634 634 3220 271 
Q 2806 -91 2034 -91 
Q 1263 -91 848 271 
Q 434 634 434 1313 
Q 434 1759 690 2068 
Q 947 2378 1403 2484 
z
M 1172 3481 
Q 1172 3119 1398 2916 
Q 1625 2713 2034 2713 
Q 2441 2713 2670 2916 
Q 2900 3119 2900 3481 
Q 2900 3844 2670 4047 
Q 2441 4250 2034 4250 
Q 1625 4250 1398 4047 
Q 1172 3844 1172 3481 
z
" transform="scale(0.015625)"/>
       </defs>
       <use xlink:href="#DejaVuSans-38"/>
       <use xlink:href="#DejaVuSans-30" transform="translate(63.623047 0)"/>
      </g>
     </g>
    </g>
    <g id="xtick_6">
     <g id="line2d_11">
      <path d="M 827.325 276.07392 
L 827.325 47.76 
" clip-path="url(#p743ec0282e)" style="fill: none; stroke: #e7e5df; stroke-width: 0.8; stroke-linecap: square"/>
     </g>
     <g id="line2d_12">
      <g>
       <use xlink:href="#mab61c15aa2" x="827.325" y="276.07392" style="fill: #1f2933; stroke: #1f2933; stroke-width: 0.8"/>
      </g>
     </g>
     <g id="text_6">
      <!-- 100 -->
      <g style="fill: #1f2933" transform="translate(815.8725 292.192045) scale(0.12 -0.12)">
       <defs>
        <path id="DejaVuSans-31" d="M 794 531 
L 1825 531 
L 1825 4091 
L 703 3866 
L 703 4441 
L 1819 4666 
L 2450 4666 
L 2450 531 
L 3481 531 
L 3481 0 
L 794 0 
L 794 531 
z
" transform="scale(0.015625)"/>
       </defs>
       <use xlink:href="#DejaVuSans-31"/>
       <use xlink:href="#DejaVuSans-30" transform="translate(63.623047 0)"/>
       <use xlink:href="#DejaVuSans-30" transform="translate(127.246094 0)"/>
      </g>
     </g>
    </g>
    <g id="text_7">
     <!-- Share of mean iteration time, % -->
     <g style="fill: #6b7280" transform="translate(378.155391 308.185717) scale(0.125 -0.125)">
      <defs>
       <path id="DejaVuSans-53" d="M 3425 4513 
L 3425 3897 
Q 3066 4069 2747 4153 
Q 2428 4238 2131 4238 
Q 1616 4238 1336 4038 
Q 1056 3838 1056 3469 
Q 1056 3159 1242 3001 
Q 1428 2844 1947 2747 
L 2328 2669 
Q 3034 2534 3370 2195 
Q 3706 1856 3706 1288 
Q 3706 609 3251 259 
Q 2797 -91 1919 -91 
Q 1588 -91 1214 -16 
Q 841 59 441 206 
L 441 856 
Q 825 641 1194 531 
Q 1563 422 1919 422 
Q 2459 422 2753 634 
Q 3047 847 3047 1241 
Q 3047 1584 2836 1778 
Q 2625 1972 2144 2069 
L 1759 2144 
Q 1053 2284 737 2584 
Q 422 2884 422 3419 
Q 422 4038 858 4394 
Q 1294 4750 2059 4750 
Q 2388 4750 2728 4690 
Q 3069 4631 3425 4513 
z
" transform="scale(0.015625)"/>
       <path id="DejaVuSans-68" d="M 3513 2113 
L 3513 0 
L 2938 0 
L 2938 2094 
Q 2938 2591 2744 2837 
Q 2550 3084 2163 3084 
Q 1697 3084 1428 2787 
Q 1159 2491 1159 1978 
L 1159 0 
L 581 0 
L 581 4863 
L 1159 4863 
L 1159 2956 
Q 1366 3272 1645 3428 
Q 1925 3584 2291 3584 
Q 2894 3584 3203 3211 
Q 3513 2838 3513 2113 
z
" transform="scale(0.015625)"/>
       <path id="DejaVuSans-61" d="M 2194 1759 
Q 1497 1759 1228 1600 
Q 959 1441 959 1056 
Q 959 750 1161 570 
Q 1363 391 1709 391 
Q 2188 391 2477 730 
Q 2766 1069 2766 1631 
L 2766 1759 
L 2194 1759 
z
M 3341 1997 
L 3341 0 
L 2766 0 
L 2766 531 
Q 2569 213 2275 61 
Q 1981 -91 1556 -91 
Q 1019 -91 701 211 
Q 384 513 384 1019 
Q 384 1609 779 1909 
Q 1175 2209 1959 2209 
L 2766 2209 
L 2766 2266 
Q 2766 2663 2505 2880 
Q 2244 3097 1772 3097 
Q 1472 3097 1187 3025 
Q 903 2953 641 2809 
L 641 3341 
Q 956 3463 1253 3523 
Q 1550 3584 1831 3584 
Q 2591 3584 2966 3190 
Q 3341 2797 3341 1997 
z
" transform="scale(0.015625)"/>
       <path id="DejaVuSans-72" d="M 2631 2963 
Q 2534 3019 2420 3045 
Q 2306 3072 2169 3072 
Q 1681 3072 1420 2755 
Q 1159 2438 1159 1844 
L 1159 0 
L 581 0 
L 581 3500 
L 1159 3500 
L 1159 2956 
Q 1341 3275 1631 3429 
Q 1922 3584 2338 3584 
Q 2397 3584 2469 3576 
Q 2541 3569 2628 3553 
L 2631 2963 
z
" transform="scale(0.015625)"/>
       <path id="DejaVuSans-65" d="M 3597 1894 
L 3597 1613 
L 953 1613 
Q 991 1019 1311 708 
Q 1631 397 2203 397 
Q 2534 397 2845 478 
Q 3156 559 3463 722 
L 3463 178 
Q 3153 47 2828 -22 
Q 2503 -91 2169 -91 
Q 1331 -91 842 396 
Q 353 884 353 1716 
Q 353 2575 817 3079 
Q 1281 3584 2069 3584 
Q 2775 3584 3186 3129 
Q 3597 2675 3597 1894 
z
M 3022 2063 
Q 3016 2534 2758 2815 
Q 2500 3097 2075 3097 
Q 1594 3097 1305 2825 
Q 1016 2553 972 2059 
L 3022 2063 
z
" transform="scale(0.015625)"/>
       <path id="DejaVuSans-20" transform="scale(0.015625)"/>
       <path id="DejaVuSans-6f" d="M 1959 3097 
Q 1497 3097 1228 2736 
Q 959 2375 959 1747 
Q 959 1119 1226 758 
Q 1494 397 1959 397 
Q 2419 397 2687 759 
Q 2956 1122 2956 1747 
Q 2956 2369 2687 2733 
Q 2419 3097 1959 3097 
z
M 1959 3584 
Q 2709 3584 3137 3096 
Q 3566 2609 3566 1747 
Q 3566 888 3137 398 
Q 2709 -91 1959 -91 
Q 1206 -91 779 398 
Q 353 888 353 1747 
Q 353 2609 779 3096 
Q 1206 3584 1959 3584 
z
" transform="scale(0.015625)"/>
       <path id="DejaVuSans-66" d="M 2375 4863 
L 2375 4384 
L 1825 4384 
Q 1516 4384 1395 4259 
Q 1275 4134 1275 3809 
L 1275 3500 
L 2222 3500 
L 2222 3053 
L 1275 3053 
L 1275 0 
L 697 0 
L 697 3053 
L 147 3053 
L 147 3500 
L 697 3500 
L 697 3744 
Q 697 4328 969 4595 
Q 1241 4863 1831 4863 
L 2375 4863 
z
" transform="scale(0.015625)"/>
       <path id="DejaVuSans-6d" d="M 3328 2828 
Q 3544 3216 3844 3400 
Q 4144 3584 4550 3584 
Q 5097 3584 5394 3201 
Q 5691 2819 5691 2113 
L 5691 0 
L 5113 0 
L 5113 2094 
Q 5113 2597 4934 2840 
Q 4756 3084 4391 3084 
Q 3944 3084 3684 2787 
Q 3425 2491 3425 1978 
L 3425 0 
L 2847 0 
L 2847 2094 
Q 2847 2600 2669 2842 
Q 2491 3084 2119 3084 
Q 1678 3084 1418 2786 
Q 1159 2488 1159 1978 
L 1159 0 
L 581 0 
L 581 3500 
L 1159 3500 
L 1159 2956 
Q 1356 3278 1631 3431 
Q 1906 3584 2284 3584 
Q 2666 3584 2933 3390 
Q 3200 3197 3328 2828 
z
" transform="scale(0.015625)"/>
       <path id="DejaVuSans-6e" d="M 3513 2113 
L 3513 0 
L 2938 0 
L 2938 2094 
Q 2938 2591 2744 2837 
Q 2550 3084 2163 3084 
Q 1697 3084 1428 2787 
Q 1159 2491 1159 1978 
L 1159 0 
L 581 0 
L 581 3500 
L 1159 3500 
L 1159 2956 
Q 1366 3272 1645 3428 
Q 1925 3584 2291 3584 
Q 2894 3584 3203 3211 
Q 3513 2838 3513 2113 
z
" transform="scale(0.015625)"/>
       <path id="DejaVuSans-69" d="M 603 3500 
L 1178 3500 
L 1178 0 
L 603 0 
L 603 3500 
z
M 603 4863 
L 1178 4863 
L 1178 4134 
L 603 4134 
L 603 4863 
z
" transform="scale(0.015625)"/>
       <path id="DejaVuSans-74" d="M 1172 4494 
L 1172 3500 
L 2356 3500 
L 2356 3053 
L 1172 3053 
L 1172 1153 
Q 1172 725 1289 603 
Q 1406 481 1766 481 
L 2356 481 
L 2356 0 
L 1766 0 
Q 1100 0 847 248 
Q 594 497 594 1153 
L 594 3053 
L 172 3053 
L 172 3500 
L 594 3500 
L 594 4494 
L 1172 4494 
z
" transform="scale(0.015625)"/>
       <path id="DejaVuSans-2c" d="M 750 794 
L 1409 794 
L 1409 256 
L 897 -744 
L 494 -744 
L 750 256 
L 750 794 
z
" transform="scale(0.015625)"/>
       <path id="DejaVuSans-25" d="M 4653 2053 
Q 4381 2053 4226 1822 
Q 4072 1591 4072 1178 
Q 4072 772 4226 539 
Q 4381 306 4653 306 
Q 4919 306 5073 539 
Q 5228 772 5228 1178 
Q 5228 1588 5073 1820 
Q 4919 2053 4653 2053 
z
M 4653 2450 
Q 5147 2450 5437 2106 
Q 5728 1763 5728 1178 
Q 5728 594 5436 251 
Q 5144 -91 4653 -91 
Q 4153 -91 3862 251 
Q 3572 594 3572 1178 
Q 3572 1766 3864 2108 
Q 4156 2450 4653 2450 
z
M 1428 4353 
Q 1159 4353 1004 4120 
Q 850 3888 850 3481 
Q 850 3069 1003 2837 
Q 1156 2606 1428 2606 
Q 1700 2606 1854 2837 
Q 2009 3069 2009 3481 
Q 2009 3884 1853 4118 
Q 1697 4353 1428 4353 
z
M 4250 4750 
L 4750 4750 
L 1831 -91 
L 1331 -91 
L 4250 4750 
z
M 1428 4750 
Q 1922 4750 2215 4408 
Q 2509 4066 2509 3481 
Q 2509 2891 2217 2550 
Q 1925 2209 1428 2209 
Q 931 2209 642 2551 
Q 353 2894 353 3481 
Q 353 4063 643 4406 
Q 934 4750 1428 4750 
z
" transform="scale(0.015625)"/>
      </defs>
      <use xlink:href="#DejaVuSans-53"/>
      <use xlink:href="#DejaVuSans-68" transform="translate(63.476562 0)"/>
      <use xlink:href="#DejaVuSans-61" transform="translate(126.855469 0)"/>
      <use xlink:href="#DejaVuSans-72" transform="translate(188.134766 0)"/>
      <use xlink:href="#DejaVuSans-65" transform="translate(226.998047 0)"/>
      <use xlink:href="#DejaVuSans-20" transform="translate(288.521484 0)"/>
      <use xlink:href="#DejaVuSans-6f" transform="translate(320.308594 0)"/>
      <use xlink:href="#DejaVuSans-66" transform="translate(381.490234 0)"/>
      <use xlink:href="#DejaVuSans-20" transform="translate(416.695312 0)"/>
      <use xlink:href="#DejaVuSans-6d" transform="translate(448.482422 0)"/>
      <use xlink:href="#DejaVuSans-65" transform="translate(545.894531 0)"/>
      <use xlink:href="#DejaVuSans-61" transform="translate(607.417969 0)"/>
      <use xlink:href="#DejaVuSans-6e" transform="translate(668.697266 0)"/>
      <use xlink:href="#DejaVuSans-20" transform="translate(732.076172 0)"/>
      <use xlink:href="#DejaVuSans-69" transform="translate(763.863281 0)"/>
      <use xlink:href="#DejaVuSans-74" transform="translate(791.646484 0)"/>
      <use xlink:href="#DejaVuSans-65" transform="translate(830.855469 0)"/>
      <use xlink:href="#DejaVuSans-72" transform="translate(892.378906 0)"/>
      <use xlink:href="#DejaVuSans-61" transform="translate(933.492188 0)"/>
      <use xlink:href="#DejaVuSans-74" transform="translate(994.771484 0)"/>
      <use xlink:href="#DejaVuSans-69" transform="translate(1033.980469 0)"/>
      <use xlink:href="#DejaVuSans-6f" transform="translate(1061.763672 0)"/>
      <use xlink:href="#DejaVuSans-6e" transform="translate(1122.945312 0)"/>
      <use xlink:href="#DejaVuSans-20" transform="translate(1186.324219 0)"/>
      <use xlink:href="#DejaVuSans-74" transform="translate(1218.111328 0)"/>
      <use xlink:href="#DejaVuSans-69" transform="translate(1257.320312 0)"/>
      <use xlink:href="#DejaVuSans-6d" transform="translate(1285.103516 0)"/>
      <use xlink:href="#DejaVuSans-65" transform="translate(1382.515625 0)"/>
      <use xlink:href="#DejaVuSans-2c" transform="translate(1444.039062 0)"/>
      <use xlink:href="#DejaVuSans-20" transform="translate(1475.826172 0)"/>
      <use xlink:href="#DejaVuSans-25" transform="translate(1507.613281 0)"/>
     </g>
    </g>
   </g>
   <g id="matplotlib.axis_2">
    <g id="ytick_1">
     <g id="line2d_13">
      <defs>
       <path id="mef679606e6" d="M 0 0 
L -3.5 0 
" style="stroke: #1f2933; stroke-width: 0.8"/>
      </defs>
      <g>
       <use xlink:href="#mef679606e6" x="129.31" y="82.696308" style="fill: #1f2933; stroke: #1f2933; stroke-width: 0.8"/>
      </g>
     </g>
     <g id="text_8">
      <!-- Static (v1, RUN01) -->
      <g style="fill: #1f2933" transform="translate(11.086875 87.25537) scale(0.12 -0.12)">
       <defs>
        <path id="DejaVuSans-63" d="M 3122 3366 
L 3122 2828 
Q 2878 2963 2633 3030 
Q 2388 3097 2138 3097 
Q 1578 3097 1268 2742 
Q 959 2388 959 1747 
Q 959 1106 1268 751 
Q 1578 397 2138 397 
Q 2388 397 2633 464 
Q 2878 531 3122 666 
L 3122 134 
Q 2881 22 2623 -34 
Q 2366 -91 2075 -91 
Q 1284 -91 818 406 
Q 353 903 353 1747 
Q 353 2603 823 3093 
Q 1294 3584 2113 3584 
Q 2378 3584 2631 3529 
Q 2884 3475 3122 3366 
z
" transform="scale(0.015625)"/>
        <path id="DejaVuSans-28" d="M 1984 4856 
Q 1566 4138 1362 3434 
Q 1159 2731 1159 2009 
Q 1159 1288 1364 580 
Q 1569 -128 1984 -844 
L 1484 -844 
Q 1016 -109 783 600 
Q 550 1309 550 2009 
Q 550 2706 781 3412 
Q 1013 4119 1484 4856 
L 1984 4856 
z
" transform="scale(0.015625)"/>
        <path id="DejaVuSans-76" d="M 191 3500 
L 800 3500 
L 1894 563 
L 2988 3500 
L 3597 3500 
L 2284 0 
L 1503 0 
L 191 3500 
z
" transform="scale(0.015625)"/>
        <path id="DejaVuSans-52" d="M 2841 2188 
Q 3044 2119 3236 1894 
Q 3428 1669 3622 1275 
L 4263 0 
L 3584 0 
L 2988 1197 
Q 2756 1666 2539 1819 
Q 2322 1972 1947 1972 
L 1259 1972 
L 1259 0 
L 628 0 
L 628 4666 
L 2053 4666 
Q 2853 4666 3247 4331 
Q 3641 3997 3641 3322 
Q 3641 2881 3436 2590 
Q 3231 2300 2841 2188 
z
M 1259 4147 
L 1259 2491 
L 2053 2491 
Q 2509 2491 2742 2702 
Q 2975 2913 2975 3322 
Q 2975 3731 2742 3939 
Q 2509 4147 2053 4147 
L 1259 4147 
z
" transform="scale(0.015625)"/>
        <path id="DejaVuSans-55" d="M 556 4666 
L 1191 4666 
L 1191 1831 
Q 1191 1081 1462 751 
Q 1734 422 2344 422 
Q 2950 422 3222 751 
Q 3494 1081 3494 1831 
L 3494 4666 
L 4128 4666 
L 4128 1753 
Q 4128 841 3676 375 
Q 3225 -91 2344 -91 
Q 1459 -91 1007 375 
Q 556 841 556 1753 
L 556 4666 
z
" transform="scale(0.015625)"/>
        <path id="DejaVuSans-4e" d="M 628 4666 
L 1478 4666 
L 3547 763 
L 3547 4666 
L 4159 4666 
L 4159 0 
L 3309 0 
L 1241 3903 
L 1241 0 
L 628 0 
L 628 4666 
z
" transform="scale(0.015625)"/>
        <path id="DejaVuSans-29" d="M 513 4856 
L 1013 4856 
Q 1481 4119 1714 3412 
Q 1947 2706 1947 2009 
Q 1947 1309 1714 600 
Q 1481 -109 1013 -844 
L 513 -844 
Q 928 -128 1133 580 
Q 1338 1288 1338 2009 
Q 1338 2731 1133 3434 
Q 928 4138 513 4856 
z
" transform="scale(0.015625)"/>
       </defs>
       <use xlink:href="#DejaVuSans-53"/>
       <use xlink:href="#DejaVuSans-74" transform="translate(63.476562 0)"/>
       <use xlink:href="#DejaVuSans-61" transform="translate(102.685547 0)"/>
       <use xlink:href="#DejaVuSans-74" transform="translate(163.964844 0)"/>
       <use xlink:href="#DejaVuSans-69" transform="translate(203.173828 0)"/>
       <use xlink:href="#DejaVuSans-63" transform="translate(230.957031 0)"/>
       <use xlink:href="#DejaVuSans-20" transform="translate(285.9375 0)"/>
       <use xlink:href="#DejaVuSans-28" transform="translate(317.724609 0)"/>
       <use xlink:href="#DejaVuSans-76" transform="translate(356.738281 0)"/>
       <use xlink:href="#DejaVuSans-31" transform="translate(415.917969 0)"/>
       <use xlink:href="#DejaVuSans-2c" transform="translate(479.541016 0)"/>
       <use xlink:href="#DejaVuSans-20" transform="translate(511.328125 0)"/>
       <use xlink:href="#DejaVuSans-52" transform="translate(543.115234 0)"/>
       <use xlink:href="#DejaVuSans-55" transform="translate(612.597656 0)"/>
       <use xlink:href="#DejaVuSans-4e" transform="translate(685.791016 0)"/>
       <use xlink:href="#DejaVuSans-30" transform="translate(760.595703 0)"/>
       <use xlink:href="#DejaVuSans-31" transform="translate(824.21875 0)"/>
       <use xlink:href="#DejaVuSans-29" transform="translate(887.841797 0)"/>
      </g>
     </g>
    </g>
    <g id="ytick_2">
     <g id="line2d_14">
      <g>
       <use xlink:href="#mef679606e6" x="129.31" y="161.91696" style="fill: #1f2933; stroke: #1f2933; stroke-width: 0.8"/>
      </g>
     </g>
     <g id="text_9">
      <!-- Adaptive (RUN01) -->
      <g style="fill: #1f2933" transform="translate(14.65125 166.476023) scale(0.12 -0.12)">
       <defs>
        <path id="DejaVuSans-41" d="M 2188 4044 
L 1331 1722 
L 3047 1722 
L 2188 4044 
z
M 1831 4666 
L 2547 4666 
L 4325 0 
L 3669 0 
L 3244 1197 
L 1141 1197 
L 716 0 
L 50 0 
L 1831 4666 
z
" transform="scale(0.015625)"/>
        <path id="DejaVuSans-64" d="M 2906 2969 
L 2906 4863 
L 3481 4863 
L 3481 0 
L 2906 0 
L 2906 525 
Q 2725 213 2448 61 
Q 2172 -91 1784 -91 
Q 1150 -91 751 415 
Q 353 922 353 1747 
Q 353 2572 751 3078 
Q 1150 3584 1784 3584 
Q 2172 3584 2448 3432 
Q 2725 3281 2906 2969 
z
M 947 1747 
Q 947 1113 1208 752 
Q 1469 391 1925 391 
Q 2381 391 2643 752 
Q 2906 1113 2906 1747 
Q 2906 2381 2643 2742 
Q 2381 3103 1925 3103 
Q 1469 3103 1208 2742 
Q 947 2381 947 1747 
z
" transform="scale(0.015625)"/>
        <path id="DejaVuSans-70" d="M 1159 525 
L 1159 -1331 
L 581 -1331 
L 581 3500 
L 1159 3500 
L 1159 2969 
Q 1341 3281 1617 3432 
Q 1894 3584 2278 3584 
Q 2916 3584 3314 3078 
Q 3713 2572 3713 1747 
Q 3713 922 3314 415 
Q 2916 -91 2278 -91 
Q 1894 -91 1617 61 
Q 1341 213 1159 525 
z
M 3116 1747 
Q 3116 2381 2855 2742 
Q 2594 3103 2138 3103 
Q 1681 3103 1420 2742 
Q 1159 2381 1159 1747 
Q 1159 1113 1420 752 
Q 1681 391 2138 391 
Q 2594 391 2855 752 
Q 3116 1113 3116 1747 
z
" transform="scale(0.015625)"/>
       </defs>
       <use xlink:href="#DejaVuSans-41"/>
       <use xlink:href="#DejaVuSans-64" transform="translate(66.658203 0)"/>
       <use xlink:href="#DejaVuSans-61" transform="translate(130.134766 0)"/>
       <use xlink:href="#DejaVuSans-70" transform="translate(191.414062 0)"/>
       <use xlink:href="#DejaVuSans-74" transform="translate(254.890625 0)"/>
       <use xlink:href="#DejaVuSans-69" transform="translate(294.099609 0)"/>
       <use xlink:href="#DejaVuSans-76" transform="translate(321.882812 0)"/>
       <use xlink:href="#DejaVuSans-65" transform="translate(381.0625 0)"/>
       <use xlink:href="#DejaVuSans-20" transform="translate(442.585938 0)"/>
       <use xlink:href="#DejaVuSans-28" transform="translate(474.373047 0)"/>
       <use xlink:href="#DejaVuSans-52" transform="translate(513.386719 0)"/>
       <use xlink:href="#DejaVuSans-55" transform="translate(582.869141 0)"/>
       <use xlink:href="#DejaVuSans-4e" transform="translate(656.0625 0)"/>
       <use xlink:href="#DejaVuSans-30" transform="translate(730.867188 0)"/>
       <use xlink:href="#DejaVuSans-31" transform="translate(794.490234 0)"/>
       <use xlink:href="#DejaVuSans-29" transform="translate(858.113281 0)"/>
      </g>
     </g>
    </g>
    <g id="ytick_3">
     <g id="line2d_15">
      <g>
       <use xlink:href="#mef679606e6" x="129.31" y="241.137612" style="fill: #1f2933; stroke: #1f2933; stroke-width: 0.8"/>
      </g>
     </g>
     <g id="text_10">
      <!-- Adaptive (RUN02) -->
      <g style="fill: #1f2933" transform="translate(14.65125 245.696675) scale(0.12 -0.12)">
       <use xlink:href="#DejaVuSans-41"/>
       <use xlink:href="#DejaVuSans-64" transform="translate(66.658203 0)"/>
       <use xlink:href="#DejaVuSans-61" transform="translate(130.134766 0)"/>
       <use xlink:href="#DejaVuSans-70" transform="translate(191.414062 0)"/>
       <use xlink:href="#DejaVuSans-74" transform="translate(254.890625 0)"/>
       <use xlink:href="#DejaVuSans-69" transform="translate(294.099609 0)"/>
       <use xlink:href="#DejaVuSans-76" transform="translate(321.882812 0)"/>
       <use xlink:href="#DejaVuSans-65" transform="translate(381.0625 0)"/>
       <use xlink:href="#DejaVuSans-20" transform="translate(442.585938 0)"/>
       <use xlink:href="#DejaVuSans-28" transform="translate(474.373047 0)"/>
       <use xlink:href="#DejaVuSans-52" transform="translate(513.386719 0)"/>
       <use xlink:href="#DejaVuSans-55" transform="translate(582.869141 0)"/>
       <use xlink:href="#DejaVuSans-4e" transform="translate(656.0625 0)"/>
       <use xlink:href="#DejaVuSans-30" transform="translate(730.867188 0)"/>
       <use xlink:href="#DejaVuSans-32" transform="translate(794.490234 0)"/>
       <use xlink:href="#DejaVuSans-29" transform="translate(858.113281 0)"/>
      </g>
     </g>
    </g>
   </g>
   <g id="patch_3">
    <path d="M 129.31 276.07392 
L 827.325 276.07392 
" style="fill: none; stroke: #a8a29e; stroke-width: 0.8; stroke-linejoin: miter; stroke-linecap: square"/>
   </g>
   <g id="patch_4">
    <path d="M 129.31 107.25471 
L 701.6823 107.25471 
L 701.6823 58.137905 
L 129.31 58.137905 
z
" clip-path="url(#p743ec0282e)" style="fill: #e69f00; stroke: #fbfaf7; stroke-linejoin: miter"/>
   </g>
   <g id="text_11">
    <!-- 82% -->
    <g style="fill: #ffffff" transform="translate(401.732986 85.869589) scale(0.115 -0.115)">
     <defs>
      <path id="DejaVuSans-Bold-38" d="M 2228 2088 
Q 1891 2088 1709 1903 
Q 1528 1719 1528 1375 
Q 1528 1031 1709 848 
Q 1891 666 2228 666 
Q 2563 666 2741 848 
Q 2919 1031 2919 1375 
Q 2919 1722 2741 1905 
Q 2563 2088 2228 2088 
z
M 1350 2484 
Q 925 2613 709 2878 
Q 494 3144 494 3541 
Q 494 4131 934 4440 
Q 1375 4750 2228 4750 
Q 3075 4750 3515 4442 
Q 3956 4134 3956 3541 
Q 3956 3144 3739 2878 
Q 3522 2613 3097 2484 
Q 3572 2353 3814 2058 
Q 4056 1763 4056 1313 
Q 4056 619 3595 264 
Q 3134 -91 2228 -91 
Q 1319 -91 855 264 
Q 391 619 391 1313 
Q 391 1763 633 2058 
Q 875 2353 1350 2484 
z
M 1631 3419 
Q 1631 3141 1786 2991 
Q 1941 2841 2228 2841 
Q 2509 2841 2662 2991 
Q 2816 3141 2816 3419 
Q 2816 3697 2662 3845 
Q 2509 3994 2228 3994 
Q 1941 3994 1786 3844 
Q 1631 3694 1631 3419 
z
" transform="scale(0.015625)"/>
      <path id="DejaVuSans-Bold-32" d="M 1844 884 
L 3897 884 
L 3897 0 
L 506 0 
L 506 884 
L 2209 2388 
Q 2438 2594 2547 2791 
Q 2656 2988 2656 3200 
Q 2656 3528 2436 3728 
Q 2216 3928 1850 3928 
Q 1569 3928 1234 3808 
Q 900 3688 519 3450 
L 519 4475 
Q 925 4609 1322 4679 
Q 1719 4750 2100 4750 
Q 2938 4750 3402 4381 
Q 3866 4013 3866 3353 
Q 3866 2972 3669 2642 
Q 3472 2313 2841 1759 
L 1844 884 
z
" transform="scale(0.015625)"/>
      <path id="DejaVuSans-Bold-25" d="M 4959 1925 
Q 4738 1925 4616 1733 
Q 4494 1541 4494 1184 
Q 4494 825 4614 633 
Q 4734 441 4959 441 
Q 5184 441 5303 633 
Q 5422 825 5422 1184 
Q 5422 1541 5301 1733 
Q 5181 1925 4959 1925 
z
M 4959 2450 
Q 5541 2450 5875 2112 
Q 6209 1775 6209 1184 
Q 6209 594 5875 251 
Q 5541 -91 4959 -91 
Q 4378 -91 4042 251 
Q 3706 594 3706 1184 
Q 3706 1772 4042 2111 
Q 4378 2450 4959 2450 
z
M 2094 -91 
L 1403 -91 
L 4319 4750 
L 5013 4750 
L 2094 -91 
z
M 1453 4750 
Q 2034 4750 2367 4411 
Q 2700 4072 2700 3481 
Q 2700 2891 2367 2550 
Q 2034 2209 1453 2209 
Q 872 2209 539 2550 
Q 206 2891 206 3481 
Q 206 4072 539 4411 
Q 872 4750 1453 4750 
z
M 1453 4225 
Q 1228 4225 1106 4031 
Q 984 3838 984 3481 
Q 984 3122 1106 2926 
Q 1228 2731 1453 2731 
Q 1678 2731 1798 2926 
Q 1919 3122 1919 3481 
Q 1919 3838 1797 4031 
Q 1675 4225 1453 4225 
z
" transform="scale(0.015625)"/>
     </defs>
     <use xlink:href="#DejaVuSans-Bold-38"/>
     <use xlink:href="#DejaVuSans-Bold-32" transform="translate(69.580078 0)"/>
     <use xlink:href="#DejaVuSans-Bold-25" transform="translate(139.160156 0)"/>
    </g>
   </g>
   <g id="patch_5">
    <path d="M 701.6823 107.25471 
L 799.4044 107.25471 
L 799.4044 58.137905 
L 701.6823 58.137905 
z
" clip-path="url(#p743ec0282e)" style="fill: #009e73; stroke: #fbfaf7; stroke-linejoin: miter"/>
   </g>
   <g id="text_12">
    <!-- 14% -->
    <g style="fill: #ffffff" transform="translate(736.780186 85.869589) scale(0.115 -0.115)">
     <defs>
      <path id="DejaVuSans-Bold-31" d="M 750 831 
L 1813 831 
L 1813 3847 
L 722 3622 
L 722 4441 
L 1806 4666 
L 2950 4666 
L 2950 831 
L 4013 831 
L 4013 0 
L 750 0 
L 750 831 
z
" transform="scale(0.015625)"/>
      <path id="DejaVuSans-Bold-34" d="M 2356 3675 
L 1038 1722 
L 2356 1722 
L 2356 3675 
z
M 2156 4666 
L 3494 4666 
L 3494 1722 
L 4159 1722 
L 4159 850 
L 3494 850 
L 3494 0 
L 2356 0 
L 2356 850 
L 288 850 
L 288 1881 
L 2156 4666 
z
" transform="scale(0.015625)"/>
     </defs>
     <use xlink:href="#DejaVuSans-Bold-31"/>
     <use xlink:href="#DejaVuSans-Bold-34" transform="translate(69.580078 0)"/>
     <use xlink:href="#DejaVuSans-Bold-25" transform="translate(139.160156 0)"/>
    </g>
   </g>
   <g id="patch_6">
    <path d="M 799.4044 107.25471 
L 820.34485 107.25471 
L 820.34485 58.137905 
L 799.4044 58.137905 
z
" clip-path="url(#p743ec0282e)" style="fill: #cc79a7; stroke: #fbfaf7; stroke-linejoin: miter"/>
   </g>
   <g id="patch_7">
    <path d="M 820.34485 107.25471 
L 834.30515 107.25471 
L 834.30515 58.137905 
L 820.34485 58.137905 
z
" clip-path="url(#p743ec0282e)" style="fill: #56b4e9; stroke: #fbfaf7; stroke-linejoin: miter"/>
   </g>
   <g id="patch_8">
    <path d="M 129.31 186.475362 
L 507.438073 186.475362 
L 507.438073 137.358558 
L 129.31 137.358558 
z
" clip-path="url(#p743ec0282e)" style="fill: #e69f00; stroke: #fbfaf7; stroke-linejoin: miter"/>
   </g>
   <g id="text_13">
    <!-- 54% -->
    <g style="fill: #ffffff" transform="translate(304.610873 165.090241) scale(0.115 -0.115)">
     <defs>
      <path id="DejaVuSans-Bold-35" d="M 678 4666 
L 3669 4666 
L 3669 3781 
L 1638 3781 
L 1638 3059 
Q 1775 3097 1914 3117 
Q 2053 3138 2203 3138 
Q 3056 3138 3531 2711 
Q 4006 2284 4006 1522 
Q 4006 766 3489 337 
Q 2972 -91 2053 -91 
Q 1656 -91 1267 -14 
Q 878 63 494 219 
L 494 1166 
Q 875 947 1217 837 
Q 1559 728 1863 728 
Q 2300 728 2551 942 
Q 2803 1156 2803 1522 
Q 2803 1891 2551 2103 
Q 2300 2316 1863 2316 
Q 1603 2316 1309 2248 
Q 1016 2181 678 2041 
L 678 4666 
z
" transform="scale(0.015625)"/>
     </defs>
     <use xlink:href="#DejaVuSans-Bold-35"/>
     <use xlink:href="#DejaVuSans-Bold-34" transform="translate(69.580078 0)"/>
     <use xlink:href="#DejaVuSans-Bold-25" transform="translate(139.160156 0)"/>
    </g>
   </g>
   <g id="patch_9">
    <path d="M 507.438073 186.475362 
L 736.470275 186.475362 
L 736.470275 137.358558 
L 507.438073 137.358558 
z
" clip-path="url(#p743ec0282e)" style="fill: #009e73; stroke: #fbfaf7; stroke-linejoin: miter"/>
   </g>
   <g id="text_14">
    <!-- 33% -->
    <g style="fill: #ffffff" transform="translate(608.19101 165.090241) scale(0.115 -0.115)">
     <defs>
      <path id="DejaVuSans-Bold-33" d="M 2981 2516 
Q 3453 2394 3698 2092 
Q 3944 1791 3944 1325 
Q 3944 631 3412 270 
Q 2881 -91 1863 -91 
Q 1503 -91 1142 -33 
Q 781 25 428 141 
L 428 1069 
Q 766 900 1098 814 
Q 1431 728 1753 728 
Q 2231 728 2486 893 
Q 2741 1059 2741 1369 
Q 2741 1688 2480 1852 
Q 2219 2016 1709 2016 
L 1228 2016 
L 1228 2791 
L 1734 2791 
Q 2188 2791 2409 2933 
Q 2631 3075 2631 3366 
Q 2631 3634 2415 3781 
Q 2200 3928 1806 3928 
Q 1516 3928 1219 3862 
Q 922 3797 628 3669 
L 628 4550 
Q 984 4650 1334 4700 
Q 1684 4750 2022 4750 
Q 2931 4750 3382 4451 
Q 3834 4153 3834 3553 
Q 3834 3144 3618 2883 
Q 3403 2622 2981 2516 
z
" transform="scale(0.015625)"/>
     </defs>
     <use xlink:href="#DejaVuSans-Bold-33"/>
     <use xlink:href="#DejaVuSans-Bold-33" transform="translate(69.580078 0)"/>
     <use xlink:href="#DejaVuSans-Bold-25" transform="translate(139.160156 0)"/>
    </g>
   </g>
   <g id="patch_10">
    <path d="M 736.470275 186.475362 
L 791.645809 186.475362 
L 791.645809 137.358558 
L 736.470275 137.358558 
z
" clip-path="url(#p743ec0282e)" style="fill: #cc79a7; stroke: #fbfaf7; stroke-linejoin: miter"/>
   </g>
   <g id="text_15">
    <!-- 8% -->
    <g style="fill: #ffffff" transform="translate(754.29562 165.090241) scale(0.115 -0.115)">
     <use xlink:href="#DejaVuSans-Bold-38"/>
     <use xlink:href="#DejaVuSans-Bold-25" transform="translate(69.580078 0)"/>
    </g>
   </g>
   <g id="patch_11">
    <path d="M 791.645809 186.475362 
L 827.325 186.475362 
L 827.325 137.358558 
L 791.645809 137.358558 
z
" clip-path="url(#p743ec0282e)" style="fill: #56b4e9; stroke: #fbfaf7; stroke-linejoin: miter"/>
   </g>
   <g id="text_16">
    <!-- 5% -->
    <g style="fill: #ffffff" transform="translate(799.722982 165.090241) scale(0.115 -0.115)">
     <use xlink:href="#DejaVuSans-Bold-35"/>
     <use xlink:href="#DejaVuSans-Bold-25" transform="translate(69.580078 0)"/>
    </g>
   </g>
   <g id="patch_12">
    <path d="M 129.31 265.696015 
L 529.442724 265.696015 
L 529.442724 216.57921 
L 129.31 216.57921 
z
" clip-path="url(#p743ec0282e)" style="fill: #e69f00; stroke: #fbfaf7; stroke-linejoin: miter"/>
   </g>
   <g id="text_17">
    <!-- 57% -->
    <g style="fill: #ffffff" transform="translate(315.613198 244.310894) scale(0.115 -0.115)">
     <defs>
      <path id="DejaVuSans-Bold-37" d="M 428 4666 
L 3944 4666 
L 3944 3988 
L 2125 0 
L 953 0 
L 2675 3781 
L 428 3781 
L 428 4666 
z
" transform="scale(0.015625)"/>
     </defs>
     <use xlink:href="#DejaVuSans-Bold-35"/>
     <use xlink:href="#DejaVuSans-Bold-37" transform="translate(69.580078 0)"/>
     <use xlink:href="#DejaVuSans-Bold-25" transform="translate(139.160156 0)"/>
    </g>
   </g>
   <g id="patch_13">
    <path d="M 529.442724 265.696015 
L 737.813654 265.696015 
L 737.813654 216.57921 
L 529.442724 216.57921 
z
" clip-path="url(#p743ec0282e)" style="fill: #009e73; stroke: #fbfaf7; stroke-linejoin: miter"/>
   </g>
   <g id="text_18">
    <!-- 30% -->
    <g style="fill: #ffffff" transform="translate(619.865025 244.310894) scale(0.115 -0.115)">
     <defs>
      <path id="DejaVuSans-Bold-30" d="M 2944 2338 
Q 2944 3213 2780 3570 
Q 2616 3928 2228 3928 
Q 1841 3928 1675 3570 
Q 1509 3213 1509 2338 
Q 1509 1453 1675 1090 
Q 1841 728 2228 728 
Q 2613 728 2778 1090 
Q 2944 1453 2944 2338 
z
M 4147 2328 
Q 4147 1169 3647 539 
Q 3147 -91 2228 -91 
Q 1306 -91 806 539 
Q 306 1169 306 2328 
Q 306 3491 806 4120 
Q 1306 4750 2228 4750 
Q 3147 4750 3647 4120 
Q 4147 3491 4147 2328 
z
" transform="scale(0.015625)"/>
     </defs>
     <use xlink:href="#DejaVuSans-Bold-33"/>
     <use xlink:href="#DejaVuSans-Bold-30" transform="translate(69.580078 0)"/>
     <use xlink:href="#DejaVuSans-Bold-25" transform="translate(139.160156 0)"/>
    </g>
   </g>
   <g id="patch_14">
    <path d="M 737.813654 265.696015 
L 784.441304 265.696015 
L 784.441304 216.57921 
L 737.813654 216.57921 
z
" clip-path="url(#p743ec0282e)" style="fill: #cc79a7; stroke: #fbfaf7; stroke-linejoin: miter"/>
   </g>
   <g id="text_19">
    <!-- 7% -->
    <g style="fill: #ffffff" transform="translate(751.365057 244.310894) scale(0.115 -0.115)">
     <use xlink:href="#DejaVuSans-Bold-37"/>
     <use xlink:href="#DejaVuSans-Bold-25" transform="translate(69.580078 0)"/>
    </g>
   </g>
   <g id="patch_15">
    <path d="M 784.441304 265.696015 
L 827.325 265.696015 
L 827.325 216.57921 
L 784.441304 216.57921 
z
" clip-path="url(#p743ec0282e)" style="fill: #56b4e9; stroke: #fbfaf7; stroke-linejoin: miter"/>
   </g>
   <g id="text_20">
    <!-- 6% -->
    <g style="fill: #ffffff" transform="translate(796.12073 244.310894) scale(0.115 -0.115)">
     <defs>
      <path id="DejaVuSans-Bold-36" d="M 2316 2303 
Q 2000 2303 1842 2098 
Q 1684 1894 1684 1484 
Q 1684 1075 1842 870 
Q 2000 666 2316 666 
Q 2634 666 2792 870 
Q 2950 1075 2950 1484 
Q 2950 1894 2792 2098 
Q 2634 2303 2316 2303 
z
M 3803 4544 
L 3803 3681 
Q 3506 3822 3243 3889 
Q 2981 3956 2731 3956 
Q 2194 3956 1894 3657 
Q 1594 3359 1544 2772 
Q 1750 2925 1990 3001 
Q 2231 3078 2516 3078 
Q 3231 3078 3670 2659 
Q 4109 2241 4109 1563 
Q 4109 813 3618 361 
Q 3128 -91 2303 -91 
Q 1394 -91 895 523 
Q 397 1138 397 2266 
Q 397 3422 980 4083 
Q 1563 4744 2578 4744 
Q 2900 4744 3203 4694 
Q 3506 4644 3803 4544 
z
" transform="scale(0.015625)"/>
     </defs>
     <use xlink:href="#DejaVuSans-Bold-36"/>
     <use xlink:href="#DejaVuSans-Bold-25" transform="translate(69.580078 0)"/>
    </g>
   </g>
   <g id="text_21">
    <!-- Share of mean iteration time, cells &gt; 100. Contact detection's share drops sharply under adaptive. -->
    <g style="fill: #6b7280" transform="translate(129.31 39.769013) scale(0.115 -0.115)">
     <defs>
      <path id="DejaVuSans-6c" d="M 603 4863 
L 1178 4863 
L 1178 0 
L 603 0 
L 603 4863 
z
" transform="scale(0.015625)"/>
      <path id="DejaVuSans-73" d="M 2834 3397 
L 2834 2853 
Q 2591 2978 2328 3040 
Q 2066 3103 1784 3103 
Q 1356 3103 1142 2972 
Q 928 2841 928 2578 
Q 928 2378 1081 2264 
Q 1234 2150 1697 2047 
L 1894 2003 
Q 2506 1872 2764 1633 
Q 3022 1394 3022 966 
Q 3022 478 2636 193 
Q 2250 -91 1575 -91 
Q 1294 -91 989 -36 
Q 684 19 347 128 
L 347 722 
Q 666 556 975 473 
Q 1284 391 1588 391 
Q 1994 391 2212 530 
Q 2431 669 2431 922 
Q 2431 1156 2273 1281 
Q 2116 1406 1581 1522 
L 1381 1569 
Q 847 1681 609 1914 
Q 372 2147 372 2553 
Q 372 3047 722 3315 
Q 1072 3584 1716 3584 
Q 2034 3584 2315 3537 
Q 2597 3491 2834 3397 
z
" transform="scale(0.015625)"/>
      <path id="DejaVuSans-3e" d="M 678 3150 
L 678 3719 
L 4684 2266 
L 4684 1747 
L 678 294 
L 678 863 
L 3897 2003 
L 678 3150 
z
" transform="scale(0.015625)"/>
      <path id="DejaVuSans-2e" d="M 684 794 
L 1344 794 
L 1344 0 
L 684 0 
L 684 794 
z
" transform="scale(0.015625)"/>
      <path id="DejaVuSans-43" d="M 4122 4306 
L 4122 3641 
Q 3803 3938 3442 4084 
Q 3081 4231 2675 4231 
Q 1875 4231 1450 3742 
Q 1025 3253 1025 2328 
Q 1025 1406 1450 917 
Q 1875 428 2675 428 
Q 3081 428 3442 575 
Q 3803 722 4122 1019 
L 4122 359 
Q 3791 134 3420 21 
Q 3050 -91 2638 -91 
Q 1578 -91 968 557 
Q 359 1206 359 2328 
Q 359 3453 968 4101 
Q 1578 4750 2638 4750 
Q 3056 4750 3426 4639 
Q 3797 4528 4122 4306 
z
" transform="scale(0.015625)"/>
      <path id="DejaVuSans-27" d="M 1147 4666 
L 1147 2931 
L 616 2931 
L 616 4666 
L 1147 4666 
z
" transform="scale(0.015625)"/>
      <path id="DejaVuSans-79" d="M 2059 -325 
Q 1816 -950 1584 -1140 
Q 1353 -1331 966 -1331 
L 506 -1331 
L 506 -850 
L 844 -850 
Q 1081 -850 1212 -737 
Q 1344 -625 1503 -206 
L 1606 56 
L 191 3500 
L 800 3500 
L 1894 763 
L 2988 3500 
L 3597 3500 
L 2059 -325 
z
" transform="scale(0.015625)"/>
      <path id="DejaVuSans-75" d="M 544 1381 
L 544 3500 
L 1119 3500 
L 1119 1403 
Q 1119 906 1312 657 
Q 1506 409 1894 409 
Q 2359 409 2629 706 
Q 2900 1003 2900 1516 
L 2900 3500 
L 3475 3500 
L 3475 0 
L 2900 0 
L 2900 538 
Q 2691 219 2414 64 
Q 2138 -91 1772 -91 
Q 1169 -91 856 284 
Q 544 659 544 1381 
z
M 1991 3584 
L 1991 3584 
z
" transform="scale(0.015625)"/>
     </defs>
     <use xlink:href="#DejaVuSans-53"/>
     <use xlink:href="#DejaVuSans-68" transform="translate(63.476562 0)"/>
     <use xlink:href="#DejaVuSans-61" transform="translate(126.855469 0)"/>
     <use xlink:href="#DejaVuSans-72" transform="translate(188.134766 0)"/>
     <use xlink:href="#DejaVuSans-65" transform="translate(226.998047 0)"/>
     <use xlink:href="#DejaVuSans-20" transform="translate(288.521484 0)"/>
     <use xlink:href="#DejaVuSans-6f" transform="translate(320.308594 0)"/>
     <use xlink:href="#DejaVuSans-66" transform="translate(381.490234 0)"/>
     <use xlink:href="#DejaVuSans-20" transform="translate(416.695312 0)"/>
     <use xlink:href="#DejaVuSans-6d" transform="translate(448.482422 0)"/>
     <use xlink:href="#DejaVuSans-65" transform="translate(545.894531 0)"/>
     <use xlink:href="#DejaVuSans-61" transform="translate(607.417969 0)"/>
     <use xlink:href="#DejaVuSans-6e" transform="translate(668.697266 0)"/>
     <use xlink:href="#DejaVuSans-20" transform="translate(732.076172 0)"/>
     <use xlink:href="#DejaVuSans-69" transform="translate(763.863281 0)"/>
     <use xlink:href="#DejaVuSans-74" transform="translate(791.646484 0)"/>
     <use xlink:href="#DejaVuSans-65" transform="translate(830.855469 0)"/>
     <use xlink:href="#DejaVuSans-72" transform="translate(892.378906 0)"/>
     <use xlink:href="#DejaVuSans-61" transform="translate(933.492188 0)"/>
     <use xlink:href="#DejaVuSans-74" transform="translate(994.771484 0)"/>
     <use xlink:href="#DejaVuSans-69" transform="translate(1033.980469 0)"/>
     <use xlink:href="#DejaVuSans-6f" transform="translate(1061.763672 0)"/>
     <use xlink:href="#DejaVuSans-6e" transform="translate(1122.945312 0)"/>
     <use xlink:href="#DejaVuSans-20" transform="translate(1186.324219 0)"/>
     <use xlink:href="#DejaVuSans-74" transform="translate(1218.111328 0)"/>
     <use xlink:href="#DejaVuSans-69" transform="translate(1257.320312 0)"/>
     <use xlink:href="#DejaVuSans-6d" transform="translate(1285.103516 0)"/>
     <use xlink:href="#DejaVuSans-65" transform="translate(1382.515625 0)"/>
     <use xlink:href="#DejaVuSans-2c" transform="translate(1444.039062 0)"/>
     <use xlink:href="#DejaVuSans-20" transform="translate(1475.826172 0)"/>
     <use xlink:href="#DejaVuSans-63" transform="translate(1507.613281 0)"/>
     <use xlink:href="#DejaVuSans-65" transform="translate(1562.59375 0)"/>
     <use xlink:href="#DejaVuSans-6c" transform="translate(1624.117188 0)"/>
     <use xlink:href="#DejaVuSans-6c" transform="translate(1651.900391 0)"/>
     <use xlink:href="#DejaVuSans-73" transform="translate(1679.683594 0)"/>
     <use xlink:href="#DejaVuSans-20" transform="translate(1731.783203 0)"/>
     <use xlink:href="#DejaVuSans-3e" transform="translate(1763.570312 0)"/>
     <use xlink:href="#DejaVuSans-20" transform="translate(1847.359375 0)"/>
     <use xlink:href="#DejaVuSans-31" transform="translate(1879.146484 0)"/>
     <use xlink:href="#DejaVuSans-30" transform="translate(1942.769531 0)"/>
     <use xlink:href="#DejaVuSans-30" transform="translate(2006.392578 0)"/>
     <use xlink:href="#DejaVuSans-2e" transform="translate(2070.015625 0)"/>
     <use xlink:href="#DejaVuSans-20" transform="translate(2101.802734 0)"/>
     <use xlink:href="#DejaVuSans-43" transform="translate(2133.589844 0)"/>
     <use xlink:href="#DejaVuSans-6f" transform="translate(2203.414062 0)"/>
     <use xlink:href="#DejaVuSans-6e" transform="translate(2264.595703 0)"/>
     <use xlink:href="#DejaVuSans-74" transform="translate(2327.974609 0)"/>
     <use xlink:href="#DejaVuSans-61" transform="translate(2367.183594 0)"/>
     <use xlink:href="#DejaVuSans-63" transform="translate(2428.462891 0)"/>
     <use xlink:href="#DejaVuSans-74" transform="translate(2483.443359 0)"/>
     <use xlink:href="#DejaVuSans-20" transform="translate(2522.652344 0)"/>
     <use xlink:href="#DejaVuSans-64" transform="translate(2554.439453 0)"/>
     <use xlink:href="#DejaVuSans-65" transform="translate(2617.916016 0)"/>
     <use xlink:href="#DejaVuSans-74" transform="translate(2679.439453 0)"/>
     <use xlink:href="#DejaVuSans-65" transform="translate(2718.648438 0)"/>
     <use xlink:href="#DejaVuSans-63" transform="translate(2780.171875 0)"/>
     <use xlink:href="#DejaVuSans-74" transform="translate(2835.152344 0)"/>
     <use xlink:href="#DejaVuSans-69" transform="translate(2874.361328 0)"/>
     <use xlink:href="#DejaVuSans-6f" transform="translate(2902.144531 0)"/>
     <use xlink:href="#DejaVuSans-6e" transform="translate(2963.326172 0)"/>
     <use xlink:href="#DejaVuSans-27" transform="translate(3026.705078 0)"/>
     <use xlink:href="#DejaVuSans-73" transform="translate(3054.195312 0)"/>
     <use xlink:href="#DejaVuSans-20" transform="translate(3106.294922 0)"/>
     <use xlink:href="#DejaVuSans-73" transform="translate(3138.082031 0)"/>
     <use xlink:href="#DejaVuSans-68" transform="translate(3190.181641 0)"/>
     <use xlink:href="#DejaVuSans-61" transform="translate(3253.560547 0)"/>
     <use xlink:href="#DejaVuSans-72" transform="translate(3314.839844 0)"/>
     <use xlink:href="#DejaVuSans-65" transform="translate(3353.703125 0)"/>
     <use xlink:href="#DejaVuSans-20" transform="translate(3415.226562 0)"/>
     <use xlink:href="#DejaVuSans-64" transform="translate(3447.013672 0)"/>
     <use xlink:href="#DejaVuSans-72" transform="translate(3510.490234 0)"/>
     <use xlink:href="#DejaVuSans-6f" transform="translate(3549.353516 0)"/>
     <use xlink:href="#DejaVuSans-70" transform="translate(3610.535156 0)"/>
     <use xlink:href="#DejaVuSans-73" transform="translate(3674.011719 0)"/>
     <use xlink:href="#DejaVuSans-20" transform="translate(3726.111328 0)"/>
     <use xlink:href="#DejaVuSans-73" transform="translate(3757.898438 0)"/>
     <use xlink:href="#DejaVuSans-68" transform="translate(3809.998047 0)"/>
     <use xlink:href="#DejaVuSans-61" transform="translate(3873.376953 0)"/>
     <use xlink:href="#DejaVuSans-72" transform="translate(3934.65625 0)"/>
     <use xlink:href="#DejaVuSans-70" transform="translate(3975.769531 0)"/>
     <use xlink:href="#DejaVuSans-6c" transform="translate(4039.246094 0)"/>
     <use xlink:href="#DejaVuSans-79" transform="translate(4067.029297 0)"/>
     <use xlink:href="#DejaVuSans-20" transform="translate(4126.208984 0)"/>
     <use xlink:href="#DejaVuSans-75" transform="translate(4157.996094 0)"/>
     <use xlink:href="#DejaVuSans-6e" transform="translate(4221.375 0)"/>
     <use xlink:href="#DejaVuSans-64" transform="translate(4284.753906 0)"/>
     <use xlink:href="#DejaVuSans-65" transform="translate(4348.230469 0)"/>
     <use xlink:href="#DejaVuSans-72" transform="translate(4409.753906 0)"/>
     <use xlink:href="#DejaVuSans-20" transform="translate(4450.867188 0)"/>
     <use xlink:href="#DejaVuSans-61" transform="translate(4482.654297 0)"/>
     <use xlink:href="#DejaVuSans-64" transform="translate(4543.933594 0)"/>
     <use xlink:href="#DejaVuSans-61" transform="translate(4607.410156 0)"/>
     <use xlink:href="#DejaVuSans-70" transform="translate(4668.689453 0)"/>
     <use xlink:href="#DejaVuSans-74" transform="translate(4732.166016 0)"/>
     <use xlink:href="#DejaVuSans-69" transform="translate(4771.375 0)"/>
     <use xlink:href="#DejaVuSans-76" transform="translate(4799.158203 0)"/>
     <use xlink:href="#DejaVuSans-65" transform="translate(4858.337891 0)"/>
     <use xlink:href="#DejaVuSans-2e" transform="translate(4919.861328 0)"/>
    </g>
   </g>
   <g id="text_22">
    <!-- Where each scheduler spends its iteration -->
    <g style="fill: #1f2933" transform="translate(129.31 23.76) scale(0.17 -0.17)">
     <defs>
      <path id="DejaVuSans-Bold-57" d="M 191 4666 
L 1344 4666 
L 2150 1275 
L 2950 4666 
L 4109 4666 
L 4909 1275 
L 5716 4666 
L 6859 4666 
L 5759 0 
L 4372 0 
L 3525 3547 
L 2688 0 
L 1300 0 
L 191 4666 
z
" transform="scale(0.015625)"/>
      <path id="DejaVuSans-Bold-68" d="M 4056 2131 
L 4056 0 
L 2931 0 
L 2931 347 
L 2931 1625 
Q 2931 2084 2911 2256 
Q 2891 2428 2841 2509 
Q 2775 2619 2662 2680 
Q 2550 2741 2406 2741 
Q 2056 2741 1856 2470 
Q 1656 2200 1656 1722 
L 1656 0 
L 538 0 
L 538 4863 
L 1656 4863 
L 1656 2988 
Q 1909 3294 2193 3439 
Q 2478 3584 2822 3584 
Q 3428 3584 3742 3212 
Q 4056 2841 4056 2131 
z
" transform="scale(0.015625)"/>
      <path id="DejaVuSans-Bold-65" d="M 4031 1759 
L 4031 1441 
L 1416 1441 
Q 1456 1047 1700 850 
Q 1944 653 2381 653 
Q 2734 653 3104 758 
Q 3475 863 3866 1075 
L 3866 213 
Q 3469 63 3072 -14 
Q 2675 -91 2278 -91 
Q 1328 -91 801 392 
Q 275 875 275 1747 
Q 275 2603 792 3093 
Q 1309 3584 2216 3584 
Q 3041 3584 3536 3087 
Q 4031 2591 4031 1759 
z
M 2881 2131 
Q 2881 2450 2695 2645 
Q 2509 2841 2209 2841 
Q 1884 2841 1681 2658 
Q 1478 2475 1428 2131 
L 2881 2131 
z
" transform="scale(0.015625)"/>
      <path id="DejaVuSans-Bold-72" d="M 3138 2547 
Q 2991 2616 2845 2648 
Q 2700 2681 2553 2681 
Q 2122 2681 1889 2404 
Q 1656 2128 1656 1613 
L 1656 0 
L 538 0 
L 538 3500 
L 1656 3500 
L 1656 2925 
Q 1872 3269 2151 3426 
Q 2431 3584 2822 3584 
Q 2878 3584 2943 3579 
Q 3009 3575 3134 3559 
L 3138 2547 
z
" transform="scale(0.015625)"/>
      <path id="DejaVuSans-Bold-20" transform="scale(0.015625)"/>
      <path id="DejaVuSans-Bold-61" d="M 2106 1575 
Q 1756 1575 1579 1456 
Q 1403 1338 1403 1106 
Q 1403 894 1545 773 
Q 1688 653 1941 653 
Q 2256 653 2472 879 
Q 2688 1106 2688 1447 
L 2688 1575 
L 2106 1575 
z
M 3816 1997 
L 3816 0 
L 2688 0 
L 2688 519 
Q 2463 200 2181 54 
Q 1900 -91 1497 -91 
Q 953 -91 614 226 
Q 275 544 275 1050 
Q 275 1666 698 1953 
Q 1122 2241 2028 2241 
L 2688 2241 
L 2688 2328 
Q 2688 2594 2478 2717 
Q 2269 2841 1825 2841 
Q 1466 2841 1156 2769 
Q 847 2697 581 2553 
L 581 3406 
Q 941 3494 1303 3539 
Q 1666 3584 2028 3584 
Q 2975 3584 3395 3211 
Q 3816 2838 3816 1997 
z
" transform="scale(0.015625)"/>
      <path id="DejaVuSans-Bold-63" d="M 3366 3391 
L 3366 2478 
Q 3138 2634 2908 2709 
Q 2678 2784 2431 2784 
Q 1963 2784 1702 2511 
Q 1441 2238 1441 1747 
Q 1441 1256 1702 982 
Q 1963 709 2431 709 
Q 2694 709 2930 787 
Q 3166 866 3366 1019 
L 3366 103 
Q 3103 6 2833 -42 
Q 2563 -91 2291 -91 
Q 1344 -91 809 395 
Q 275 881 275 1747 
Q 275 2613 809 3098 
Q 1344 3584 2291 3584 
Q 2566 3584 2833 3536 
Q 3100 3488 3366 3391 
z
" transform="scale(0.015625)"/>
      <path id="DejaVuSans-Bold-73" d="M 3272 3391 
L 3272 2541 
Q 2913 2691 2578 2766 
Q 2244 2841 1947 2841 
Q 1628 2841 1473 2761 
Q 1319 2681 1319 2516 
Q 1319 2381 1436 2309 
Q 1553 2238 1856 2203 
L 2053 2175 
Q 2913 2066 3209 1816 
Q 3506 1566 3506 1031 
Q 3506 472 3093 190 
Q 2681 -91 1863 -91 
Q 1516 -91 1145 -36 
Q 775 19 384 128 
L 384 978 
Q 719 816 1070 734 
Q 1422 653 1784 653 
Q 2113 653 2278 743 
Q 2444 834 2444 1013 
Q 2444 1163 2330 1236 
Q 2216 1309 1875 1350 
L 1678 1375 
Q 931 1469 631 1722 
Q 331 1975 331 2491 
Q 331 3047 712 3315 
Q 1094 3584 1881 3584 
Q 2191 3584 2531 3537 
Q 2872 3491 3272 3391 
z
" transform="scale(0.015625)"/>
      <path id="DejaVuSans-Bold-64" d="M 2919 2988 
L 2919 4863 
L 4044 4863 
L 4044 0 
L 2919 0 
L 2919 506 
Q 2688 197 2409 53 
Q 2131 -91 1766 -91 
Q 1119 -91 703 423 
Q 288 938 288 1747 
Q 288 2556 703 3070 
Q 1119 3584 1766 3584 
Q 2128 3584 2408 3439 
Q 2688 3294 2919 2988 
z
M 2181 722 
Q 2541 722 2730 984 
Q 2919 1247 2919 1747 
Q 2919 2247 2730 2509 
Q 2541 2772 2181 2772 
Q 1825 2772 1636 2509 
Q 1447 2247 1447 1747 
Q 1447 1247 1636 984 
Q 1825 722 2181 722 
z
" transform="scale(0.015625)"/>
      <path id="DejaVuSans-Bold-75" d="M 500 1363 
L 500 3500 
L 1625 3500 
L 1625 3150 
Q 1625 2866 1622 2436 
Q 1619 2006 1619 1863 
Q 1619 1441 1641 1255 
Q 1663 1069 1716 984 
Q 1784 875 1895 815 
Q 2006 756 2150 756 
Q 2500 756 2700 1025 
Q 2900 1294 2900 1772 
L 2900 3500 
L 4019 3500 
L 4019 0 
L 2900 0 
L 2900 506 
Q 2647 200 2364 54 
Q 2081 -91 1741 -91 
Q 1134 -91 817 281 
Q 500 653 500 1363 
z
" transform="scale(0.015625)"/>
      <path id="DejaVuSans-Bold-6c" d="M 538 4863 
L 1656 4863 
L 1656 0 
L 538 0 
L 538 4863 
z
" transform="scale(0.015625)"/>
      <path id="DejaVuSans-Bold-70" d="M 1656 506 
L 1656 -1331 
L 538 -1331 
L 538 3500 
L 1656 3500 
L 1656 2988 
Q 1888 3294 2169 3439 
Q 2450 3584 2816 3584 
Q 3463 3584 3878 3070 
Q 4294 2556 4294 1747 
Q 4294 938 3878 423 
Q 3463 -91 2816 -91 
Q 2450 -91 2169 54 
Q 1888 200 1656 506 
z
M 2400 2772 
Q 2041 2772 1848 2508 
Q 1656 2244 1656 1747 
Q 1656 1250 1848 986 
Q 2041 722 2400 722 
Q 2759 722 2948 984 
Q 3138 1247 3138 1747 
Q 3138 2247 2948 2509 
Q 2759 2772 2400 2772 
z
" transform="scale(0.015625)"/>
      <path id="DejaVuSans-Bold-6e" d="M 4056 2131 
L 4056 0 
L 2931 0 
L 2931 347 
L 2931 1631 
Q 2931 2084 2911 2256 
Q 2891 2428 2841 2509 
Q 2775 2619 2662 2680 
Q 2550 2741 2406 2741 
Q 2056 2741 1856 2470 
Q 1656 2200 1656 1722 
L 1656 0 
L 538 0 
L 538 3500 
L 1656 3500 
L 1656 2988 
Q 1909 3294 2193 3439 
Q 2478 3584 2822 3584 
Q 3428 3584 3742 3212 
Q 4056 2841 4056 2131 
z
" transform="scale(0.015625)"/>
      <path id="DejaVuSans-Bold-69" d="M 538 3500 
L 1656 3500 
L 1656 0 
L 538 0 
L 538 3500 
z
M 538 4863 
L 1656 4863 
L 1656 3950 
L 538 3950 
L 538 4863 
z
" transform="scale(0.015625)"/>
      <path id="DejaVuSans-Bold-74" d="M 1759 4494 
L 1759 3500 
L 2913 3500 
L 2913 2700 
L 1759 2700 
L 1759 1216 
Q 1759 972 1856 886 
Q 1953 800 2241 800 
L 2816 800 
L 2816 0 
L 1856 0 
Q 1194 0 917 276 
Q 641 553 641 1216 
L 641 2700 
L 84 2700 
L 84 3500 
L 641 3500 
L 641 4494 
L 1759 4494 
z
" transform="scale(0.015625)"/>
      <path id="DejaVuSans-Bold-6f" d="M 2203 2784 
Q 1831 2784 1636 2517 
Q 1441 2250 1441 1747 
Q 1441 1244 1636 976 
Q 1831 709 2203 709 
Q 2569 709 2762 976 
Q 2956 1244 2956 1747 
Q 2956 2250 2762 2517 
Q 2569 2784 2203 2784 
z
M 2203 3584 
Q 3106 3584 3614 3096 
Q 4122 2609 4122 1747 
Q 4122 884 3614 396 
Q 3106 -91 2203 -91 
Q 1297 -91 786 396 
Q 275 884 275 1747 
Q 275 2609 786 3096 
Q 1297 3584 2203 3584 
z
" transform="scale(0.015625)"/>
     </defs>
     <use xlink:href="#DejaVuSans-Bold-57"/>
     <use xlink:href="#DejaVuSans-Bold-68" transform="translate(110.302734 0)"/>
     <use xlink:href="#DejaVuSans-Bold-65" transform="translate(181.494141 0)"/>
     <use xlink:href="#DejaVuSans-Bold-72" transform="translate(249.316406 0)"/>
     <use xlink:href="#DejaVuSans-Bold-65" transform="translate(298.632812 0)"/>
     <use xlink:href="#DejaVuSans-Bold-20" transform="translate(366.455078 0)"/>
     <use xlink:href="#DejaVuSans-Bold-65" transform="translate(401.269531 0)"/>
     <use xlink:href="#DejaVuSans-Bold-61" transform="translate(469.091797 0)"/>
     <use xlink:href="#DejaVuSans-Bold-63" transform="translate(536.572266 0)"/>
     <use xlink:href="#DejaVuSans-Bold-68" transform="translate(595.849609 0)"/>
     <use xlink:href="#DejaVuSans-Bold-20" transform="translate(667.041016 0)"/>
     <use xlink:href="#DejaVuSans-Bold-73" transform="translate(701.855469 0)"/>
     <use xlink:href="#DejaVuSans-Bold-63" transform="translate(761.376953 0)"/>
     <use xlink:href="#DejaVuSans-Bold-68" transform="translate(820.654297 0)"/>
     <use xlink:href="#DejaVuSans-Bold-65" transform="translate(891.845703 0)"/>
     <use xlink:href="#DejaVuSans-Bold-64" transform="translate(959.667969 0)"/>
     <use xlink:href="#DejaVuSans-Bold-75" transform="translate(1031.25 0)"/>
     <use xlink:href="#DejaVuSans-Bold-6c" transform="translate(1102.441406 0)"/>
     <use xlink:href="#DejaVuSans-Bold-65" transform="translate(1136.71875 0)"/>
     <use xlink:href="#DejaVuSans-Bold-72" transform="translate(1204.541016 0)"/>
     <use xlink:href="#DejaVuSans-Bold-20" transform="translate(1253.857422 0)"/>
     <use xlink:href="#DejaVuSans-Bold-73" transform="translate(1288.671875 0)"/>
     <use xlink:href="#DejaVuSans-Bold-70" transform="translate(1348.193359 0)"/>
     <use xlink:href="#DejaVuSans-Bold-65" transform="translate(1419.775391 0)"/>
     <use xlink:href="#DejaVuSans-Bold-6e" transform="translate(1487.597656 0)"/>
     <use xlink:href="#DejaVuSans-Bold-64" transform="translate(1558.789062 0)"/>
     <use xlink:href="#DejaVuSans-Bold-73" transform="translate(1630.371094 0)"/>
     <use xlink:href="#DejaVuSans-Bold-20" transform="translate(1689.892578 0)"/>
     <use xlink:href="#DejaVuSans-Bold-69" transform="translate(1724.707031 0)"/>
     <use xlink:href="#DejaVuSans-Bold-74" transform="translate(1758.984375 0)"/>
     <use xlink:href="#DejaVuSans-Bold-73" transform="translate(1806.787109 0)"/>
     <use xlink:href="#DejaVuSans-Bold-20" transform="translate(1866.308594 0)"/>
     <use xlink:href="#DejaVuSans-Bold-69" transform="translate(1901.123047 0)"/>
     <use xlink:href="#DejaVuSans-Bold-74" transform="translate(1935.400391 0)"/>
     <use xlink:href="#DejaVuSans-Bold-65" transform="translate(1983.203125 0)"/>
     <use xlink:href="#DejaVuSans-Bold-72" transform="translate(2051.025391 0)"/>
     <use xlink:href="#DejaVuSans-Bold-61" transform="translate(2100.341797 0)"/>
     <use xlink:href="#DejaVuSans-Bold-74" transform="translate(2167.822266 0)"/>
     <use xlink:href="#DejaVuSans-Bold-69" transform="translate(2215.625 0)"/>
     <use xlink:href="#DejaVuSans-Bold-6f" transform="translate(2249.902344 0)"/>
     <use xlink:href="#DejaVuSans-Bold-6e" transform="translate(2318.603516 0)"/>
    </g>
   </g>
   <g id="legend_1">
    <g id="patch_16">
     <path d="M 310.420547 330.862428 
L 332.420547 330.862428 
L 332.420547 323.162428 
L 310.420547 323.162428 
z
" style="fill: #e69f00; stroke: #e69f00; stroke-linejoin: miter"/>
    </g>
    <g id="text_23">
     <!-- Contact detection -->
     <g transform="translate(341.220547 330.862428) scale(0.11 -0.11)">
      <use xlink:href="#DejaVuSans-43"/>
      <use xlink:href="#DejaVuSans-6f" transform="translate(69.824219 0)"/>
      <use xlink:href="#DejaVuSans-6e" transform="translate(131.005859 0)"/>
      <use xlink:href="#DejaVuSans-74" transform="translate(194.384766 0)"/>
      <use xlink:href="#DejaVuSans-61" transform="translate(233.59375 0)"/>
      <use xlink:href="#DejaVuSans-63" transform="translate(294.873047 0)"/>
      <use xlink:href="#DejaVuSans-74" transform="translate(349.853516 0)"/>
      <use xlink:href="#DejaVuSans-20" transform="translate(389.0625 0)"/>
      <use xlink:href="#DejaVuSans-64" transform="translate(420.849609 0)"/>
      <use xlink:href="#DejaVuSans-65" transform="translate(484.326172 0)"/>
      <use xlink:href="#DejaVuSans-74" transform="translate(545.849609 0)"/>
      <use xlink:href="#DejaVuSans-65" transform="translate(585.058594 0)"/>
      <use xlink:href="#DejaVuSans-63" transform="translate(646.582031 0)"/>
      <use xlink:href="#DejaVuSans-74" transform="translate(701.5625 0)"/>
      <use xlink:href="#DejaVuSans-69" transform="translate(740.771484 0)"/>
      <use xlink:href="#DejaVuSans-6f" transform="translate(768.554688 0)"/>
      <use xlink:href="#DejaVuSans-6e" transform="translate(829.736328 0)"/>
     </g>
    </g>
    <g id="patch_17">
     <path d="M 310.420547 347.008366 
L 332.420547 347.008366 
L 332.420547 339.308366 
L 310.420547 339.308366 
z
" style="fill: #009e73; stroke: #009e73; stroke-linejoin: miter"/>
    </g>
    <g id="text_24">
     <!-- Polarization + internal forces -->
     <g transform="translate(341.220547 347.008366) scale(0.11 -0.11)">
      <defs>
       <path id="DejaVuSans-50" d="M 1259 4147 
L 1259 2394 
L 2053 2394 
Q 2494 2394 2734 2622 
Q 2975 2850 2975 3272 
Q 2975 3691 2734 3919 
Q 2494 4147 2053 4147 
L 1259 4147 
z
M 628 4666 
L 2053 4666 
Q 2838 4666 3239 4311 
Q 3641 3956 3641 3272 
Q 3641 2581 3239 2228 
Q 2838 1875 2053 1875 
L 1259 1875 
L 1259 0 
L 628 0 
L 628 4666 
z
" transform="scale(0.015625)"/>
       <path id="DejaVuSans-7a" d="M 353 3500 
L 3084 3500 
L 3084 2975 
L 922 459 
L 3084 459 
L 3084 0 
L 275 0 
L 275 525 
L 2438 3041 
L 353 3041 
L 353 3500 
z
" transform="scale(0.015625)"/>
       <path id="DejaVuSans-2b" d="M 2944 4013 
L 2944 2272 
L 4684 2272 
L 4684 1741 
L 2944 1741 
L 2944 0 
L 2419 0 
L 2419 1741 
L 678 1741 
L 678 2272 
L 2419 2272 
L 2419 4013 
L 2944 4013 
z
" transform="scale(0.015625)"/>
      </defs>
      <use xlink:href="#DejaVuSans-50"/>
      <use xlink:href="#DejaVuSans-6f" transform="translate(56.677734 0)"/>
      <use xlink:href="#DejaVuSans-6c" transform="translate(117.859375 0)"/>
      <use xlink:href="#DejaVuSans-61" transform="translate(145.642578 0)"/>
      <use xlink:href="#DejaVuSans-72" transform="translate(206.921875 0)"/>
      <use xlink:href="#DejaVuSans-69" transform="translate(248.035156 0)"/>
      <use xlink:href="#DejaVuSans-7a" transform="translate(275.818359 0)"/>
      <use xlink:href="#DejaVuSans-61" transform="translate(328.308594 0)"/>
      <use xlink:href="#DejaVuSans-74" transform="translate(389.587891 0)"/>
      <use xlink:href="#DejaVuSans-69" transform="translate(428.796875 0)"/>
      <use xlink:href="#DejaVuSans-6f" transform="translate(456.580078 0)"/>
      <use xlink:href="#DejaVuSans-6e" transform="translate(517.761719 0)"/>
      <use xlink:href="#DejaVuSans-20" transform="translate(581.140625 0)"/>
      <use xlink:href="#DejaVuSans-2b" transform="translate(612.927734 0)"/>
      <use xlink:href="#DejaVuSans-20" transform="translate(696.716797 0)"/>
      <use xlink:href="#DejaVuSans-69" transform="translate(728.503906 0)"/>
      <use xlink:href="#DejaVuSans-6e" transform="translate(756.287109 0)"/>
      <use xlink:href="#DejaVuSans-74" transform="translate(819.666016 0)"/>
      <use xlink:href="#DejaVuSans-65" transform="translate(858.875 0)"/>
      <use xlink:href="#DejaVuSans-72" transform="translate(920.398438 0)"/>
      <use xlink:href="#DejaVuSans-6e" transform="translate(959.761719 0)"/>
      <use xlink:href="#DejaVuSans-61" transform="translate(1023.140625 0)"/>
      <use xlink:href="#DejaVuSans-6c" transform="translate(1084.419922 0)"/>
      <use xlink:href="#DejaVuSans-20" transform="translate(1112.203125 0)"/>
      <use xlink:href="#DejaVuSans-66" transform="translate(1143.990234 0)"/>
      <use xlink:href="#DejaVuSans-6f" transform="translate(1179.195312 0)"/>
      <use xlink:href="#DejaVuSans-72" transform="translate(1240.376953 0)"/>
      <use xlink:href="#DejaVuSans-63" transform="translate(1279.240234 0)"/>
      <use xlink:href="#DejaVuSans-65" transform="translate(1334.220703 0)"/>
      <use xlink:href="#DejaVuSans-73" transform="translate(1395.744141 0)"/>
     </g>
    </g>
    <g id="patch_18">
     <path d="M 522.479922 330.862428 
L 544.479922 330.862428 
L 544.479922 323.162428 
L 522.479922 323.162428 
z
" style="fill: #cc79a7; stroke: #cc79a7; stroke-linejoin: miter"/>
    </g>
    <g id="text_25">
     <!-- Time integration -->
     <g transform="translate(553.279922 330.862428) scale(0.11 -0.11)">
      <defs>
       <path id="DejaVuSans-54" d="M -19 4666 
L 3928 4666 
L 3928 4134 
L 2272 4134 
L 2272 0 
L 1638 0 
L 1638 4134 
L -19 4134 
L -19 4666 
z
" transform="scale(0.015625)"/>
       <path id="DejaVuSans-67" d="M 2906 1791 
Q 2906 2416 2648 2759 
Q 2391 3103 1925 3103 
Q 1463 3103 1205 2759 
Q 947 2416 947 1791 
Q 947 1169 1205 825 
Q 1463 481 1925 481 
Q 2391 481 2648 825 
Q 2906 1169 2906 1791 
z
M 3481 434 
Q 3481 -459 3084 -895 
Q 2688 -1331 1869 -1331 
Q 1566 -1331 1297 -1286 
Q 1028 -1241 775 -1147 
L 775 -588 
Q 1028 -725 1275 -790 
Q 1522 -856 1778 -856 
Q 2344 -856 2625 -561 
Q 2906 -266 2906 331 
L 2906 616 
Q 2728 306 2450 153 
Q 2172 0 1784 0 
Q 1141 0 747 490 
Q 353 981 353 1791 
Q 353 2603 747 3093 
Q 1141 3584 1784 3584 
Q 2172 3584 2450 3431 
Q 2728 3278 2906 2969 
L 2906 3500 
L 3481 3500 
L 3481 434 
z
" transform="scale(0.015625)"/>
      </defs>
      <use xlink:href="#DejaVuSans-54"/>
      <use xlink:href="#DejaVuSans-69" transform="translate(57.958984 0)"/>
      <use xlink:href="#DejaVuSans-6d" transform="translate(85.742188 0)"/>
      <use xlink:href="#DejaVuSans-65" transform="translate(183.154297 0)"/>
      <use xlink:href="#DejaVuSans-20" transform="translate(244.677734 0)"/>
      <use xlink:href="#DejaVuSans-69" transform="translate(276.464844 0)"/>
      <use xlink:href="#DejaVuSans-6e" transform="translate(304.248047 0)"/>
      <use xlink:href="#DejaVuSans-74" transform="translate(367.626953 0)"/>
      <use xlink:href="#DejaVuSans-65" transform="translate(406.835938 0)"/>
      <use xlink:href="#DejaVuSans-67" transform="translate(468.359375 0)"/>
      <use xlink:href="#DejaVuSans-72" transform="translate(531.835938 0)"/>
      <use xlink:href="#DejaVuSans-61" transform="translate(572.949219 0)"/>
      <use xlink:href="#DejaVuSans-74" transform="translate(634.228516 0)"/>
      <use xlink:href="#DejaVuSans-69" transform="translate(673.4375 0)"/>
      <use xlink:href="#DejaVuSans-6f" transform="translate(701.220703 0)"/>
      <use xlink:href="#DejaVuSans-6e" transform="translate(762.402344 0)"/>
     </g>
    </g>
    <g id="patch_19">
     <path d="M 522.479922 347.008366 
L 544.479922 347.008366 
L 544.479922 339.308366 
L 522.479922 339.308366 
z
" style="fill: #56b4e9; stroke: #56b4e9; stroke-linejoin: miter"/>
    </g>
    <g id="text_26">
     <!-- Mesh refinement -->
     <g transform="translate(553.279922 347.008366) scale(0.11 -0.11)">
      <defs>
       <path id="DejaVuSans-4d" d="M 628 4666 
L 1569 4666 
L 2759 1491 
L 3956 4666 
L 4897 4666 
L 4897 0 
L 4281 0 
L 4281 4097 
L 3078 897 
L 2444 897 
L 1241 4097 
L 1241 0 
L 628 0 
L 628 4666 
z
" transform="scale(0.015625)"/>
      </defs>
      <use xlink:href="#DejaVuSans-4d"/>
      <use xlink:href="#DejaVuSans-65" transform="translate(86.279297 0)"/>
      <use xlink:href="#DejaVuSans-73" transform="translate(147.802734 0)"/>
      <use xlink:href="#DejaVuSans-68" transform="translate(199.902344 0)"/>
      <use xlink:href="#DejaVuSans-20" transform="translate(263.28125 0)"/>
      <use xlink:href="#DejaVuSans-72" transform="translate(295.068359 0)"/>
      <use xlink:href="#DejaVuSans-65" transform="translate(333.931641 0)"/>
      <use xlink:href="#DejaVuSans-66" transform="translate(395.455078 0)"/>
      <use xlink:href="#DejaVuSans-69" transform="translate(430.660156 0)"/>
      <use xlink:href="#DejaVuSans-6e" transform="translate(458.443359 0)"/>
      <use xlink:href="#DejaVuSans-65" transform="translate(521.822266 0)"/>
      <use xlink:href="#DejaVuSans-6d" transform="translate(583.345703 0)"/>
      <use xlink:href="#DejaVuSans-65" transform="translate(680.757812 0)"/>
      <use xlink:href="#DejaVuSans-6e" transform="translate(742.28125 0)"/>
      <use xlink:href="#DejaVuSans-74" transform="translate(805.660156 0)"/>
     </g>
    </g>
   </g>
  </g>
 </g>
 <defs>
  <clipPath id="p743ec0282e">
   <rect x="129.31" y="47.76" width="698.015" height="228.31392"/>
  </clipPath>
 </defs>
</svg>
