<?xml version="1.0" encoding="utf-8" standalone="no"?>
<!DOCTYPE svg PUBLIC "-//W3C//DTD SVG 1.1//EN"
  "http://www.w3.org/Graphics/SVG/1.1/DTD/svg11.dtd">
<svg xmlns:xlink="http://www.w3.org/1999/xlink" width="705.6pt" height="403.2pt" viewBox="0 0 705.6 403.2" xmlns="http://www.w3.org/2000/svg" version="1.1">
 <metadata>
  <rdf:RDF xmlns:dc="http://purl.org/dc/elements/1.1/" xmlns:cc="http://creativecommons.org/ns#" xmlns:rdf="http://www.w3.org/1999/02/22-rdf-syntax-ns#">
   <cc:Work>
    <dc:type rdf:resource="http://purl.org/dc/dcmitype/StillImage"/>
    <dc:date>2026-06-07T22:56:47.754851</dc:date>
    <dc:format>image/svg+xml</dc:format>
    <dc:creator>
     <cc:Agent>
      <dc:title>Matplotlib v3.10.9, https://matplotlib.org/</dc:title>
     </cc:Agent>
    </dc:creator>
   </cc:Work>
  </rdf:RDF>
 </metadata>
 <defs>
  <style type="text/css">*{stroke-linejoin: round; stroke-linecap: butt}</style>
 </defs>
 <g id="figure_1">
  <g id="patch_1">
   <path d="M 0 403.2 
L 705.6 403.2 
L 705.6 0 
L 0 0 
z
" style="fill: #fbfaf7"/>
  </g>
  <g id="axes_1">
   <g id="patch_2">
    <path d="M 77.616 350.784 
L 684.432 350.784 
L 684.432 80.64 
L 77.616 80.64 
z
" style="fill: #fbfaf7"/>
   </g>
   <g id="matplotlib.axis_1">
    <g id="xtick_1">
     <g id="line2d_1">
      <defs>
       <path id="mb2b96237fe" d="M 0 0 
L 0 4 
" style="stroke: #a8a29e; stroke-width: 0.8"/>
      </defs>
      <g>
       <use xlink:href="#mb2b96237fe" x="77.616" y="350.784" style="fill: #a8a29e; stroke: #a8a29e; stroke-width: 0.8"/>
      </g>
     </g>
     <g id="text_1">
      <text style="font-size: 11px; font-family: 'DejaVu Sans', 'Bitstream Vera Sans', 'Computer Modern Sans Serif', 'Lucida Grande', 'Verdana', 'Geneva', 'Lucid', 'Arial', 'Helvetica', 'Avant Garde', sans-serif; text-anchor: middle; fill: #6b7280" x="77.616" y="366.642281" transform="rotate(-0 77.616 366.642281)">0</text>
     </g>
    </g>
    <g id="xtick_2">
     <g id="line2d_2">
      <g>
       <use xlink:href="#mb2b96237fe" x="165.017487" y="350.784" style="fill: #a8a29e; stroke: #a8a29e; stroke-width: 0.8"/>
      </g>
     </g>
     <g id="text_2">
      <text style="font-size: 11px; font-family: 'DejaVu Sans', 'Bitstream Vera Sans', 'Computer Modern Sans Serif', 'Lucida Grande', 'Verdana', 'Geneva', 'Lucid', 'Arial', 'Helvetica', 'Avant Garde', sans-serif; text-anchor: middle; fill: #6b7280" x="165.017487" y="366.642281" transform="rotate(-0 165.017487 366.642281)">5</text>
     </g>
    </g>
    <g id="xtick_3">
     <g id="line2d_3">
      <g>
       <use xlink:href="#mb2b96237fe" x="252.418975" y="350.784" style="fill: #a8a29e; stroke: #a8a29e; stroke-width: 0.8"/>
      </g>
     </g>
     <g id="text_3">
      <text style="font-size: 11px; font-family: 'DejaVu Sans', 'Bitstream Vera Sans', 'Computer Modern Sans Serif', 'Lucida Grande', 'Verdana', 'Geneva', 'Lucid', 'Arial', 'Helvetica', 'Avant Garde', sans-serif; text-anchor: middle; fill: #6b7280" x="252.418975" y="366.642281" transform="rotate(-0 252.418975 366.642281)">10</text>
     </g>
    </g>
    <g id="xtick_4">
     <g id="line2d_4">
      <g>
       <use xlink:href="#mb2b96237fe" x="339.820462" y="350.784" style="fill: #a8a29e; stroke: #a8a29e; stroke-width: 0.8"/>
      </g>
     </g>
     <g id="text_4">
      <text style="font-size: 11px; font-family: 'DejaVu Sans', 'Bitstream Vera Sans', 'Computer Modern Sans Serif', 'Lucida Grande', 'Verdana', 'Geneva', 'Lucid', 'Arial', 'Helvetica', 'Avant Garde', sans-serif; text-anchor: middle; fill: #6b7280" x="339.820462" y="366.642281" transform="rotate(-0 339.820462 366.642281)">15</text>
     </g>
    </g>
    <g id="xtick_5">
     <g id="line2d_5">
      <g>
       <use xlink:href="#mb2b96237fe" x="427.22195" y="350.784" style="fill: #a8a29e; stroke: #a8a29e; stroke-width: 0.8"/>
      </g>
     </g>
     <g id="text_5">
      <text style="font-size: 11px; font-family: 'DejaVu Sans', 'Bitstream Vera Sans', 'Computer Modern Sans Serif', 'Lucida Grande', 'Verdana', 'Geneva', 'Lucid', 'Arial', 'Helvetica', 'Avant Garde', sans-serif; text-anchor: middle; fill: #6b7280" x="427.22195" y="366.642281" transform="rotate(-0 427.22195 366.642281)">20</text>
     </g>
    </g>
    <g id="xtick_6">
     <g id="line2d_6">
      <g>
       <use xlink:href="#mb2b96237fe" x="514.623437" y="350.784" style="fill: #a8a29e; stroke: #a8a29e; stroke-width: 0.8"/>
      </g>
     </g>
     <g id="text_6">
      <text style="font-size: 11px; font-family: 'DejaVu Sans', 'Bitstream Vera Sans', 'Computer Modern Sans Serif', 'Lucida Grande', 'Verdana', 'Geneva', 'Lucid', 'Arial', 'Helvetica', 'Avant Garde', sans-serif; text-anchor: middle; fill: #6b7280" x="514.623437" y="366.642281" transform="rotate(-0 514.623437 366.642281)">25</text>
     </g>
    </g>
    <g id="xtick_7">
     <g id="line2d_7">
      <g>
       <use xlink:href="#mb2b96237fe" x="602.024925" y="350.784" style="fill: #a8a29e; stroke: #a8a29e; stroke-width: 0.8"/>
      </g>
     </g>
     <g id="text_7">
      <text style="font-size: 11px; font-family: 'DejaVu Sans', 'Bitstream Vera Sans', 'Computer Modern Sans Serif', 'Lucida Grande', 'Verdana', 'Geneva', 'Lucid', 'Arial', 'Helvetica', 'Avant Garde', sans-serif; text-anchor: middle; fill: #6b7280" x="602.024925" y="366.642281" transform="rotate(-0 602.024925 366.642281)">30</text>
     </g>
    </g>
    <g id="text_8">
     <text style="font-size: 12px; font-family: 'DejaVu Sans', 'Bitstream Vera Sans', 'Computer Modern Sans Serif', 'Lucida Grande', 'Verdana', 'Geneva', 'Lucid', 'Arial', 'Helvetica', 'Avant Garde', sans-serif; text-anchor: middle; fill: #6b7280" x="381.024" y="386.048063" transform="rotate(-0 381.024 386.048063)">wall-clock hours</text>
    </g>
   </g>
   <g id="matplotlib.axis_2">
    <g id="ytick_1">
     <g id="line2d_8">
      <path d="M 77.616 350.784 
L 684.432 350.784 
" clip-path="url(#pedfbb27b79)" style="fill: none; stroke: #e7e5df; stroke-opacity: 0.7; stroke-width: 0.8; stroke-linecap: square"/>
     </g>
     <g id="line2d_9">
      <defs>
       <path id="me0c2f88aeb" d="M 0 0 
L -4 0 
" style="stroke: #a8a29e; stroke-width: 0.8"/>
      </defs>
      <g>
       <use xlink:href="#me0c2f88aeb" x="77.616" y="350.784" style="fill: #a8a29e; stroke: #a8a29e; stroke-width: 0.8"/>
      </g>
     </g>
     <g id="text_9">
      <text style="font-size: 11px; font-family: 'DejaVu Sans', 'Bitstream Vera Sans', 'Computer Modern Sans Serif', 'Lucida Grande', 'Verdana', 'Geneva', 'Lucid', 'Arial', 'Helvetica', 'Avant Garde', sans-serif; text-anchor: end; fill: #6b7280" x="70.116" y="354.963141" transform="rotate(-0 70.116 354.963141)">1</text>
     </g>
    </g>
    <g id="ytick_2">
     <g id="line2d_10">
      <path d="M 77.616 305.76 
L 684.432 305.76 
" clip-path="url(#pedfbb27b79)" style="fill: none; stroke: #e7e5df; stroke-opacity: 0.7; stroke-width: 0.8; stroke-linecap: square"/>
     </g>
     <g id="line2d_11">
      <g>
       <use xlink:href="#me0c2f88aeb" x="77.616" y="305.76" style="fill: #a8a29e; stroke: #a8a29e; stroke-width: 0.8"/>
      </g>
     </g>
     <g id="text_10">
      <text style="font-size: 11px; font-family: 'DejaVu Sans', 'Bitstream Vera Sans', 'Computer Modern Sans Serif', 'Lucida Grande', 'Verdana', 'Geneva', 'Lucid', 'Arial', 'Helvetica', 'Avant Garde', sans-serif; text-anchor: end; fill: #6b7280" x="70.116" y="309.939141" transform="rotate(-0 70.116 309.939141)">10</text>
     </g>
    </g>
    <g id="ytick_3">
     <g id="line2d_12">
      <path d="M 77.616 260.736 
L 684.432 260.736 
" clip-path="url(#pedfbb27b79)" style="fill: none; stroke: #e7e5df; stroke-opacity: 0.7; stroke-width: 0.8; stroke-linecap: square"/>
     </g>
     <g id="line2d_13">
      <g>
       <use xlink:href="#me0c2f88aeb" x="77.616" y="260.736" style="fill: #a8a29e; stroke: #a8a29e; stroke-width: 0.8"/>
      </g>
     </g>
     <g id="text_11">
      <text style="font-size: 11px; font-family: 'DejaVu Sans', 'Bitstream Vera Sans', 'Computer Modern Sans Serif', 'Lucida Grande', 'Verdana', 'Geneva', 'Lucid', 'Arial', 'Helvetica', 'Avant Garde', sans-serif; text-anchor: end; fill: #6b7280" x="70.116" y="264.915141" transform="rotate(-0 70.116 264.915141)">100</text>
     </g>
    </g>
    <g id="ytick_4">
     <g id="line2d_14">
      <path d="M 77.616 215.712 
L 684.432 215.712 
" clip-path="url(#pedfbb27b79)" style="fill: none; stroke: #e7e5df; stroke-opacity: 0.7; stroke-width: 0.8; stroke-linecap: square"/>
     </g>
     <g id="line2d_15">
      <g>
       <use xlink:href="#me0c2f88aeb" x="77.616" y="215.712" style="fill: #a8a29e; stroke: #a8a29e; stroke-width: 0.8"/>
      </g>
     </g>
     <g id="text_12">
      <text style="font-size: 11px; font-family: 'DejaVu Sans', 'Bitstream Vera Sans', 'Computer Modern Sans Serif', 'Lucida Grande', 'Verdana', 'Geneva', 'Lucid', 'Arial', 'Helvetica', 'Avant Garde', sans-serif; text-anchor: end; fill: #6b7280" x="70.116" y="219.891141" transform="rotate(-0 70.116 219.891141)">1k</text>
     </g>
    </g>
    <g id="ytick_5">
     <g id="line2d_16">
      <path d="M 77.616 170.688 
L 684.432 170.688 
" clip-path="url(#pedfbb27b79)" style="fill: none; stroke: #e7e5df; stroke-opacity: 0.7; stroke-width: 0.8; stroke-linecap: square"/>
     </g>
     <g id="line2d_17">
      <g>
       <use xlink:href="#me0c2f88aeb" x="77.616" y="170.688" style="fill: #a8a29e; stroke: #a8a29e; stroke-width: 0.8"/>
      </g>
     </g>
     <g id="text_13">
      <text style="font-size: 11px; font-family: 'DejaVu Sans', 'Bitstream Vera Sans', 'Computer Modern Sans Serif', 'Lucida Grande', 'Verdana', 'Geneva', 'Lucid', 'Arial', 'Helvetica', 'Avant Garde', sans-serif; text-anchor: end; fill: #6b7280" x="70.116" y="174.867141" transform="rotate(-0 70.116 174.867141)">10k</text>
     </g>
    </g>
    <g id="ytick_6">
     <g id="line2d_18">
      <path d="M 77.616 157.134425 
L 684.432 157.134425 
" clip-path="url(#pedfbb27b79)" style="fill: none; stroke: #e7e5df; stroke-opacity: 0.7; stroke-width: 0.8; stroke-linecap: square"/>
     </g>
     <g id="line2d_19">
      <g>
       <use xlink:href="#me0c2f88aeb" x="77.616" y="157.134425" style="fill: #a8a29e; stroke: #a8a29e; stroke-width: 0.8"/>
      </g>
     </g>
     <g id="text_14">
      <text style="font-size: 11px; font-family: 'DejaVu Sans', 'Bitstream Vera Sans', 'Computer Modern Sans Serif', 'Lucida Grande', 'Verdana', 'Geneva', 'Lucid', 'Arial', 'Helvetica', 'Avant Garde', sans-serif; text-anchor: end; fill: #6b7280" x="70.116" y="161.313566" transform="rotate(-0 70.116 161.313566)">20k</text>
     </g>
    </g>
   </g>
   <g id="line2d_20">
    <path d="M 77.616 337.230425 
L 77.907338 294.266611 
L 78.198677 283.016127 
L 78.494871 278.17002 
L 78.786209 269.770491 
L 79.368885 265.594333 
L 79.665079 263.235612 
L 79.956418 259.413025 
L 80.247756 258.173916 
L 80.539094 256.062341 
L 80.830432 255.159704 
L 81.126626 253.87937 
L 82.296835 251.668296 
L 82.879512 248.70686 
L 83.17085 246.604442 
L 83.467044 245.768291 
L 84.637253 244.112425 
L 84.928591 244.112425 
L 85.511268 242.508767 
L 85.802606 241.977178 
L 86.0988 241.679778 
L 86.681477 240.533447 
L 87.269009 239.582734 
L 87.560347 239.582734 
L 87.851685 239.254093 
L 88.730556 237.331264 
L 89.02675 237.331264 
L 89.318088 236.351936 
L 89.609426 235.907515 
L 89.900765 235.907515 
L 90.488297 234.478058 
L 90.784491 234.478058 
L 91.075829 233.825372 
L 91.367167 233.825372 
L 91.658506 233.289621 
L 91.9547 233.289621 
L 92.537376 231.720797 
L 92.828714 231.720797 
L 93.124908 231.152717 
L 93.416247 231.152717 
L 93.712441 230.517114 
L 94.003779 230.517114 
L 94.295117 229.861164 
L 94.882649 229.861164 
L 95.173988 229.422633 
L 95.465326 229.422633 
L 95.76152 228.87836 
L 96.052858 228.87836 
L 96.349052 228.498665 
L 96.931729 228.498665 
L 97.223067 228.089344 
L 97.519261 228.089344 
L 97.810599 227.688416 
L 98.106793 227.688416 
L 98.398131 227.014696 
L 98.980808 227.014696 
L 99.277002 226.296108 
L 100.447211 226.296108 
L 100.738549 225.28138 
L 101.335793 225.28138 
L 101.627131 224.684514 
L 102.214663 224.684514 
L 102.506001 224.225846 
L 103.093534 224.225846 
L 103.384872 223.630558 
L 103.972404 223.630558 
L 104.263742 222.967659 
L 105.142613 222.967659 
L 105.438807 222.408944 
L 106.021483 222.408944 
L 106.312822 221.732279 
L 107.191692 221.732279 
L 107.487886 221.052537 
L 108.070563 221.052537 
L 108.366757 220.271797 
L 109.245627 220.271797 
L 109.536965 219.640195 
L 110.415836 219.640195 
L 110.707174 218.982077 
L 111.586045 218.982077 
L 111.882239 218.502628 
L 113.057303 218.502628 
L 113.348641 217.859284 
L 114.227512 217.859284 
L 114.51885 217.299955 
L 115.693915 217.299955 
L 115.985253 216.653321 
L 117.155462 216.653321 
L 117.451656 215.987686 
L 118.621865 215.987686 
L 118.913203 215.45944 
L 120.083412 215.45944 
L 120.379606 214.907524 
L 121.549814 214.907524 
L 121.846008 214.572629 
L 123.016217 214.572629 
L 123.307555 214.116811 
L 124.48262 214.116811 
L 124.773958 213.724298 
L 126.245217 213.724298 
L 126.536555 213.149916 
L 127.706764 213.149916 
L 128.002958 212.642 
L 129.46936 212.642 
L 129.760699 212.033212 
L 131.227101 212.033212 
L 131.51844 211.395709 
L 132.984842 211.395709 
L 133.276181 210.915555 
L 135.033922 210.915555 
L 135.330116 210.298098 
L 137.083001 210.298098 
L 137.379195 209.599158 
L 139.136936 209.599158 
L 139.428274 208.924342 
L 141.186015 208.924342 
L 141.482209 208.406153 
L 143.244806 208.406153 
L 143.541 207.666696 
L 145.585223 207.666696 
L 145.881417 207.117291 
L 147.930497 207.117291 
L 148.226691 206.668907 
L 150.27577 206.668907 
L 150.567108 206.182472 
L 152.912381 206.182472 
L 153.20372 205.567675 
L 155.548993 205.567675 
L 155.840331 205.107567 
L 157.894266 205.107567 
L 158.19046 204.602566 
L 160.822216 204.602566 
L 161.11841 203.98107 
L 163.463683 203.98107 
L 163.755022 203.46215 
L 166.391633 203.46215 
L 166.682971 202.956645 
L 169.610921 202.956645 
L 169.907115 202.573426 
L 172.548582 202.573426 
L 172.839921 202.002618 
L 175.76787 202.002618 
L 176.059209 201.344569 
L 178.987159 201.344569 
L 179.278497 200.83545 
L 182.211302 200.83545 
L 182.502641 200.348162 
L 185.726784 200.348162 
L 186.022978 199.656467 
L 189.251978 199.656467 
L 189.543316 199.088425 
L 193.053942 199.088425 
L 193.345281 198.650484 
L 209.16495 198.650484 
L 209.456288 196.442957 
L 213.564158 196.442957 
L 213.865208 195.803914 
L 217.973078 195.803914 
L 218.264416 195.130421 
L 222.969529 195.130421 
L 223.260868 194.585265 
L 227.660076 194.585265 
L 227.95627 194.080753 
L 232.637105 194.080753 
L 232.928443 193.551122 
L 237.910328 193.551122 
L 238.201666 192.980352 
L 243.188407 192.980352 
L 243.484601 192.461465 
L 248.748112 192.461465 
L 249.039451 191.95019 
L 254.613723 191.95019 
L 254.909917 191.401118 
L 260.469623 191.401118 
L 260.760961 190.82319 
L 266.626572 190.82319 
L 266.917911 190.251215 
L 273.361342 190.251215 
L 273.662392 189.664508 
L 279.814486 189.664508 
L 280.105824 189.074854 
L 286.558967 189.074854 
L 286.850305 188.512191 
L 293.604498 188.512191 
L 293.900692 188.026868 
L 300.368402 188.026868 
L 300.65974 187.557932 
L 307.700416 187.557932 
L 308.001465 186.982648 
L 315.056708 186.982648 
L 315.348046 186.511453 
L 323.277303 186.511453 
L 323.573497 185.918806 
L 331.488187 185.918806 
L 331.779526 185.376723 
L 339.713638 185.376723 
L 340.009832 184.970664 
L 348.211005 184.970664 
L 348.507199 184.398633 
L 357.004566 184.398633 
L 357.295904 183.816057 
L 366.108888 183.816057 
L 366.400226 183.272655 
L 375.504548 183.272655 
L 375.795886 182.696912 
L 385.492595 182.696912 
L 385.793645 182.14115 
L 396.092453 182.14115 
L 396.383792 181.491719 
L 407.226432 181.491719 
L 407.522626 180.92578 
L 418.671171 180.92578 
L 418.962509 180.372552 
L 430.125622 180.372552 
L 430.41696 179.741123 
L 442.434664 179.741123 
L 442.726003 179.117406 
L 455.078746 179.117406 
L 455.370085 178.483818 
L 468.596843 178.483818 
L 468.888181 177.935159 
L 482.100373 177.935159 
L 482.391711 177.423539 
L 496.19629 177.423539 
L 496.487629 176.806961 
L 510.292208 176.806961 
L 510.593258 176.240377 
L 525.621458 176.240377 
L 525.912796 175.785949 
L 541.455694 175.785949 
L 541.756744 175.220658 
L 558.207646 175.220658 
L 558.50384 174.690439 
L 574.998443 174.690439 
L 575.289781 174.139195 
L 592.604987 174.139195 
L 592.906036 173.591721 
L 610.536859 173.591721 
L 610.837908 173.026075 
L 629.051407 173.026075 
L 629.342745 172.437803 
L 648.677897 172.437803 
L 648.974091 171.899972 
L 669.532863 171.899972 
L 669.833912 171.297705 
L 672.533647 171.297705 
L 672.533647 171.297705 
" clip-path="url(#pedfbb27b79)" style="fill: none; stroke: #4b5563; stroke-width: 2.5; stroke-linecap: round"/>
   </g>
   <g id="line2d_21">
    <path d="M 77.616 337.230425 
L 77.907338 287.843149 
L 78.494871 269.462553 
L 78.786209 263.014664 
L 79.368885 256.529782 
L 80.830432 245.497335 
L 81.126626 244.280269 
L 81.417965 243.86333 
L 82.000641 241.16997 
L 83.17085 236.634918 
L 83.467044 236.128463 
L 84.341059 233.531326 
L 84.637253 232.351615 
L 85.219929 231.369261 
L 85.511268 230.85353 
L 86.0988 229.501638 
L 86.390138 229.304721 
L 86.681477 228.498665 
L 86.972815 228.498665 
L 87.269009 227.616395 
L 87.560347 227.616395 
L 87.851685 227.189753 
L 88.147879 226.498738 
L 88.439218 226.195574 
L 88.730556 225.185918 
L 89.02675 225.185918 
L 89.318088 224.135389 
L 89.609426 224.135389 
L 90.196959 222.574889 
L 90.488297 222.574889 
L 90.784491 221.679144 
L 91.075829 221.679144 
L 91.367167 220.873496 
L 91.658506 220.873496 
L 92.246038 220.075276 
L 92.537376 220.075276 
L 92.828714 219.402602 
L 93.124908 219.308367 
L 93.416247 218.547787 
L 93.712441 218.412623 
L 94.003779 217.815686 
L 94.295117 217.815686 
L 94.591311 217.64226 
L 94.882649 217.64226 
L 95.173988 217.11001 
L 95.76152 216.51022 
L 96.052858 216.51022 
L 96.64039 215.849357 
L 96.931729 215.849357 
L 97.223067 215.229169 
L 97.519261 215.229169 
L 97.810599 214.757973 
L 98.398131 214.49898 
L 98.68947 214.062821 
L 98.980808 214.062821 
L 99.56834 213.478557 
L 99.859679 213.478557 
L 100.155872 212.928197 
L 100.447211 212.759339 
L 100.738549 212.376411 
L 101.335793 212.376411 
L 101.627131 211.775711 
L 101.918469 211.775711 
L 102.214663 211.380035 
L 102.506001 211.380035 
L 102.79734 210.793535 
L 103.093534 210.793535 
L 103.384872 210.402147 
L 103.972404 210.402147 
L 104.263742 209.858342 
L 104.555081 209.858342 
L 104.851275 209.428258 
L 105.142613 209.428258 
L 105.438807 208.993559 
L 106.021483 208.993559 
L 106.312822 208.581887 
L 106.609016 208.581887 
L 107.191692 208.112308 
L 107.487886 208.112308 
L 107.779224 207.705608 
L 108.070563 207.705608 
L 108.366757 207.294478 
L 108.658095 207.294478 
L 108.949433 206.916739 
L 109.245627 206.916739 
L 109.536965 206.497275 
L 110.119642 206.399872 
L 110.415836 206.134488 
L 111.003368 206.134488 
L 111.294707 205.731305 
L 112.178433 205.382331 
L 112.761109 205.382331 
L 113.348641 204.803004 
L 113.63998 204.658038 
L 114.227512 204.658038 
L 114.51885 204.30571 
L 115.106382 204.30571 
L 115.397721 203.948901 
L 115.693915 203.948901 
L 115.985253 203.598486 
L 116.572785 203.598486 
L 116.864124 203.264584 
L 117.742994 202.956645 
L 118.330526 202.956645 
L 118.621865 202.613413 
L 118.913203 202.613413 
L 119.500735 202.315484 
L 119.792073 202.315484 
L 120.083412 201.98323 
L 120.379606 201.98323 
L 120.670944 201.666058 
L 120.967138 201.666058 
L 121.258476 201.485751 
L 121.549814 201.485751 
L 122.433541 201.092981 
L 123.016217 201.092981 
L 123.307555 200.771594 
L 123.603749 200.735198 
L 123.895088 200.482306 
L 124.48262 200.482306 
L 124.773958 200.197236 
L 125.36149 200.197236 
L 125.657684 199.933706 
L 127.119231 199.639269 
L 127.706764 199.105145 
L 128.002958 199.105145 
L 128.59049 198.83933 
L 128.886684 198.83933 
L 129.178022 198.585223 
L 129.760699 198.585223 
L 130.052037 198.334376 
L 130.639569 198.334376 
L 131.227101 198.078769 
L 131.51844 198.078769 
L 131.814634 197.810798 
L 132.39731 197.810798 
L 132.688648 197.531011 
L 132.984842 197.531011 
L 133.567519 197.088498 
L 134.155051 197.088498 
L 134.446389 196.833674 
L 135.033922 196.833674 
L 135.330116 196.552747 
L 135.912792 196.552747 
L 136.20413 196.304767 
L 138.840742 195.691213 
L 139.136936 195.46774 
L 139.719612 195.439984 
L 140.010951 195.246792 
L 140.598483 195.246792 
L 140.894677 195.007955 
L 141.482209 195.007955 
L 141.778403 194.7653 
L 142.074597 194.7653 
L 142.365935 194.571995 
L 143.244806 194.36745 
L 143.541 194.165022 
L 144.123676 194.165022 
L 144.415015 193.95824 
L 145.002547 193.95824 
L 145.293885 193.766347 
L 145.585223 193.766347 
L 145.881417 193.538535 
L 146.464094 193.538535 
L 146.760288 193.363165 
L 147.639158 193.363165 
L 147.930497 193.14614 
L 148.518029 193.14614 
L 148.809367 192.943701 
L 151.450834 192.846297 
L 151.742173 192.44361 
L 152.621043 192.44361 
L 152.912381 192.189471 
L 155.257655 192.189471 
L 155.548993 191.650864 
L 156.427864 191.650864 
L 156.719202 191.434987 
L 159.069331 191.434987 
L 159.360669 190.916499 
L 160.530878 190.916499 
L 160.822216 190.692213 
L 163.172345 190.692213 
L 163.463683 190.10288 
L 164.633892 190.10288 
L 164.92523 189.778373 
L 167.270504 189.778373 
L 167.561842 189.195401 
L 168.732051 189.195401 
L 169.023389 188.87558 
L 171.669712 188.87558 
L 171.96105 188.33782 
L 173.422597 188.33782 
L 173.718791 188.069629 
L 176.350547 188.069629 
L 176.646741 187.544036 
L 178.108288 187.544036 
L 178.399626 187.295586 
L 181.332432 187.295586 
L 181.62377 186.754523 
L 183.090173 186.754523 
L 183.381511 186.458818 
L 186.314317 186.458818 
L 186.610511 185.859243 
L 188.373107 185.859243 
L 188.664445 185.568304 
L 191.883734 185.568304 
L 192.179928 185.031649 
L 193.932813 185.031649 
L 194.224151 184.784822 
L 197.744489 184.784822 
L 198.035827 184.167411 
L 199.793568 184.167411 
L 200.084907 183.83137 
L 203.605244 183.83137 
L 203.896582 183.306179 
L 205.649468 183.306179 
L 205.945662 182.958845 
L 209.752482 182.958845 
L 210.04382 182.381466 
L 212.102611 182.381466 
L 212.393949 182.123596 
L 216.501819 182.123596 
L 216.793158 181.51892 
L 218.847092 181.51892 
L 219.152998 181.15153 
L 223.557062 181.15153 
L 223.8484 180.663487 
L 226.183962 180.663487 
L 226.4753 180.366136 
L 230.88422 180.366136 
L 231.175558 179.822064 
L 233.807314 179.822064 
L 234.098652 179.546372 
L 238.789199 179.546372 
L 239.085392 179.048317 
L 241.42581 179.048317 
L 241.717148 178.780292 
L 246.703889 178.780292 
L 246.995227 178.157362 
L 249.918321 178.157362 
L 250.20966 177.847544 
L 255.492594 177.847544 
L 255.783932 177.346426 
L 258.707026 177.346426 
L 259.00322 177.081611 
L 264.577493 177.081611 
L 264.868831 176.507129 
L 267.791925 176.507129 
L 268.083264 176.201454 
L 273.95373 176.201454 
L 274.249924 175.634271 
L 277.469212 175.634271 
L 277.760551 175.289814 
L 283.927211 175.289814 
L 284.218549 174.724061 
L 287.432982 174.724061 
L 287.729176 174.447207 
L 294.196886 174.447207 
L 294.497936 173.840554 
L 298.003706 173.840554 
L 298.295045 173.517006 
L 305.049237 173.517006 
L 305.350287 172.984249 
L 309.171674 172.984249 
L 309.467868 172.713454 
L 316.838727 172.713454 
L 317.130065 172.136482 
L 320.93203 172.136482 
L 321.223368 171.814861 
L 328.851576 171.814861 
L 329.14777 171.251363 
L 333.241073 171.251363 
L 333.542122 170.95972 
L 341.476235 170.95972 
L 341.767573 170.387243 
L 346.15707 170.387243 
L 346.448409 170.058827 
L 354.945775 170.058827 
L 355.241969 169.487849 
L 360.233565 169.487849 
L 360.529759 169.190372 
L 369.333031 169.190372 
L 369.62437 168.633291 
L 374.61111 168.633291 
L 374.907304 168.332835 
L 384.61858 168.332835 
L 384.909919 167.73702 
L 390.197709 167.73702 
L 390.489047 167.425089 
L 400.778144 167.425089 
L 401.079194 166.878428 
L 406.6389 166.878428 
L 406.930238 166.59565 
L 417.797156 166.59565 
L 418.088494 166.091476 
L 424.250299 166.091476 
L 424.541638 165.768014 
L 436.000944 165.768014 
L 436.297138 165.192732 
L 442.726003 165.192732 
L 443.017341 164.847392 
L 455.370085 164.847392 
L 455.661423 164.271422 
L 462.702098 164.271422 
L 463.003148 163.975107 
L 476.249329 163.975107 
L 476.540667 163.398309 
L 483.853258 163.398309 
L 484.144596 163.10953 
L 497.958887 163.10953 
L 498.250225 162.51998 
L 506.169771 162.51998 
L 506.46111 162.218421 
L 520.9212 162.218421 
L 521.212538 161.679415 
L 529.423423 161.679415 
L 529.714761 161.358876 
L 545.291648 161.358876 
L 545.582986 160.842747 
L 554.381403 160.842747 
L 554.672741 160.559976 
L 570.866295 160.559976 
L 571.167344 160.037012 
L 580.572715 160.037012 
L 580.864054 159.782362 
L 598.208393 159.782362 
L 598.504587 159.223963 
L 608.478068 159.223963 
L 608.769406 158.916331 
L 627.293666 158.916331 
L 627.585004 158.357843 
L 638.121739 158.357843 
L 638.417933 158.071644 
L 658.097835 158.071644 
L 658.389173 157.515501 
L 669.833912 157.515501 
L 670.144673 157.220651 
L 672.533647 157.220651 
L 672.533647 157.220651 
" clip-path="url(#pedfbb27b79)" style="fill: none; stroke: #c4512c; stroke-width: 2.7; stroke-linecap: round"/>
   </g>
   <g id="patch_3">
    <path d="M 77.616 350.784 
L 77.616 80.64 
" style="fill: none; stroke: #a8a29e; stroke-width: 1.1; stroke-linejoin: miter; stroke-linecap: square"/>
   </g>
   <g id="patch_4">
    <path d="M 77.616 350.784 
L 684.432 350.784 
" style="fill: none; stroke: #a8a29e; stroke-width: 1.1; stroke-linejoin: miter; stroke-linecap: square"/>
   </g>
   <g id="text_15">
    <text style="font-size: 11px; font-family: 'DejaVu Sans', 'Bitstream Vera Sans', 'Computer Modern Sans Serif', 'Lucida Grande', 'Verdana', 'Geneva', 'Lucid', 'Arial', 'Helvetica', 'Avant Garde', sans-serif; text-anchor: start; fill: #6b7280" x="84.897792" y="93.050441" transform="rotate(-0 84.897792 93.050441)">cells, log scale</text>
   </g>
   <g id="text_16">
    <text style="font-weight: 700; font-size: 13px; font-family: 'DejaVu Sans', 'Bitstream Vera Sans', 'Computer Modern Sans Serif', 'Lucida Grande', 'Verdana', 'Geneva', 'Lucid', 'Arial', 'Helvetica', 'Avant Garde', sans-serif; text-anchor: end; fill: #c4512c" x="675.32976" y="97.734388" transform="rotate(-0 675.32976 97.734388)">Adaptive endpoint: 19,912</text>
   </g>
   <g id="text_17">
    <text style="font-weight: 700; font-size: 13px; font-family: 'DejaVu Sans', 'Bitstream Vera Sans', 'Computer Modern Sans Serif', 'Lucida Grande', 'Verdana', 'Geneva', 'Lucid', 'Arial', 'Helvetica', 'Avant Garde', sans-serif; text-anchor: end; fill: #1f2933" x="675.32976" y="122.047348" transform="rotate(-0 675.32976 122.047348)">2.1x more cells at the endpoint</text>
   </g>
   <g id="text_18">
    <text style="font-weight: 700; font-size: 13px; font-family: 'DejaVu Sans', 'Bitstream Vera Sans', 'Computer Modern Sans Serif', 'Lucida Grande', 'Verdana', 'Geneva', 'Lucid', 'Arial', 'Helvetica', 'Avant Garde', sans-serif; text-anchor: end; fill: #4b5563" x="675.32976" y="146.360308" transform="rotate(-0 675.32976 146.360308)">Static (v1) endpoint: 9,693</text>
   </g>
  </g>
  <g id="text_19">
   <text style="font-weight: 700; font-size: 20px; font-family: 'DejaVu Sans', 'Bitstream Vera Sans', 'Computer Modern Sans Serif', 'Lucida Grande', 'Verdana', 'Geneva', 'Lucid', 'Arial', 'Helvetica', 'Avant Garde', sans-serif; text-anchor: start; fill: #1f2933" x="33.8688" y="37.372875" transform="rotate(-0 33.8688 37.372875)">Cell growth under the same wall-clock budget</text>
  </g>
  <g id="text_20">
   <text style="font-size: 13px; font-family: 'DejaVu Sans', 'Bitstream Vera Sans', 'Computer Modern Sans Serif', 'Lucida Grande', 'Verdana', 'Geneva', 'Lucid', 'Arial', 'Helvetica', 'Avant Garde', sans-serif; text-anchor: start; fill: #6b7280" x="33.8688" y="56.245969" transform="rotate(-0 33.8688 56.245969)">Adaptive reaches roughly twice the tissue size within the same run window.</text>
  </g>
 </g>
 <defs>
  <clipPath id="pedfbb27b79">
   <rect x="77.616" y="80.64" width="606.816" height="270.144"/>
  </clipPath>
 </defs>
</svg>
