<?xml version="1.0" encoding="utf-8" standalone="no"?>
<!DOCTYPE svg PUBLIC "-//W3C//DTD SVG 1.1//EN"
  "http://www.w3.org/Graphics/SVG/1.1/DTD/svg11.dtd">
<svg xmlns:xlink="http://www.w3.org/1999/xlink" width="705.6pt" height="403.2pt" viewBox="0 0 705.6 403.2" xmlns="http://www.w3.org/2000/svg" version="1.1">
 <metadata>
  <rdf:RDF xmlns:dc="http://purl.org/dc/elements/1.1/" xmlns:cc="http://creativecommons.org/ns#" xmlns:rdf="http://www.w3.org/1999/02/22-rdf-syntax-ns#">
   <cc:Work>
    <dc:type rdf:resource="http://purl.org/dc/dcmitype/StillImage"/>
    <dc:date>2026-07-01T01:30:53.445196</dc:date>
    <dc:format>image/svg+xml</dc:format>
    <dc:creator>
     <cc:Agent>
      <dc:title>Matplotlib v3.10.8, https://matplotlib.org/</dc:title>
     </cc:Agent>
    </dc:creator>
   </cc:Work>
  </rdf:RDF>
 </metadata>
 <defs>
  <style type="text/css">*{stroke-linejoin: round; stroke-linecap: butt}</style>
 </defs>
 <g id="figure_1">
  <g id="patch_1">
   <path d="M 0 403.2 
L 705.6 403.2 
L 705.6 0 
L 0 0 
z
" style="fill: #fbfaf7"/>
  </g>
  <g id="axes_1">
   <g id="patch_2">
    <path d="M 57.71 357.64 
L 662.31 357.64 
L 662.31 47.76 
L 57.71 47.76 
z
" style="fill: #fbfaf7"/>
   </g>
   <g id="matplotlib.axis_1">
    <g id="xtick_1">
     <g id="line2d_1">
      <path d="M 85.191818 357.64 
L 85.191818 47.76 
" clip-path="url(#p8d6ccf1630)" style="fill: none; stroke: #e7e5df; stroke-width: 0.8; stroke-linecap: square"/>
     </g>
     <g id="line2d_2">
      <defs>
       <path id="m9979924e55" d="M 0 0 
L 0 3.5 
" style="stroke: #1f2933; stroke-width: 0.8"/>
      </defs>
      <g>
       <use xlink:href="#m9979924e55" x="85.191818" y="357.64" style="fill: #1f2933; stroke: #1f2933; stroke-width: 0.8"/>
      </g>
     </g>
     <g id="text_1">
      <!-- 0 -->
      <g style="fill: #1f2933" transform="translate(81.374318 373.758125) scale(0.12 -0.12)">
       <defs>
        <path id="DejaVuSans-30" d="M 2034 4250 
Q 1547 4250 1301 3770 
Q 1056 3291 1056 2328 
Q 1056 1369 1301 889 
Q 1547 409 2034 409 
Q 2525 409 2770 889 
Q 3016 1369 3016 2328 
Q 3016 3291 2770 3770 
Q 2525 4250 2034 4250 
z
M 2034 4750 
Q 2819 4750 3233 4129 
Q 3647 3509 3647 2328 
Q 3647 1150 3233 529 
Q 2819 -91 2034 -91 
Q 1250 -91 836 529 
Q 422 1150 422 2328 
Q 422 3509 836 4129 
Q 1250 4750 2034 4750 
z
" transform="scale(0.015625)"/>
       </defs>
       <use xlink:href="#DejaVuSans-30"/>
      </g>
     </g>
    </g>
    <g id="xtick_2">
     <g id="line2d_3">
      <path d="M 174.126543 357.64 
L 174.126543 47.76 
" clip-path="url(#p8d6ccf1630)" style="fill: none; stroke: #e7e5df; stroke-width: 0.8; stroke-linecap: square"/>
     </g>
     <g id="line2d_4">
      <g>
       <use xlink:href="#m9979924e55" x="174.126543" y="357.64" style="fill: #1f2933; stroke: #1f2933; stroke-width: 0.8"/>
      </g>
     </g>
     <g id="text_2">
      <!-- 10 -->
      <g style="fill: #1f2933" transform="translate(166.491543 373.758125) scale(0.12 -0.12)">
       <defs>
        <path id="DejaVuSans-31" d="M 794 531 
L 1825 531 
L 1825 4091 
L 703 3866 
L 703 4441 
L 1819 4666 
L 2450 4666 
L 2450 531 
L 3481 531 
L 3481 0 
L 794 0 
L 794 531 
z
" transform="scale(0.015625)"/>
       </defs>
       <use xlink:href="#DejaVuSans-31"/>
       <use xlink:href="#DejaVuSans-30" transform="translate(63.623047 0)"/>
      </g>
     </g>
    </g>
    <g id="xtick_3">
     <g id="line2d_5">
      <path d="M 263.061268 357.64 
L 263.061268 47.76 
" clip-path="url(#p8d6ccf1630)" style="fill: none; stroke: #e7e5df; stroke-width: 0.8; stroke-linecap: square"/>
     </g>
     <g id="line2d_6">
      <g>
       <use xlink:href="#m9979924e55" x="263.061268" y="357.64" style="fill: #1f2933; stroke: #1f2933; stroke-width: 0.8"/>
      </g>
     </g>
     <g id="text_3">
      <!-- 20 -->
      <g style="fill: #1f2933" transform="translate(255.426268 373.758125) scale(0.12 -0.12)">
       <defs>
        <path id="DejaVuSans-32" d="M 1228 531 
L 3431 531 
L 3431 0 
L 469 0 
L 469 531 
Q 828 903 1448 1529 
Q 2069 2156 2228 2338 
Q 2531 2678 2651 2914 
Q 2772 3150 2772 3378 
Q 2772 3750 2511 3984 
Q 2250 4219 1831 4219 
Q 1534 4219 1204 4116 
Q 875 4013 500 3803 
L 500 4441 
Q 881 4594 1212 4672 
Q 1544 4750 1819 4750 
Q 2544 4750 2975 4387 
Q 3406 4025 3406 3419 
Q 3406 3131 3298 2873 
Q 3191 2616 2906 2266 
Q 2828 2175 2409 1742 
Q 1991 1309 1228 531 
z
" transform="scale(0.015625)"/>
       </defs>
       <use xlink:href="#DejaVuSans-32"/>
       <use xlink:href="#DejaVuSans-30" transform="translate(63.623047 0)"/>
      </g>
     </g>
    </g>
    <g id="xtick_4">
     <g id="line2d_7">
      <path d="M 351.995993 357.64 
L 351.995993 47.76 
" clip-path="url(#p8d6ccf1630)" style="fill: none; stroke: #e7e5df; stroke-width: 0.8; stroke-linecap: square"/>
     </g>
     <g id="line2d_8">
      <g>
       <use xlink:href="#m9979924e55" x="351.995993" y="357.64" style="fill: #1f2933; stroke: #1f2933; stroke-width: 0.8"/>
      </g>
     </g>
     <g id="text_4">
      <!-- 30 -->
      <g style="fill: #1f2933" transform="translate(344.360993 373.758125) scale(0.12 -0.12)">
       <defs>
        <path id="DejaVuSans-33" d="M 2597 2516 
Q 3050 2419 3304 2112 
Q 3559 1806 3559 1356 
Q 3559 666 3084 287 
Q 2609 -91 1734 -91 
Q 1441 -91 1130 -33 
Q 819 25 488 141 
L 488 750 
Q 750 597 1062 519 
Q 1375 441 1716 441 
Q 2309 441 2620 675 
Q 2931 909 2931 1356 
Q 2931 1769 2642 2001 
Q 2353 2234 1838 2234 
L 1294 2234 
L 1294 2753 
L 1863 2753 
Q 2328 2753 2575 2939 
Q 2822 3125 2822 3475 
Q 2822 3834 2567 4026 
Q 2313 4219 1838 4219 
Q 1578 4219 1281 4162 
Q 984 4106 628 3988 
L 628 4550 
Q 988 4650 1302 4700 
Q 1616 4750 1894 4750 
Q 2613 4750 3031 4423 
Q 3450 4097 3450 3541 
Q 3450 3153 3228 2886 
Q 3006 2619 2597 2516 
z
" transform="scale(0.015625)"/>
       </defs>
       <use xlink:href="#DejaVuSans-33"/>
       <use xlink:href="#DejaVuSans-30" transform="translate(63.623047 0)"/>
      </g>
     </g>
    </g>
    <g id="xtick_5">
     <g id="line2d_9">
      <path d="M 440.930718 357.64 
L 440.930718 47.76 
" clip-path="url(#p8d6ccf1630)" style="fill: none; stroke: #e7e5df; stroke-width: 0.8; stroke-linecap: square"/>
     </g>
     <g id="line2d_10">
      <g>
       <use xlink:href="#m9979924e55" x="440.930718" y="357.64" style="fill: #1f2933; stroke: #1f2933; stroke-width: 0.8"/>
      </g>
     </g>
     <g id="text_5">
      <!-- 40 -->
      <g style="fill: #1f2933" transform="translate(433.295718 373.758125) scale(0.12 -0.12)">
       <defs>
        <path id="DejaVuSans-34" d="M 2419 4116 
L 825 1625 
L 2419 1625 
L 2419 4116 
z
M 2253 4666 
L 3047 4666 
L 3047 1625 
L 3713 1625 
L 3713 1100 
L 3047 1100 
L 3047 0 
L 2419 0 
L 2419 1100 
L 313 1100 
L 313 1709 
L 2253 4666 
z
" transform="scale(0.015625)"/>
       </defs>
       <use xlink:href="#DejaVuSans-34"/>
       <use xlink:href="#DejaVuSans-30" transform="translate(63.623047 0)"/>
      </g>
     </g>
    </g>
    <g id="xtick_6">
     <g id="line2d_11">
      <path d="M 529.865443 357.64 
L 529.865443 47.76 
" clip-path="url(#p8d6ccf1630)" style="fill: none; stroke: #e7e5df; stroke-width: 0.8; stroke-linecap: square"/>
     </g>
     <g id="line2d_12">
      <g>
       <use xlink:href="#m9979924e55" x="529.865443" y="357.64" style="fill: #1f2933; stroke: #1f2933; stroke-width: 0.8"/>
      </g>
     </g>
     <g id="text_6">
      <!-- 50 -->
      <g style="fill: #1f2933" transform="translate(522.230443 373.758125) scale(0.12 -0.12)">
       <defs>
        <path id="DejaVuSans-35" d="M 691 4666 
L 3169 4666 
L 3169 4134 
L 1269 4134 
L 1269 2991 
Q 1406 3038 1543 3061 
Q 1681 3084 1819 3084 
Q 2600 3084 3056 2656 
Q 3513 2228 3513 1497 
Q 3513 744 3044 326 
Q 2575 -91 1722 -91 
Q 1428 -91 1123 -41 
Q 819 9 494 109 
L 494 744 
Q 775 591 1075 516 
Q 1375 441 1709 441 
Q 2250 441 2565 725 
Q 2881 1009 2881 1497 
Q 2881 1984 2565 2268 
Q 2250 2553 1709 2553 
Q 1456 2553 1204 2497 
Q 953 2441 691 2322 
L 691 4666 
z
" transform="scale(0.015625)"/>
       </defs>
       <use xlink:href="#DejaVuSans-35"/>
       <use xlink:href="#DejaVuSans-30" transform="translate(63.623047 0)"/>
      </g>
     </g>
    </g>
    <g id="xtick_7">
     <g id="line2d_13">
      <path d="M 618.800168 357.64 
L 618.800168 47.76 
" clip-path="url(#p8d6ccf1630)" style="fill: none; stroke: #e7e5df; stroke-width: 0.8; stroke-linecap: square"/>
     </g>
     <g id="line2d_14">
      <g>
       <use xlink:href="#m9979924e55" x="618.800168" y="357.64" style="fill: #1f2933; stroke: #1f2933; stroke-width: 0.8"/>
      </g>
     </g>
     <g id="text_7">
      <!-- 60 -->
      <g style="fill: #1f2933" transform="translate(611.165168 373.758125) scale(0.12 -0.12)">
       <defs>
        <path id="DejaVuSans-36" d="M 2113 2584 
Q 1688 2584 1439 2293 
Q 1191 2003 1191 1497 
Q 1191 994 1439 701 
Q 1688 409 2113 409 
Q 2538 409 2786 701 
Q 3034 994 3034 1497 
Q 3034 2003 2786 2293 
Q 2538 2584 2113 2584 
z
M 3366 4563 
L 3366 3988 
Q 3128 4100 2886 4159 
Q 2644 4219 2406 4219 
Q 1781 4219 1451 3797 
Q 1122 3375 1075 2522 
Q 1259 2794 1537 2939 
Q 1816 3084 2150 3084 
Q 2853 3084 3261 2657 
Q 3669 2231 3669 1497 
Q 3669 778 3244 343 
Q 2819 -91 2113 -91 
Q 1303 -91 875 529 
Q 447 1150 447 2328 
Q 447 3434 972 4092 
Q 1497 4750 2381 4750 
Q 2619 4750 2861 4703 
Q 3103 4656 3366 4563 
z
" transform="scale(0.015625)"/>
       </defs>
       <use xlink:href="#DejaVuSans-36"/>
       <use xlink:href="#DejaVuSans-30" transform="translate(63.623047 0)"/>
      </g>
     </g>
    </g>
    <g id="text_8">
     <!-- wall-clock hours (linear) -->
     <g style="fill: #6b7280" transform="translate(285.188711 389.751797) scale(0.125 -0.125)">
      <defs>
       <path id="DejaVuSans-77" d="M 269 3500 
L 844 3500 
L 1563 769 
L 2278 3500 
L 2956 3500 
L 3675 769 
L 4391 3500 
L 4966 3500 
L 4050 0 
L 3372 0 
L 2619 2869 
L 1863 0 
L 1184 0 
L 269 3500 
z
" transform="scale(0.015625)"/>
       <path id="DejaVuSans-61" d="M 2194 1759 
Q 1497 1759 1228 1600 
Q 959 1441 959 1056 
Q 959 750 1161 570 
Q 1363 391 1709 391 
Q 2188 391 2477 730 
Q 2766 1069 2766 1631 
L 2766 1759 
L 2194 1759 
z
M 3341 1997 
L 3341 0 
L 2766 0 
L 2766 531 
Q 2569 213 2275 61 
Q 1981 -91 1556 -91 
Q 1019 -91 701 211 
Q 384 513 384 1019 
Q 384 1609 779 1909 
Q 1175 2209 1959 2209 
L 2766 2209 
L 2766 2266 
Q 2766 2663 2505 2880 
Q 2244 3097 1772 3097 
Q 1472 3097 1187 3025 
Q 903 2953 641 2809 
L 641 3341 
Q 956 3463 1253 3523 
Q 1550 3584 1831 3584 
Q 2591 3584 2966 3190 
Q 3341 2797 3341 1997 
z
" transform="scale(0.015625)"/>
       <path id="DejaVuSans-6c" d="M 603 4863 
L 1178 4863 
L 1178 0 
L 603 0 
L 603 4863 
z
" transform="scale(0.015625)"/>
       <path id="DejaVuSans-2d" d="M 313 2009 
L 1997 2009 
L 1997 1497 
L 313 1497 
L 313 2009 
z
" transform="scale(0.015625)"/>
       <path id="DejaVuSans-63" d="M 3122 3366 
L 3122 2828 
Q 2878 2963 2633 3030 
Q 2388 3097 2138 3097 
Q 1578 3097 1268 2742 
Q 959 2388 959 1747 
Q 959 1106 1268 751 
Q 1578 397 2138 397 
Q 2388 397 2633 464 
Q 2878 531 3122 666 
L 3122 134 
Q 2881 22 2623 -34 
Q 2366 -91 2075 -91 
Q 1284 -91 818 406 
Q 353 903 353 1747 
Q 353 2603 823 3093 
Q 1294 3584 2113 3584 
Q 2378 3584 2631 3529 
Q 2884 3475 3122 3366 
z
" transform="scale(0.015625)"/>
       <path id="DejaVuSans-6f" d="M 1959 3097 
Q 1497 3097 1228 2736 
Q 959 2375 959 1747 
Q 959 1119 1226 758 
Q 1494 397 1959 397 
Q 2419 397 2687 759 
Q 2956 1122 2956 1747 
Q 2956 2369 2687 2733 
Q 2419 3097 1959 3097 
z
M 1959 3584 
Q 2709 3584 3137 3096 
Q 3566 2609 3566 1747 
Q 3566 888 3137 398 
Q 2709 -91 1959 -91 
Q 1206 -91 779 398 
Q 353 888 353 1747 
Q 353 2609 779 3096 
Q 1206 3584 1959 3584 
z
" transform="scale(0.015625)"/>
       <path id="DejaVuSans-6b" d="M 581 4863 
L 1159 4863 
L 1159 1991 
L 2875 3500 
L 3609 3500 
L 1753 1863 
L 3688 0 
L 2938 0 
L 1159 1709 
L 1159 0 
L 581 0 
L 581 4863 
z
" transform="scale(0.015625)"/>
       <path id="DejaVuSans-20" transform="scale(0.015625)"/>
       <path id="DejaVuSans-68" d="M 3513 2113 
L 3513 0 
L 2938 0 
L 2938 2094 
Q 2938 2591 2744 2837 
Q 2550 3084 2163 3084 
Q 1697 3084 1428 2787 
Q 1159 2491 1159 1978 
L 1159 0 
L 581 0 
L 581 4863 
L 1159 4863 
L 1159 2956 
Q 1366 3272 1645 3428 
Q 1925 3584 2291 3584 
Q 2894 3584 3203 3211 
Q 3513 2838 3513 2113 
z
" transform="scale(0.015625)"/>
       <path id="DejaVuSans-75" d="M 544 1381 
L 544 3500 
L 1119 3500 
L 1119 1403 
Q 1119 906 1312 657 
Q 1506 409 1894 409 
Q 2359 409 2629 706 
Q 2900 1003 2900 1516 
L 2900 3500 
L 3475 3500 
L 3475 0 
L 2900 0 
L 2900 538 
Q 2691 219 2414 64 
Q 2138 -91 1772 -91 
Q 1169 -91 856 284 
Q 544 659 544 1381 
z
M 1991 3584 
L 1991 3584 
z
" transform="scale(0.015625)"/>
       <path id="DejaVuSans-72" d="M 2631 2963 
Q 2534 3019 2420 3045 
Q 2306 3072 2169 3072 
Q 1681 3072 1420 2755 
Q 1159 2438 1159 1844 
L 1159 0 
L 581 0 
L 581 3500 
L 1159 3500 
L 1159 2956 
Q 1341 3275 1631 3429 
Q 1922 3584 2338 3584 
Q 2397 3584 2469 3576 
Q 2541 3569 2628 3553 
L 2631 2963 
z
" transform="scale(0.015625)"/>
       <path id="DejaVuSans-73" d="M 2834 3397 
L 2834 2853 
Q 2591 2978 2328 3040 
Q 2066 3103 1784 3103 
Q 1356 3103 1142 2972 
Q 928 2841 928 2578 
Q 928 2378 1081 2264 
Q 1234 2150 1697 2047 
L 1894 2003 
Q 2506 1872 2764 1633 
Q 3022 1394 3022 966 
Q 3022 478 2636 193 
Q 2250 -91 1575 -91 
Q 1294 -91 989 -36 
Q 684 19 347 128 
L 347 722 
Q 666 556 975 473 
Q 1284 391 1588 391 
Q 1994 391 2212 530 
Q 2431 669 2431 922 
Q 2431 1156 2273 1281 
Q 2116 1406 1581 1522 
L 1381 1569 
Q 847 1681 609 1914 
Q 372 2147 372 2553 
Q 372 3047 722 3315 
Q 1072 3584 1716 3584 
Q 2034 3584 2315 3537 
Q 2597 3491 2834 3397 
z
" transform="scale(0.015625)"/>
       <path id="DejaVuSans-28" d="M 1984 4856 
Q 1566 4138 1362 3434 
Q 1159 2731 1159 2009 
Q 1159 1288 1364 580 
Q 1569 -128 1984 -844 
L 1484 -844 
Q 1016 -109 783 600 
Q 550 1309 550 2009 
Q 550 2706 781 3412 
Q 1013 4119 1484 4856 
L 1984 4856 
z
" transform="scale(0.015625)"/>
       <path id="DejaVuSans-69" d="M 603 3500 
L 1178 3500 
L 1178 0 
L 603 0 
L 603 3500 
z
M 603 4863 
L 1178 4863 
L 1178 4134 
L 603 4134 
L 603 4863 
z
" transform="scale(0.015625)"/>
       <path id="DejaVuSans-6e" d="M 3513 2113 
L 3513 0 
L 2938 0 
L 2938 2094 
Q 2938 2591 2744 2837 
Q 2550 3084 2163 3084 
Q 1697 3084 1428 2787 
Q 1159 2491 1159 1978 
L 1159 0 
L 581 0 
L 581 3500 
L 1159 3500 
L 1159 2956 
Q 1366 3272 1645 3428 
Q 1925 3584 2291 3584 
Q 2894 3584 3203 3211 
Q 3513 2838 3513 2113 
z
" transform="scale(0.015625)"/>
       <path id="DejaVuSans-65" d="M 3597 1894 
L 3597 1613 
L 953 1613 
Q 991 1019 1311 708 
Q 1631 397 2203 397 
Q 2534 397 2845 478 
Q 3156 559 3463 722 
L 3463 178 
Q 3153 47 2828 -22 
Q 2503 -91 2169 -91 
Q 1331 -91 842 396 
Q 353 884 353 1716 
Q 353 2575 817 3079 
Q 1281 3584 2069 3584 
Q 2775 3584 3186 3129 
Q 3597 2675 3597 1894 
z
M 3022 2063 
Q 3016 2534 2758 2815 
Q 2500 3097 2075 3097 
Q 1594 3097 1305 2825 
Q 1016 2553 972 2059 
L 3022 2063 
z
" transform="scale(0.015625)"/>
       <path id="DejaVuSans-29" d="M 513 4856 
L 1013 4856 
Q 1481 4119 1714 3412 
Q 1947 2706 1947 2009 
Q 1947 1309 1714 600 
Q 1481 -109 1013 -844 
L 513 -844 
Q 928 -128 1133 580 
Q 1338 1288 1338 2009 
Q 1338 2731 1133 3434 
Q 928 4138 513 4856 
z
" transform="scale(0.015625)"/>
      </defs>
      <use xlink:href="#DejaVuSans-77"/>
      <use xlink:href="#DejaVuSans-61" transform="translate(81.787109 0)"/>
      <use xlink:href="#DejaVuSans-6c" transform="translate(143.066406 0)"/>
      <use xlink:href="#DejaVuSans-6c" transform="translate(170.849609 0)"/>
      <use xlink:href="#DejaVuSans-2d" transform="translate(198.632812 0)"/>
      <use xlink:href="#DejaVuSans-63" transform="translate(234.716797 0)"/>
      <use xlink:href="#DejaVuSans-6c" transform="translate(289.697266 0)"/>
      <use xlink:href="#DejaVuSans-6f" transform="translate(317.480469 0)"/>
      <use xlink:href="#DejaVuSans-63" transform="translate(378.662109 0)"/>
      <use xlink:href="#DejaVuSans-6b" transform="translate(433.642578 0)"/>
      <use xlink:href="#DejaVuSans-20" transform="translate(491.552734 0)"/>
      <use xlink:href="#DejaVuSans-68" transform="translate(523.339844 0)"/>
      <use xlink:href="#DejaVuSans-6f" transform="translate(586.71875 0)"/>
      <use xlink:href="#DejaVuSans-75" transform="translate(647.900391 0)"/>
      <use xlink:href="#DejaVuSans-72" transform="translate(711.279297 0)"/>
      <use xlink:href="#DejaVuSans-73" transform="translate(752.392578 0)"/>
      <use xlink:href="#DejaVuSans-20" transform="translate(804.492188 0)"/>
      <use xlink:href="#DejaVuSans-28" transform="translate(836.279297 0)"/>
      <use xlink:href="#DejaVuSans-6c" transform="translate(875.292969 0)"/>
      <use xlink:href="#DejaVuSans-69" transform="translate(903.076172 0)"/>
      <use xlink:href="#DejaVuSans-6e" transform="translate(930.859375 0)"/>
      <use xlink:href="#DejaVuSans-65" transform="translate(994.238281 0)"/>
      <use xlink:href="#DejaVuSans-61" transform="translate(1055.761719 0)"/>
      <use xlink:href="#DejaVuSans-72" transform="translate(1117.041016 0)"/>
      <use xlink:href="#DejaVuSans-29" transform="translate(1158.154297 0)"/>
     </g>
    </g>
   </g>
   <g id="matplotlib.axis_2">
    <g id="ytick_1">
     <g id="line2d_15">
      <path d="M 57.71 324.384865 
L 662.31 324.384865 
" clip-path="url(#p8d6ccf1630)" style="fill: none; stroke: #e7e5df; stroke-width: 0.8; stroke-linecap: square"/>
     </g>
     <g id="line2d_16">
      <defs>
       <path id="m897cc763fc" d="M 0 0 
L -3.5 0 
" style="stroke: #1f2933; stroke-width: 0.8"/>
      </defs>
      <g>
       <use xlink:href="#m897cc763fc" x="57.71" y="324.384865" style="fill: #1f2933; stroke: #1f2933; stroke-width: 0.8"/>
      </g>
     </g>
     <g id="text_9">
      <!-- 2 -->
      <g style="fill: #1f2933" transform="translate(43.075 328.943927) scale(0.12 -0.12)">
       <use xlink:href="#DejaVuSans-32"/>
      </g>
     </g>
    </g>
    <g id="ytick_2">
     <g id="line2d_17">
      <path d="M 57.71 286.045503 
L 662.31 286.045503 
" clip-path="url(#p8d6ccf1630)" style="fill: none; stroke: #e7e5df; stroke-width: 0.8; stroke-linecap: square"/>
     </g>
     <g id="line2d_18">
      <g>
       <use xlink:href="#m897cc763fc" x="57.71" y="286.045503" style="fill: #1f2933; stroke: #1f2933; stroke-width: 0.8"/>
      </g>
     </g>
     <g id="text_10">
      <!-- 8 -->
      <g style="fill: #1f2933" transform="translate(43.075 290.604565) scale(0.12 -0.12)">
       <defs>
        <path id="DejaVuSans-38" d="M 2034 2216 
Q 1584 2216 1326 1975 
Q 1069 1734 1069 1313 
Q 1069 891 1326 650 
Q 1584 409 2034 409 
Q 2484 409 2743 651 
Q 3003 894 3003 1313 
Q 3003 1734 2745 1975 
Q 2488 2216 2034 2216 
z
M 1403 2484 
Q 997 2584 770 2862 
Q 544 3141 544 3541 
Q 544 4100 942 4425 
Q 1341 4750 2034 4750 
Q 2731 4750 3128 4425 
Q 3525 4100 3525 3541 
Q 3525 3141 3298 2862 
Q 3072 2584 2669 2484 
Q 3125 2378 3379 2068 
Q 3634 1759 3634 1313 
Q 3634 634 3220 271 
Q 2806 -91 2034 -91 
Q 1263 -91 848 271 
Q 434 634 434 1313 
Q 434 1759 690 2068 
Q 947 2378 1403 2484 
z
M 1172 3481 
Q 1172 3119 1398 2916 
Q 1625 2713 2034 2713 
Q 2441 2713 2670 2916 
Q 2900 3119 2900 3481 
Q 2900 3844 2670 4047 
Q 2441 4250 2034 4250 
Q 1625 4250 1398 4047 
Q 1172 3844 1172 3481 
z
" transform="scale(0.015625)"/>
       </defs>
       <use xlink:href="#DejaVuSans-38"/>
      </g>
     </g>
    </g>
    <g id="ytick_3">
     <g id="line2d_19">
      <path d="M 57.71 247.706141 
L 662.31 247.706141 
" clip-path="url(#p8d6ccf1630)" style="fill: none; stroke: #e7e5df; stroke-width: 0.8; stroke-linecap: square"/>
     </g>
     <g id="line2d_20">
      <g>
       <use xlink:href="#m897cc763fc" x="57.71" y="247.706141" style="fill: #1f2933; stroke: #1f2933; stroke-width: 0.8"/>
      </g>
     </g>
     <g id="text_11">
      <!-- 32 -->
      <g style="fill: #1f2933" transform="translate(35.44 252.265204) scale(0.12 -0.12)">
       <use xlink:href="#DejaVuSans-33"/>
       <use xlink:href="#DejaVuSans-32" transform="translate(63.623047 0)"/>
      </g>
     </g>
    </g>
    <g id="ytick_4">
     <g id="line2d_21">
      <path d="M 57.71 209.366779 
L 662.31 209.366779 
" clip-path="url(#p8d6ccf1630)" style="fill: none; stroke: #e7e5df; stroke-width: 0.8; stroke-linecap: square"/>
     </g>
     <g id="line2d_22">
      <g>
       <use xlink:href="#m897cc763fc" x="57.71" y="209.366779" style="fill: #1f2933; stroke: #1f2933; stroke-width: 0.8"/>
      </g>
     </g>
     <g id="text_12">
      <!-- 128 -->
      <g style="fill: #1f2933" transform="translate(27.805 213.925842) scale(0.12 -0.12)">
       <use xlink:href="#DejaVuSans-31"/>
       <use xlink:href="#DejaVuSans-32" transform="translate(63.623047 0)"/>
       <use xlink:href="#DejaVuSans-38" transform="translate(127.246094 0)"/>
      </g>
     </g>
    </g>
    <g id="ytick_5">
     <g id="line2d_23">
      <path d="M 57.71 171.027418 
L 662.31 171.027418 
" clip-path="url(#p8d6ccf1630)" style="fill: none; stroke: #e7e5df; stroke-width: 0.8; stroke-linecap: square"/>
     </g>
     <g id="line2d_24">
      <g>
       <use xlink:href="#m897cc763fc" x="57.71" y="171.027418" style="fill: #1f2933; stroke: #1f2933; stroke-width: 0.8"/>
      </g>
     </g>
     <g id="text_13">
      <!-- 512 -->
      <g style="fill: #1f2933" transform="translate(27.805 175.58648) scale(0.12 -0.12)">
       <use xlink:href="#DejaVuSans-35"/>
       <use xlink:href="#DejaVuSans-31" transform="translate(63.623047 0)"/>
       <use xlink:href="#DejaVuSans-32" transform="translate(127.246094 0)"/>
      </g>
     </g>
    </g>
    <g id="ytick_6">
     <g id="line2d_25">
      <path d="M 57.71 132.688056 
L 662.31 132.688056 
" clip-path="url(#p8d6ccf1630)" style="fill: none; stroke: #e7e5df; stroke-width: 0.8; stroke-linecap: square"/>
     </g>
     <g id="line2d_26">
      <g>
       <use xlink:href="#m897cc763fc" x="57.71" y="132.688056" style="fill: #1f2933; stroke: #1f2933; stroke-width: 0.8"/>
      </g>
     </g>
     <g id="text_14">
      <!-- 2k -->
      <g style="fill: #1f2933" transform="translate(36.12625 137.247119) scale(0.12 -0.12)">
       <use xlink:href="#DejaVuSans-32"/>
       <use xlink:href="#DejaVuSans-6b" transform="translate(63.623047 0)"/>
      </g>
     </g>
    </g>
    <g id="ytick_7">
     <g id="line2d_27">
      <path d="M 57.71 94.348694 
L 662.31 94.348694 
" clip-path="url(#p8d6ccf1630)" style="fill: none; stroke: #e7e5df; stroke-width: 0.8; stroke-linecap: square"/>
     </g>
     <g id="line2d_28">
      <g>
       <use xlink:href="#m897cc763fc" x="57.71" y="94.348694" style="fill: #1f2933; stroke: #1f2933; stroke-width: 0.8"/>
      </g>
     </g>
     <g id="text_15">
      <!-- 8k -->
      <g style="fill: #1f2933" transform="translate(36.12625 98.907757) scale(0.12 -0.12)">
       <use xlink:href="#DejaVuSans-38"/>
       <use xlink:href="#DejaVuSans-6b" transform="translate(63.623047 0)"/>
      </g>
     </g>
    </g>
    <g id="ytick_8">
     <g id="line2d_29">
      <path d="M 57.71 56.009333 
L 662.31 56.009333 
" clip-path="url(#p8d6ccf1630)" style="fill: none; stroke: #e7e5df; stroke-width: 0.8; stroke-linecap: square"/>
     </g>
     <g id="line2d_30">
      <g>
       <use xlink:href="#m897cc763fc" x="57.71" y="56.009333" style="fill: #1f2933; stroke: #1f2933; stroke-width: 0.8"/>
      </g>
     </g>
     <g id="text_16">
      <!-- 32k -->
      <g style="fill: #1f2933" transform="translate(28.49125 60.568395) scale(0.12 -0.12)">
       <use xlink:href="#DejaVuSans-33"/>
       <use xlink:href="#DejaVuSans-32" transform="translate(63.623047 0)"/>
       <use xlink:href="#DejaVuSans-6b" transform="translate(127.246094 0)"/>
      </g>
     </g>
    </g>
    <g id="text_17">
     <!-- cells (log2) -->
     <g style="fill: #6b7280" transform="translate(21.205391 237.078906) rotate(-90) scale(0.125 -0.125)">
      <defs>
       <path id="DejaVuSans-67" d="M 2906 1791 
Q 2906 2416 2648 2759 
Q 2391 3103 1925 3103 
Q 1463 3103 1205 2759 
Q 947 2416 947 1791 
Q 947 1169 1205 825 
Q 1463 481 1925 481 
Q 2391 481 2648 825 
Q 2906 1169 2906 1791 
z
M 3481 434 
Q 3481 -459 3084 -895 
Q 2688 -1331 1869 -1331 
Q 1566 -1331 1297 -1286 
Q 1028 -1241 775 -1147 
L 775 -588 
Q 1028 -725 1275 -790 
Q 1522 -856 1778 -856 
Q 2344 -856 2625 -561 
Q 2906 -266 2906 331 
L 2906 616 
Q 2728 306 2450 153 
Q 2172 0 1784 0 
Q 1141 0 747 490 
Q 353 981 353 1791 
Q 353 2603 747 3093 
Q 1141 3584 1784 3584 
Q 2172 3584 2450 3431 
Q 2728 3278 2906 2969 
L 2906 3500 
L 3481 3500 
L 3481 434 
z
" transform="scale(0.015625)"/>
      </defs>
      <use xlink:href="#DejaVuSans-63"/>
      <use xlink:href="#DejaVuSans-65" transform="translate(54.980469 0)"/>
      <use xlink:href="#DejaVuSans-6c" transform="translate(116.503906 0)"/>
      <use xlink:href="#DejaVuSans-6c" transform="translate(144.287109 0)"/>
      <use xlink:href="#DejaVuSans-73" transform="translate(172.070312 0)"/>
      <use xlink:href="#DejaVuSans-20" transform="translate(224.169922 0)"/>
      <use xlink:href="#DejaVuSans-28" transform="translate(255.957031 0)"/>
      <use xlink:href="#DejaVuSans-6c" transform="translate(294.970703 0)"/>
      <use xlink:href="#DejaVuSans-6f" transform="translate(322.753906 0)"/>
      <use xlink:href="#DejaVuSans-67" transform="translate(383.935547 0)"/>
      <use xlink:href="#DejaVuSans-32" transform="translate(447.412109 0)"/>
      <use xlink:href="#DejaVuSans-29" transform="translate(511.035156 0)"/>
     </g>
    </g>
   </g>
   <g id="line2d_31">
    <path d="M 85.191818 324.384865 
L 85.340043 254.533304 
L 85.638962 228.53646 
L 85.935411 214.322775 
L 86.53078 200.247121 
L 86.977924 192.919558 
L 87.126148 192.329855 
L 87.721517 185.353583 
L 88.912254 175.47125 
L 89.804072 170.598634 
L 89.952296 170.598634 
L 90.102991 169.350783 
L 90.251216 169.350783 
L 90.69836 167.341226 
L 90.846584 165.913205 
L 90.997279 165.913205 
L 91.145504 164.427375 
L 91.293728 164.427375 
L 91.891567 160.953352 
L 92.039792 160.953352 
L 92.188017 159.813873 
L 92.336241 159.813873 
L 92.635161 158.6849 
L 92.783385 158.6849 
L 92.93161 157.733494 
L 93.082305 157.600212 
L 93.230529 156.524474 
L 93.381224 156.333303 
L 93.529449 155.489018 
L 93.677673 155.489018 
L 93.828368 155.243731 
L 93.976593 155.243731 
L 94.273042 154.078151 
L 94.423737 153.642614 
L 94.571961 153.642614 
L 94.870881 152.707914 
L 95.019105 152.707914 
L 95.16733 151.830742 
L 95.318025 151.830742 
L 95.616944 150.980539 
L 95.765169 150.79799 
L 95.913393 150.181102 
L 96.061618 150.181102 
L 96.360537 149.354741 
L 96.508762 149.354741 
L 96.807681 148.337505 
L 96.955906 147.795906 
L 97.259766 147.795906 
L 97.407991 146.946298 
L 97.556215 146.946298 
L 97.70691 146.386667 
L 97.855135 146.386667 
L 98.003359 145.557143 
L 98.154054 145.557143 
L 98.302279 145.003579 
L 98.601198 145.003579 
L 98.749423 144.234441 
L 98.897647 144.234441 
L 99.048342 143.626147 
L 99.196567 143.626147 
L 99.347262 143.011323 
L 99.643711 143.011323 
L 99.791936 142.42907 
L 99.94263 142.42907 
L 100.23908 141.764914 
L 100.389775 141.764914 
L 100.537999 141.189693 
L 100.686224 141.189693 
L 100.836919 140.608205 
L 100.985143 140.608205 
L 101.133368 140.073945 
L 101.284063 140.073945 
L 101.432287 139.480671 
L 101.580512 139.480671 
L 101.728736 139.342907 
L 101.879431 138.967558 
L 102.178351 138.967558 
L 102.4748 138.231804 
L 102.625495 138.231804 
L 102.77619 137.903734 
L 103.072639 137.903734 
L 103.371558 137.084356 
L 103.519783 136.879321 
L 103.818702 136.879321 
L 103.966927 136.381001 
L 104.265846 136.381001 
L 104.414071 135.876343 
L 104.564766 135.876343 
L 104.71299 135.380729 
L 105.01191 135.380729 
L 105.308359 134.733432 
L 105.459054 134.472934 
L 105.906198 134.472934 
L 106.054422 133.987478 
L 106.202647 133.987478 
L 106.501566 133.566098 
L 106.649791 133.566098 
L 106.798016 133.09617 
L 106.94871 133.09617 
L 107.096935 132.647574 
L 107.24763 132.647574 
L 107.395855 132.392554 
L 107.544079 132.392554 
L 107.993694 131.837035 
L 108.290143 131.837035 
L 108.438367 131.382477 
L 108.589062 131.331 
L 108.737287 130.973319 
L 109.036206 130.973319 
L 109.184431 130.570126 
L 109.48335 130.570126 
L 109.78227 130.111146 
L 109.932965 130.111146 
L 110.081189 129.780958 
L 110.377638 129.780958 
L 110.676558 129.025512 
L 110.827253 129.025512 
L 111.126172 128.649554 
L 111.276867 128.649554 
L 111.425092 128.290154 
L 111.721541 128.290154 
L 111.869765 127.935365 
L 112.168685 127.935365 
L 112.467604 127.573843 
L 112.615829 127.573843 
L 112.766524 127.194835 
L 113.062973 127.194835 
L 113.211197 126.799115 
L 113.361892 126.799115 
L 113.658341 126.17324 
L 113.957261 126.17324 
L 114.105485 125.812827 
L 114.404405 125.812827 
L 114.5551 125.415494 
L 114.851549 125.415494 
L 115.150468 124.972659 
L 115.446918 124.829997 
L 115.597612 124.829997 
L 115.745837 124.506649 
L 116.042286 124.506649 
L 116.192981 124.196971 
L 116.341206 124.196971 
L 116.491901 123.880899 
L 116.78835 123.841642 
L 116.936574 123.568398 
L 117.235494 123.568398 
L 117.386189 123.230596 
L 117.685108 123.230596 
L 117.835803 122.887394 
L 117.986498 122.887394 
L 118.282947 122.529687 
L 118.433642 122.324689 
L 118.581867 122.324689 
L 118.732562 122.038383 
L 119.029011 122.038383 
L 119.177235 121.745917 
L 119.476155 121.745917 
L 119.624379 121.474512 
L 119.772604 121.474512 
L 119.923299 121.152302 
L 120.219748 121.152302 
L 120.370443 120.904264 
L 120.817587 120.904264 
L 120.965811 120.597313 
L 121.264731 120.597313 
L 121.412955 120.31099 
L 121.56365 120.31099 
L 121.860099 120.173226 
L 122.756858 120.173226 
L 122.905082 119.60368 
L 123.352226 119.60368 
L 123.500451 119.244235 
L 124.693659 119.244235 
L 124.841883 118.482449 
L 125.289027 118.482449 
L 125.437252 118.177121 
L 126.63293 118.177121 
L 126.781154 117.44379 
L 127.376523 117.44379 
L 127.524747 117.126568 
L 128.720425 117.126568 
L 128.86865 116.293036 
L 129.464018 116.293036 
L 129.612243 115.834067 
L 130.80545 115.834067 
L 130.953675 115.009533 
L 131.549044 115.009533 
L 131.697268 114.557188 
L 133.043641 114.557188 
L 133.191866 113.7966 
L 133.935459 113.7966 
L 134.086154 113.417281 
L 135.425115 113.417281 
L 135.57581 112.673902 
L 136.319403 112.673902 
L 136.467628 112.322504 
L 137.959755 112.322504 
L 138.10798 111.557244 
L 138.854043 111.557244 
L 139.002268 111.139009 
L 140.494395 111.139009 
L 140.64509 110.290992 
L 141.541848 110.290992 
L 141.690073 109.879499 
L 143.327954 109.879499 
L 143.478649 109.120473 
L 144.370466 109.120473 
L 144.518691 108.77137 
L 146.309738 108.77137 
L 146.457962 107.898127 
L 147.35225 107.898127 
L 147.500475 107.422842 
L 149.291521 107.422842 
L 149.439746 106.680031 
L 150.331563 106.680031 
L 150.482258 106.188774 
L 152.419059 106.188774 
L 152.567284 105.372151 
L 153.614737 105.372151 
L 153.762962 105.007429 
L 155.852928 105.007429 
L 156.001152 104.152197 
L 157.046135 104.152197 
L 157.201771 103.632574 
L 159.442432 103.632574 
L 159.590656 102.942304 
L 160.778923 102.942304 
L 160.927148 102.521742 
L 163.170279 102.521742 
L 163.318504 101.752227 
L 164.657465 101.752227 
L 164.80569 101.362298 
L 167.192105 101.362298 
L 167.3428 100.657867 
L 168.533537 100.657867 
L 168.681762 100.278781 
L 171.218872 100.278781 
L 171.367096 99.397733 
L 172.854283 99.397733 
L 173.002507 98.959537 
L 175.690312 98.959537 
L 175.838537 98.250774 
L 177.325723 98.250774 
L 177.476418 97.876229 
L 180.312447 97.876229 
L 180.460672 97.063704 
L 181.947858 97.063704 
L 182.096083 96.631368 
L 185.082807 96.631368 
L 185.233502 95.829165 
L 186.871383 95.829165 
L 187.019608 95.341977 
L 190.157027 95.341977 
L 190.305252 94.541798 
L 191.940663 94.541798 
L 192.091358 94.150225 
L 195.381942 94.150225 
L 195.535108 93.292197 
L 197.318743 93.292197 
L 197.466968 92.834583 
L 200.903307 92.834583 
L 201.056472 92.08107 
L 203.000684 92.08107 
L 203.151379 91.698068 
L 206.90146 91.698068 
L 207.049684 90.882019 
L 208.984015 90.882019 
L 209.132239 90.427131 
L 213.013252 90.427131 
L 213.163947 89.630139 
L 215.246501 89.630139 
L 215.399667 89.217651 
L 219.436315 89.217651 
L 219.58454 88.40796 
L 221.817789 88.40796 
L 221.966014 87.94346 
L 226.28923 87.94346 
L 226.439925 87.13589 
L 228.979505 87.13589 
L 229.1302 86.71515 
L 233.609052 86.71515 
L 233.757276 85.927234 
L 236.294386 85.927234 
L 236.445081 85.502281 
L 241.385899 85.502281 
L 241.534124 84.659582 
L 244.224399 84.659582 
L 244.372624 84.218398 
L 249.607421 84.218398 
L 249.760586 83.445221 
L 252.589204 83.445221 
L 252.737429 83.04527 
L 258.266204 83.04527 
L 258.414429 82.332184 
L 261.549378 82.332184 
L 261.697602 81.874692 
L 267.527768 81.874692 
L 267.678463 81.061034 
L 270.949284 81.061034 
L 271.097509 80.572597 
L 277.382229 80.572597 
L 277.530454 79.757967 
L 281.112547 79.757967 
L 281.265712 79.338869 
L 288.004988 79.338869 
L 288.153213 78.523066 
L 291.873649 78.523066 
L 292.021873 78.114629 
L 299.050187 78.114629 
L 299.198411 77.280791 
L 303.227649 77.280791 
L 303.375873 76.854277 
L 310.732751 76.854277 
L 310.880976 76.091926 
L 315.058437 76.091926 
L 315.206662 75.638567 
L 323.131734 75.638567 
L 323.279959 74.908574 
L 327.75634 74.908574 
L 327.904564 74.508633 
L 336.143378 74.508633 
L 336.296544 73.768972 
L 341.081726 73.768972 
L 341.229951 73.408804 
L 350.054252 73.408804 
L 350.204947 72.619025 
L 355.279167 72.619025 
L 355.427391 72.183921 
L 364.852002 72.183921 
L 365.000226 71.394016 
L 370.361014 71.394016 
L 370.511709 70.989226 
L 380.524277 70.989226 
L 380.672501 70.202638 
L 386.495255 70.202638 
L 386.653361 69.785614 
L 387.868803 69.785614 
L 387.868803 69.785614 
" clip-path="url(#p8d6ccf1630)" style="fill: none; stroke: #4c72b0; stroke-width: 2; stroke-linecap: square"/>
   </g>
   <g id="line2d_32">
    <path d="M 85.191818 324.384865 
L 85.488267 247.706141 
L 85.638962 240.851983 
L 85.787187 228.971997 
L 86.234331 219.729303 
L 86.53078 212.570225 
L 86.827229 208.307033 
L 87.126148 205.727903 
L 87.274373 205.165389 
L 87.869742 199.180366 
L 88.168661 195.024161 
L 88.76403 192.682166 
L 88.912254 192.682166 
L 89.356928 189.66215 
L 89.507623 189.241518 
L 89.952296 187.035885 
L 90.102991 186.275535 
L 90.251216 186.275535 
L 90.39944 185.810717 
L 90.846584 183.091139 
L 90.997279 183.091139 
L 91.293728 181.077441 
L 91.441953 181.077441 
L 91.740873 179.055669 
L 91.891567 179.055669 
L 92.039792 178.132533 
L 92.188017 178.132533 
L 92.336241 177.374787 
L 92.486936 177.374787 
L 92.783385 175.155899 
L 92.93161 175.155899 
L 93.082305 174.352428 
L 93.230529 174.352428 
L 93.381224 173.453454 
L 93.529449 173.453454 
L 93.677673 172.525702 
L 93.976593 172.525702 
L 94.124817 171.90546 
L 94.273042 171.90546 
L 94.423737 171.135661 
L 94.571961 171.135661 
L 94.722656 170.598634 
L 95.019105 170.598634 
L 95.16733 170.019705 
L 95.318025 170.019705 
L 95.466249 169.452647 
L 95.616944 169.452647 
L 95.765169 168.499762 
L 96.061618 168.499762 
L 96.212313 167.483416 
L 96.807681 167.483416 
L 96.955906 166.048222 
L 97.259766 166.048222 
L 97.407991 165.204038 
L 97.70691 165.204038 
L 97.855135 164.555314 
L 98.154054 164.555314 
L 98.302279 163.713361 
L 98.601198 163.713361 
L 98.749423 162.77578 
L 99.196567 162.77578 
L 99.347262 161.985554 
L 99.643711 161.985554 
L 99.791936 161.028504 
L 100.23908 161.028504 
L 100.389775 160.067102 
L 100.686224 160.067102 
L 100.836919 158.962852 
L 101.284063 158.962852 
L 101.432287 158.069537 
L 101.879431 158.069537 
L 102.027656 157.138718 
L 102.4748 157.138718 
L 102.625495 156.460604 
L 103.223334 156.460604 
L 103.371558 155.550682 
L 103.818702 155.550682 
L 103.966927 154.759587 
L 104.564766 154.759587 
L 104.71299 153.845012 
L 105.308359 153.845012 
L 105.459054 152.903561 
L 106.054422 152.903561 
L 106.202647 152.15643 
L 106.798016 152.15643 
L 106.94871 151.375819 
L 107.544079 151.375819 
L 107.694774 150.902156 
L 108.290143 150.902156 
L 108.438367 150.257465 
L 109.036206 150.257465 
L 109.184431 149.702307 
L 109.932965 149.702307 
L 110.081189 148.889923 
L 110.676558 148.889923 
L 110.827253 148.171545 
L 111.573316 148.171545 
L 111.721541 147.310498 
L 112.467604 147.310498 
L 112.615829 146.408837 
L 113.361892 146.408837 
L 113.510117 145.729724 
L 114.404405 145.729724 
L 114.5551 144.856416 
L 115.446918 144.856416 
L 115.597612 143.867861 
L 116.491901 143.867861 
L 116.640125 142.913426 
L 117.534413 142.913426 
L 117.685108 142.180518 
L 118.581867 142.180518 
L 118.732562 141.134657 
L 119.772604 141.134657 
L 119.923299 140.357599 
L 120.965811 140.357599 
L 121.116506 139.723421 
L 122.159019 139.723421 
L 122.307243 139.035425 
L 123.500451 139.035425 
L 123.648676 138.165878 
L 124.841883 138.165878 
L 124.990108 137.515119 
L 126.035091 137.515119 
L 126.185786 136.800864 
L 127.524747 136.800864 
L 127.675442 135.921842 
L 128.86865 135.921842 
L 129.016874 135.1879 
L 130.358306 135.1879 
L 130.506531 134.472934 
L 131.996188 134.472934 
L 132.146883 133.930921 
L 133.490785 133.930921 
L 133.63901 133.123593 
L 135.128666 133.123593 
L 135.276891 132.192871 
L 136.766547 132.192871 
L 136.914772 131.472793 
L 138.406899 131.472793 
L 138.555124 130.78359 
L 140.195475 130.78359 
L 140.34617 129.805282 
L 141.988992 129.805282 
L 142.137217 129.001864 
L 143.923322 129.001864 
L 144.071547 128.382456 
L 152.12014 128.382456 
L 152.268364 125.26021 
L 154.35833 125.26021 
L 154.511495 124.356372 
L 156.601462 124.356372 
L 156.749686 123.403807 
L 159.143512 123.403807 
L 159.291737 122.632759 
L 161.529928 122.632759 
L 161.680622 121.919195 
L 164.062097 121.919195 
L 164.210321 121.170104 
L 166.744961 121.170104 
L 166.893186 120.362829 
L 169.430296 120.362829 
L 169.580991 119.628933 
L 172.258914 119.628933 
L 172.407138 118.905805 
L 175.243168 118.905805 
L 175.393863 118.129218 
L 178.222481 118.129218 
L 178.370706 117.311817 
L 181.35496 117.311817 
L 181.503185 116.502836 
L 184.781417 116.502836 
L 184.934583 115.67302 
L 188.064591 115.67302 
L 188.212815 114.839035 
L 191.495989 114.839035 
L 191.644214 114.043224 
L 195.080553 114.043224 
L 195.231247 113.356801 
L 198.521832 113.356801 
L 198.670057 112.693556 
L 202.25215 112.693556 
L 202.405315 111.879895 
L 205.99482 111.879895 
L 206.143044 111.213453 
L 210.177222 111.213453 
L 210.327917 110.375236 
L 214.354684 110.375236 
L 214.502908 109.608533 
L 218.539557 109.608533 
L 218.690252 109.034219 
L 222.862772 109.034219 
L 223.013467 108.225158 
L 227.336683 108.225158 
L 227.484908 107.401185 
L 231.9687 107.401185 
L 232.116925 106.632616 
L 236.748942 106.632616 
L 236.897166 105.818307 
L 241.830573 105.818307 
L 241.983738 105.032257 
L 247.223476 105.032257 
L 247.3717 104.113726 
L 252.888124 104.113726 
L 253.038819 103.313282 
L 258.710878 103.313282 
L 258.859102 102.530817 
L 264.538573 102.530817 
L 264.686797 101.637746 
L 270.80106 101.637746 
L 270.949284 100.755584 
L 277.234005 100.755584 
L 277.382229 99.85946 
L 284.111623 99.85946 
L 284.259848 99.083457 
L 290.981831 99.083457 
L 291.130056 98.35984 
L 298.153428 98.35984 
L 298.301653 97.487775 
L 305.325026 97.487775 
L 305.478191 96.686419 
L 313.124107 96.686419 
L 313.272332 96.043692 
L 321.180111 96.043692 
L 321.333276 95.244166 
L 329.703022 95.244166 
L 329.853717 94.494244 
L 338.245696 94.494244 
L 338.393921 93.714584 
L 347.2034 93.714584 
L 347.356565 92.940257 
L 356.32662 92.940257 
L 356.479786 92.140227 
L 365.74629 92.140227 
L 365.894514 91.308197 
L 375.731683 91.308197 
L 375.882378 90.547508 
L 386.34209 90.547508 
L 386.495255 89.695685 
L 387.868803 89.695685 
L 387.868803 89.695685 
" clip-path="url(#p8d6ccf1630)" style="fill: none; stroke: #c44e52; stroke-width: 2; stroke-linecap: square"/>
   </g>
   <g id="line2d_33">
    <path d="M 85.191818 343.554545 
L 85.307927 266.875822 
L 85.312868 266.875822 
L 85.508031 237.07485 
L 85.893414 217.905169 
L 86.397378 206.691625 
L 86.607363 203.023209 
L 87.289195 193.039022 
L 87.793159 189.137352 
L 88.084667 186.558222 
L 88.242773 185.535531 
L 88.591101 181.785599 
L 89.413747 176.836454 
L 93.094657 161.637189 
L 94.935111 156.878425 
L 95.999858 155.030874 
L 97.7662 151.482189 
L 99.087869 148.81724 
L 100.565174 146.122015 
L 103.099813 142.085513 
L 104.038569 141.061444 
L 106.069245 138.480437 
L 111.96117 132.945828 
L 113.314955 131.51159 
L 116.222626 129.370696 
L 117.774043 128.336266 
L 121.13874 125.613447 
L 124.896232 123.15396 
L 133.480903 118.54716 
L 138.379725 116.472767 
L 140.995888 115.274459 
L 152.752564 110.641685 
L 159.481958 108.432237 
L 166.880833 105.900205 
L 175.129529 103.580673 
L 179.6652 102.517205 
L 184.445442 101.275425 
L 194.650701 98.875906 
L 211.67182 95.408546 
L 224.631585 93.091462 
L 255.128785 88.077687 
L 263.883914 86.846106 
L 304.013239 82.11225 
L 315.567342 80.965151 
L 368.760189 76.137324 
L 384.173071 74.916933 
L 436.642088 71.386656 
L 477.159266 69.080772 
L 523.0817 66.690412 
L 575.234505 64.307423 
L 634.751599 61.845455 
L 634.751599 61.845455 
" clip-path="url(#p8d6ccf1630)" style="fill: none; stroke-dasharray: 10,4; stroke-dashoffset: 0; stroke: #2f4b7c; stroke-width: 2"/>
   </g>
   <g id="line2d_34">
    <path d="M 85.191818 343.554545 
L 85.194289 343.554545 
L 85.298046 270.568767 
L 85.300516 270.568767 
L 85.305457 270.568767 
L 85.428977 250.4286 
L 85.436389 250.4286 
L 85.606847 243.690987 
L 85.619199 243.690987 
L 86.036698 227.685439 
L 86.414671 221.682302 
L 86.580188 217.905169 
L 86.814877 214.582458 
L 87.266962 209.151557 
L 87.395423 209.151557 
L 87.835156 204.796637 
L 87.914209 204.432737 
L 88.173602 201.35668 
L 89.356928 194.138081 
L 89.477978 194.138081 
L 89.863362 192.09745 
L 89.999234 191.866982 
L 90.27592 190.7426 
L 90.421674 189.55639 
L 90.735416 188.724568 
L 91.236909 186.843829 
L 91.409838 186.558222 
L 91.770517 185.172824 
L 92.75374 181.626656 
L 93.188532 180.386964 
L 94.124817 177.10431 
L 95.172271 174.844103 
L 96.353126 172.298547 
L 96.98061 171.244329 
L 97.637739 170.333981 
L 99.433726 166.965587 
L 100.226728 165.778843 
L 100.631875 165.512063 
L 102.373513 162.655797 
L 103.831054 160.915852 
L 104.354781 159.922116 
L 105.429409 158.443963 
L 105.975369 157.93463 
L 106.536152 157.040821 
L 107.106817 156.588493 
L 108.900334 154.87983 
L 110.827253 153.327525 
L 112.178566 152.15643 
L 112.885103 151.535527 
L 114.364878 150.513541 
L 116.714237 148.552357 
L 117.534413 148.077156 
L 120.115991 146.143973 
L 128.115175 140.770517 
L 130.405244 139.36009 
L 131.598452 138.984509 
L 135.328769 137.227199 
L 137.99187 135.891501 
L 140.761199 134.87922 
L 142.194036 134.472934 
L 146.670417 132.742124 
L 151.475363 130.897271 
L 164.14115 126.952334 
L 166.129829 126.205268 
L 172.434313 124.356372 
L 179.29958 122.670335 
L 186.883735 120.675919 
L 194.994088 118.905805 
L 203.492295 117.18818 
L 215.953038 114.874469 
L 265.867653 107.320122 
L 280.178732 105.382211 
L 306.965377 102.214951 
L 318.783814 100.964923 
L 344.658878 98.402805 
L 398.469328 94.261058 
L 435.219132 91.873467 
L 560.656621 85.042735 
L 634.828182 81.896204 
L 634.828182 81.896204 
" clip-path="url(#p8d6ccf1630)" style="fill: none; stroke-dasharray: 10,4; stroke-dashoffset: 0; stroke: #8c3b3f; stroke-width: 2"/>
   </g>
   <g id="patch_3">
    <path d="M 57.71 357.64 
L 57.71 47.76 
" style="fill: none; stroke: #a8a29e; stroke-width: 0.8; stroke-linejoin: miter; stroke-linecap: square"/>
   </g>
   <g id="patch_4">
    <path d="M 57.71 357.64 
L 662.31 357.64 
" style="fill: none; stroke: #a8a29e; stroke-width: 0.8; stroke-linejoin: miter; stroke-linecap: square"/>
   </g>
   <g id="patch_5">
    <path d="M 110.252263 124.038483 
Q 119.996335 124.038483 129.740407 124.038483 
" style="fill: none; stroke: #1f2933; stroke-width: 1.3; stroke-linecap: round"/>
    <path d="M 114.252263 126.038483 
L 110.252263 124.038483 
L 114.252263 122.038483 
" style="fill: none; stroke: #1f2933; stroke-width: 1.3; stroke-linecap: round"/>
    <path d="M 125.740407 122.038483 
L 129.740407 124.038483 
L 125.740407 126.038483 
" style="fill: none; stroke: #1f2933; stroke-width: 1.3; stroke-linecap: round"/>
   </g>
   <g id="text_18">
    <!-- 2k→4k: 3.0 h -->
    <g style="fill: #1f2933" transform="translate(82.515683 104.103698) scale(0.105 -0.105)">
     <defs>
      <path id="DejaVuSans-Bold-32" d="M 1844 884 
L 3897 884 
L 3897 0 
L 506 0 
L 506 884 
L 2209 2388 
Q 2438 2594 2547 2791 
Q 2656 2988 2656 3200 
Q 2656 3528 2436 3728 
Q 2216 3928 1850 3928 
Q 1569 3928 1234 3808 
Q 900 3688 519 3450 
L 519 4475 
Q 925 4609 1322 4679 
Q 1719 4750 2100 4750 
Q 2938 4750 3402 4381 
Q 3866 4013 3866 3353 
Q 3866 2972 3669 2642 
Q 3472 2313 2841 1759 
L 1844 884 
z
" transform="scale(0.015625)"/>
      <path id="DejaVuSans-Bold-6b" d="M 538 4863 
L 1656 4863 
L 1656 2216 
L 2944 3500 
L 4244 3500 
L 2534 1894 
L 4378 0 
L 3022 0 
L 1656 1459 
L 1656 0 
L 538 0 
L 538 4863 
z
" transform="scale(0.015625)"/>
      <path id="DejaVuSans-Bold-2192" d="M 5050 2225 
L 5050 1788 
L 3822 559 
L 3369 1013 
L 3988 1631 
L 366 1631 
L 366 2381 
L 3988 2381 
L 3369 3000 
L 3822 3453 
L 5050 2225 
z
" transform="scale(0.015625)"/>
      <path id="DejaVuSans-Bold-34" d="M 2356 3675 
L 1038 1722 
L 2356 1722 
L 2356 3675 
z
M 2156 4666 
L 3494 4666 
L 3494 1722 
L 4159 1722 
L 4159 850 
L 3494 850 
L 3494 0 
L 2356 0 
L 2356 850 
L 288 850 
L 288 1881 
L 2156 4666 
z
" transform="scale(0.015625)"/>
      <path id="DejaVuSans-Bold-3a" d="M 716 3500 
L 1844 3500 
L 1844 2291 
L 716 2291 
L 716 3500 
z
M 716 1209 
L 1844 1209 
L 1844 0 
L 716 0 
L 716 1209 
z
" transform="scale(0.015625)"/>
      <path id="DejaVuSans-Bold-20" transform="scale(0.015625)"/>
      <path id="DejaVuSans-Bold-33" d="M 2981 2516 
Q 3453 2394 3698 2092 
Q 3944 1791 3944 1325 
Q 3944 631 3412 270 
Q 2881 -91 1863 -91 
Q 1503 -91 1142 -33 
Q 781 25 428 141 
L 428 1069 
Q 766 900 1098 814 
Q 1431 728 1753 728 
Q 2231 728 2486 893 
Q 2741 1059 2741 1369 
Q 2741 1688 2480 1852 
Q 2219 2016 1709 2016 
L 1228 2016 
L 1228 2791 
L 1734 2791 
Q 2188 2791 2409 2933 
Q 2631 3075 2631 3366 
Q 2631 3634 2415 3781 
Q 2200 3928 1806 3928 
Q 1516 3928 1219 3862 
Q 922 3797 628 3669 
L 628 4550 
Q 984 4650 1334 4700 
Q 1684 4750 2022 4750 
Q 2931 4750 3382 4451 
Q 3834 4153 3834 3553 
Q 3834 3144 3618 2883 
Q 3403 2622 2981 2516 
z
" transform="scale(0.015625)"/>
      <path id="DejaVuSans-Bold-2e" d="M 653 1209 
L 1778 1209 
L 1778 0 
L 653 0 
L 653 1209 
z
" transform="scale(0.015625)"/>
      <path id="DejaVuSans-Bold-30" d="M 2944 2338 
Q 2944 3213 2780 3570 
Q 2616 3928 2228 3928 
Q 1841 3928 1675 3570 
Q 1509 3213 1509 2338 
Q 1509 1453 1675 1090 
Q 1841 728 2228 728 
Q 2613 728 2778 1090 
Q 2944 1453 2944 2338 
z
M 4147 2328 
Q 4147 1169 3647 539 
Q 3147 -91 2228 -91 
Q 1306 -91 806 539 
Q 306 1169 306 2328 
Q 306 3491 806 4120 
Q 1306 4750 2228 4750 
Q 3147 4750 3647 4120 
Q 4147 3491 4147 2328 
z
" transform="scale(0.015625)"/>
      <path id="DejaVuSans-Bold-68" d="M 4056 2131 
L 4056 0 
L 2931 0 
L 2931 347 
L 2931 1625 
Q 2931 2084 2911 2256 
Q 2891 2428 2841 2509 
Q 2775 2619 2662 2680 
Q 2550 2741 2406 2741 
Q 2056 2741 1856 2470 
Q 1656 2200 1656 1722 
L 1656 0 
L 538 0 
L 538 4863 
L 1656 4863 
L 1656 2988 
Q 1909 3294 2193 3439 
Q 2478 3584 2822 3584 
Q 3428 3584 3742 3212 
Q 4056 2841 4056 2131 
z
" transform="scale(0.015625)"/>
     </defs>
     <use xlink:href="#DejaVuSans-Bold-32"/>
     <use xlink:href="#DejaVuSans-Bold-6b" transform="translate(69.580078 0)"/>
     <use xlink:href="#DejaVuSans-Bold-2192" transform="translate(136.083984 0)"/>
     <use xlink:href="#DejaVuSans-Bold-34" transform="translate(219.873047 0)"/>
     <use xlink:href="#DejaVuSans-Bold-6b" transform="translate(289.453125 0)"/>
     <use xlink:href="#DejaVuSans-Bold-3a" transform="translate(355.957031 0)"/>
     <use xlink:href="#DejaVuSans-Bold-20" transform="translate(395.947266 0)"/>
     <use xlink:href="#DejaVuSans-Bold-33" transform="translate(430.761719 0)"/>
     <use xlink:href="#DejaVuSans-Bold-2e" transform="translate(500.341797 0)"/>
     <use xlink:href="#DejaVuSans-Bold-30" transform="translate(538.330078 0)"/>
     <use xlink:href="#DejaVuSans-Bold-20" transform="translate(607.910156 0)"/>
     <use xlink:href="#DejaVuSans-Bold-68" transform="translate(642.724609 0)"/>
    </g>
   </g>
   <g id="patch_6">
    <path d="M 193.759833 88.83334 
Q 252.756985 88.83334 311.754138 88.83334 
" style="fill: none; stroke: #1f2933; stroke-width: 1.3; stroke-linecap: round"/>
    <path d="M 197.759833 90.83334 
L 193.759833 88.83334 
L 197.759833 86.83334 
" style="fill: none; stroke: #1f2933; stroke-width: 1.3; stroke-linecap: round"/>
    <path d="M 307.754138 86.83334 
L 311.754138 88.83334 
L 307.754138 90.83334 
" style="fill: none; stroke: #1f2933; stroke-width: 1.3; stroke-linecap: round"/>
   </g>
   <g id="text_19">
    <!-- 8k→16k: 14.0 h -->
    <g style="fill: #1f2933" transform="translate(207.970996 68.898555) scale(0.105 -0.105)">
     <defs>
      <path id="DejaVuSans-Bold-38" d="M 2228 2088 
Q 1891 2088 1709 1903 
Q 1528 1719 1528 1375 
Q 1528 1031 1709 848 
Q 1891 666 2228 666 
Q 2563 666 2741 848 
Q 2919 1031 2919 1375 
Q 2919 1722 2741 1905 
Q 2563 2088 2228 2088 
z
M 1350 2484 
Q 925 2613 709 2878 
Q 494 3144 494 3541 
Q 494 4131 934 4440 
Q 1375 4750 2228 4750 
Q 3075 4750 3515 4442 
Q 3956 4134 3956 3541 
Q 3956 3144 3739 2878 
Q 3522 2613 3097 2484 
Q 3572 2353 3814 2058 
Q 4056 1763 4056 1313 
Q 4056 619 3595 264 
Q 3134 -91 2228 -91 
Q 1319 -91 855 264 
Q 391 619 391 1313 
Q 391 1763 633 2058 
Q 875 2353 1350 2484 
z
M 1631 3419 
Q 1631 3141 1786 2991 
Q 1941 2841 2228 2841 
Q 2509 2841 2662 2991 
Q 2816 3141 2816 3419 
Q 2816 3697 2662 3845 
Q 2509 3994 2228 3994 
Q 1941 3994 1786 3844 
Q 1631 3694 1631 3419 
z
" transform="scale(0.015625)"/>
      <path id="DejaVuSans-Bold-31" d="M 750 831 
L 1813 831 
L 1813 3847 
L 722 3622 
L 722 4441 
L 1806 4666 
L 2950 4666 
L 2950 831 
L 4013 831 
L 4013 0 
L 750 0 
L 750 831 
z
" transform="scale(0.015625)"/>
      <path id="DejaVuSans-Bold-36" d="M 2316 2303 
Q 2000 2303 1842 2098 
Q 1684 1894 1684 1484 
Q 1684 1075 1842 870 
Q 2000 666 2316 666 
Q 2634 666 2792 870 
Q 2950 1075 2950 1484 
Q 2950 1894 2792 2098 
Q 2634 2303 2316 2303 
z
M 3803 4544 
L 3803 3681 
Q 3506 3822 3243 3889 
Q 2981 3956 2731 3956 
Q 2194 3956 1894 3657 
Q 1594 3359 1544 2772 
Q 1750 2925 1990 3001 
Q 2231 3078 2516 3078 
Q 3231 3078 3670 2659 
Q 4109 2241 4109 1563 
Q 4109 813 3618 361 
Q 3128 -91 2303 -91 
Q 1394 -91 895 523 
Q 397 1138 397 2266 
Q 397 3422 980 4083 
Q 1563 4744 2578 4744 
Q 2900 4744 3203 4694 
Q 3506 4644 3803 4544 
z
" transform="scale(0.015625)"/>
     </defs>
     <use xlink:href="#DejaVuSans-Bold-38"/>
     <use xlink:href="#DejaVuSans-Bold-6b" transform="translate(69.580078 0)"/>
     <use xlink:href="#DejaVuSans-Bold-2192" transform="translate(136.083984 0)"/>
     <use xlink:href="#DejaVuSans-Bold-31" transform="translate(219.873047 0)"/>
     <use xlink:href="#DejaVuSans-Bold-36" transform="translate(289.453125 0)"/>
     <use xlink:href="#DejaVuSans-Bold-6b" transform="translate(359.033203 0)"/>
     <use xlink:href="#DejaVuSans-Bold-3a" transform="translate(425.537109 0)"/>
     <use xlink:href="#DejaVuSans-Bold-20" transform="translate(465.527344 0)"/>
     <use xlink:href="#DejaVuSans-Bold-31" transform="translate(500.341797 0)"/>
     <use xlink:href="#DejaVuSans-Bold-34" transform="translate(569.921875 0)"/>
     <use xlink:href="#DejaVuSans-Bold-2e" transform="translate(639.501953 0)"/>
     <use xlink:href="#DejaVuSans-Bold-30" transform="translate(677.490234 0)"/>
     <use xlink:href="#DejaVuSans-Bold-20" transform="translate(747.070312 0)"/>
     <use xlink:href="#DejaVuSans-Bold-68" transform="translate(781.884766 0)"/>
    </g>
   </g>
   <g id="text_20">
    <!-- Semi-log2 (log2 cells, linear time): a straight line would be constant doubling time; the curve bends. -->
    <g style="fill: #6b7280" transform="translate(57.71 36.9142) scale(0.115 -0.115)">
     <defs>
      <path id="DejaVuSans-53" d="M 3425 4513 
L 3425 3897 
Q 3066 4069 2747 4153 
Q 2428 4238 2131 4238 
Q 1616 4238 1336 4038 
Q 1056 3838 1056 3469 
Q 1056 3159 1242 3001 
Q 1428 2844 1947 2747 
L 2328 2669 
Q 3034 2534 3370 2195 
Q 3706 1856 3706 1288 
Q 3706 609 3251 259 
Q 2797 -91 1919 -91 
Q 1588 -91 1214 -16 
Q 841 59 441 206 
L 441 856 
Q 825 641 1194 531 
Q 1563 422 1919 422 
Q 2459 422 2753 634 
Q 3047 847 3047 1241 
Q 3047 1584 2836 1778 
Q 2625 1972 2144 2069 
L 1759 2144 
Q 1053 2284 737 2584 
Q 422 2884 422 3419 
Q 422 4038 858 4394 
Q 1294 4750 2059 4750 
Q 2388 4750 2728 4690 
Q 3069 4631 3425 4513 
z
" transform="scale(0.015625)"/>
      <path id="DejaVuSans-6d" d="M 3328 2828 
Q 3544 3216 3844 3400 
Q 4144 3584 4550 3584 
Q 5097 3584 5394 3201 
Q 5691 2819 5691 2113 
L 5691 0 
L 5113 0 
L 5113 2094 
Q 5113 2597 4934 2840 
Q 4756 3084 4391 3084 
Q 3944 3084 3684 2787 
Q 3425 2491 3425 1978 
L 3425 0 
L 2847 0 
L 2847 2094 
Q 2847 2600 2669 2842 
Q 2491 3084 2119 3084 
Q 1678 3084 1418 2786 
Q 1159 2488 1159 1978 
L 1159 0 
L 581 0 
L 581 3500 
L 1159 3500 
L 1159 2956 
Q 1356 3278 1631 3431 
Q 1906 3584 2284 3584 
Q 2666 3584 2933 3390 
Q 3200 3197 3328 2828 
z
" transform="scale(0.015625)"/>
      <path id="DejaVuSans-2c" d="M 750 794 
L 1409 794 
L 1409 256 
L 897 -744 
L 494 -744 
L 750 256 
L 750 794 
z
" transform="scale(0.015625)"/>
      <path id="DejaVuSans-74" d="M 1172 4494 
L 1172 3500 
L 2356 3500 
L 2356 3053 
L 1172 3053 
L 1172 1153 
Q 1172 725 1289 603 
Q 1406 481 1766 481 
L 2356 481 
L 2356 0 
L 1766 0 
Q 1100 0 847 248 
Q 594 497 594 1153 
L 594 3053 
L 172 3053 
L 172 3500 
L 594 3500 
L 594 4494 
L 1172 4494 
z
" transform="scale(0.015625)"/>
      <path id="DejaVuSans-3a" d="M 750 794 
L 1409 794 
L 1409 0 
L 750 0 
L 750 794 
z
M 750 3309 
L 1409 3309 
L 1409 2516 
L 750 2516 
L 750 3309 
z
" transform="scale(0.015625)"/>
      <path id="DejaVuSans-64" d="M 2906 2969 
L 2906 4863 
L 3481 4863 
L 3481 0 
L 2906 0 
L 2906 525 
Q 2725 213 2448 61 
Q 2172 -91 1784 -91 
Q 1150 -91 751 415 
Q 353 922 353 1747 
Q 353 2572 751 3078 
Q 1150 3584 1784 3584 
Q 2172 3584 2448 3432 
Q 2725 3281 2906 2969 
z
M 947 1747 
Q 947 1113 1208 752 
Q 1469 391 1925 391 
Q 2381 391 2643 752 
Q 2906 1113 2906 1747 
Q 2906 2381 2643 2742 
Q 2381 3103 1925 3103 
Q 1469 3103 1208 2742 
Q 947 2381 947 1747 
z
" transform="scale(0.015625)"/>
      <path id="DejaVuSans-62" d="M 3116 1747 
Q 3116 2381 2855 2742 
Q 2594 3103 2138 3103 
Q 1681 3103 1420 2742 
Q 1159 2381 1159 1747 
Q 1159 1113 1420 752 
Q 1681 391 2138 391 
Q 2594 391 2855 752 
Q 3116 1113 3116 1747 
z
M 1159 2969 
Q 1341 3281 1617 3432 
Q 1894 3584 2278 3584 
Q 2916 3584 3314 3078 
Q 3713 2572 3713 1747 
Q 3713 922 3314 415 
Q 2916 -91 2278 -91 
Q 1894 -91 1617 61 
Q 1341 213 1159 525 
L 1159 0 
L 581 0 
L 581 4863 
L 1159 4863 
L 1159 2969 
z
" transform="scale(0.015625)"/>
      <path id="DejaVuSans-3b" d="M 750 3309 
L 1409 3309 
L 1409 2516 
L 750 2516 
L 750 3309 
z
M 750 794 
L 1409 794 
L 1409 256 
L 897 -744 
L 494 -744 
L 750 256 
L 750 794 
z
" transform="scale(0.015625)"/>
      <path id="DejaVuSans-76" d="M 191 3500 
L 800 3500 
L 1894 563 
L 2988 3500 
L 3597 3500 
L 2284 0 
L 1503 0 
L 191 3500 
z
" transform="scale(0.015625)"/>
      <path id="DejaVuSans-2e" d="M 684 794 
L 1344 794 
L 1344 0 
L 684 0 
L 684 794 
z
" transform="scale(0.015625)"/>
     </defs>
     <use xlink:href="#DejaVuSans-53"/>
     <use xlink:href="#DejaVuSans-65" transform="translate(63.476562 0)"/>
     <use xlink:href="#DejaVuSans-6d" transform="translate(125 0)"/>
     <use xlink:href="#DejaVuSans-69" transform="translate(222.412109 0)"/>
     <use xlink:href="#DejaVuSans-2d" transform="translate(250.195312 0)"/>
     <use xlink:href="#DejaVuSans-6c" transform="translate(286.279297 0)"/>
     <use xlink:href="#DejaVuSans-6f" transform="translate(314.0625 0)"/>
     <use xlink:href="#DejaVuSans-67" transform="translate(375.244141 0)"/>
     <use xlink:href="#DejaVuSans-32" transform="translate(438.720703 0)"/>
     <use xlink:href="#DejaVuSans-20" transform="translate(502.34375 0)"/>
     <use xlink:href="#DejaVuSans-28" transform="translate(534.130859 0)"/>
     <use xlink:href="#DejaVuSans-6c" transform="translate(573.144531 0)"/>
     <use xlink:href="#DejaVuSans-6f" transform="translate(600.927734 0)"/>
     <use xlink:href="#DejaVuSans-67" transform="translate(662.109375 0)"/>
     <use xlink:href="#DejaVuSans-32" transform="translate(725.585938 0)"/>
     <use xlink:href="#DejaVuSans-20" transform="translate(789.208984 0)"/>
     <use xlink:href="#DejaVuSans-63" transform="translate(820.996094 0)"/>
     <use xlink:href="#DejaVuSans-65" transform="translate(875.976562 0)"/>
     <use xlink:href="#DejaVuSans-6c" transform="translate(937.5 0)"/>
     <use xlink:href="#DejaVuSans-6c" transform="translate(965.283203 0)"/>
     <use xlink:href="#DejaVuSans-73" transform="translate(993.066406 0)"/>
     <use xlink:href="#DejaVuSans-2c" transform="translate(1045.166016 0)"/>
     <use xlink:href="#DejaVuSans-20" transform="translate(1076.953125 0)"/>
     <use xlink:href="#DejaVuSans-6c" transform="translate(1108.740234 0)"/>
     <use xlink:href="#DejaVuSans-69" transform="translate(1136.523438 0)"/>
     <use xlink:href="#DejaVuSans-6e" transform="translate(1164.306641 0)"/>
     <use xlink:href="#DejaVuSans-65" transform="translate(1227.685547 0)"/>
     <use xlink:href="#DejaVuSans-61" transform="translate(1289.208984 0)"/>
     <use xlink:href="#DejaVuSans-72" transform="translate(1350.488281 0)"/>
     <use xlink:href="#DejaVuSans-20" transform="translate(1391.601562 0)"/>
     <use xlink:href="#DejaVuSans-74" transform="translate(1423.388672 0)"/>
     <use xlink:href="#DejaVuSans-69" transform="translate(1462.597656 0)"/>
     <use xlink:href="#DejaVuSans-6d" transform="translate(1490.380859 0)"/>
     <use xlink:href="#DejaVuSans-65" transform="translate(1587.792969 0)"/>
     <use xlink:href="#DejaVuSans-29" transform="translate(1649.316406 0)"/>
     <use xlink:href="#DejaVuSans-3a" transform="translate(1688.330078 0)"/>
     <use xlink:href="#DejaVuSans-20" transform="translate(1722.021484 0)"/>
     <use xlink:href="#DejaVuSans-61" transform="translate(1753.808594 0)"/>
     <use xlink:href="#DejaVuSans-20" transform="translate(1815.087891 0)"/>
     <use xlink:href="#DejaVuSans-73" transform="translate(1846.875 0)"/>
     <use xlink:href="#DejaVuSans-74" transform="translate(1898.974609 0)"/>
     <use xlink:href="#DejaVuSans-72" transform="translate(1938.183594 0)"/>
     <use xlink:href="#DejaVuSans-61" transform="translate(1979.296875 0)"/>
     <use xlink:href="#DejaVuSans-69" transform="translate(2040.576172 0)"/>
     <use xlink:href="#DejaVuSans-67" transform="translate(2068.359375 0)"/>
     <use xlink:href="#DejaVuSans-68" transform="translate(2131.835938 0)"/>
     <use xlink:href="#DejaVuSans-74" transform="translate(2195.214844 0)"/>
     <use xlink:href="#DejaVuSans-20" transform="translate(2234.423828 0)"/>
     <use xlink:href="#DejaVuSans-6c" transform="translate(2266.210938 0)"/>
     <use xlink:href="#DejaVuSans-69" transform="translate(2293.994141 0)"/>
     <use xlink:href="#DejaVuSans-6e" transform="translate(2321.777344 0)"/>
     <use xlink:href="#DejaVuSans-65" transform="translate(2385.15625 0)"/>
     <use xlink:href="#DejaVuSans-20" transform="translate(2446.679688 0)"/>
     <use xlink:href="#DejaVuSans-77" transform="translate(2478.466797 0)"/>
     <use xlink:href="#DejaVuSans-6f" transform="translate(2560.253906 0)"/>
     <use xlink:href="#DejaVuSans-75" transform="translate(2621.435547 0)"/>
     <use xlink:href="#DejaVuSans-6c" transform="translate(2684.814453 0)"/>
     <use xlink:href="#DejaVuSans-64" transform="translate(2712.597656 0)"/>
     <use xlink:href="#DejaVuSans-20" transform="translate(2776.074219 0)"/>
     <use xlink:href="#DejaVuSans-62" transform="translate(2807.861328 0)"/>
     <use xlink:href="#DejaVuSans-65" transform="translate(2871.337891 0)"/>
     <use xlink:href="#DejaVuSans-20" transform="translate(2932.861328 0)"/>
     <use xlink:href="#DejaVuSans-63" transform="translate(2964.648438 0)"/>
     <use xlink:href="#DejaVuSans-6f" transform="translate(3019.628906 0)"/>
     <use xlink:href="#DejaVuSans-6e" transform="translate(3080.810547 0)"/>
     <use xlink:href="#DejaVuSans-73" transform="translate(3144.189453 0)"/>
     <use xlink:href="#DejaVuSans-74" transform="translate(3196.289062 0)"/>
     <use xlink:href="#DejaVuSans-61" transform="translate(3235.498047 0)"/>
     <use xlink:href="#DejaVuSans-6e" transform="translate(3296.777344 0)"/>
     <use xlink:href="#DejaVuSans-74" transform="translate(3360.15625 0)"/>
     <use xlink:href="#DejaVuSans-20" transform="translate(3399.365234 0)"/>
     <use xlink:href="#DejaVuSans-64" transform="translate(3431.152344 0)"/>
     <use xlink:href="#DejaVuSans-6f" transform="translate(3494.628906 0)"/>
     <use xlink:href="#DejaVuSans-75" transform="translate(3555.810547 0)"/>
     <use xlink:href="#DejaVuSans-62" transform="translate(3619.189453 0)"/>
     <use xlink:href="#DejaVuSans-6c" transform="translate(3682.666016 0)"/>
     <use xlink:href="#DejaVuSans-69" transform="translate(3710.449219 0)"/>
     <use xlink:href="#DejaVuSans-6e" transform="translate(3738.232422 0)"/>
     <use xlink:href="#DejaVuSans-67" transform="translate(3801.611328 0)"/>
     <use xlink:href="#DejaVuSans-20" transform="translate(3865.087891 0)"/>
     <use xlink:href="#DejaVuSans-74" transform="translate(3896.875 0)"/>
     <use xlink:href="#DejaVuSans-69" transform="translate(3936.083984 0)"/>
     <use xlink:href="#DejaVuSans-6d" transform="translate(3963.867188 0)"/>
     <use xlink:href="#DejaVuSans-65" transform="translate(4061.279297 0)"/>
     <use xlink:href="#DejaVuSans-3b" transform="translate(4122.802734 0)"/>
     <use xlink:href="#DejaVuSans-20" transform="translate(4156.494141 0)"/>
     <use xlink:href="#DejaVuSans-74" transform="translate(4188.28125 0)"/>
     <use xlink:href="#DejaVuSans-68" transform="translate(4227.490234 0)"/>
     <use xlink:href="#DejaVuSans-65" transform="translate(4290.869141 0)"/>
     <use xlink:href="#DejaVuSans-20" transform="translate(4352.392578 0)"/>
     <use xlink:href="#DejaVuSans-63" transform="translate(4384.179688 0)"/>
     <use xlink:href="#DejaVuSans-75" transform="translate(4439.160156 0)"/>
     <use xlink:href="#DejaVuSans-72" transform="translate(4502.539062 0)"/>
     <use xlink:href="#DejaVuSans-76" transform="translate(4543.652344 0)"/>
     <use xlink:href="#DejaVuSans-65" transform="translate(4602.832031 0)"/>
     <use xlink:href="#DejaVuSans-20" transform="translate(4664.355469 0)"/>
     <use xlink:href="#DejaVuSans-62" transform="translate(4696.142578 0)"/>
     <use xlink:href="#DejaVuSans-65" transform="translate(4759.619141 0)"/>
     <use xlink:href="#DejaVuSans-6e" transform="translate(4821.142578 0)"/>
     <use xlink:href="#DejaVuSans-64" transform="translate(4884.521484 0)"/>
     <use xlink:href="#DejaVuSans-73" transform="translate(4947.998047 0)"/>
     <use xlink:href="#DejaVuSans-2e" transform="translate(5000.097656 0)"/>
    </g>
   </g>
   <g id="text_21">
    <!-- Each doubling takes longer than the last -->
    <g style="fill: #1f2933" transform="translate(57.71 23.76) scale(0.17 -0.17)">
     <defs>
      <path id="DejaVuSans-Bold-45" d="M 588 4666 
L 3834 4666 
L 3834 3756 
L 1791 3756 
L 1791 2888 
L 3713 2888 
L 3713 1978 
L 1791 1978 
L 1791 909 
L 3903 909 
L 3903 0 
L 588 0 
L 588 4666 
z
" transform="scale(0.015625)"/>
      <path id="DejaVuSans-Bold-61" d="M 2106 1575 
Q 1756 1575 1579 1456 
Q 1403 1338 1403 1106 
Q 1403 894 1545 773 
Q 1688 653 1941 653 
Q 2256 653 2472 879 
Q 2688 1106 2688 1447 
L 2688 1575 
L 2106 1575 
z
M 3816 1997 
L 3816 0 
L 2688 0 
L 2688 519 
Q 2463 200 2181 54 
Q 1900 -91 1497 -91 
Q 953 -91 614 226 
Q 275 544 275 1050 
Q 275 1666 698 1953 
Q 1122 2241 2028 2241 
L 2688 2241 
L 2688 2328 
Q 2688 2594 2478 2717 
Q 2269 2841 1825 2841 
Q 1466 2841 1156 2769 
Q 847 2697 581 2553 
L 581 3406 
Q 941 3494 1303 3539 
Q 1666 3584 2028 3584 
Q 2975 3584 3395 3211 
Q 3816 2838 3816 1997 
z
" transform="scale(0.015625)"/>
      <path id="DejaVuSans-Bold-63" d="M 3366 3391 
L 3366 2478 
Q 3138 2634 2908 2709 
Q 2678 2784 2431 2784 
Q 1963 2784 1702 2511 
Q 1441 2238 1441 1747 
Q 1441 1256 1702 982 
Q 1963 709 2431 709 
Q 2694 709 2930 787 
Q 3166 866 3366 1019 
L 3366 103 
Q 3103 6 2833 -42 
Q 2563 -91 2291 -91 
Q 1344 -91 809 395 
Q 275 881 275 1747 
Q 275 2613 809 3098 
Q 1344 3584 2291 3584 
Q 2566 3584 2833 3536 
Q 3100 3488 3366 3391 
z
" transform="scale(0.015625)"/>
      <path id="DejaVuSans-Bold-64" d="M 2919 2988 
L 2919 4863 
L 4044 4863 
L 4044 0 
L 2919 0 
L 2919 506 
Q 2688 197 2409 53 
Q 2131 -91 1766 -91 
Q 1119 -91 703 423 
Q 288 938 288 1747 
Q 288 2556 703 3070 
Q 1119 3584 1766 3584 
Q 2128 3584 2408 3439 
Q 2688 3294 2919 2988 
z
M 2181 722 
Q 2541 722 2730 984 
Q 2919 1247 2919 1747 
Q 2919 2247 2730 2509 
Q 2541 2772 2181 2772 
Q 1825 2772 1636 2509 
Q 1447 2247 1447 1747 
Q 1447 1247 1636 984 
Q 1825 722 2181 722 
z
" transform="scale(0.015625)"/>
      <path id="DejaVuSans-Bold-6f" d="M 2203 2784 
Q 1831 2784 1636 2517 
Q 1441 2250 1441 1747 
Q 1441 1244 1636 976 
Q 1831 709 2203 709 
Q 2569 709 2762 976 
Q 2956 1244 2956 1747 
Q 2956 2250 2762 2517 
Q 2569 2784 2203 2784 
z
M 2203 3584 
Q 3106 3584 3614 3096 
Q 4122 2609 4122 1747 
Q 4122 884 3614 396 
Q 3106 -91 2203 -91 
Q 1297 -91 786 396 
Q 275 884 275 1747 
Q 275 2609 786 3096 
Q 1297 3584 2203 3584 
z
" transform="scale(0.015625)"/>
      <path id="DejaVuSans-Bold-75" d="M 500 1363 
L 500 3500 
L 1625 3500 
L 1625 3150 
Q 1625 2866 1622 2436 
Q 1619 2006 1619 1863 
Q 1619 1441 1641 1255 
Q 1663 1069 1716 984 
Q 1784 875 1895 815 
Q 2006 756 2150 756 
Q 2500 756 2700 1025 
Q 2900 1294 2900 1772 
L 2900 3500 
L 4019 3500 
L 4019 0 
L 2900 0 
L 2900 506 
Q 2647 200 2364 54 
Q 2081 -91 1741 -91 
Q 1134 -91 817 281 
Q 500 653 500 1363 
z
" transform="scale(0.015625)"/>
      <path id="DejaVuSans-Bold-62" d="M 2400 722 
Q 2759 722 2948 984 
Q 3138 1247 3138 1747 
Q 3138 2247 2948 2509 
Q 2759 2772 2400 2772 
Q 2041 2772 1848 2508 
Q 1656 2244 1656 1747 
Q 1656 1250 1848 986 
Q 2041 722 2400 722 
z
M 1656 2988 
Q 1888 3294 2169 3439 
Q 2450 3584 2816 3584 
Q 3463 3584 3878 3070 
Q 4294 2556 4294 1747 
Q 4294 938 3878 423 
Q 3463 -91 2816 -91 
Q 2450 -91 2169 54 
Q 1888 200 1656 506 
L 1656 0 
L 538 0 
L 538 4863 
L 1656 4863 
L 1656 2988 
z
" transform="scale(0.015625)"/>
      <path id="DejaVuSans-Bold-6c" d="M 538 4863 
L 1656 4863 
L 1656 0 
L 538 0 
L 538 4863 
z
" transform="scale(0.015625)"/>
      <path id="DejaVuSans-Bold-69" d="M 538 3500 
L 1656 3500 
L 1656 0 
L 538 0 
L 538 3500 
z
M 538 4863 
L 1656 4863 
L 1656 3950 
L 538 3950 
L 538 4863 
z
" transform="scale(0.015625)"/>
      <path id="DejaVuSans-Bold-6e" d="M 4056 2131 
L 4056 0 
L 2931 0 
L 2931 347 
L 2931 1631 
Q 2931 2084 2911 2256 
Q 2891 2428 2841 2509 
Q 2775 2619 2662 2680 
Q 2550 2741 2406 2741 
Q 2056 2741 1856 2470 
Q 1656 2200 1656 1722 
L 1656 0 
L 538 0 
L 538 3500 
L 1656 3500 
L 1656 2988 
Q 1909 3294 2193 3439 
Q 2478 3584 2822 3584 
Q 3428 3584 3742 3212 
Q 4056 2841 4056 2131 
z
" transform="scale(0.015625)"/>
      <path id="DejaVuSans-Bold-67" d="M 2919 594 
Q 2688 288 2409 144 
Q 2131 0 1766 0 
Q 1125 0 706 504 
Q 288 1009 288 1791 
Q 288 2575 706 3076 
Q 1125 3578 1766 3578 
Q 2131 3578 2409 3434 
Q 2688 3291 2919 2981 
L 2919 3500 
L 4044 3500 
L 4044 353 
Q 4044 -491 3511 -936 
Q 2978 -1381 1966 -1381 
Q 1638 -1381 1331 -1331 
Q 1025 -1281 716 -1178 
L 716 -306 
Q 1009 -475 1290 -558 
Q 1572 -641 1856 -641 
Q 2406 -641 2662 -400 
Q 2919 -159 2919 353 
L 2919 594 
z
M 2181 2772 
Q 1834 2772 1640 2515 
Q 1447 2259 1447 1791 
Q 1447 1309 1634 1061 
Q 1822 813 2181 813 
Q 2531 813 2725 1069 
Q 2919 1325 2919 1791 
Q 2919 2259 2725 2515 
Q 2531 2772 2181 2772 
z
" transform="scale(0.015625)"/>
      <path id="DejaVuSans-Bold-74" d="M 1759 4494 
L 1759 3500 
L 2913 3500 
L 2913 2700 
L 1759 2700 
L 1759 1216 
Q 1759 972 1856 886 
Q 1953 800 2241 800 
L 2816 800 
L 2816 0 
L 1856 0 
Q 1194 0 917 276 
Q 641 553 641 1216 
L 641 2700 
L 84 2700 
L 84 3500 
L 641 3500 
L 641 4494 
L 1759 4494 
z
" transform="scale(0.015625)"/>
      <path id="DejaVuSans-Bold-65" d="M 4031 1759 
L 4031 1441 
L 1416 1441 
Q 1456 1047 1700 850 
Q 1944 653 2381 653 
Q 2734 653 3104 758 
Q 3475 863 3866 1075 
L 3866 213 
Q 3469 63 3072 -14 
Q 2675 -91 2278 -91 
Q 1328 -91 801 392 
Q 275 875 275 1747 
Q 275 2603 792 3093 
Q 1309 3584 2216 3584 
Q 3041 3584 3536 3087 
Q 4031 2591 4031 1759 
z
M 2881 2131 
Q 2881 2450 2695 2645 
Q 2509 2841 2209 2841 
Q 1884 2841 1681 2658 
Q 1478 2475 1428 2131 
L 2881 2131 
z
" transform="scale(0.015625)"/>
      <path id="DejaVuSans-Bold-73" d="M 3272 3391 
L 3272 2541 
Q 2913 2691 2578 2766 
Q 2244 2841 1947 2841 
Q 1628 2841 1473 2761 
Q 1319 2681 1319 2516 
Q 1319 2381 1436 2309 
Q 1553 2238 1856 2203 
L 2053 2175 
Q 2913 2066 3209 1816 
Q 3506 1566 3506 1031 
Q 3506 472 3093 190 
Q 2681 -91 1863 -91 
Q 1516 -91 1145 -36 
Q 775 19 384 128 
L 384 978 
Q 719 816 1070 734 
Q 1422 653 1784 653 
Q 2113 653 2278 743 
Q 2444 834 2444 1013 
Q 2444 1163 2330 1236 
Q 2216 1309 1875 1350 
L 1678 1375 
Q 931 1469 631 1722 
Q 331 1975 331 2491 
Q 331 3047 712 3315 
Q 1094 3584 1881 3584 
Q 2191 3584 2531 3537 
Q 2872 3491 3272 3391 
z
" transform="scale(0.015625)"/>
      <path id="DejaVuSans-Bold-72" d="M 3138 2547 
Q 2991 2616 2845 2648 
Q 2700 2681 2553 2681 
Q 2122 2681 1889 2404 
Q 1656 2128 1656 1613 
L 1656 0 
L 538 0 
L 538 3500 
L 1656 3500 
L 1656 2925 
Q 1872 3269 2151 3426 
Q 2431 3584 2822 3584 
Q 2878 3584 2943 3579 
Q 3009 3575 3134 3559 
L 3138 2547 
z
" transform="scale(0.015625)"/>
     </defs>
     <use xlink:href="#DejaVuSans-Bold-45"/>
     <use xlink:href="#DejaVuSans-Bold-61" transform="translate(68.310547 0)"/>
     <use xlink:href="#DejaVuSans-Bold-63" transform="translate(135.791016 0)"/>
     <use xlink:href="#DejaVuSans-Bold-68" transform="translate(195.068359 0)"/>
     <use xlink:href="#DejaVuSans-Bold-20" transform="translate(266.259766 0)"/>
     <use xlink:href="#DejaVuSans-Bold-64" transform="translate(301.074219 0)"/>
     <use xlink:href="#DejaVuSans-Bold-6f" transform="translate(372.65625 0)"/>
     <use xlink:href="#DejaVuSans-Bold-75" transform="translate(441.357422 0)"/>
     <use xlink:href="#DejaVuSans-Bold-62" transform="translate(512.548828 0)"/>
     <use xlink:href="#DejaVuSans-Bold-6c" transform="translate(584.130859 0)"/>
     <use xlink:href="#DejaVuSans-Bold-69" transform="translate(618.408203 0)"/>
     <use xlink:href="#DejaVuSans-Bold-6e" transform="translate(652.685547 0)"/>
     <use xlink:href="#DejaVuSans-Bold-67" transform="translate(723.876953 0)"/>
     <use xlink:href="#DejaVuSans-Bold-20" transform="translate(795.458984 0)"/>
     <use xlink:href="#DejaVuSans-Bold-74" transform="translate(830.273438 0)"/>
     <use xlink:href="#DejaVuSans-Bold-61" transform="translate(878.076172 0)"/>
     <use xlink:href="#DejaVuSans-Bold-6b" transform="translate(945.556641 0)"/>
     <use xlink:href="#DejaVuSans-Bold-65" transform="translate(1009.435547 0)"/>
     <use xlink:href="#DejaVuSans-Bold-73" transform="translate(1077.257812 0)"/>
     <use xlink:href="#DejaVuSans-Bold-20" transform="translate(1136.779297 0)"/>
     <use xlink:href="#DejaVuSans-Bold-6c" transform="translate(1171.59375 0)"/>
     <use xlink:href="#DejaVuSans-Bold-6f" transform="translate(1205.871094 0)"/>
     <use xlink:href="#DejaVuSans-Bold-6e" transform="translate(1274.572266 0)"/>
     <use xlink:href="#DejaVuSans-Bold-67" transform="translate(1345.763672 0)"/>
     <use xlink:href="#DejaVuSans-Bold-65" transform="translate(1417.345703 0)"/>
     <use xlink:href="#DejaVuSans-Bold-72" transform="translate(1485.167969 0)"/>
     <use xlink:href="#DejaVuSans-Bold-20" transform="translate(1534.484375 0)"/>
     <use xlink:href="#DejaVuSans-Bold-74" transform="translate(1569.298828 0)"/>
     <use xlink:href="#DejaVuSans-Bold-68" transform="translate(1617.101562 0)"/>
     <use xlink:href="#DejaVuSans-Bold-61" transform="translate(1688.292969 0)"/>
     <use xlink:href="#DejaVuSans-Bold-6e" transform="translate(1755.773438 0)"/>
     <use xlink:href="#DejaVuSans-Bold-20" transform="translate(1826.964844 0)"/>
     <use xlink:href="#DejaVuSans-Bold-74" transform="translate(1861.779297 0)"/>
     <use xlink:href="#DejaVuSans-Bold-68" transform="translate(1909.582031 0)"/>
     <use xlink:href="#DejaVuSans-Bold-65" transform="translate(1980.773438 0)"/>
     <use xlink:href="#DejaVuSans-Bold-20" transform="translate(2048.595703 0)"/>
     <use xlink:href="#DejaVuSans-Bold-6c" transform="translate(2083.410156 0)"/>
     <use xlink:href="#DejaVuSans-Bold-61" transform="translate(2117.6875 0)"/>
     <use xlink:href="#DejaVuSans-Bold-73" transform="translate(2185.167969 0)"/>
     <use xlink:href="#DejaVuSans-Bold-74" transform="translate(2244.689453 0)"/>
    </g>
   </g>
   <g id="legend_1">
    <g id="patch_7">
     <path d="M 544.423906 352.89 
L 655.66 352.89 
Q 657.56 352.89 657.56 350.99 
L 657.56 296.163125 
Q 657.56 294.263125 655.66 294.263125 
L 544.423906 294.263125 
Q 542.523906 294.263125 542.523906 296.163125 
L 542.523906 350.99 
Q 542.523906 352.89 544.423906 352.89 
z
" style="fill: #ffffff; opacity: 0.92; stroke: #cccccc; stroke-linejoin: miter"/>
    </g>
    <g id="line2d_35">
     <path d="M 546.323906 301.956641 
L 555.823906 301.956641 
L 565.323906 301.956641 
" style="fill: none; stroke: #4c72b0; stroke-width: 2; stroke-linecap: square"/>
    </g>
    <g id="text_22">
     <!-- Adaptive, RUN01 -->
     <g transform="translate(572.923906 305.281641) scale(0.095 -0.095)">
      <defs>
       <path id="DejaVuSans-41" d="M 2188 4044 
L 1331 1722 
L 3047 1722 
L 2188 4044 
z
M 1831 4666 
L 2547 4666 
L 4325 0 
L 3669 0 
L 3244 1197 
L 1141 1197 
L 716 0 
L 50 0 
L 1831 4666 
z
" transform="scale(0.015625)"/>
       <path id="DejaVuSans-70" d="M 1159 525 
L 1159 -1331 
L 581 -1331 
L 581 3500 
L 1159 3500 
L 1159 2969 
Q 1341 3281 1617 3432 
Q 1894 3584 2278 3584 
Q 2916 3584 3314 3078 
Q 3713 2572 3713 1747 
Q 3713 922 3314 415 
Q 2916 -91 2278 -91 
Q 1894 -91 1617 61 
Q 1341 213 1159 525 
z
M 3116 1747 
Q 3116 2381 2855 2742 
Q 2594 3103 2138 3103 
Q 1681 3103 1420 2742 
Q 1159 2381 1159 1747 
Q 1159 1113 1420 752 
Q 1681 391 2138 391 
Q 2594 391 2855 752 
Q 3116 1113 3116 1747 
z
" transform="scale(0.015625)"/>
       <path id="DejaVuSans-52" d="M 2841 2188 
Q 3044 2119 3236 1894 
Q 3428 1669 3622 1275 
L 4263 0 
L 3584 0 
L 2988 1197 
Q 2756 1666 2539 1819 
Q 2322 1972 1947 1972 
L 1259 1972 
L 1259 0 
L 628 0 
L 628 4666 
L 2053 4666 
Q 2853 4666 3247 4331 
Q 3641 3997 3641 3322 
Q 3641 2881 3436 2590 
Q 3231 2300 2841 2188 
z
M 1259 4147 
L 1259 2491 
L 2053 2491 
Q 2509 2491 2742 2702 
Q 2975 2913 2975 3322 
Q 2975 3731 2742 3939 
Q 2509 4147 2053 4147 
L 1259 4147 
z
" transform="scale(0.015625)"/>
       <path id="DejaVuSans-55" d="M 556 4666 
L 1191 4666 
L 1191 1831 
Q 1191 1081 1462 751 
Q 1734 422 2344 422 
Q 2950 422 3222 751 
Q 3494 1081 3494 1831 
L 3494 4666 
L 4128 4666 
L 4128 1753 
Q 4128 841 3676 375 
Q 3225 -91 2344 -91 
Q 1459 -91 1007 375 
Q 556 841 556 1753 
L 556 4666 
z
" transform="scale(0.015625)"/>
       <path id="DejaVuSans-4e" d="M 628 4666 
L 1478 4666 
L 3547 763 
L 3547 4666 
L 4159 4666 
L 4159 0 
L 3309 0 
L 1241 3903 
L 1241 0 
L 628 0 
L 628 4666 
z
" transform="scale(0.015625)"/>
      </defs>
      <use xlink:href="#DejaVuSans-41"/>
      <use xlink:href="#DejaVuSans-64" transform="translate(66.658203 0)"/>
      <use xlink:href="#DejaVuSans-61" transform="translate(130.134766 0)"/>
      <use xlink:href="#DejaVuSans-70" transform="translate(191.414062 0)"/>
      <use xlink:href="#DejaVuSans-74" transform="translate(254.890625 0)"/>
      <use xlink:href="#DejaVuSans-69" transform="translate(294.099609 0)"/>
      <use xlink:href="#DejaVuSans-76" transform="translate(321.882812 0)"/>
      <use xlink:href="#DejaVuSans-65" transform="translate(381.0625 0)"/>
      <use xlink:href="#DejaVuSans-2c" transform="translate(442.585938 0)"/>
      <use xlink:href="#DejaVuSans-20" transform="translate(474.373047 0)"/>
      <use xlink:href="#DejaVuSans-52" transform="translate(506.160156 0)"/>
      <use xlink:href="#DejaVuSans-55" transform="translate(575.642578 0)"/>
      <use xlink:href="#DejaVuSans-4e" transform="translate(648.835938 0)"/>
      <use xlink:href="#DejaVuSans-30" transform="translate(723.640625 0)"/>
      <use xlink:href="#DejaVuSans-31" transform="translate(787.263672 0)"/>
     </g>
    </g>
    <g id="line2d_36">
     <path d="M 546.323906 315.900859 
L 555.823906 315.900859 
L 565.323906 315.900859 
" style="fill: none; stroke: #c44e52; stroke-width: 2; stroke-linecap: square"/>
    </g>
    <g id="text_23">
     <!-- v1, RUN01 -->
     <g transform="translate(572.923906 319.225859) scale(0.095 -0.095)">
      <use xlink:href="#DejaVuSans-76"/>
      <use xlink:href="#DejaVuSans-31" transform="translate(59.179688 0)"/>
      <use xlink:href="#DejaVuSans-2c" transform="translate(122.802734 0)"/>
      <use xlink:href="#DejaVuSans-20" transform="translate(154.589844 0)"/>
      <use xlink:href="#DejaVuSans-52" transform="translate(186.376953 0)"/>
      <use xlink:href="#DejaVuSans-55" transform="translate(255.859375 0)"/>
      <use xlink:href="#DejaVuSans-4e" transform="translate(329.052734 0)"/>
      <use xlink:href="#DejaVuSans-30" transform="translate(403.857422 0)"/>
      <use xlink:href="#DejaVuSans-31" transform="translate(467.480469 0)"/>
     </g>
    </g>
    <g id="line2d_37">
     <path d="M 546.323906 329.845078 
L 555.823906 329.845078 
L 565.323906 329.845078 
" style="fill: none; stroke-dasharray: 10,4; stroke-dashoffset: 0; stroke: #2f4b7c; stroke-width: 2"/>
    </g>
    <g id="text_24">
     <!-- Adaptive, RUN02 -->
     <g transform="translate(572.923906 333.170078) scale(0.095 -0.095)">
      <use xlink:href="#DejaVuSans-41"/>
      <use xlink:href="#DejaVuSans-64" transform="translate(66.658203 0)"/>
      <use xlink:href="#DejaVuSans-61" transform="translate(130.134766 0)"/>
      <use xlink:href="#DejaVuSans-70" transform="translate(191.414062 0)"/>
      <use xlink:href="#DejaVuSans-74" transform="translate(254.890625 0)"/>
      <use xlink:href="#DejaVuSans-69" transform="translate(294.099609 0)"/>
      <use xlink:href="#DejaVuSans-76" transform="translate(321.882812 0)"/>
      <use xlink:href="#DejaVuSans-65" transform="translate(381.0625 0)"/>
      <use xlink:href="#DejaVuSans-2c" transform="translate(442.585938 0)"/>
      <use xlink:href="#DejaVuSans-20" transform="translate(474.373047 0)"/>
      <use xlink:href="#DejaVuSans-52" transform="translate(506.160156 0)"/>
      <use xlink:href="#DejaVuSans-55" transform="translate(575.642578 0)"/>
      <use xlink:href="#DejaVuSans-4e" transform="translate(648.835938 0)"/>
      <use xlink:href="#DejaVuSans-30" transform="translate(723.640625 0)"/>
      <use xlink:href="#DejaVuSans-32" transform="translate(787.263672 0)"/>
     </g>
    </g>
    <g id="line2d_38">
     <path d="M 546.323906 343.789297 
L 555.823906 343.789297 
L 565.323906 343.789297 
" style="fill: none; stroke-dasharray: 10,4; stroke-dashoffset: 0; stroke: #8c3b3f; stroke-width: 2"/>
    </g>
    <g id="text_25">
     <!-- v1, RUN02 -->
     <g transform="translate(572.923906 347.114297) scale(0.095 -0.095)">
      <use xlink:href="#DejaVuSans-76"/>
      <use xlink:href="#DejaVuSans-31" transform="translate(59.179688 0)"/>
      <use xlink:href="#DejaVuSans-2c" transform="translate(122.802734 0)"/>
      <use xlink:href="#DejaVuSans-20" transform="translate(154.589844 0)"/>
      <use xlink:href="#DejaVuSans-52" transform="translate(186.376953 0)"/>
      <use xlink:href="#DejaVuSans-55" transform="translate(255.859375 0)"/>
      <use xlink:href="#DejaVuSans-4e" transform="translate(329.052734 0)"/>
      <use xlink:href="#DejaVuSans-30" transform="translate(403.857422 0)"/>
      <use xlink:href="#DejaVuSans-32" transform="translate(467.480469 0)"/>
     </g>
    </g>
   </g>
   <g id="PathCollection_1">
    <defs>
     <path id="m717d6ff70d" d="M 0 2.915476 
C 0.773193 2.915476 1.514823 2.608283 2.061553 2.061553 
C 2.608283 1.514823 2.915476 0.773193 2.915476 0 
C 2.915476 -0.773193 2.608283 -1.514823 2.061553 -2.061553 
C 1.514823 -2.608283 0.773193 -2.915476 0 -2.915476 
C -0.773193 -2.915476 -1.514823 -2.608283 -2.061553 -2.061553 
C -2.608283 -1.514823 -2.915476 -0.773193 -2.915476 0 
C -2.915476 0.773193 -2.608283 1.514823 -2.061553 2.061553 
C -1.514823 2.608283 -0.773193 2.915476 0 2.915476 
z
" style="stroke: #fbfaf7; stroke-width: 0.8"/>
    </defs>
    <g clip-path="url(#p8d6ccf1630)">
     <use xlink:href="#m717d6ff70d" x="387.868803" y="69.785614" style="fill: #4c72b0; stroke: #fbfaf7; stroke-width: 0.8"/>
    </g>
   </g>
   <g id="PathCollection_2">
    <defs>
     <path id="m1df8473c02" d="M 0 2.915476 
C 0.773193 2.915476 1.514823 2.608283 2.061553 2.061553 
C 2.608283 1.514823 2.915476 0.773193 2.915476 0 
C 2.915476 -0.773193 2.608283 -1.514823 2.061553 -2.061553 
C 1.514823 -2.608283 0.773193 -2.915476 0 -2.915476 
C -0.773193 -2.915476 -1.514823 -2.608283 -2.061553 -2.061553 
C -2.608283 -1.514823 -2.915476 -0.773193 -2.915476 0 
C -2.915476 0.773193 -2.608283 1.514823 -2.061553 2.061553 
C -1.514823 2.608283 -0.773193 2.915476 0 2.915476 
z
" style="stroke: #fbfaf7; stroke-width: 0.8"/>
    </defs>
    <g clip-path="url(#p8d6ccf1630)">
     <use xlink:href="#m1df8473c02" x="387.868803" y="89.695685" style="fill: #c44e52; stroke: #fbfaf7; stroke-width: 0.8"/>
    </g>
   </g>
   <g id="PathCollection_3">
    <defs>
     <path id="m38479ceeb6" d="M 0 2.915476 
C 0.773193 2.915476 1.514823 2.608283 2.061553 2.061553 
C 2.608283 1.514823 2.915476 0.773193 2.915476 0 
C 2.915476 -0.773193 2.608283 -1.514823 2.061553 -2.061553 
C 1.514823 -2.608283 0.773193 -2.915476 0 -2.915476 
C -0.773193 -2.915476 -1.514823 -2.608283 -2.061553 -2.061553 
C -2.608283 -1.514823 -2.915476 -0.773193 -2.915476 0 
C -2.915476 0.773193 -2.608283 1.514823 -2.061553 2.061553 
C -1.514823 2.608283 -0.773193 2.915476 0 2.915476 
z
" style="stroke: #fbfaf7; stroke-width: 0.8"/>
    </defs>
    <g clip-path="url(#p8d6ccf1630)">
     <use xlink:href="#m38479ceeb6" x="634.751599" y="61.845455" style="fill: #2f4b7c; stroke: #fbfaf7; stroke-width: 0.8"/>
    </g>
   </g>
   <g id="PathCollection_4">
    <defs>
     <path id="m21a2ae3ecc" d="M 0 2.915476 
C 0.773193 2.915476 1.514823 2.608283 2.061553 2.061553 
C 2.608283 1.514823 2.915476 0.773193 2.915476 0 
C 2.915476 -0.773193 2.608283 -1.514823 2.061553 -2.061553 
C 1.514823 -2.608283 0.773193 -2.915476 0 -2.915476 
C -0.773193 -2.915476 -1.514823 -2.608283 -2.061553 -2.061553 
C -2.608283 -1.514823 -2.915476 -0.773193 -2.915476 0 
C -2.915476 0.773193 -2.608283 1.514823 -2.061553 2.061553 
C -1.514823 2.608283 -0.773193 2.915476 0 2.915476 
z
" style="stroke: #fbfaf7; stroke-width: 0.8"/>
    </defs>
    <g clip-path="url(#p8d6ccf1630)">
     <use xlink:href="#m21a2ae3ecc" x="634.828182" y="81.896204" style="fill: #8c3b3f; stroke: #fbfaf7; stroke-width: 0.8"/>
    </g>
   </g>
  </g>
 </g>
 <defs>
  <clipPath id="p8d6ccf1630">
   <rect x="57.71" y="47.76" width="604.6" height="309.88"/>
  </clipPath>
 </defs>
</svg>
