<?xml version="1.0" encoding="utf-8" standalone="no"?>
<!DOCTYPE svg PUBLIC "-//W3C//DTD SVG 1.1//EN"
  "http://www.w3.org/Graphics/SVG/1.1/DTD/svg11.dtd">
<svg xmlns:xlink="http://www.w3.org/1999/xlink" width="454.719687pt" height="299.190688pt" viewBox="0 0 454.719687 299.190688" xmlns="http://www.w3.org/2000/svg" version="1.1">
 <metadata>
  <rdf:RDF xmlns:dc="http://purl.org/dc/elements/1.1/" xmlns:cc="http://creativecommons.org/ns#" xmlns:rdf="http://www.w3.org/1999/02/22-rdf-syntax-ns#">
   <cc:Work>
    <dc:type rdf:resource="http://purl.org/dc/dcmitype/StillImage"/>
    <dc:date>2026-06-22T12:02:39.035671</dc:date>
    <dc:format>image/svg+xml</dc:format>
    <dc:creator>
     <cc:Agent>
      <dc:title>Matplotlib v3.11.0, https://matplotlib.org/</dc:title>
     </cc:Agent>
    </dc:creator>
   </cc:Work>
  </rdf:RDF>
 </metadata>
 <defs>
  <style type="text/css">*{stroke-linejoin: round; stroke-linecap: butt}</style>
 </defs>
 <g id="figure_1">
  <g id="patch_1">
   <path d="M 0 299.190688 
L 454.719687 299.190688 
L 454.719687 0 
L 0 0 
L 0 299.190688 
z
" style="fill: none"/>
  </g>
  <g id="axes_1">
   <g id="patch_2">
    <path d="M 56.919688 256.98975 
L 447.519688 256.98975 
L 447.519688 24.14175 
L 56.919688 24.14175 
L 56.919688 256.98975 
z
" style="fill: none"/>
   </g>
   <g id="matplotlib.axis_1">
    <g id="xtick_1">
     <g id="line2d_1">
      <defs>
       <path id="m6668c5edac" d="M 0 0 
L 0 3.5 
" style="stroke: #888888; stroke-width: 0.8"/>
      </defs>
      <g>
       <use xlink:href="#m6668c5edac" x="65.918567" y="256.98975" style="fill: #888888; stroke: #888888; stroke-width: 0.8"/>
      </g>
     </g>
     <g id="text_1">
      <!-- 0 -->
      <g style="fill: #888888" transform="translate(62.101067 273.106938) scale(0.12 -0.12)">
       <defs>
        <path id="DejaVuSans-13" d="M 2034 4250 
Q 1547 4250 1301 3770 
Q 1056 3291 1056 2328 
Q 1056 1369 1301 889 
Q 1547 409 2034 409 
Q 2525 409 2770 889 
Q 3016 1369 3016 2328 
Q 3016 3291 2770 3770 
Q 2525 4250 2034 4250 
z
M 2034 4750 
Q 2819 4750 3233 4129 
Q 3647 3509 3647 2328 
Q 3647 1150 3233 529 
Q 2819 -91 2034 -91 
Q 1250 -91 836 529 
Q 422 1150 422 2328 
Q 422 3509 836 4129 
Q 1250 4750 2034 4750 
z
" transform="scale(0.015625)"/>
       </defs>
       <use xlink:href="#DejaVuSans-13"/>
      </g>
     </g>
    </g>
    <g id="xtick_2">
     <g id="line2d_2">
      <g>
       <use xlink:href="#m6668c5edac" x="114.561157" y="256.98975" style="fill: #888888; stroke: #888888; stroke-width: 0.8"/>
      </g>
     </g>
     <g id="text_2">
      <!-- 2500 -->
      <g style="fill: #888888" transform="translate(99.291157 273.106938) scale(0.12 -0.12)">
       <defs>
        <path id="DejaVuSans-15" d="M 1228 531 
L 3431 531 
L 3431 0 
L 469 0 
L 469 531 
Q 828 903 1448 1529 
Q 2069 2156 2228 2338 
Q 2531 2678 2651 2914 
Q 2772 3150 2772 3378 
Q 2772 3750 2511 3984 
Q 2250 4219 1831 4219 
Q 1534 4219 1204 4116 
Q 875 4013 500 3803 
L 500 4441 
Q 881 4594 1212 4672 
Q 1544 4750 1819 4750 
Q 2544 4750 2975 4387 
Q 3406 4025 3406 3419 
Q 3406 3131 3298 2873 
Q 3191 2616 2906 2266 
Q 2828 2175 2409 1742 
Q 1991 1309 1228 531 
z
" transform="scale(0.015625)"/>
        <path id="DejaVuSans-18" d="M 691 4666 
L 3169 4666 
L 3169 4134 
L 1269 4134 
L 1269 2991 
Q 1406 3038 1543 3061 
Q 1681 3084 1819 3084 
Q 2600 3084 3056 2656 
Q 3513 2228 3513 1497 
Q 3513 744 3044 326 
Q 2575 -91 1722 -91 
Q 1428 -91 1123 -41 
Q 819 9 494 109 
L 494 744 
Q 775 591 1075 516 
Q 1375 441 1709 441 
Q 2250 441 2565 725 
Q 2881 1009 2881 1497 
Q 2881 1984 2565 2268 
Q 2250 2553 1709 2553 
Q 1456 2553 1204 2497 
Q 953 2441 691 2322 
L 691 4666 
z
" transform="scale(0.015625)"/>
       </defs>
       <use xlink:href="#DejaVuSans-15"/>
       <use xlink:href="#DejaVuSans-18" transform="translate(63.625 0)"/>
       <use xlink:href="#DejaVuSans-13" transform="translate(127.25 0)"/>
       <use xlink:href="#DejaVuSans-13" transform="translate(190.875 0)"/>
      </g>
     </g>
    </g>
    <g id="xtick_3">
     <g id="line2d_3">
      <g>
       <use xlink:href="#m6668c5edac" x="163.203747" y="256.98975" style="fill: #888888; stroke: #888888; stroke-width: 0.8"/>
      </g>
     </g>
     <g id="text_3">
      <!-- 5000 -->
      <g style="fill: #888888" transform="translate(147.933747 273.106938) scale(0.12 -0.12)">
       <use xlink:href="#DejaVuSans-18"/>
       <use xlink:href="#DejaVuSans-13" transform="translate(63.625 0)"/>
       <use xlink:href="#DejaVuSans-13" transform="translate(127.25 0)"/>
       <use xlink:href="#DejaVuSans-13" transform="translate(190.875 0)"/>
      </g>
     </g>
    </g>
    <g id="xtick_4">
     <g id="line2d_4">
      <g>
       <use xlink:href="#m6668c5edac" x="211.846338" y="256.98975" style="fill: #888888; stroke: #888888; stroke-width: 0.8"/>
      </g>
     </g>
     <g id="text_4">
      <!-- 7500 -->
      <g style="fill: #888888" transform="translate(196.576338 273.106938) scale(0.12 -0.12)">
       <defs>
        <path id="DejaVuSans-1a" d="M 525 4666 
L 3525 4666 
L 3525 4397 
L 1831 0 
L 1172 0 
L 2766 4134 
L 525 4134 
L 525 4666 
z
" transform="scale(0.015625)"/>
       </defs>
       <use xlink:href="#DejaVuSans-1a"/>
       <use xlink:href="#DejaVuSans-18" transform="translate(63.625 0)"/>
       <use xlink:href="#DejaVuSans-13" transform="translate(127.25 0)"/>
       <use xlink:href="#DejaVuSans-13" transform="translate(190.875 0)"/>
      </g>
     </g>
    </g>
    <g id="xtick_5">
     <g id="line2d_5">
      <g>
       <use xlink:href="#m6668c5edac" x="260.488928" y="256.98975" style="fill: #888888; stroke: #888888; stroke-width: 0.8"/>
      </g>
     </g>
     <g id="text_5">
      <!-- 10000 -->
      <g style="fill: #888888" transform="translate(241.401428 273.106938) scale(0.12 -0.12)">
       <defs>
        <path id="DejaVuSans-14" d="M 794 531 
L 1825 531 
L 1825 4091 
L 703 3866 
L 703 4441 
L 1819 4666 
L 2450 4666 
L 2450 531 
L 3481 531 
L 3481 0 
L 794 0 
L 794 531 
z
" transform="scale(0.015625)"/>
       </defs>
       <use xlink:href="#DejaVuSans-14"/>
       <use xlink:href="#DejaVuSans-13" transform="translate(63.625 0)"/>
       <use xlink:href="#DejaVuSans-13" transform="translate(127.25 0)"/>
       <use xlink:href="#DejaVuSans-13" transform="translate(190.875 0)"/>
       <use xlink:href="#DejaVuSans-13" transform="translate(254.5 0)"/>
      </g>
     </g>
    </g>
    <g id="xtick_6">
     <g id="line2d_6">
      <g>
       <use xlink:href="#m6668c5edac" x="309.131518" y="256.98975" style="fill: #888888; stroke: #888888; stroke-width: 0.8"/>
      </g>
     </g>
     <g id="text_6">
      <!-- 12500 -->
      <g style="fill: #888888" transform="translate(290.044018 273.106938) scale(0.12 -0.12)">
       <use xlink:href="#DejaVuSans-14"/>
       <use xlink:href="#DejaVuSans-15" transform="translate(63.625 0)"/>
       <use xlink:href="#DejaVuSans-18" transform="translate(127.25 0)"/>
       <use xlink:href="#DejaVuSans-13" transform="translate(190.875 0)"/>
       <use xlink:href="#DejaVuSans-13" transform="translate(254.5 0)"/>
      </g>
     </g>
    </g>
    <g id="xtick_7">
     <g id="line2d_7">
      <g>
       <use xlink:href="#m6668c5edac" x="357.774108" y="256.98975" style="fill: #888888; stroke: #888888; stroke-width: 0.8"/>
      </g>
     </g>
     <g id="text_7">
      <!-- 15000 -->
      <g style="fill: #888888" transform="translate(338.686608 273.106938) scale(0.12 -0.12)">
       <use xlink:href="#DejaVuSans-14"/>
       <use xlink:href="#DejaVuSans-18" transform="translate(63.625 0)"/>
       <use xlink:href="#DejaVuSans-13" transform="translate(127.25 0)"/>
       <use xlink:href="#DejaVuSans-13" transform="translate(190.875 0)"/>
       <use xlink:href="#DejaVuSans-13" transform="translate(254.5 0)"/>
      </g>
     </g>
    </g>
    <g id="xtick_8">
     <g id="line2d_8">
      <g>
       <use xlink:href="#m6668c5edac" x="406.416699" y="256.98975" style="fill: #888888; stroke: #888888; stroke-width: 0.8"/>
      </g>
     </g>
     <g id="text_8">
      <!-- 17500 -->
      <g style="fill: #888888" transform="translate(387.329199 273.106938) scale(0.12 -0.12)">
       <use xlink:href="#DejaVuSans-14"/>
       <use xlink:href="#DejaVuSans-1a" transform="translate(63.625 0)"/>
       <use xlink:href="#DejaVuSans-18" transform="translate(127.25 0)"/>
       <use xlink:href="#DejaVuSans-13" transform="translate(190.875 0)"/>
       <use xlink:href="#DejaVuSans-13" transform="translate(254.5 0)"/>
      </g>
     </g>
    </g>
    <g id="text_9">
     <!-- training step -->
     <g style="fill: #888888" transform="translate(214.090625 289.107875) scale(0.12 -0.12)">
      <defs>
       <path id="DejaVuSans-57" d="M 1172 4494 
L 1172 3500 
L 2356 3500 
L 2356 3053 
L 1172 3053 
L 1172 1153 
Q 1172 725 1289 603 
Q 1406 481 1766 481 
L 2356 481 
L 2356 0 
L 1766 0 
Q 1100 0 847 248 
Q 594 497 594 1153 
L 594 3053 
L 172 3053 
L 172 3500 
L 594 3500 
L 594 4494 
L 1172 4494 
z
" transform="scale(0.015625)"/>
       <path id="DejaVuSans-55" d="M 2631 2963 
Q 2534 3019 2420 3045 
Q 2306 3072 2169 3072 
Q 1681 3072 1420 2755 
Q 1159 2438 1159 1844 
L 1159 0 
L 581 0 
L 581 3500 
L 1159 3500 
L 1159 2956 
Q 1341 3275 1631 3429 
Q 1922 3584 2338 3584 
Q 2397 3584 2469 3576 
Q 2541 3569 2628 3553 
L 2631 2963 
z
" transform="scale(0.015625)"/>
       <path id="DejaVuSans-44" d="M 2194 1759 
Q 1497 1759 1228 1600 
Q 959 1441 959 1056 
Q 959 750 1161 570 
Q 1363 391 1709 391 
Q 2188 391 2477 730 
Q 2766 1069 2766 1631 
L 2766 1759 
L 2194 1759 
z
M 3341 1997 
L 3341 0 
L 2766 0 
L 2766 531 
Q 2569 213 2275 61 
Q 1981 -91 1556 -91 
Q 1019 -91 701 211 
Q 384 513 384 1019 
Q 384 1609 779 1909 
Q 1175 2209 1959 2209 
L 2766 2209 
L 2766 2266 
Q 2766 2663 2505 2880 
Q 2244 3097 1772 3097 
Q 1472 3097 1187 3025 
Q 903 2953 641 2809 
L 641 3341 
Q 956 3463 1253 3523 
Q 1550 3584 1831 3584 
Q 2591 3584 2966 3190 
Q 3341 2797 3341 1997 
z
" transform="scale(0.015625)"/>
       <path id="DejaVuSans-4c" d="M 603 3500 
L 1178 3500 
L 1178 0 
L 603 0 
L 603 3500 
z
M 603 4863 
L 1178 4863 
L 1178 4134 
L 603 4134 
L 603 4863 
z
" transform="scale(0.015625)"/>
       <path id="DejaVuSans-51" d="M 3513 2113 
L 3513 0 
L 2938 0 
L 2938 2094 
Q 2938 2591 2744 2837 
Q 2550 3084 2163 3084 
Q 1697 3084 1428 2787 
Q 1159 2491 1159 1978 
L 1159 0 
L 581 0 
L 581 3500 
L 1159 3500 
L 1159 2956 
Q 1366 3272 1645 3428 
Q 1925 3584 2291 3584 
Q 2894 3584 3203 3211 
Q 3513 2838 3513 2113 
z
" transform="scale(0.015625)"/>
       <path id="DejaVuSans-4a" d="M 2906 1791 
Q 2906 2416 2648 2759 
Q 2391 3103 1925 3103 
Q 1463 3103 1205 2759 
Q 947 2416 947 1791 
Q 947 1169 1205 825 
Q 1463 481 1925 481 
Q 2391 481 2648 825 
Q 2906 1169 2906 1791 
z
M 3481 434 
Q 3481 -459 3084 -895 
Q 2688 -1331 1869 -1331 
Q 1566 -1331 1297 -1286 
Q 1028 -1241 775 -1147 
L 775 -588 
Q 1028 -725 1275 -790 
Q 1522 -856 1778 -856 
Q 2344 -856 2625 -561 
Q 2906 -266 2906 331 
L 2906 616 
Q 2728 306 2450 153 
Q 2172 0 1784 0 
Q 1141 0 747 490 
Q 353 981 353 1791 
Q 353 2603 747 3093 
Q 1141 3584 1784 3584 
Q 2172 3584 2450 3431 
Q 2728 3278 2906 2969 
L 2906 3500 
L 3481 3500 
L 3481 434 
z
" transform="scale(0.015625)"/>
       <path id="DejaVuSans-3" transform="scale(0.015625)"/>
       <path id="DejaVuSans-56" d="M 2834 3397 
L 2834 2853 
Q 2591 2978 2328 3040 
Q 2066 3103 1784 3103 
Q 1356 3103 1142 2972 
Q 928 2841 928 2578 
Q 928 2378 1081 2264 
Q 1234 2150 1697 2047 
L 1894 2003 
Q 2506 1872 2764 1633 
Q 3022 1394 3022 966 
Q 3022 478 2636 193 
Q 2250 -91 1575 -91 
Q 1294 -91 989 -36 
Q 684 19 347 128 
L 347 722 
Q 666 556 975 473 
Q 1284 391 1588 391 
Q 1994 391 2212 530 
Q 2431 669 2431 922 
Q 2431 1156 2273 1281 
Q 2116 1406 1581 1522 
L 1381 1569 
Q 847 1681 609 1914 
Q 372 2147 372 2553 
Q 372 3047 722 3315 
Q 1072 3584 1716 3584 
Q 2034 3584 2315 3537 
Q 2597 3491 2834 3397 
z
" transform="scale(0.015625)"/>
       <path id="DejaVuSans-48" d="M 3597 1894 
L 3597 1613 
L 953 1613 
Q 991 1019 1311 708 
Q 1631 397 2203 397 
Q 2534 397 2845 478 
Q 3156 559 3463 722 
L 3463 178 
Q 3153 47 2828 -22 
Q 2503 -91 2169 -91 
Q 1331 -91 842 396 
Q 353 884 353 1716 
Q 353 2575 817 3079 
Q 1281 3584 2069 3584 
Q 2775 3584 3186 3129 
Q 3597 2675 3597 1894 
z
M 3022 2063 
Q 3016 2534 2758 2815 
Q 2500 3097 2075 3097 
Q 1594 3097 1305 2825 
Q 1016 2553 972 2059 
L 3022 2063 
z
" transform="scale(0.015625)"/>
       <path id="DejaVuSans-53" d="M 1159 525 
L 1159 -1331 
L 581 -1331 
L 581 3500 
L 1159 3500 
L 1159 2969 
Q 1341 3281 1617 3432 
Q 1894 3584 2278 3584 
Q 2916 3584 3314 3078 
Q 3713 2572 3713 1747 
Q 3713 922 3314 415 
Q 2916 -91 2278 -91 
Q 1894 -91 1617 61 
Q 1341 213 1159 525 
z
M 3116 1747 
Q 3116 2381 2855 2742 
Q 2594 3103 2138 3103 
Q 1681 3103 1420 2742 
Q 1159 2381 1159 1747 
Q 1159 1113 1420 752 
Q 1681 391 2138 391 
Q 2594 391 2855 752 
Q 3116 1113 3116 1747 
z
" transform="scale(0.015625)"/>
      </defs>
      <use xlink:href="#DejaVuSans-57"/>
      <use xlink:href="#DejaVuSans-55" transform="translate(39.203125 0)"/>
      <use xlink:href="#DejaVuSans-44" transform="translate(80.3125 0)"/>
      <use xlink:href="#DejaVuSans-4c" transform="translate(141.59375 0)"/>
      <use xlink:href="#DejaVuSans-51" transform="translate(169.375 0)"/>
      <use xlink:href="#DejaVuSans-4c" transform="translate(232.75 0)"/>
      <use xlink:href="#DejaVuSans-51" transform="translate(260.53125 0)"/>
      <use xlink:href="#DejaVuSans-4a" transform="translate(323.90625 0)"/>
      <use xlink:href="#DejaVuSans-3" transform="translate(387.390625 0)"/>
      <use xlink:href="#DejaVuSans-56" transform="translate(419.171875 0)"/>
      <use xlink:href="#DejaVuSans-57" transform="translate(471.265625 0)"/>
      <use xlink:href="#DejaVuSans-48" transform="translate(510.46875 0)"/>
      <use xlink:href="#DejaVuSans-53" transform="translate(572 0)"/>
     </g>
    </g>
   </g>
   <g id="matplotlib.axis_2">
    <g id="ytick_1">
     <g id="line2d_9">
      <defs>
       <path id="m086e18f338" d="M 0 0 
L -3.5 0 
" style="stroke: #888888; stroke-width: 0.8"/>
      </defs>
      <g>
       <use xlink:href="#m086e18f338" x="56.919688" y="232.48202" style="fill: #888888; stroke: #888888; stroke-width: 0.8"/>
      </g>
     </g>
     <g id="text_10">
      <!-- 0.03 -->
      <g style="fill: #888888" transform="translate(23.200938 237.040614) scale(0.12 -0.12)">
       <defs>
        <path id="DejaVuSans-11" d="M 684 794 
L 1344 794 
L 1344 0 
L 684 0 
L 684 794 
z
" transform="scale(0.015625)"/>
        <path id="DejaVuSans-16" d="M 2597 2516 
Q 3050 2419 3304 2112 
Q 3559 1806 3559 1356 
Q 3559 666 3084 287 
Q 2609 -91 1734 -91 
Q 1441 -91 1130 -33 
Q 819 25 488 141 
L 488 750 
Q 750 597 1062 519 
Q 1375 441 1716 441 
Q 2309 441 2620 675 
Q 2931 909 2931 1356 
Q 2931 1769 2642 2001 
Q 2353 2234 1838 2234 
L 1294 2234 
L 1294 2753 
L 1863 2753 
Q 2328 2753 2575 2939 
Q 2822 3125 2822 3475 
Q 2822 3834 2567 4026 
Q 2313 4219 1838 4219 
Q 1578 4219 1281 4162 
Q 984 4106 628 3988 
L 628 4550 
Q 988 4650 1302 4700 
Q 1616 4750 1894 4750 
Q 2613 4750 3031 4423 
Q 3450 4097 3450 3541 
Q 3450 3153 3228 2886 
Q 3006 2619 2597 2516 
z
" transform="scale(0.015625)"/>
       </defs>
       <use xlink:href="#DejaVuSans-13"/>
       <use xlink:href="#DejaVuSans-11" transform="translate(63.625 0)"/>
       <use xlink:href="#DejaVuSans-13" transform="translate(95.40625 0)"/>
       <use xlink:href="#DejaVuSans-16" transform="translate(159.03125 0)"/>
      </g>
     </g>
    </g>
    <g id="ytick_2">
     <g id="line2d_10">
      <g>
       <use xlink:href="#m086e18f338" x="56.919688" y="194.03048" style="fill: #888888; stroke: #888888; stroke-width: 0.8"/>
      </g>
     </g>
     <g id="text_11">
      <!-- 0.04 -->
      <g style="fill: #888888" transform="translate(23.200938 198.589074) scale(0.12 -0.12)">
       <defs>
        <path id="DejaVuSans-17" d="M 2419 4116 
L 825 1625 
L 2419 1625 
L 2419 4116 
z
M 2253 4666 
L 3047 4666 
L 3047 1625 
L 3713 1625 
L 3713 1100 
L 3047 1100 
L 3047 0 
L 2419 0 
L 2419 1100 
L 313 1100 
L 313 1709 
L 2253 4666 
z
" transform="scale(0.015625)"/>
       </defs>
       <use xlink:href="#DejaVuSans-13"/>
       <use xlink:href="#DejaVuSans-11" transform="translate(63.625 0)"/>
       <use xlink:href="#DejaVuSans-13" transform="translate(95.40625 0)"/>
       <use xlink:href="#DejaVuSans-17" transform="translate(159.03125 0)"/>
      </g>
     </g>
    </g>
    <g id="ytick_3">
     <g id="line2d_11">
      <g>
       <use xlink:href="#m086e18f338" x="56.919688" y="155.57894" style="fill: #888888; stroke: #888888; stroke-width: 0.8"/>
      </g>
     </g>
     <g id="text_12">
      <!-- 0.05 -->
      <g style="fill: #888888" transform="translate(23.200938 160.137534) scale(0.12 -0.12)">
       <use xlink:href="#DejaVuSans-13"/>
       <use xlink:href="#DejaVuSans-11" transform="translate(63.625 0)"/>
       <use xlink:href="#DejaVuSans-13" transform="translate(95.40625 0)"/>
       <use xlink:href="#DejaVuSans-18" transform="translate(159.03125 0)"/>
      </g>
     </g>
    </g>
    <g id="ytick_4">
     <g id="line2d_12">
      <g>
       <use xlink:href="#m086e18f338" x="56.919688" y="117.1274" style="fill: #888888; stroke: #888888; stroke-width: 0.8"/>
      </g>
     </g>
     <g id="text_13">
      <!-- 0.06 -->
      <g style="fill: #888888" transform="translate(23.200938 121.685994) scale(0.12 -0.12)">
       <defs>
        <path id="DejaVuSans-19" d="M 2113 2584 
Q 1688 2584 1439 2293 
Q 1191 2003 1191 1497 
Q 1191 994 1439 701 
Q 1688 409 2113 409 
Q 2538 409 2786 701 
Q 3034 994 3034 1497 
Q 3034 2003 2786 2293 
Q 2538 2584 2113 2584 
z
M 3366 4563 
L 3366 3988 
Q 3128 4100 2886 4159 
Q 2644 4219 2406 4219 
Q 1781 4219 1451 3797 
Q 1122 3375 1075 2522 
Q 1259 2794 1537 2939 
Q 1816 3084 2150 3084 
Q 2853 3084 3261 2657 
Q 3669 2231 3669 1497 
Q 3669 778 3244 343 
Q 2819 -91 2113 -91 
Q 1303 -91 875 529 
Q 447 1150 447 2328 
Q 447 3434 972 4092 
Q 1497 4750 2381 4750 
Q 2619 4750 2861 4703 
Q 3103 4656 3366 4563 
z
" transform="scale(0.015625)"/>
       </defs>
       <use xlink:href="#DejaVuSans-13"/>
       <use xlink:href="#DejaVuSans-11" transform="translate(63.625 0)"/>
       <use xlink:href="#DejaVuSans-13" transform="translate(95.40625 0)"/>
       <use xlink:href="#DejaVuSans-19" transform="translate(159.03125 0)"/>
      </g>
     </g>
    </g>
    <g id="ytick_5">
     <g id="line2d_13">
      <g>
       <use xlink:href="#m086e18f338" x="56.919688" y="78.67586" style="fill: #888888; stroke: #888888; stroke-width: 0.8"/>
      </g>
     </g>
     <g id="text_14">
      <!-- 0.07 -->
      <g style="fill: #888888" transform="translate(23.200938 83.234454) scale(0.12 -0.12)">
       <use xlink:href="#DejaVuSans-13"/>
       <use xlink:href="#DejaVuSans-11" transform="translate(63.625 0)"/>
       <use xlink:href="#DejaVuSans-13" transform="translate(95.40625 0)"/>
       <use xlink:href="#DejaVuSans-1a" transform="translate(159.03125 0)"/>
      </g>
     </g>
    </g>
    <g id="ytick_6">
     <g id="line2d_14">
      <g>
       <use xlink:href="#m086e18f338" x="56.919688" y="40.22432" style="fill: #888888; stroke: #888888; stroke-width: 0.8"/>
      </g>
     </g>
     <g id="text_15">
      <!-- 0.08 -->
      <g style="fill: #888888" transform="translate(23.200938 44.782914) scale(0.12 -0.12)">
       <defs>
        <path id="DejaVuSans-1b" d="M 2034 2216 
Q 1584 2216 1326 1975 
Q 1069 1734 1069 1313 
Q 1069 891 1326 650 
Q 1584 409 2034 409 
Q 2484 409 2743 651 
Q 3003 894 3003 1313 
Q 3003 1734 2745 1975 
Q 2488 2216 2034 2216 
z
M 1403 2484 
Q 997 2584 770 2862 
Q 544 3141 544 3541 
Q 544 4100 942 4425 
Q 1341 4750 2034 4750 
Q 2731 4750 3128 4425 
Q 3525 4100 3525 3541 
Q 3525 3141 3298 2862 
Q 3072 2584 2669 2484 
Q 3125 2378 3379 2068 
Q 3634 1759 3634 1313 
Q 3634 634 3220 271 
Q 2806 -91 2034 -91 
Q 1263 -91 848 271 
Q 434 634 434 1313 
Q 434 1759 690 2068 
Q 947 2378 1403 2484 
z
M 1172 3481 
Q 1172 3119 1398 2916 
Q 1625 2713 2034 2713 
Q 2441 2713 2670 2916 
Q 2900 3119 2900 3481 
Q 2900 3844 2670 4047 
Q 2441 4250 2034 4250 
Q 1625 4250 1398 4047 
Q 1172 3844 1172 3481 
z
" transform="scale(0.015625)"/>
       </defs>
       <use xlink:href="#DejaVuSans-13"/>
       <use xlink:href="#DejaVuSans-11" transform="translate(63.625 0)"/>
       <use xlink:href="#DejaVuSans-13" transform="translate(95.40625 0)"/>
       <use xlink:href="#DejaVuSans-1b" transform="translate(159.03125 0)"/>
      </g>
     </g>
    </g>
    <g id="text_16">
     <!-- noise-prediction MSE -->
     <g style="fill: #888888" transform="translate(16.318125 203.47575) rotate(-90) scale(0.12 -0.12)">
      <defs>
       <path id="DejaVuSans-52" d="M 1959 3097 
Q 1497 3097 1228 2736 
Q 959 2375 959 1747 
Q 959 1119 1226 758 
Q 1494 397 1959 397 
Q 2419 397 2687 759 
Q 2956 1122 2956 1747 
Q 2956 2369 2687 2733 
Q 2419 3097 1959 3097 
z
M 1959 3584 
Q 2709 3584 3137 3096 
Q 3566 2609 3566 1747 
Q 3566 888 3137 398 
Q 2709 -91 1959 -91 
Q 1206 -91 779 398 
Q 353 888 353 1747 
Q 353 2609 779 3096 
Q 1206 3584 1959 3584 
z
" transform="scale(0.015625)"/>
       <path id="DejaVuSans-10" d="M 313 2009 
L 1997 2009 
L 1997 1497 
L 313 1497 
L 313 2009 
z
" transform="scale(0.015625)"/>
       <path id="DejaVuSans-47" d="M 2906 2969 
L 2906 4863 
L 3481 4863 
L 3481 0 
L 2906 0 
L 2906 525 
Q 2725 213 2448 61 
Q 2172 -91 1784 -91 
Q 1150 -91 751 415 
Q 353 922 353 1747 
Q 353 2572 751 3078 
Q 1150 3584 1784 3584 
Q 2172 3584 2448 3432 
Q 2725 3281 2906 2969 
z
M 947 1747 
Q 947 1113 1208 752 
Q 1469 391 1925 391 
Q 2381 391 2643 752 
Q 2906 1113 2906 1747 
Q 2906 2381 2643 2742 
Q 2381 3103 1925 3103 
Q 1469 3103 1208 2742 
Q 947 2381 947 1747 
z
" transform="scale(0.015625)"/>
       <path id="DejaVuSans-46" d="M 3122 3366 
L 3122 2828 
Q 2878 2963 2633 3030 
Q 2388 3097 2138 3097 
Q 1578 3097 1268 2742 
Q 959 2388 959 1747 
Q 959 1106 1268 751 
Q 1578 397 2138 397 
Q 2388 397 2633 464 
Q 2878 531 3122 666 
L 3122 134 
Q 2881 22 2623 -34 
Q 2366 -91 2075 -91 
Q 1284 -91 818 406 
Q 353 903 353 1747 
Q 353 2603 823 3093 
Q 1294 3584 2113 3584 
Q 2378 3584 2631 3529 
Q 2884 3475 3122 3366 
z
" transform="scale(0.015625)"/>
       <path id="DejaVuSans-30" d="M 628 4666 
L 1569 4666 
L 2759 1491 
L 3956 4666 
L 4897 4666 
L 4897 0 
L 4281 0 
L 4281 4097 
L 3078 897 
L 2444 897 
L 1241 4097 
L 1241 0 
L 628 0 
L 628 4666 
z
" transform="scale(0.015625)"/>
       <path id="DejaVuSans-36" d="M 3425 4513 
L 3425 3897 
Q 3066 4069 2747 4153 
Q 2428 4238 2131 4238 
Q 1616 4238 1336 4038 
Q 1056 3838 1056 3469 
Q 1056 3159 1242 3001 
Q 1428 2844 1947 2747 
L 2328 2669 
Q 3034 2534 3370 2195 
Q 3706 1856 3706 1288 
Q 3706 609 3251 259 
Q 2797 -91 1919 -91 
Q 1588 -91 1214 -16 
Q 841 59 441 206 
L 441 856 
Q 825 641 1194 531 
Q 1563 422 1919 422 
Q 2459 422 2753 634 
Q 3047 847 3047 1241 
Q 3047 1584 2836 1778 
Q 2625 1972 2144 2069 
L 1759 2144 
Q 1053 2284 737 2584 
Q 422 2884 422 3419 
Q 422 4038 858 4394 
Q 1294 4750 2059 4750 
Q 2388 4750 2728 4690 
Q 3069 4631 3425 4513 
z
" transform="scale(0.015625)"/>
       <path id="DejaVuSans-28" d="M 628 4666 
L 3578 4666 
L 3578 4134 
L 1259 4134 
L 1259 2753 
L 3481 2753 
L 3481 2222 
L 1259 2222 
L 1259 531 
L 3634 531 
L 3634 0 
L 628 0 
L 628 4666 
z
" transform="scale(0.015625)"/>
      </defs>
      <use xlink:href="#DejaVuSans-51"/>
      <use xlink:href="#DejaVuSans-52" transform="translate(63.375 0)"/>
      <use xlink:href="#DejaVuSans-4c" transform="translate(124.5625 0)"/>
      <use xlink:href="#DejaVuSans-56" transform="translate(152.34375 0)"/>
      <use xlink:href="#DejaVuSans-48" transform="translate(204.4375 0)"/>
      <use xlink:href="#DejaVuSans-10" transform="translate(265.96875 0)"/>
      <use xlink:href="#DejaVuSans-53" transform="translate(302.046875 0)"/>
      <use xlink:href="#DejaVuSans-55" transform="translate(365.53125 0)"/>
      <use xlink:href="#DejaVuSans-48" transform="translate(404.4375 0)"/>
      <use xlink:href="#DejaVuSans-47" transform="translate(465.96875 0)"/>
      <use xlink:href="#DejaVuSans-4c" transform="translate(529.453125 0)"/>
      <use xlink:href="#DejaVuSans-46" transform="translate(557.234375 0)"/>
      <use xlink:href="#DejaVuSans-57" transform="translate(612.21875 0)"/>
      <use xlink:href="#DejaVuSans-4c" transform="translate(651.421875 0)"/>
      <use xlink:href="#DejaVuSans-52" transform="translate(679.203125 0)"/>
      <use xlink:href="#DejaVuSans-51" transform="translate(740.390625 0)"/>
      <use xlink:href="#DejaVuSans-3" transform="translate(803.765625 0)"/>
      <use xlink:href="#DejaVuSans-30" transform="translate(835.546875 0)"/>
      <use xlink:href="#DejaVuSans-36" transform="translate(921.828125 0)"/>
      <use xlink:href="#DejaVuSans-28" transform="translate(985.3125 0)"/>
     </g>
    </g>
   </g>
   <g id="line2d_15">
    <path d="M 74.674233 158.629429 
L 75.647085 178.842122 
L 77.592788 194.521805 
L 78.56564 200.33226 
L 79.538492 202.549632 
L 80.511344 201.754967 
L 81.484196 204.361127 
L 82.457047 207.398799 
L 83.429899 208.530983 
L 84.402751 204.796911 
L 85.375603 207.66796 
L 86.348455 211.555838 
L 87.321306 213.935561 
L 88.294158 217.054408 
L 89.26701 219.229056 
L 90.239862 221.933481 
L 91.212714 222.587157 
L 92.185565 221.890757 
L 93.158417 225.060873 
L 94.131269 226.265688 
L 95.104121 227.906287 
L 96.076973 228.820579 
L 97.049824 225.992255 
L 98.022676 227.256883 
L 98.995528 225.184772 
L 99.96838 223.804789 
L 100.941232 224.441376 
L 101.914084 224.830164 
L 102.886935 224.022681 
L 103.859787 221.510514 
L 104.832639 221.96766 
L 105.805491 227.167163 
L 106.778343 228.00028 
L 107.751194 228.094272 
L 108.724046 230.251831 
L 109.696898 230.012577 
L 110.66975 232.097505 
L 111.642602 232.456386 
L 112.615453 234.789113 
L 113.588305 234.716482 
L 114.561157 231.435284 
L 115.534009 229.961308 
L 116.506861 230.657708 
L 117.479712 227.709757 
L 118.452564 229.747688 
L 119.425416 228.739404 
L 121.37112 226.069158 
L 122.343971 224.300387 
L 123.316823 224.620816 
L 124.289675 225.35994 
L 125.262527 225.958076 
L 126.235379 227.299607 
L 127.20823 226.235781 
L 128.181082 227.692667 
L 129.153934 230.525264 
L 130.126786 229.80323 
L 131.099638 229.98267 
L 132.072489 230.67907 
L 134.018193 235.494057 
L 134.991045 236.412622 
L 135.963897 236.045196 
L 136.936749 233.780828 
L 137.9096 233.652656 
L 138.882452 235.741856 
L 139.855304 236.216092 
L 140.828156 237.638799 
L 141.801008 236.463891 
L 142.773859 233.58857 
L 143.746711 232.037691 
L 144.719563 232.383755 
L 145.692415 233.943179 
L 146.665267 232.947711 
L 147.638118 232.652916 
L 148.61097 232.67855 
L 149.583822 233.421947 
L 150.556674 231.221664 
L 151.529526 232.631554 
L 152.502377 235.912752 
L 153.475229 237.057753 
L 154.448081 236.993667 
L 156.393785 236.130644 
L 157.366636 237.288463 
L 158.339488 237.630254 
L 159.31234 240.056974 
L 160.285192 241.150706 
L 161.258044 240.19369 
L 162.230895 241.765931 
L 163.203747 241.206247 
L 164.176599 242.78276 
L 165.149451 241.941099 
L 166.122303 239.134137 
L 167.095154 237.98059 
L 168.068006 237.126112 
L 169.040858 236.959488 
L 170.01371 235.758946 
L 170.986562 233.345044 
L 171.959414 232.114594 
L 172.932265 229.247818 
L 173.905117 229.085467 
L 174.877969 229.422987 
L 175.850821 230.008304 
L 176.823673 230.337279 
L 177.796524 229.448621 
L 178.769376 229.833136 
L 179.742228 230.046756 
L 180.71508 231.003772 
L 181.687932 231.337019 
L 182.660783 233.887638 
L 183.633635 234.524224 
L 184.606487 233.857731 
L 185.579339 233.601387 
L 186.552191 233.575753 
L 187.525042 233.054521 
L 188.497894 233.554391 
L 189.470746 233.370678 
L 190.443598 236.066558 
L 191.41645 233.644111 
L 192.389301 234.609672 
L 193.362153 234.289243 
L 194.335005 235.237714 
L 195.307857 233.930361 
L 196.280709 234.955736 
L 197.25356 235.276165 
L 198.226412 237.237194 
L 199.199264 236.207547 
L 201.144968 236.404077 
L 202.11782 235.464151 
L 203.090671 235.720494 
L 204.063523 238.386468 
L 205.036375 238.036131 
L 206.009227 238.741076 
L 206.982079 238.147214 
L 207.95493 237.10475 
L 208.927782 238.416374 
L 209.900634 237.766971 
L 211.846338 235.878573 
L 212.819189 235.613684 
L 213.792041 237.275645 
L 214.764893 238.540274 
L 216.710597 237.382455 
L 217.683448 234.507135 
L 218.6563 235.699132 
L 219.629152 238.544546 
L 220.602004 240.176601 
L 221.574856 237.523444 
L 222.547707 236.643331 
L 223.520559 233.797917 
L 224.493411 235.852938 
L 225.466263 236.673238 
L 226.439115 237.835329 
L 227.411966 237.672978 
L 228.384818 236.493797 
L 229.35767 236.028107 
L 230.330522 237.566168 
L 231.303374 237.788333 
L 232.276225 239.005965 
L 233.249077 238.271113 
L 234.221929 239.040144 
L 236.167633 241.253244 
L 237.140485 241.509587 
L 240.05904 240.321862 
L 242.004744 240.509847 
L 242.977595 240.223597 
L 243.950447 240.719194 
L 244.923299 239.399025 
L 245.896151 237.835329 
L 246.869003 237.305552 
L 247.841854 237.391 
L 248.814706 236.515159 
L 249.787558 234.968553 
L 250.76041 235.459878 
L 251.733262 234.780568 
L 252.706113 234.904467 
L 253.678965 234.900195 
L 254.651817 236.553611 
L 255.624669 236.451074 
L 256.597521 236.968033 
L 257.570372 237.664433 
L 258.543224 239.702365 
L 259.516076 238.403557 
L 260.488928 238.638539 
L 261.46178 238.271113 
L 263.407483 239.762178 
L 264.380335 241.21052 
L 265.353187 242.381155 
L 266.326039 242.547779 
L 267.29889 241.236154 
L 268.271742 241.21052 
L 269.244594 241.368598 
L 271.190298 242.043636 
L 272.16315 241.633487 
L 273.136001 241.778748 
L 274.108853 242.79985 
L 275.081705 243.29972 
L 278.00026 241.979551 
L 278.973112 240.253504 
L 279.945964 242.270073 
L 280.918816 241.385688 
L 281.891668 241.112255 
L 282.864519 239.830537 
L 283.837371 239.360573 
L 285.783075 239.945891 
L 286.755927 240.779008 
L 287.728778 243.718415 
L 288.70163 242.581958 
L 289.674482 243.885038 
L 290.647334 241.488225 
L 291.620186 242.039364 
L 292.593037 243.628694 
L 293.565889 239.044416 
L 294.538741 238.001952 
L 295.511593 237.869508 
L 296.484445 237.143201 
L 297.457296 234.69512 
L 298.430148 233.383495 
L 299.403 235.89139 
L 301.348704 234.994187 
L 302.321555 240.108242 
L 303.294407 239.843354 
L 304.267259 241.236154 
L 305.240111 240.638019 
L 306.212963 240.544026 
L 307.185815 242.094905 
L 308.158666 240.296228 
L 309.131518 239.403297 
L 310.10437 237.40809 
L 311.077222 236.600607 
L 312.050074 237.399545 
L 313.995777 237.232922 
L 314.968629 237.391 
L 315.941481 235.451333 
L 316.914333 235.19499 
L 317.887184 234.037171 
L 318.860036 235.553871 
L 319.832888 235.417154 
L 320.80574 236.139189 
L 321.778592 236.583518 
L 322.751443 235.951204 
L 323.724295 238.553091 
L 324.697147 238.215572 
L 325.669999 238.454826 
L 326.642851 238.830797 
L 327.615702 238.728259 
L 328.588554 240.719194 
L 329.561406 239.544286 
L 330.534258 239.262308 
L 331.50711 241.009717 
L 332.479961 239.749361 
L 333.452813 240.873001 
L 334.425665 240.262048 
L 335.398517 240.215052 
L 336.371369 240.834549 
L 337.344221 237.873781 
L 338.317072 240.227869 
L 339.289924 239.621189 
L 340.262776 237.809695 
L 341.235628 238.612905 
L 342.20848 239.219584 
L 343.181331 241.039624 
L 344.154183 240.326134 
L 345.127035 237.647344 
L 346.099887 240.394493 
L 348.04559 238.856431 
L 349.018442 238.967513 
L 349.991294 237.344004 
L 350.964146 237.271373 
L 351.936998 237.771243 
L 352.909849 239.638279 
L 353.882701 241.048169 
L 354.855553 239.522924 
L 355.828405 239.58701 
L 356.801257 239.99716 
L 357.774108 240.009977 
L 358.74696 242.338432 
L 360.692664 238.258296 
L 361.665516 237.80115 
L 362.638367 236.818499 
L 363.611219 237.954956 
L 364.584071 235.720494 
L 365.556923 237.391 
L 366.529775 239.612645 
L 367.502626 238.58727 
L 369.44833 243.090373 
L 370.421182 243.675691 
L 371.394034 242.945111 
L 372.366886 242.893843 
L 373.339737 243.615877 
L 374.312589 243.701325 
L 375.285441 241.851379 
L 376.258293 238.117307 
L 377.231145 238.377923 
L 378.203996 239.275126 
L 379.176848 239.070051 
L 380.1497 242.842574 
L 381.122552 242.983563 
L 382.095404 243.885038 
L 383.068255 241.902647 
L 384.041107 243.914945 
L 385.013959 246.40575 
L 385.986811 244.436177 
L 386.959663 243.111735 
L 387.932514 245.030039 
L 388.905366 242.705857 
L 389.878218 243.303992 
L 390.85107 244.671158 
L 391.823922 244.863416 
L 393.769625 242.624682 
L 394.742477 244.235374 
L 395.715329 243.60306 
L 396.688181 242.381155 
L 397.661032 242.141901 
L 398.633884 240.009977 
L 399.606736 238.621449 
L 400.579588 238.352289 
L 401.55244 235.810215 
L 402.525291 238.894883 
L 403.498143 239.326394 
L 404.470995 239.134137 
L 405.443847 238.044676 
L 407.389551 242.171808 
L 408.362402 242.611865 
L 409.335254 243.658601 
L 410.308106 245.115487 
L 411.280958 243.650056 
L 412.25381 242.680223 
L 413.226661 242.163263 
L 414.199513 241.855651 
L 416.145217 239.001692 
L 417.118069 240.851639 
L 418.09092 240.945631 
L 419.063772 240.744829 
L 420.036624 241.90692 
L 421.009476 242.872481 
L 421.982328 243.564608 
L 422.955179 243.534702 
L 423.928031 243.069011 
L 425.873735 240.484213 
L 426.846587 241.505315 
L 427.819438 243.205727 
L 428.79229 243.624422 
L 429.765142 242.744309 
L 429.765142 242.744309 
" clip-path="url(#p3144d4e710)" style="fill: none; stroke: #2a9d8f; stroke-width: 2; stroke-linecap: square"/>
   </g>
   <g id="line2d_16">
    <path d="M 74.674233 34.72575 
L 75.647085 56.942195 
L 76.619937 66.708886 
L 78.56564 90.194233 
L 79.538492 97.636742 
L 80.511344 95.00922 
L 81.484196 99.443964 
L 82.457047 108.155374 
L 83.429899 111.351124 
L 84.402751 108.151102 
L 85.375603 113.303608 
L 86.348455 120.459867 
L 87.321306 120.558132 
L 88.294158 123.305281 
L 89.26701 127.646033 
L 90.239862 130.000121 
L 91.212714 130.162472 
L 92.185565 128.957657 
L 93.158417 132.862625 
L 95.104121 142.740398 
L 96.076973 145.162845 
L 97.049824 138.361195 
L 98.022676 143.103552 
L 98.995528 137.737426 
L 99.96838 138.139031 
L 100.941232 139.100319 
L 101.914084 139.382297 
L 102.886935 134.755295 
L 103.859787 128.893571 
L 104.832639 129.466072 
L 105.805491 140.159873 
L 106.778343 137.639161 
L 107.751194 138.831158 
L 108.724046 138.527818 
L 109.696898 135.784942 
L 110.66975 142.710491 
L 111.642602 146.136951 
L 112.615453 147.807457 
L 113.588305 149.730034 
L 114.561157 143.782862 
L 115.534009 139.420749 
L 116.506861 141.407411 
L 117.479712 136.596697 
L 118.452564 146.158313 
L 119.425416 142.035453 
L 120.398268 138.429553 
L 121.37112 135.605501 
L 122.343971 130.316278 
L 123.316823 129.171277 
L 124.289675 134.806564 
L 126.235379 140.847728 
L 127.20823 134.63994 
L 128.181082 136.951305 
L 129.153934 140.894724 
L 130.126786 140.108604 
L 131.099638 140.446123 
L 132.072489 144.680065 
L 133.045341 146.901709 
L 134.018193 150.674233 
L 134.991045 151.481715 
L 135.963897 145.209842 
L 136.936749 140.625564 
L 137.9096 142.15508 
L 138.882452 150.328169 
L 139.855304 148.226151 
L 140.828156 150.319624 
L 141.801008 149.234436 
L 142.773859 141.877375 
L 143.746711 139.980432 
L 144.719563 144.590345 
L 145.692415 146.927344 
L 146.665267 142.432786 
L 147.638118 140.121421 
L 148.61097 143.829859 
L 149.583822 146.538556 
L 150.556674 143.389802 
L 151.529526 146.589825 
L 152.502377 154.604834 
L 153.475229 158.723422 
L 154.448081 159.120754 
L 155.420933 161.081783 
L 156.393785 156.903382 
L 157.366636 158.573888 
L 158.339488 155.976273 
L 159.31234 159.385643 
L 160.285192 160.265756 
L 161.258044 156.070265 
L 162.230895 157.920212 
L 163.203747 158.467078 
L 164.176599 161.060421 
L 165.149451 162.68393 
L 166.122303 151.947406 
L 168.068006 145.487547 
L 169.040858 146.060048 
L 171.959414 138.160393 
L 172.932265 132.841263 
L 173.905117 129.859132 
L 174.877969 132.226038 
L 175.850821 135.447423 
L 176.823673 134.588672 
L 177.796524 133.251413 
L 178.769376 134.054623 
L 179.742228 131.260477 
L 180.71508 133.328316 
L 181.687932 132.990797 
L 182.660783 139.309666 
L 183.633635 142.919839 
L 184.606487 143.821314 
L 185.579339 145.829339 
L 186.552191 146.406112 
L 187.525042 149.648858 
L 188.497894 153.523919 
L 189.470746 150.994662 
L 190.443598 154.562111 
L 191.41645 150.285445 
L 192.389301 154.959443 
L 193.362153 153.455561 
L 194.335005 155.655843 
L 195.307857 154.869723 
L 197.25356 150.47343 
L 198.226412 153.942614 
L 199.199264 152.391735 
L 200.172116 152.836064 
L 201.144968 152.908694 
L 202.11782 151.045931 
L 203.090671 148.875555 
L 204.063523 152.549813 
L 205.036375 151.114289 
L 206.009227 155.895097 
L 206.982079 153.647818 
L 207.95493 154.801365 
L 208.927782 157.890305 
L 210.873486 151.349271 
L 211.846338 150.054736 
L 212.819189 147.914267 
L 213.792041 152.259291 
L 214.764893 154.715917 
L 215.737745 157.88176 
L 216.710597 156.330881 
L 217.683448 150.088915 
L 218.6563 152.934329 
L 219.629152 157.253718 
L 220.602004 162.735199 
L 221.574856 159.859878 
L 222.547707 159.753068 
L 223.520559 155.502037 
L 224.493411 157.753588 
L 225.466263 154.780003 
L 226.439115 158.535436 
L 227.411966 157.240901 
L 228.384818 156.852113 
L 229.35767 158.240641 
L 230.330522 156.557318 
L 231.303374 157.223812 
L 232.276225 157.279353 
L 233.249077 155.314052 
L 234.221929 158.706332 
L 235.194781 160.705812 
L 236.167633 163.717849 
L 237.140485 164.217719 
L 238.113336 159.710345 
L 239.086188 157.373345 
L 240.05904 154.092147 
L 241.031892 156.476143 
L 242.004744 155.450768 
L 242.977595 154.040879 
L 244.923299 149.977833 
L 245.896151 144.167378 
L 246.869003 144.752695 
L 247.841854 151.315092 
L 248.814706 152.199477 
L 249.787558 143.829859 
L 250.76041 148.444043 
L 251.733262 145.218386 
L 252.706113 148.952458 
L 253.678965 149.905202 
L 254.651817 155.20297 
L 255.624669 155.68575 
L 256.597521 156.625677 
L 257.570372 157.00592 
L 258.543224 163.418782 
L 259.516076 162.218239 
L 260.488928 167.281026 
L 261.46178 165.345631 
L 262.434631 161.978985 
L 263.407483 163.769118 
L 264.380335 166.332554 
L 266.326039 168.780636 
L 267.29889 167.046044 
L 268.271742 163.948559 
L 269.244594 161.765366 
L 270.217446 162.607027 
L 271.190298 170.335787 
L 273.136001 165.260183 
L 274.108853 165.704512 
L 275.081705 165.930949 
L 276.054557 163.820387 
L 277.027409 164.944026 
L 278.00026 162.393408 
L 278.973112 158.915679 
L 279.945964 158.27482 
L 280.918816 160.346931 
L 281.891668 164.529604 
L 282.864519 163.38033 
L 283.837371 162.812102 
L 284.810223 165.213187 
L 285.783075 163.918652 
L 286.755927 166.623077 
L 287.728778 173.151294 
L 288.70163 168.883173 
L 289.674482 170.728847 
L 290.647334 163.388875 
L 291.620186 164.854306 
L 292.593037 166.781155 
L 293.565889 158.949859 
L 294.538741 154.416849 
L 295.511593 153.306027 
L 296.484445 150.481975 
L 297.457296 149.845388 
L 298.430148 146.132679 
L 299.403 151.802144 
L 300.375852 150.823766 
L 301.348704 151.370633 
L 302.321555 159.069486 
L 303.294407 161.637194 
L 304.267259 167.417742 
L 305.240111 165.315725 
L 306.212963 164.059641 
L 307.185815 167.755261 
L 308.158666 160.227304 
L 309.131518 158.697787 
L 310.10437 155.002167 
L 311.077222 153.681998 
L 312.050074 156.694035 
L 313.022925 155.950638 
L 313.995777 154.916719 
L 314.968629 155.860918 
L 315.941481 148.379957 
L 316.914333 151.857686 
L 317.887184 145.786615 
L 318.860036 144.077657 
L 319.832888 147.123874 
L 320.80574 144.966315 
L 321.778592 146.252306 
L 322.751443 149.943653 
L 323.724295 154.433939 
L 324.697147 157.992842 
L 325.669999 154.797092 
L 326.642851 156.518867 
L 327.615702 160.240121 
L 328.588554 162.30796 
L 329.561406 163.70076 
L 330.534258 159.253198 
L 331.50711 159.710345 
L 332.479961 158.582433 
L 333.452813 160.385383 
L 334.425665 161.449209 
L 335.398517 163.811842 
L 336.371369 165.255911 
L 337.344221 159.411277 
L 338.317072 162.320777 
L 339.289924 166.614532 
L 340.262776 164.431339 
L 341.235628 164.465518 
L 342.20848 165.627609 
L 343.181331 168.340579 
L 345.127035 160.680178 
L 346.099887 161.239861 
L 347.072739 159.424094 
L 349.991294 149.653131 
L 350.964146 148.807197 
L 351.936998 152.635261 
L 352.909849 158.872955 
L 353.882701 160.248666 
L 355.828405 154.660376 
L 356.801257 155.57894 
L 357.774108 157.834764 
L 358.74696 162.166971 
L 359.719812 155.130339 
L 360.692664 152.242201 
L 361.665516 151.742331 
L 362.638367 147.657923 
L 363.611219 152.56263 
L 364.584071 149.247253 
L 365.556923 151.033114 
L 366.529775 155.305507 
L 367.502626 154.553566 
L 368.475478 160.603275 
L 369.44833 161.363761 
L 370.421182 163.555499 
L 371.394034 160.146129 
L 372.366886 161.329582 
L 373.339737 164.888485 
L 374.312589 167.281026 
L 375.285441 161.564563 
L 376.258293 150.302534 
L 377.231145 151.319364 
L 378.203996 155.245693 
L 379.176848 152.981325 
L 380.1497 166.148841 
L 381.122552 165.495165 
L 382.095404 167.024682 
L 383.068255 164.311712 
L 384.041107 168.998528 
L 385.013959 179.525705 
L 385.986811 178.00046 
L 386.959663 171.933662 
L 387.932514 175.129412 
L 388.905366 168.545654 
L 390.85107 176.329955 
L 391.823922 174.552639 
L 392.796773 173.484541 
L 393.769625 170.271701 
L 394.742477 173.599895 
L 395.715329 178.406338 
L 396.688181 177.6074 
L 397.661032 177.872289 
L 398.633884 168.276493 
L 399.606736 165.264456 
L 400.579588 167.242574 
L 401.55244 160.714357 
L 402.525291 163.418782 
L 403.498143 162.842009 
L 405.443847 159.189113 
L 406.416699 162.842009 
L 407.389551 170.416962 
L 408.362402 168.050056 
L 409.335254 166.674346 
L 410.308106 171.634594 
L 411.280958 169.976906 
L 412.25381 165.324269 
L 413.226661 162.025982 
L 414.199513 160.227304 
L 415.172365 155.77547 
L 416.145217 152.720709 
L 417.118069 158.723422 
L 418.09092 160.411017 
L 419.063772 159.941054 
L 420.036624 165.584885 
L 421.009476 174.078403 
L 421.982328 177.889378 
L 422.955179 179.653877 
L 424.900883 176.253051 
L 425.873735 175.419935 
L 426.846587 177.188706 
L 427.819438 180.290463 
L 428.79229 180.166564 
L 429.765142 176.637567 
L 429.765142 176.637567 
" clip-path="url(#p3144d4e710)" style="fill: none; stroke: #e76f51; stroke-width: 2; stroke-linecap: square"/>
   </g>
   <g id="patch_3">
    <path d="M 56.919688 256.98975 
L 56.919688 24.14175 
" style="fill: none; stroke: #888888; stroke-width: 0.8; stroke-linejoin: miter; stroke-linecap: square"/>
   </g>
   <g id="patch_4">
    <path d="M 56.919688 256.98975 
L 447.519688 256.98975 
" style="fill: none; stroke: #888888; stroke-width: 0.8; stroke-linejoin: miter; stroke-linecap: square"/>
   </g>
   <g id="text_17">
    <!-- Training loss (smoothed) -->
    <g style="fill: #888888" transform="translate(163.747438 18.14175) scale(0.144 -0.144)">
     <defs>
      <path id="DejaVuSans-37" d="M -19 4666 
L 3928 4666 
L 3928 4134 
L 2272 4134 
L 2272 0 
L 1638 0 
L 1638 4134 
L -19 4134 
L -19 4666 
z
" transform="scale(0.015625)"/>
      <path id="DejaVuSans-4f" d="M 603 4863 
L 1178 4863 
L 1178 0 
L 603 0 
L 603 4863 
z
" transform="scale(0.015625)"/>
      <path id="DejaVuSans-b" d="M 1984 4856 
Q 1566 4138 1362 3434 
Q 1159 2731 1159 2009 
Q 1159 1288 1364 580 
Q 1569 -128 1984 -844 
L 1484 -844 
Q 1016 -109 783 600 
Q 550 1309 550 2009 
Q 550 2706 781 3412 
Q 1013 4119 1484 4856 
L 1984 4856 
z
" transform="scale(0.015625)"/>
      <path id="DejaVuSans-50" d="M 3328 2828 
Q 3544 3216 3844 3400 
Q 4144 3584 4550 3584 
Q 5097 3584 5394 3201 
Q 5691 2819 5691 2113 
L 5691 0 
L 5113 0 
L 5113 2094 
Q 5113 2597 4934 2840 
Q 4756 3084 4391 3084 
Q 3944 3084 3684 2787 
Q 3425 2491 3425 1978 
L 3425 0 
L 2847 0 
L 2847 2094 
Q 2847 2600 2669 2842 
Q 2491 3084 2119 3084 
Q 1678 3084 1418 2786 
Q 1159 2488 1159 1978 
L 1159 0 
L 581 0 
L 581 3500 
L 1159 3500 
L 1159 2956 
Q 1356 3278 1631 3431 
Q 1906 3584 2284 3584 
Q 2666 3584 2933 3390 
Q 3200 3197 3328 2828 
z
" transform="scale(0.015625)"/>
      <path id="DejaVuSans-4b" d="M 3513 2113 
L 3513 0 
L 2938 0 
L 2938 2094 
Q 2938 2591 2744 2837 
Q 2550 3084 2163 3084 
Q 1697 3084 1428 2787 
Q 1159 2491 1159 1978 
L 1159 0 
L 581 0 
L 581 4863 
L 1159 4863 
L 1159 2956 
Q 1366 3272 1645 3428 
Q 1925 3584 2291 3584 
Q 2894 3584 3203 3211 
Q 3513 2838 3513 2113 
z
" transform="scale(0.015625)"/>
      <path id="DejaVuSans-c" d="M 513 4856 
L 1013 4856 
Q 1481 4119 1714 3412 
Q 1947 2706 1947 2009 
Q 1947 1309 1714 600 
Q 1481 -109 1013 -844 
L 513 -844 
Q 928 -128 1133 580 
Q 1338 1288 1338 2009 
Q 1338 2731 1133 3434 
Q 928 4138 513 4856 
z
" transform="scale(0.015625)"/>
     </defs>
     <use xlink:href="#DejaVuSans-37"/>
     <use xlink:href="#DejaVuSans-55" transform="translate(46.375 0)"/>
     <use xlink:href="#DejaVuSans-44" transform="translate(87.484375 0)"/>
     <use xlink:href="#DejaVuSans-4c" transform="translate(148.765625 0)"/>
     <use xlink:href="#DejaVuSans-51" transform="translate(176.546875 0)"/>
     <use xlink:href="#DejaVuSans-4c" transform="translate(239.921875 0)"/>
     <use xlink:href="#DejaVuSans-51" transform="translate(267.703125 0)"/>
     <use xlink:href="#DejaVuSans-4a" transform="translate(331.078125 0)"/>
     <use xlink:href="#DejaVuSans-3" transform="translate(394.5625 0)"/>
     <use xlink:href="#DejaVuSans-4f" transform="translate(426.34375 0)"/>
     <use xlink:href="#DejaVuSans-52" transform="translate(454.125 0)"/>
     <use xlink:href="#DejaVuSans-56" transform="translate(515.3125 0)"/>
     <use xlink:href="#DejaVuSans-56" transform="translate(567.40625 0)"/>
     <use xlink:href="#DejaVuSans-3" transform="translate(619.5 0)"/>
     <use xlink:href="#DejaVuSans-b" transform="translate(651.28125 0)"/>
     <use xlink:href="#DejaVuSans-56" transform="translate(690.296875 0)"/>
     <use xlink:href="#DejaVuSans-50" transform="translate(742.390625 0)"/>
     <use xlink:href="#DejaVuSans-52" transform="translate(839.796875 0)"/>
     <use xlink:href="#DejaVuSans-52" transform="translate(900.984375 0)"/>
     <use xlink:href="#DejaVuSans-57" transform="translate(962.171875 0)"/>
     <use xlink:href="#DejaVuSans-4b" transform="translate(1001.375 0)"/>
     <use xlink:href="#DejaVuSans-48" transform="translate(1064.75 0)"/>
     <use xlink:href="#DejaVuSans-47" transform="translate(1126.28125 0)"/>
     <use xlink:href="#DejaVuSans-c" transform="translate(1189.765625 0)"/>
    </g>
   </g>
   <g id="legend_1">
    <g id="line2d_17">
     <path d="M 359.404063 39.859875 
L 371.404063 39.859875 
L 383.404063 39.859875 
" style="fill: none; stroke: #2a9d8f; stroke-width: 2; stroke-linecap: square"/>
    </g>
    <g id="text_18">
     <!-- mnist -->
     <g style="fill: #888888" transform="translate(393.004063 44.059875) scale(0.12 -0.12)">
      <use xlink:href="#DejaVuSans-50"/>
      <use xlink:href="#DejaVuSans-51" transform="translate(97.40625 0)"/>
      <use xlink:href="#DejaVuSans-4c" transform="translate(160.78125 0)"/>
      <use xlink:href="#DejaVuSans-56" transform="translate(188.5625 0)"/>
      <use xlink:href="#DejaVuSans-57" transform="translate(240.65625 0)"/>
     </g>
    </g>
    <g id="line2d_18">
     <path d="M 359.404063 57.860812 
L 371.404063 57.860812 
L 383.404063 57.860812 
" style="fill: none; stroke: #e76f51; stroke-width: 2; stroke-linecap: square"/>
    </g>
    <g id="text_19">
     <!-- fashion -->
     <g style="fill: #888888" transform="translate(393.004063 62.060812) scale(0.12 -0.12)">
      <defs>
       <path id="DejaVuSans-49" d="M 2375 4863 
L 2375 4384 
L 1825 4384 
Q 1516 4384 1395 4259 
Q 1275 4134 1275 3809 
L 1275 3500 
L 2222 3500 
L 2222 3053 
L 1275 3053 
L 1275 0 
L 697 0 
L 697 3053 
L 147 3053 
L 147 3500 
L 697 3500 
L 697 3744 
Q 697 4328 969 4595 
Q 1241 4863 1831 4863 
L 2375 4863 
z
" transform="scale(0.015625)"/>
      </defs>
      <use xlink:href="#DejaVuSans-49"/>
      <use xlink:href="#DejaVuSans-44" transform="translate(35.203125 0)"/>
      <use xlink:href="#DejaVuSans-56" transform="translate(96.484375 0)"/>
      <use xlink:href="#DejaVuSans-4b" transform="translate(148.578125 0)"/>
      <use xlink:href="#DejaVuSans-4c" transform="translate(211.953125 0)"/>
      <use xlink:href="#DejaVuSans-52" transform="translate(239.734375 0)"/>
      <use xlink:href="#DejaVuSans-51" transform="translate(300.921875 0)"/>
     </g>
    </g>
   </g>
  </g>
 </g>
 <defs>
  <clipPath id="p3144d4e710">
   <rect x="56.919688" y="24.14175" width="390.6" height="232.848"/>
  </clipPath>
 </defs>
</svg>
