<?xml version="1.0" encoding="utf-8" standalone="no"?>
<!DOCTYPE svg PUBLIC "-//W3C//DTD SVG 1.1//EN"
  "http://www.w3.org/Graphics/SVG/1.1/DTD/svg11.dtd">
<svg xmlns:xlink="http://www.w3.org/1999/xlink" width="447.086563pt" height="299.190688pt" viewBox="0 0 447.086563 299.190688" xmlns="http://www.w3.org/2000/svg" version="1.1">
 <metadata>
  <rdf:RDF xmlns:dc="http://purl.org/dc/elements/1.1/" xmlns:cc="http://creativecommons.org/ns#" xmlns:rdf="http://www.w3.org/1999/02/22-rdf-syntax-ns#">
   <cc:Work>
    <dc:type rdf:resource="http://purl.org/dc/dcmitype/StillImage"/>
    <dc:date>2026-06-22T09:10:37.103888</dc:date>
    <dc:format>image/svg+xml</dc:format>
    <dc:creator>
     <cc:Agent>
      <dc:title>Matplotlib v3.11.0, https://matplotlib.org/</dc:title>
     </cc:Agent>
    </dc:creator>
   </cc:Work>
  </rdf:RDF>
 </metadata>
 <defs>
  <style type="text/css">*{stroke-linejoin: round; stroke-linecap: butt}</style>
 </defs>
 <g id="figure_1">
  <g id="patch_1">
   <path d="M 0 299.190688 
L 447.086563 299.190688 
L 447.086563 0 
L 0 0 
L 0 299.190688 
z
" style="fill: none"/>
  </g>
  <g id="axes_1">
   <g id="patch_2">
    <path d="M 49.286563 256.98975 
L 439.886563 256.98975 
L 439.886563 24.14175 
L 49.286563 24.14175 
L 49.286563 256.98975 
z
" style="fill: none"/>
   </g>
   <g id="matplotlib.axis_1">
    <g id="xtick_1">
     <g id="line2d_1">
      <defs>
       <path id="m8c62d794da" d="M 0 0 
L 0 3.5 
" style="stroke: #888888; stroke-width: 0.8"/>
      </defs>
      <g>
       <use xlink:href="#m8c62d794da" x="67.041108" y="256.98975" style="fill: #888888; stroke: #888888; stroke-width: 0.8"/>
      </g>
     </g>
     <g id="text_1">
      <!-- 0 -->
      <g style="fill: #888888" transform="translate(63.223608 273.106938) scale(0.12 -0.12)">
       <defs>
        <path id="DejaVuSans-13" d="M 2034 4250 
Q 1547 4250 1301 3770 
Q 1056 3291 1056 2328 
Q 1056 1369 1301 889 
Q 1547 409 2034 409 
Q 2525 409 2770 889 
Q 3016 1369 3016 2328 
Q 3016 3291 2770 3770 
Q 2525 4250 2034 4250 
z
M 2034 4750 
Q 2819 4750 3233 4129 
Q 3647 3509 3647 2328 
Q 3647 1150 3233 529 
Q 2819 -91 2034 -91 
Q 1250 -91 836 529 
Q 422 1150 422 2328 
Q 422 3509 836 4129 
Q 1250 4750 2034 4750 
z
" transform="scale(0.015625)"/>
       </defs>
       <use xlink:href="#DejaVuSans-13"/>
      </g>
     </g>
    </g>
    <g id="xtick_2">
     <g id="line2d_2">
      <g>
       <use xlink:href="#m8c62d794da" x="138.130379" y="256.98975" style="fill: #888888; stroke: #888888; stroke-width: 0.8"/>
      </g>
     </g>
     <g id="text_2">
      <!-- 200 -->
      <g style="fill: #888888" transform="translate(126.677879 273.106938) scale(0.12 -0.12)">
       <defs>
        <path id="DejaVuSans-15" d="M 1228 531 
L 3431 531 
L 3431 0 
L 469 0 
L 469 531 
Q 828 903 1448 1529 
Q 2069 2156 2228 2338 
Q 2531 2678 2651 2914 
Q 2772 3150 2772 3378 
Q 2772 3750 2511 3984 
Q 2250 4219 1831 4219 
Q 1534 4219 1204 4116 
Q 875 4013 500 3803 
L 500 4441 
Q 881 4594 1212 4672 
Q 1544 4750 1819 4750 
Q 2544 4750 2975 4387 
Q 3406 4025 3406 3419 
Q 3406 3131 3298 2873 
Q 3191 2616 2906 2266 
Q 2828 2175 2409 1742 
Q 1991 1309 1228 531 
z
" transform="scale(0.015625)"/>
       </defs>
       <use xlink:href="#DejaVuSans-15"/>
       <use xlink:href="#DejaVuSans-13" transform="translate(63.625 0)"/>
       <use xlink:href="#DejaVuSans-13" transform="translate(127.25 0)"/>
      </g>
     </g>
    </g>
    <g id="xtick_3">
     <g id="line2d_3">
      <g>
       <use xlink:href="#m8c62d794da" x="209.21965" y="256.98975" style="fill: #888888; stroke: #888888; stroke-width: 0.8"/>
      </g>
     </g>
     <g id="text_3">
      <!-- 400 -->
      <g style="fill: #888888" transform="translate(197.76715 273.106938) scale(0.12 -0.12)">
       <defs>
        <path id="DejaVuSans-17" d="M 2419 4116 
L 825 1625 
L 2419 1625 
L 2419 4116 
z
M 2253 4666 
L 3047 4666 
L 3047 1625 
L 3713 1625 
L 3713 1100 
L 3047 1100 
L 3047 0 
L 2419 0 
L 2419 1100 
L 313 1100 
L 313 1709 
L 2253 4666 
z
" transform="scale(0.015625)"/>
       </defs>
       <use xlink:href="#DejaVuSans-17"/>
       <use xlink:href="#DejaVuSans-13" transform="translate(63.625 0)"/>
       <use xlink:href="#DejaVuSans-13" transform="translate(127.25 0)"/>
      </g>
     </g>
    </g>
    <g id="xtick_4">
     <g id="line2d_4">
      <g>
       <use xlink:href="#m8c62d794da" x="280.308921" y="256.98975" style="fill: #888888; stroke: #888888; stroke-width: 0.8"/>
      </g>
     </g>
     <g id="text_4">
      <!-- 600 -->
      <g style="fill: #888888" transform="translate(268.856421 273.106938) scale(0.12 -0.12)">
       <defs>
        <path id="DejaVuSans-19" d="M 2113 2584 
Q 1688 2584 1439 2293 
Q 1191 2003 1191 1497 
Q 1191 994 1439 701 
Q 1688 409 2113 409 
Q 2538 409 2786 701 
Q 3034 994 3034 1497 
Q 3034 2003 2786 2293 
Q 2538 2584 2113 2584 
z
M 3366 4563 
L 3366 3988 
Q 3128 4100 2886 4159 
Q 2644 4219 2406 4219 
Q 1781 4219 1451 3797 
Q 1122 3375 1075 2522 
Q 1259 2794 1537 2939 
Q 1816 3084 2150 3084 
Q 2853 3084 3261 2657 
Q 3669 2231 3669 1497 
Q 3669 778 3244 343 
Q 2819 -91 2113 -91 
Q 1303 -91 875 529 
Q 447 1150 447 2328 
Q 447 3434 972 4092 
Q 1497 4750 2381 4750 
Q 2619 4750 2861 4703 
Q 3103 4656 3366 4563 
z
" transform="scale(0.015625)"/>
       </defs>
       <use xlink:href="#DejaVuSans-19"/>
       <use xlink:href="#DejaVuSans-13" transform="translate(63.625 0)"/>
       <use xlink:href="#DejaVuSans-13" transform="translate(127.25 0)"/>
      </g>
     </g>
    </g>
    <g id="xtick_5">
     <g id="line2d_5">
      <g>
       <use xlink:href="#m8c62d794da" x="351.398192" y="256.98975" style="fill: #888888; stroke: #888888; stroke-width: 0.8"/>
      </g>
     </g>
     <g id="text_5">
      <!-- 800 -->
      <g style="fill: #888888" transform="translate(339.945692 273.106938) scale(0.12 -0.12)">
       <defs>
        <path id="DejaVuSans-1b" d="M 2034 2216 
Q 1584 2216 1326 1975 
Q 1069 1734 1069 1313 
Q 1069 891 1326 650 
Q 1584 409 2034 409 
Q 2484 409 2743 651 
Q 3003 894 3003 1313 
Q 3003 1734 2745 1975 
Q 2488 2216 2034 2216 
z
M 1403 2484 
Q 997 2584 770 2862 
Q 544 3141 544 3541 
Q 544 4100 942 4425 
Q 1341 4750 2034 4750 
Q 2731 4750 3128 4425 
Q 3525 4100 3525 3541 
Q 3525 3141 3298 2862 
Q 3072 2584 2669 2484 
Q 3125 2378 3379 2068 
Q 3634 1759 3634 1313 
Q 3634 634 3220 271 
Q 2806 -91 2034 -91 
Q 1263 -91 848 271 
Q 434 634 434 1313 
Q 434 1759 690 2068 
Q 947 2378 1403 2484 
z
M 1172 3481 
Q 1172 3119 1398 2916 
Q 1625 2713 2034 2713 
Q 2441 2713 2670 2916 
Q 2900 3119 2900 3481 
Q 2900 3844 2670 4047 
Q 2441 4250 2034 4250 
Q 1625 4250 1398 4047 
Q 1172 3844 1172 3481 
z
" transform="scale(0.015625)"/>
       </defs>
       <use xlink:href="#DejaVuSans-1b"/>
       <use xlink:href="#DejaVuSans-13" transform="translate(63.625 0)"/>
       <use xlink:href="#DejaVuSans-13" transform="translate(127.25 0)"/>
      </g>
     </g>
    </g>
    <g id="xtick_6">
     <g id="line2d_6">
      <g>
       <use xlink:href="#m8c62d794da" x="422.487463" y="256.98975" style="fill: #888888; stroke: #888888; stroke-width: 0.8"/>
      </g>
     </g>
     <g id="text_6">
      <!-- 1000 -->
      <g style="fill: #888888" transform="translate(407.217463 273.106938) scale(0.12 -0.12)">
       <defs>
        <path id="DejaVuSans-14" d="M 794 531 
L 1825 531 
L 1825 4091 
L 703 3866 
L 703 4441 
L 1819 4666 
L 2450 4666 
L 2450 531 
L 3481 531 
L 3481 0 
L 794 0 
L 794 531 
z
" transform="scale(0.015625)"/>
       </defs>
       <use xlink:href="#DejaVuSans-14"/>
       <use xlink:href="#DejaVuSans-13" transform="translate(63.625 0)"/>
       <use xlink:href="#DejaVuSans-13" transform="translate(127.25 0)"/>
       <use xlink:href="#DejaVuSans-13" transform="translate(190.875 0)"/>
      </g>
     </g>
    </g>
    <g id="text_7">
     <!-- diffusion step  t -->
     <g style="fill: #888888" transform="translate(197.856875 289.107875) scale(0.12 -0.12)">
      <defs>
       <path id="DejaVuSans-47" d="M 2906 2969 
L 2906 4863 
L 3481 4863 
L 3481 0 
L 2906 0 
L 2906 525 
Q 2725 213 2448 61 
Q 2172 -91 1784 -91 
Q 1150 -91 751 415 
Q 353 922 353 1747 
Q 353 2572 751 3078 
Q 1150 3584 1784 3584 
Q 2172 3584 2448 3432 
Q 2725 3281 2906 2969 
z
M 947 1747 
Q 947 1113 1208 752 
Q 1469 391 1925 391 
Q 2381 391 2643 752 
Q 2906 1113 2906 1747 
Q 2906 2381 2643 2742 
Q 2381 3103 1925 3103 
Q 1469 3103 1208 2742 
Q 947 2381 947 1747 
z
" transform="scale(0.015625)"/>
       <path id="DejaVuSans-4c" d="M 603 3500 
L 1178 3500 
L 1178 0 
L 603 0 
L 603 3500 
z
M 603 4863 
L 1178 4863 
L 1178 4134 
L 603 4134 
L 603 4863 
z
" transform="scale(0.015625)"/>
       <path id="DejaVuSans-13ae" d="M 4531 4863 
L 4531 4384 
L 3981 4384 
Q 3672 4384 3551 4259 
Q 3431 4134 3431 3809 
L 3431 3500 
L 4378 3500 
L 4378 3053 
L 3431 3053 
L 3431 0 
L 2853 0 
L 2853 3053 
L 1275 3053 
L 1275 0 
L 697 0 
L 697 3053 
L 147 3053 
L 147 3500 
L 697 3500 
L 697 3744 
Q 697 4328 969 4595 
Q 1241 4863 1831 4863 
L 2375 4863 
L 2375 4384 
L 1825 4384 
Q 1516 4384 1394 4259 
Q 1275 4134 1275 3809 
L 1275 3500 
L 2853 3500 
L 2853 3744 
Q 2853 4328 3125 4595 
Q 3397 4863 3988 4863 
L 4531 4863 
z
" transform="scale(0.015625)"/>
       <path id="DejaVuSans-58" d="M 544 1381 
L 544 3500 
L 1119 3500 
L 1119 1403 
Q 1119 906 1312 657 
Q 1506 409 1894 409 
Q 2359 409 2629 706 
Q 2900 1003 2900 1516 
L 2900 3500 
L 3475 3500 
L 3475 0 
L 2900 0 
L 2900 538 
Q 2691 219 2414 64 
Q 2138 -91 1772 -91 
Q 1169 -91 856 284 
Q 544 659 544 1381 
z
M 1991 3584 
L 1991 3584 
z
" transform="scale(0.015625)"/>
       <path id="DejaVuSans-56" d="M 2834 3397 
L 2834 2853 
Q 2591 2978 2328 3040 
Q 2066 3103 1784 3103 
Q 1356 3103 1142 2972 
Q 928 2841 928 2578 
Q 928 2378 1081 2264 
Q 1234 2150 1697 2047 
L 1894 2003 
Q 2506 1872 2764 1633 
Q 3022 1394 3022 966 
Q 3022 478 2636 193 
Q 2250 -91 1575 -91 
Q 1294 -91 989 -36 
Q 684 19 347 128 
L 347 722 
Q 666 556 975 473 
Q 1284 391 1588 391 
Q 1994 391 2212 530 
Q 2431 669 2431 922 
Q 2431 1156 2273 1281 
Q 2116 1406 1581 1522 
L 1381 1569 
Q 847 1681 609 1914 
Q 372 2147 372 2553 
Q 372 3047 722 3315 
Q 1072 3584 1716 3584 
Q 2034 3584 2315 3537 
Q 2597 3491 2834 3397 
z
" transform="scale(0.015625)"/>
       <path id="DejaVuSans-52" d="M 1959 3097 
Q 1497 3097 1228 2736 
Q 959 2375 959 1747 
Q 959 1119 1226 758 
Q 1494 397 1959 397 
Q 2419 397 2687 759 
Q 2956 1122 2956 1747 
Q 2956 2369 2687 2733 
Q 2419 3097 1959 3097 
z
M 1959 3584 
Q 2709 3584 3137 3096 
Q 3566 2609 3566 1747 
Q 3566 888 3137 398 
Q 2709 -91 1959 -91 
Q 1206 -91 779 398 
Q 353 888 353 1747 
Q 353 2609 779 3096 
Q 1206 3584 1959 3584 
z
" transform="scale(0.015625)"/>
       <path id="DejaVuSans-51" d="M 3513 2113 
L 3513 0 
L 2938 0 
L 2938 2094 
Q 2938 2591 2744 2837 
Q 2550 3084 2163 3084 
Q 1697 3084 1428 2787 
Q 1159 2491 1159 1978 
L 1159 0 
L 581 0 
L 581 3500 
L 1159 3500 
L 1159 2956 
Q 1366 3272 1645 3428 
Q 1925 3584 2291 3584 
Q 2894 3584 3203 3211 
Q 3513 2838 3513 2113 
z
" transform="scale(0.015625)"/>
       <path id="DejaVuSans-3" transform="scale(0.015625)"/>
       <path id="DejaVuSans-57" d="M 1172 4494 
L 1172 3500 
L 2356 3500 
L 2356 3053 
L 1172 3053 
L 1172 1153 
Q 1172 725 1289 603 
Q 1406 481 1766 481 
L 2356 481 
L 2356 0 
L 1766 0 
Q 1100 0 847 248 
Q 594 497 594 1153 
L 594 3053 
L 172 3053 
L 172 3500 
L 594 3500 
L 594 4494 
L 1172 4494 
z
" transform="scale(0.015625)"/>
       <path id="DejaVuSans-48" d="M 3597 1894 
L 3597 1613 
L 953 1613 
Q 991 1019 1311 708 
Q 1631 397 2203 397 
Q 2534 397 2845 478 
Q 3156 559 3463 722 
L 3463 178 
Q 3153 47 2828 -22 
Q 2503 -91 2169 -91 
Q 1331 -91 842 396 
Q 353 884 353 1716 
Q 353 2575 817 3079 
Q 1281 3584 2069 3584 
Q 2775 3584 3186 3129 
Q 3597 2675 3597 1894 
z
M 3022 2063 
Q 3016 2534 2758 2815 
Q 2500 3097 2075 3097 
Q 1594 3097 1305 2825 
Q 1016 2553 972 2059 
L 3022 2063 
z
" transform="scale(0.015625)"/>
       <path id="DejaVuSans-53" d="M 1159 525 
L 1159 -1331 
L 581 -1331 
L 581 3500 
L 1159 3500 
L 1159 2969 
Q 1341 3281 1617 3432 
Q 1894 3584 2278 3584 
Q 2916 3584 3314 3078 
Q 3713 2572 3713 1747 
Q 3713 922 3314 415 
Q 2916 -91 2278 -91 
Q 1894 -91 1617 61 
Q 1341 213 1159 525 
z
M 3116 1747 
Q 3116 2381 2855 2742 
Q 2594 3103 2138 3103 
Q 1681 3103 1420 2742 
Q 1159 2381 1159 1747 
Q 1159 1113 1420 752 
Q 1681 391 2138 391 
Q 2594 391 2855 752 
Q 3116 1113 3116 1747 
z
" transform="scale(0.015625)"/>
      </defs>
      <use xlink:href="#DejaVuSans-47"/>
      <use xlink:href="#DejaVuSans-4c" transform="translate(63.484375 0)"/>
      <use xlink:href="#DejaVuSans-13ae" transform="translate(91.265625 0)"/>
      <use xlink:href="#DejaVuSans-58" transform="translate(160.15625 0)"/>
      <use xlink:href="#DejaVuSans-56" transform="translate(223.53125 0)"/>
      <use xlink:href="#DejaVuSans-4c" transform="translate(275.625 0)"/>
      <use xlink:href="#DejaVuSans-52" transform="translate(303.40625 0)"/>
      <use xlink:href="#DejaVuSans-51" transform="translate(364.59375 0)"/>
      <use xlink:href="#DejaVuSans-3" transform="translate(427.96875 0)"/>
      <use xlink:href="#DejaVuSans-56" transform="translate(459.75 0)"/>
      <use xlink:href="#DejaVuSans-57" transform="translate(511.84375 0)"/>
      <use xlink:href="#DejaVuSans-48" transform="translate(551.046875 0)"/>
      <use xlink:href="#DejaVuSans-53" transform="translate(612.578125 0)"/>
      <use xlink:href="#DejaVuSans-3" transform="translate(676.0625 0)"/>
      <use xlink:href="#DejaVuSans-3" transform="translate(707.84375 0)"/>
      <use xlink:href="#DejaVuSans-57" transform="translate(739.625 0)"/>
     </g>
    </g>
   </g>
   <g id="matplotlib.axis_2">
    <g id="ytick_1">
     <g id="line2d_7">
      <defs>
       <path id="m0cf9aa8b60" d="M 0 0 
L -3.5 0 
" style="stroke: #888888; stroke-width: 0.8"/>
      </defs>
      <g>
       <use xlink:href="#m0cf9aa8b60" x="49.286563" y="252.511904" style="fill: #888888; stroke: #888888; stroke-width: 0.8"/>
      </g>
     </g>
     <g id="text_8">
      <!-- 0.0 -->
      <g style="fill: #888888" transform="translate(23.202813 257.070498) scale(0.12 -0.12)">
       <defs>
        <path id="DejaVuSans-11" d="M 684 794 
L 1344 794 
L 1344 0 
L 684 0 
L 684 794 
z
" transform="scale(0.015625)"/>
       </defs>
       <use xlink:href="#DejaVuSans-13"/>
       <use xlink:href="#DejaVuSans-11" transform="translate(63.625 0)"/>
       <use xlink:href="#DejaVuSans-13" transform="translate(95.40625 0)"/>
      </g>
     </g>
    </g>
    <g id="ytick_2">
     <g id="line2d_8">
      <g>
       <use xlink:href="#m0cf9aa8b60" x="49.286563" y="207.733442" style="fill: #888888; stroke: #888888; stroke-width: 0.8"/>
      </g>
     </g>
     <g id="text_9">
      <!-- 0.2 -->
      <g style="fill: #888888" transform="translate(23.202813 212.292036) scale(0.12 -0.12)">
       <use xlink:href="#DejaVuSans-13"/>
       <use xlink:href="#DejaVuSans-11" transform="translate(63.625 0)"/>
       <use xlink:href="#DejaVuSans-15" transform="translate(95.40625 0)"/>
      </g>
     </g>
    </g>
    <g id="ytick_3">
     <g id="line2d_9">
      <g>
       <use xlink:href="#m0cf9aa8b60" x="49.286563" y="162.954981" style="fill: #888888; stroke: #888888; stroke-width: 0.8"/>
      </g>
     </g>
     <g id="text_10">
      <!-- 0.4 -->
      <g style="fill: #888888" transform="translate(23.202813 167.513575) scale(0.12 -0.12)">
       <use xlink:href="#DejaVuSans-13"/>
       <use xlink:href="#DejaVuSans-11" transform="translate(63.625 0)"/>
       <use xlink:href="#DejaVuSans-17" transform="translate(95.40625 0)"/>
      </g>
     </g>
    </g>
    <g id="ytick_4">
     <g id="line2d_10">
      <g>
       <use xlink:href="#m0cf9aa8b60" x="49.286563" y="118.176519" style="fill: #888888; stroke: #888888; stroke-width: 0.8"/>
      </g>
     </g>
     <g id="text_11">
      <!-- 0.6 -->
      <g style="fill: #888888" transform="translate(23.202813 122.735113) scale(0.12 -0.12)">
       <use xlink:href="#DejaVuSans-13"/>
       <use xlink:href="#DejaVuSans-11" transform="translate(63.625 0)"/>
       <use xlink:href="#DejaVuSans-19" transform="translate(95.40625 0)"/>
      </g>
     </g>
    </g>
    <g id="ytick_5">
     <g id="line2d_11">
      <g>
       <use xlink:href="#m0cf9aa8b60" x="49.286563" y="73.398058" style="fill: #888888; stroke: #888888; stroke-width: 0.8"/>
      </g>
     </g>
     <g id="text_12">
      <!-- 0.8 -->
      <g style="fill: #888888" transform="translate(23.202813 77.956651) scale(0.12 -0.12)">
       <use xlink:href="#DejaVuSans-13"/>
       <use xlink:href="#DejaVuSans-11" transform="translate(63.625 0)"/>
       <use xlink:href="#DejaVuSans-1b" transform="translate(95.40625 0)"/>
      </g>
     </g>
    </g>
    <g id="ytick_6">
     <g id="line2d_12">
      <g>
       <use xlink:href="#m0cf9aa8b60" x="49.286563" y="28.619596" style="fill: #888888; stroke: #888888; stroke-width: 0.8"/>
      </g>
     </g>
     <g id="text_13">
      <!-- 1.0 -->
      <g style="fill: #888888" transform="translate(23.202813 33.17819) scale(0.12 -0.12)">
       <use xlink:href="#DejaVuSans-14"/>
       <use xlink:href="#DejaVuSans-11" transform="translate(63.625 0)"/>
       <use xlink:href="#DejaVuSans-13" transform="translate(95.40625 0)"/>
      </g>
     </g>
    </g>
    <g id="text_14">
     <!-- $\bar{\alpha}_t$  (signal retained) -->
     <g style="fill: #888888" transform="translate(16.32 199.60575) rotate(-90) scale(0.12 -0.12)">
      <defs>
       <path id="DejaVuSans-2b5" d="M -2522 4769 
L -654 4769 
L -654 4306 
L -2522 4306 
L -2522 4769 
z
" transform="scale(0.015625)"/>
       <path id="DejaVuSans-Oblique-345" d="M 2619 1628 
L 2622 2350 
Q 2625 3088 2069 3091 
Q 1653 3094 1394 2747 
Q 1069 2319 959 1747 
Q 825 1059 994 731 
Q 1169 397 1547 397 
Q 1966 397 2319 1063 
L 2619 1628 
z
M 2166 3578 
Q 3141 3594 3128 2584 
Q 3128 2584 3616 3500 
L 4128 3500 
L 3119 1603 
L 3109 919 
Q 3109 766 3194 638 
Q 3291 488 3391 488 
L 3669 488 
L 3575 0 
L 3228 0 
Q 2934 0 2722 263 
Q 2622 394 2619 669 
Q 2416 334 2066 50 
Q 1900 -81 1453 -78 
Q 722 -72 456 397 
Q 184 884 353 1747 
Q 534 2675 1009 3097 
Q 1544 3569 2166 3578 
z
" transform="scale(0.015625)"/>
       <path id="DejaVuSans-Oblique-57" d="M 2706 3500 
L 2619 3053 
L 1472 3053 
L 1100 1153 
Q 1081 1047 1072 975 
Q 1063 903 1063 863 
Q 1063 663 1183 572 
Q 1303 481 1569 481 
L 2150 481 
L 2053 0 
L 1503 0 
Q 991 0 739 200 
Q 488 400 488 806 
Q 488 878 497 964 
Q 506 1050 525 1153 
L 897 3053 
L 409 3053 
L 500 3500 
L 978 3500 
L 1172 4494 
L 1747 4494 
L 1556 3500 
L 2706 3500 
z
" transform="scale(0.015625)"/>
       <path id="DejaVuSans-b" d="M 1984 4856 
Q 1566 4138 1362 3434 
Q 1159 2731 1159 2009 
Q 1159 1288 1364 580 
Q 1569 -128 1984 -844 
L 1484 -844 
Q 1016 -109 783 600 
Q 550 1309 550 2009 
Q 550 2706 781 3412 
Q 1013 4119 1484 4856 
L 1984 4856 
z
" transform="scale(0.015625)"/>
       <path id="DejaVuSans-4a" d="M 2906 1791 
Q 2906 2416 2648 2759 
Q 2391 3103 1925 3103 
Q 1463 3103 1205 2759 
Q 947 2416 947 1791 
Q 947 1169 1205 825 
Q 1463 481 1925 481 
Q 2391 481 2648 825 
Q 2906 1169 2906 1791 
z
M 3481 434 
Q 3481 -459 3084 -895 
Q 2688 -1331 1869 -1331 
Q 1566 -1331 1297 -1286 
Q 1028 -1241 775 -1147 
L 775 -588 
Q 1028 -725 1275 -790 
Q 1522 -856 1778 -856 
Q 2344 -856 2625 -561 
Q 2906 -266 2906 331 
L 2906 616 
Q 2728 306 2450 153 
Q 2172 0 1784 0 
Q 1141 0 747 490 
Q 353 981 353 1791 
Q 353 2603 747 3093 
Q 1141 3584 1784 3584 
Q 2172 3584 2450 3431 
Q 2728 3278 2906 2969 
L 2906 3500 
L 3481 3500 
L 3481 434 
z
" transform="scale(0.015625)"/>
       <path id="DejaVuSans-44" d="M 2194 1759 
Q 1497 1759 1228 1600 
Q 959 1441 959 1056 
Q 959 750 1161 570 
Q 1363 391 1709 391 
Q 2188 391 2477 730 
Q 2766 1069 2766 1631 
L 2766 1759 
L 2194 1759 
z
M 3341 1997 
L 3341 0 
L 2766 0 
L 2766 531 
Q 2569 213 2275 61 
Q 1981 -91 1556 -91 
Q 1019 -91 701 211 
Q 384 513 384 1019 
Q 384 1609 779 1909 
Q 1175 2209 1959 2209 
L 2766 2209 
L 2766 2266 
Q 2766 2663 2505 2880 
Q 2244 3097 1772 3097 
Q 1472 3097 1187 3025 
Q 903 2953 641 2809 
L 641 3341 
Q 956 3463 1253 3523 
Q 1550 3584 1831 3584 
Q 2591 3584 2966 3190 
Q 3341 2797 3341 1997 
z
" transform="scale(0.015625)"/>
       <path id="DejaVuSans-4f" d="M 603 4863 
L 1178 4863 
L 1178 0 
L 603 0 
L 603 4863 
z
" transform="scale(0.015625)"/>
       <path id="DejaVuSans-55" d="M 2631 2963 
Q 2534 3019 2420 3045 
Q 2306 3072 2169 3072 
Q 1681 3072 1420 2755 
Q 1159 2438 1159 1844 
L 1159 0 
L 581 0 
L 581 3500 
L 1159 3500 
L 1159 2956 
Q 1341 3275 1631 3429 
Q 1922 3584 2338 3584 
Q 2397 3584 2469 3576 
Q 2541 3569 2628 3553 
L 2631 2963 
z
" transform="scale(0.015625)"/>
       <path id="DejaVuSans-c" d="M 513 4856 
L 1013 4856 
Q 1481 4119 1714 3412 
Q 1947 2706 1947 2009 
Q 1947 1309 1714 600 
Q 1481 -109 1013 -844 
L 513 -844 
Q 928 -128 1133 580 
Q 1338 1288 1338 2009 
Q 1338 2731 1133 3434 
Q 928 4138 513 4856 
z
" transform="scale(0.015625)"/>
      </defs>
      <use xlink:href="#DejaVuSans-2b5" transform="translate(65.885742 1.390625)"/>
      <use xlink:href="#DejaVuSans-Oblique-345" transform="translate(0 0.015625)"/>
      <use xlink:href="#DejaVuSans-Oblique-57" transform="translate(66.875 -14.984326) scale(0.7)"/>
      <use xlink:href="#DejaVuSans-3" transform="translate(97.055664 0.015625)"/>
      <use xlink:href="#DejaVuSans-3" transform="translate(128.842773 0.015625)"/>
      <use xlink:href="#DejaVuSans-b" transform="translate(160.629883 0.015625)"/>
      <use xlink:href="#DejaVuSans-56" transform="translate(199.643555 0.015625)"/>
      <use xlink:href="#DejaVuSans-4c" transform="translate(251.743164 0.015625)"/>
      <use xlink:href="#DejaVuSans-4a" transform="translate(279.526367 0.015625)"/>
      <use xlink:href="#DejaVuSans-51" transform="translate(343.00293 0.015625)"/>
      <use xlink:href="#DejaVuSans-44" transform="translate(406.381836 0.015625)"/>
      <use xlink:href="#DejaVuSans-4f" transform="translate(467.661133 0.015625)"/>
      <use xlink:href="#DejaVuSans-3" transform="translate(495.444336 0.015625)"/>
      <use xlink:href="#DejaVuSans-55" transform="translate(527.231445 0.015625)"/>
      <use xlink:href="#DejaVuSans-48" transform="translate(566.344727 0.015625)"/>
      <use xlink:href="#DejaVuSans-57" transform="translate(627.868164 0.015625)"/>
      <use xlink:href="#DejaVuSans-44" transform="translate(667.077148 0.015625)"/>
      <use xlink:href="#DejaVuSans-4c" transform="translate(728.356445 0.015625)"/>
      <use xlink:href="#DejaVuSans-51" transform="translate(756.139648 0.015625)"/>
      <use xlink:href="#DejaVuSans-48" transform="translate(819.518555 0.015625)"/>
      <use xlink:href="#DejaVuSans-47" transform="translate(881.041992 0.015625)"/>
      <use xlink:href="#DejaVuSans-c" transform="translate(944.518555 0.015625)"/>
     </g>
    </g>
   </g>
   <g id="line2d_13">
    <path d="M 67.041108 28.641985 
L 69.529232 28.923409 
L 72.017357 29.422392 
L 74.505481 30.137506 
L 76.993606 31.066695 
L 79.837177 32.387299 
L 82.680748 33.979038 
L 85.524318 35.835951 
L 88.367889 37.951113 
L 91.566906 40.629551 
L 94.765924 43.61239 
L 97.964941 46.88584 
L 101.519404 50.845582 
L 105.429314 55.567856 
L 109.339224 60.643622 
L 113.604581 66.54494 
L 118.225383 73.315969 
L 123.557078 81.541782 
L 129.599667 91.287656 
L 137.419486 104.356137 
L 163.36707 148.094702 
L 170.120551 158.836814 
L 176.163139 168.027558 
L 181.494834 175.755371 
L 186.82653 183.090216 
L 191.802779 189.559145 
L 196.779028 195.649315 
L 201.39983 200.957564 
L 206.020633 205.928573 
L 210.641436 210.56285 
L 215.262238 214.864092 
L 219.527594 218.544475 
L 223.792951 221.953619 
L 228.058307 225.100055 
L 232.67911 228.223647 
L 237.299912 231.064315 
L 241.920715 233.637019 
L 246.541517 235.957503 
L 251.16232 238.042002 
L 256.138569 240.041819 
L 261.114818 241.80758 
L 266.446513 243.462705 
L 272.133655 244.984803 
L 278.176243 246.357425 
L 284.574277 247.570464 
L 291.327758 248.620194 
L 298.792132 249.548233 
L 306.967398 250.335115 
L 316.209003 250.995776 
L 326.872394 251.529888 
L 339.668463 251.942597 
L 356.018995 252.23886 
L 379.478454 252.423623 
L 422.132017 252.502868 
L 422.132017 252.502868 
" clip-path="url(#p1e19724886)" style="fill: none; stroke: #e76f51; stroke-width: 2.4; stroke-linecap: square"/>
   </g>
   <g id="line2d_14">
    <path d="M 67.041108 28.628839 
L 72.017357 28.872334 
L 76.993606 29.32841 
L 81.969855 29.996199 
L 87.30155 30.945173 
L 92.633246 32.133646 
L 97.964941 33.559022 
L 103.296636 35.218187 
L 108.628332 37.107514 
L 113.960027 39.222875 
L 119.647169 41.723183 
L 125.33431 44.469186 
L 131.021452 47.454057 
L 137.06404 50.8789 
L 143.106628 54.555406 
L 149.504662 58.711003 
L 156.258143 63.376537 
L 163.011624 68.312602 
L 170.120551 73.781689 
L 177.584924 79.802942 
L 185.760191 86.695138 
L 194.290903 94.181336 
L 203.887955 102.911114 
L 214.551345 112.920515 
L 227.702861 125.588278 
L 251.873213 149.263332 
L 268.579191 165.462584 
L 280.308921 176.537855 
L 290.261419 185.641301 
L 299.147578 193.481414 
L 307.322844 200.411729 
L 315.142664 206.75348 
L 322.607038 212.517135 
L 329.715965 217.720163 
L 336.469445 222.385697 
L 342.86748 226.541293 
L 349.265514 230.426325 
L 355.308102 233.836058 
L 361.35069 236.983973 
L 367.037832 239.699625 
L 372.724974 242.168771 
L 378.412115 244.385273 
L 383.743811 246.228882 
L 389.075506 247.841563 
L 394.407201 249.219791 
L 399.738897 250.360556 
L 405.070592 251.261363 
L 410.046841 251.883879 
L 415.02309 252.294461 
L 419.999339 252.492328 
L 422.132017 252.511903 
L 422.132017 252.511903 
" clip-path="url(#p1e19724886)" style="fill: none; stroke: #2a9d8f; stroke-width: 2.4; stroke-linecap: square"/>
   </g>
   <g id="patch_3">
    <path d="M 49.286563 256.98975 
L 49.286563 24.14175 
" style="fill: none; stroke: #888888; stroke-width: 0.8; stroke-linejoin: miter; stroke-linecap: square"/>
   </g>
   <g id="patch_4">
    <path d="M 49.286563 256.98975 
L 439.886563 256.98975 
" style="fill: none; stroke: #888888; stroke-width: 0.8; stroke-linejoin: miter; stroke-linecap: square"/>
   </g>
   <g id="text_15">
    <!-- How fast each schedule destroys the image -->
    <g style="fill: #888888" transform="translate(86.960563 18.14175) scale(0.144 -0.144)">
     <defs>
      <path id="DejaVuSans-2b" d="M 628 4666 
L 1259 4666 
L 1259 2753 
L 3553 2753 
L 3553 4666 
L 4184 4666 
L 4184 0 
L 3553 0 
L 3553 2222 
L 1259 2222 
L 1259 0 
L 628 0 
L 628 4666 
z
" transform="scale(0.015625)"/>
      <path id="DejaVuSans-5a" d="M 269 3500 
L 844 3500 
L 1563 769 
L 2278 3500 
L 2956 3500 
L 3675 769 
L 4391 3500 
L 4966 3500 
L 4050 0 
L 3372 0 
L 2619 2869 
L 1863 0 
L 1184 0 
L 269 3500 
z
" transform="scale(0.015625)"/>
      <path id="DejaVuSans-49" d="M 2375 4863 
L 2375 4384 
L 1825 4384 
Q 1516 4384 1395 4259 
Q 1275 4134 1275 3809 
L 1275 3500 
L 2222 3500 
L 2222 3053 
L 1275 3053 
L 1275 0 
L 697 0 
L 697 3053 
L 147 3053 
L 147 3500 
L 697 3500 
L 697 3744 
Q 697 4328 969 4595 
Q 1241 4863 1831 4863 
L 2375 4863 
z
" transform="scale(0.015625)"/>
      <path id="DejaVuSans-46" d="M 3122 3366 
L 3122 2828 
Q 2878 2963 2633 3030 
Q 2388 3097 2138 3097 
Q 1578 3097 1268 2742 
Q 959 2388 959 1747 
Q 959 1106 1268 751 
Q 1578 397 2138 397 
Q 2388 397 2633 464 
Q 2878 531 3122 666 
L 3122 134 
Q 2881 22 2623 -34 
Q 2366 -91 2075 -91 
Q 1284 -91 818 406 
Q 353 903 353 1747 
Q 353 2603 823 3093 
Q 1294 3584 2113 3584 
Q 2378 3584 2631 3529 
Q 2884 3475 3122 3366 
z
" transform="scale(0.015625)"/>
      <path id="DejaVuSans-4b" d="M 3513 2113 
L 3513 0 
L 2938 0 
L 2938 2094 
Q 2938 2591 2744 2837 
Q 2550 3084 2163 3084 
Q 1697 3084 1428 2787 
Q 1159 2491 1159 1978 
L 1159 0 
L 581 0 
L 581 4863 
L 1159 4863 
L 1159 2956 
Q 1366 3272 1645 3428 
Q 1925 3584 2291 3584 
Q 2894 3584 3203 3211 
Q 3513 2838 3513 2113 
z
" transform="scale(0.015625)"/>
      <path id="DejaVuSans-5c" d="M 2059 -325 
Q 1816 -950 1584 -1140 
Q 1353 -1331 966 -1331 
L 506 -1331 
L 506 -850 
L 844 -850 
Q 1081 -850 1212 -737 
Q 1344 -625 1503 -206 
L 1606 56 
L 191 3500 
L 800 3500 
L 1894 763 
L 2988 3500 
L 3597 3500 
L 2059 -325 
z
" transform="scale(0.015625)"/>
      <path id="DejaVuSans-50" d="M 3328 2828 
Q 3544 3216 3844 3400 
Q 4144 3584 4550 3584 
Q 5097 3584 5394 3201 
Q 5691 2819 5691 2113 
L 5691 0 
L 5113 0 
L 5113 2094 
Q 5113 2597 4934 2840 
Q 4756 3084 4391 3084 
Q 3944 3084 3684 2787 
Q 3425 2491 3425 1978 
L 3425 0 
L 2847 0 
L 2847 2094 
Q 2847 2600 2669 2842 
Q 2491 3084 2119 3084 
Q 1678 3084 1418 2786 
Q 1159 2488 1159 1978 
L 1159 0 
L 581 0 
L 581 3500 
L 1159 3500 
L 1159 2956 
Q 1356 3278 1631 3431 
Q 1906 3584 2284 3584 
Q 2666 3584 2933 3390 
Q 3200 3197 3328 2828 
z
" transform="scale(0.015625)"/>
     </defs>
     <use xlink:href="#DejaVuSans-2b"/>
     <use xlink:href="#DejaVuSans-52" transform="translate(75.203125 0)"/>
     <use xlink:href="#DejaVuSans-5a" transform="translate(136.390625 0)"/>
     <use xlink:href="#DejaVuSans-3" transform="translate(218.171875 0)"/>
     <use xlink:href="#DejaVuSans-49" transform="translate(249.953125 0)"/>
     <use xlink:href="#DejaVuSans-44" transform="translate(285.15625 0)"/>
     <use xlink:href="#DejaVuSans-56" transform="translate(346.4375 0)"/>
     <use xlink:href="#DejaVuSans-57" transform="translate(398.53125 0)"/>
     <use xlink:href="#DejaVuSans-3" transform="translate(437.734375 0)"/>
     <use xlink:href="#DejaVuSans-48" transform="translate(469.515625 0)"/>
     <use xlink:href="#DejaVuSans-44" transform="translate(531.046875 0)"/>
     <use xlink:href="#DejaVuSans-46" transform="translate(592.328125 0)"/>
     <use xlink:href="#DejaVuSans-4b" transform="translate(647.3125 0)"/>
     <use xlink:href="#DejaVuSans-3" transform="translate(710.6875 0)"/>
     <use xlink:href="#DejaVuSans-56" transform="translate(742.46875 0)"/>
     <use xlink:href="#DejaVuSans-46" transform="translate(794.5625 0)"/>
     <use xlink:href="#DejaVuSans-4b" transform="translate(849.546875 0)"/>
     <use xlink:href="#DejaVuSans-48" transform="translate(912.921875 0)"/>
     <use xlink:href="#DejaVuSans-47" transform="translate(974.453125 0)"/>
     <use xlink:href="#DejaVuSans-58" transform="translate(1037.9375 0)"/>
     <use xlink:href="#DejaVuSans-4f" transform="translate(1101.3125 0)"/>
     <use xlink:href="#DejaVuSans-48" transform="translate(1129.09375 0)"/>
     <use xlink:href="#DejaVuSans-3" transform="translate(1190.625 0)"/>
     <use xlink:href="#DejaVuSans-47" transform="translate(1222.40625 0)"/>
     <use xlink:href="#DejaVuSans-48" transform="translate(1285.890625 0)"/>
     <use xlink:href="#DejaVuSans-56" transform="translate(1347.421875 0)"/>
     <use xlink:href="#DejaVuSans-57" transform="translate(1399.515625 0)"/>
     <use xlink:href="#DejaVuSans-55" transform="translate(1438.71875 0)"/>
     <use xlink:href="#DejaVuSans-52" transform="translate(1477.625 0)"/>
     <use xlink:href="#DejaVuSans-5c" transform="translate(1538.8125 0)"/>
     <use xlink:href="#DejaVuSans-56" transform="translate(1598 0)"/>
     <use xlink:href="#DejaVuSans-3" transform="translate(1650.09375 0)"/>
     <use xlink:href="#DejaVuSans-57" transform="translate(1681.875 0)"/>
     <use xlink:href="#DejaVuSans-4b" transform="translate(1721.078125 0)"/>
     <use xlink:href="#DejaVuSans-48" transform="translate(1784.453125 0)"/>
     <use xlink:href="#DejaVuSans-3" transform="translate(1845.984375 0)"/>
     <use xlink:href="#DejaVuSans-4c" transform="translate(1877.765625 0)"/>
     <use xlink:href="#DejaVuSans-50" transform="translate(1905.546875 0)"/>
     <use xlink:href="#DejaVuSans-44" transform="translate(2002.953125 0)"/>
     <use xlink:href="#DejaVuSans-4a" transform="translate(2064.234375 0)"/>
     <use xlink:href="#DejaVuSans-48" transform="translate(2127.71875 0)"/>
    </g>
   </g>
   <g id="legend_1">
    <g id="line2d_15">
     <path d="M 208.781563 39.859875 
L 220.781563 39.859875 
L 232.781563 39.859875 
" style="fill: none; stroke: #e76f51; stroke-width: 2.4; stroke-linecap: square"/>
    </g>
    <g id="text_16">
     <!-- linear (DDPM, 2020) -->
     <g style="fill: #888888" transform="translate(242.381563 44.059875) scale(0.12 -0.12)">
      <defs>
       <path id="DejaVuSans-27" d="M 1259 4147 
L 1259 519 
L 2022 519 
Q 2988 519 3436 956 
Q 3884 1394 3884 2338 
Q 3884 3275 3436 3711 
Q 2988 4147 2022 4147 
L 1259 4147 
z
M 628 4666 
L 1925 4666 
Q 3281 4666 3915 4102 
Q 4550 3538 4550 2338 
Q 4550 1131 3912 565 
Q 3275 0 1925 0 
L 628 0 
L 628 4666 
z
" transform="scale(0.015625)"/>
       <path id="DejaVuSans-33" d="M 1259 4147 
L 1259 2394 
L 2053 2394 
Q 2494 2394 2734 2622 
Q 2975 2850 2975 3272 
Q 2975 3691 2734 3919 
Q 2494 4147 2053 4147 
L 1259 4147 
z
M 628 4666 
L 2053 4666 
Q 2838 4666 3239 4311 
Q 3641 3956 3641 3272 
Q 3641 2581 3239 2228 
Q 2838 1875 2053 1875 
L 1259 1875 
L 1259 0 
L 628 0 
L 628 4666 
z
" transform="scale(0.015625)"/>
       <path id="DejaVuSans-30" d="M 628 4666 
L 1569 4666 
L 2759 1491 
L 3956 4666 
L 4897 4666 
L 4897 0 
L 4281 0 
L 4281 4097 
L 3078 897 
L 2444 897 
L 1241 4097 
L 1241 0 
L 628 0 
L 628 4666 
z
" transform="scale(0.015625)"/>
       <path id="DejaVuSans-f" d="M 750 794 
L 1409 794 
L 1409 256 
L 897 -744 
L 494 -744 
L 750 256 
L 750 794 
z
" transform="scale(0.015625)"/>
      </defs>
      <use xlink:href="#DejaVuSans-4f"/>
      <use xlink:href="#DejaVuSans-4c" transform="translate(27.78125 0)"/>
      <use xlink:href="#DejaVuSans-51" transform="translate(55.5625 0)"/>
      <use xlink:href="#DejaVuSans-48" transform="translate(118.9375 0)"/>
      <use xlink:href="#DejaVuSans-44" transform="translate(180.46875 0)"/>
      <use xlink:href="#DejaVuSans-55" transform="translate(241.75 0)"/>
      <use xlink:href="#DejaVuSans-3" transform="translate(282.859375 0)"/>
      <use xlink:href="#DejaVuSans-b" transform="translate(314.640625 0)"/>
      <use xlink:href="#DejaVuSans-27" transform="translate(353.65625 0)"/>
      <use xlink:href="#DejaVuSans-27" transform="translate(430.65625 0)"/>
      <use xlink:href="#DejaVuSans-33" transform="translate(507.65625 0)"/>
      <use xlink:href="#DejaVuSans-30" transform="translate(567.953125 0)"/>
      <use xlink:href="#DejaVuSans-f" transform="translate(654.234375 0)"/>
      <use xlink:href="#DejaVuSans-3" transform="translate(686.015625 0)"/>
      <use xlink:href="#DejaVuSans-15" transform="translate(717.796875 0)"/>
      <use xlink:href="#DejaVuSans-13" transform="translate(781.421875 0)"/>
      <use xlink:href="#DejaVuSans-15" transform="translate(845.046875 0)"/>
      <use xlink:href="#DejaVuSans-13" transform="translate(908.671875 0)"/>
      <use xlink:href="#DejaVuSans-c" transform="translate(972.296875 0)"/>
     </g>
    </g>
    <g id="line2d_16">
     <path d="M 208.781563 57.860812 
L 220.781563 57.860812 
L 232.781563 57.860812 
" style="fill: none; stroke: #2a9d8f; stroke-width: 2.4; stroke-linecap: square"/>
    </g>
    <g id="text_17">
     <!-- cosine (Improved DDPM, 2021) -->
     <g style="fill: #888888" transform="translate(242.381563 62.060812) scale(0.12 -0.12)">
      <defs>
       <path id="DejaVuSans-2c" d="M 628 4666 
L 1259 4666 
L 1259 0 
L 628 0 
L 628 4666 
z
" transform="scale(0.015625)"/>
       <path id="DejaVuSans-59" d="M 191 3500 
L 800 3500 
L 1894 563 
L 2988 3500 
L 3597 3500 
L 2284 0 
L 1503 0 
L 191 3500 
z
" transform="scale(0.015625)"/>
      </defs>
      <use xlink:href="#DejaVuSans-46"/>
      <use xlink:href="#DejaVuSans-52" transform="translate(54.984375 0)"/>
      <use xlink:href="#DejaVuSans-56" transform="translate(116.171875 0)"/>
      <use xlink:href="#DejaVuSans-4c" transform="translate(168.265625 0)"/>
      <use xlink:href="#DejaVuSans-51" transform="translate(196.046875 0)"/>
      <use xlink:href="#DejaVuSans-48" transform="translate(259.421875 0)"/>
      <use xlink:href="#DejaVuSans-3" transform="translate(320.953125 0)"/>
      <use xlink:href="#DejaVuSans-b" transform="translate(352.734375 0)"/>
      <use xlink:href="#DejaVuSans-2c" transform="translate(391.75 0)"/>
      <use xlink:href="#DejaVuSans-50" transform="translate(421.25 0)"/>
      <use xlink:href="#DejaVuSans-53" transform="translate(518.65625 0)"/>
      <use xlink:href="#DejaVuSans-55" transform="translate(582.140625 0)"/>
      <use xlink:href="#DejaVuSans-52" transform="translate(621.046875 0)"/>
      <use xlink:href="#DejaVuSans-59" transform="translate(682.234375 0)"/>
      <use xlink:href="#DejaVuSans-48" transform="translate(741.421875 0)"/>
      <use xlink:href="#DejaVuSans-47" transform="translate(802.953125 0)"/>
      <use xlink:href="#DejaVuSans-3" transform="translate(866.4375 0)"/>
      <use xlink:href="#DejaVuSans-27" transform="translate(898.21875 0)"/>
      <use xlink:href="#DejaVuSans-27" transform="translate(975.21875 0)"/>
      <use xlink:href="#DejaVuSans-33" transform="translate(1052.21875 0)"/>
      <use xlink:href="#DejaVuSans-30" transform="translate(1112.515625 0)"/>
      <use xlink:href="#DejaVuSans-f" transform="translate(1198.796875 0)"/>
      <use xlink:href="#DejaVuSans-3" transform="translate(1230.578125 0)"/>
      <use xlink:href="#DejaVuSans-15" transform="translate(1262.359375 0)"/>
      <use xlink:href="#DejaVuSans-13" transform="translate(1325.984375 0)"/>
      <use xlink:href="#DejaVuSans-15" transform="translate(1389.609375 0)"/>
      <use xlink:href="#DejaVuSans-14" transform="translate(1453.234375 0)"/>
      <use xlink:href="#DejaVuSans-c" transform="translate(1516.859375 0)"/>
     </g>
    </g>
   </g>
  </g>
 </g>
 <defs>
  <clipPath id="p1e19724886">
   <rect x="49.286563" y="24.14175" width="390.6" height="232.848"/>
  </clipPath>
 </defs>
</svg>
